# Blender v2.92.0 OBJ File: ''
# www.blender.org
mtllib jupiter.mtl
o Jupiter.004
v 0.826461 0.328356 -0.169894
v 0.762237 0.479080 -0.099880
v 0.796259 0.428142 0.052906
v 0.862579 0.274281 -0.007698
v 0.243253 -0.804027 -0.342147
v 0.400542 -0.724663 -0.368718
v 0.414635 -0.745762 -0.305432
v 0.250437 -0.814783 -0.309884
v 0.858766 0.165045 -0.233379
v 0.895591 0.109910 -0.068005
v 0.085152 0.869744 0.251087
v -0.084742 0.854100 0.302428
v 0.092336 0.858987 0.283350
v 0.076456 -0.852461 -0.302428
v 0.857909 -0.004577 -0.287896
v 0.894027 -0.058653 -0.125699
v 0.251614 0.851995 0.190097
v 0.265707 0.830895 0.253383
v 0.823924 -0.173992 -0.331348
v 0.857947 -0.224930 -0.178563
v 0.408248 0.801535 0.121802
v 0.428707 0.770904 0.213678
v 0.758117 -0.336689 -0.362067
v 0.788737 -0.382532 -0.224564
v 0.549034 0.720305 0.048825
v 0.575073 0.681319 0.165762
v 0.663018 -0.486416 -0.378873
v 0.689057 -0.525402 -0.261936
v 0.668561 0.611425 -0.026027
v 0.699180 0.565582 0.111476
v 0.542279 -0.617419 -0.381119
v 0.562739 -0.648050 -0.289242
v 0.701051 0.516253 0.251152
v 0.798337 0.373331 0.208106
v 0.563988 -0.681010 -0.195913
v 0.415495 -0.768465 -0.241146
v 0.864785 0.216093 0.157062
v 0.250876 -0.826357 -0.277112
v 0.897840 0.050583 0.099982
v 0.092775 0.847413 0.316123
v 0.896233 -0.116840 0.039060
v 0.266568 0.808192 0.317669
v 0.860025 -0.279742 -0.023363
v 0.429957 0.737943 0.307007
v 0.790607 -0.431861 -0.084888
v 0.576664 0.639368 0.284547
v 0.690648 -0.567353 -0.143151
v 0.864443 -0.176903 0.200051
v 0.830079 -0.336320 0.128287
v 0.254164 0.784756 0.380485
v 0.411949 0.703920 0.398201
v 0.763657 -0.482780 0.051594
v 0.553744 0.596065 0.400615
v 0.667728 -0.610656 -0.027083
v 0.674100 0.465334 0.387634
v 0.545980 -0.715033 -0.104719
v 0.768391 0.316753 0.359756
v 0.403091 -0.791901 -0.178330
v 0.832994 0.156030 0.318053
v 0.244552 -0.838304 -0.245089
v 0.865427 -0.010657 0.264127
v 0.086452 0.835466 0.348146
v 0.509407 -0.748811 -0.019164
v 0.377899 -0.815168 -0.119399
v 0.707572 0.260582 0.502029
v 0.768429 0.096400 0.469089
v 0.231710 -0.850166 -0.215046
v 0.799597 -0.071456 0.418122
v 0.073609 0.823605 0.378189
v 0.799877 -0.236534 0.351087
v 0.228971 0.761490 0.439416
v 0.769260 -0.392490 0.270560
v 0.375375 0.670143 0.483756
v 0.708921 -0.533332 0.179636
v 0.507195 0.553074 0.509506
v 0.621179 -0.653647 0.081808
v 0.619364 0.414782 0.515676
v 0.191959 0.739286 0.492198
v 0.321642 0.637908 0.560384
v 0.679904 -0.446095 0.397988
v 0.628503 -0.581575 0.294317
v 0.438805 0.512047 0.607035
v 0.552789 -0.694674 0.179337
v 0.538946 0.366539 0.630358
v 0.455673 -0.781046 0.057464
v 0.618216 0.206978 0.629456
v 0.340887 -0.837371 -0.066617
v 0.673569 0.039494 0.604365
v 0.212841 -0.861485 -0.188138
v 0.702879 -0.129477 0.556049
v 0.054740 0.812285 0.405097
v 0.705018 -0.293440 0.486363
v 0.503758 0.157999 0.737142
v 0.552062 -0.012502 0.718683
v 0.293477 -0.857659 -0.022012
v 0.188671 -0.871827 -0.165398
v 0.578991 -0.182491 0.672607
v 0.030571 0.801943 0.427837
v 0.583510 -0.345435 0.600682
v 0.144549 0.718998 0.536803
v 0.565446 -0.495073 0.505673
v 0.252813 0.608455 0.625140
v 0.525493 -0.625655 0.391232
v 0.351203 0.474560 0.689454
v 0.465187 -0.732161 0.261755
v 0.435937 0.322460 0.727272
v 0.386845 -0.810499 0.122220
v 0.430285 -0.537543 0.589478
v 0.403851 -0.663877 0.466654
v 0.171535 0.582916 0.675536
v 0.247755 0.442055 0.753596
v 0.361739 -0.764666 0.325897
v 0.314294 0.284238 0.802695
v 0.305566 -0.836038 0.172616
v 0.368597 0.115529 0.820947
v 0.237491 -0.875250 0.012701
v 0.408575 -0.057588 0.807650
v 0.160130 -0.880796 -0.147702
v 0.432693 -0.228460 0.763317
v 0.002029 0.792974 0.445533
v 0.440023 -0.390521 0.689649
v 0.088563 0.701407 0.571516
v 0.175081 -0.889470 0.036189
v 0.128314 -0.888045 -0.135728
v 0.248624 -0.094032 0.867847
v 0.269608 -0.265619 0.824693
v -0.029787 0.785725 0.457507
v 0.280072 -0.426965 0.749846
v 0.026153 0.687187 0.595004
v 0.279614 -0.571873 0.646182
v 0.080929 0.562272 0.709635
v 0.268251 -0.694773 0.517687
v 0.132436 0.415780 0.796995
v 0.246420 -0.790941 0.369297
v 0.178694 0.253342 0.853727
v 0.214961 -0.856682 0.206715
v 0.217926 0.081199 0.877651
v 0.123904 -0.717155 0.542368
v 0.123663 -0.809976 0.390286
v 0.009679 0.396745 0.817985
v 0.034347 0.230959 0.878408
v 0.118511 -0.871638 0.223206
v 0.057536 0.056329 0.905075
v 0.108645 -0.899772 0.047548
v 0.078354 -0.120434 0.896961
v 0.094445 -0.893297 -0.129937
v 0.096003 -0.292538 0.854377
v -0.063656 0.780474 0.463298
v 0.109803 -0.453367 0.778959
v -0.040282 0.676885 0.606363
v 0.119224 -0.596743 0.673607
v -0.015521 0.547316 0.726126
v -0.098275 0.777421 0.462684
v 0.059826 -0.896349 -0.130551
v -0.081451 -0.308184 0.851227
v -0.064241 -0.468712 0.775870
v -0.108191 0.670898 0.605158
v -0.044722 -0.611198 0.670697
v -0.114108 0.538624 0.724377
v -0.023644 -0.730164 0.539749
v -0.115800 0.385682 0.815758
v -0.001816 -0.821039 0.388059
v -0.113200 0.217950 0.875790
v 0.019923 -0.880330 0.221456
v -0.106410 0.041875 0.902166
v 0.040737 -0.905759 0.046343
v -0.095689 -0.135779 0.893872
v -0.239178 0.383016 0.790400
v -0.258278 0.214815 0.845972
v -0.125193 -0.823705 0.362701
v -0.077014 -0.882425 0.201533
v -0.267611 0.038391 0.869034
v -0.026035 -0.907202 0.032619
v -0.266819 -0.139477 0.858699
v 0.025786 -0.897084 -0.137547
v -0.255934 -0.311954 0.815366
v -0.132315 0.776686 0.455688
v -0.235371 -0.472411 0.740697
v -0.174963 0.669455 0.591435
v -0.205923 -0.614682 0.637565
v -0.211046 0.536529 0.704453
v -0.168721 -0.733299 0.509931
v -0.420740 -0.303705 0.748170
v -0.397011 -0.464320 0.674793
v -0.164467 0.778295 0.442578
v -0.238032 0.672612 0.565720
v -0.358184 -0.607061 0.575485
v -0.302608 0.541112 0.667121
v -0.305752 -0.726441 0.454060
v -0.355714 0.388849 0.742885
v -0.241729 -0.817872 0.315187
v -0.395309 0.221674 0.790101
v -0.168576 -0.877842 0.164201
v -0.419872 0.046012 0.806953
v -0.089104 -0.904045 0.006905
v -0.428459 -0.131387 0.792795
v -0.006366 -0.895475 -0.150657
v -0.346945 -0.803764 0.247342
v -0.251243 -0.866758 0.110895
v -0.519029 0.238263 0.710323
v -0.557343 0.064445 0.718309
v -0.146046 -0.896410 -0.029813
v -0.574397 -0.111819 0.698691
v -0.035395 -0.891583 -0.169375
v -0.569537 -0.283753 0.652223
v -0.193496 0.782187 0.423860
v -0.542949 -0.444752 0.580689
v -0.294974 0.680247 0.529002
v -0.495655 -0.588628 0.486841
v -0.385275 0.552196 0.613816
v -0.429472 -0.709852 0.374283
v -0.460929 0.402957 0.675040
v -0.218286 0.788213 0.400252
v -0.343601 0.692067 0.482693
v -0.667576 -0.414458 0.462003
v -0.613051 -0.560091 0.375040
v -0.455870 0.569356 0.546585
v -0.535126 -0.684169 0.273665
v -0.550780 0.424797 0.589472
v -0.436796 -0.781924 0.161773
v -0.624683 0.263945 0.609706
v -0.321839 -0.849597 0.043665
v -0.674739 0.092981 0.606509
v -0.194673 -0.884590 -0.076122
v -0.699025 -0.081525 0.580004
v -0.060185 -0.885557 -0.192983
v -0.696606 -0.252866 0.531211
v -0.708211 0.297733 0.492114
v -0.767551 0.130524 0.475848
v -0.377651 -0.827021 -0.034907
v -0.233117 -0.869039 -0.130243
v -0.797552 -0.041669 0.441296
v -0.079784 -0.877629 -0.220574
v -0.797064 -0.212229 0.389784
v -0.237885 0.796141 0.372661
v -0.766104 -0.374602 0.323294
v -0.382045 0.707618 0.428572
v -0.705863 -0.522548 0.244380
v -0.511682 0.591933 0.468013
v -0.618654 -0.650381 0.156074
v -0.621815 0.453532 0.489468
v -0.507831 -0.753189 0.061770
v -0.834746 -0.326717 0.169894
v -0.770522 -0.477441 0.099880
v -0.408827 0.726302 0.368718
v -0.550565 0.619058 0.381119
v -0.676846 -0.609786 0.026027
v -0.671303 0.488056 0.378873
v -0.557319 -0.718665 -0.048825
v -0.766403 0.338329 0.362068
v -0.416533 -0.799896 -0.121801
v -0.832210 0.175632 0.331349
v -0.259899 -0.850355 -0.190097
v -0.866194 0.006217 0.287896
v -0.093437 -0.868104 -0.251087
v -0.867051 -0.163405 0.233379
v -0.251538 0.805666 0.342148
v -0.436992 -0.769264 -0.213678
v -0.273992 -0.829256 -0.253383
v -0.866232 0.226570 0.178563
v -0.902312 0.060293 0.125699
v -0.100622 -0.857348 -0.283350
v -0.903876 -0.108270 0.068005
v -0.258723 0.816422 0.309885
v -0.870864 -0.272641 0.007698
v -0.422920 0.747401 0.305432
v -0.804544 -0.426503 -0.052905
v -0.571024 0.649689 0.289242
v -0.707465 -0.563943 -0.111476
v -0.697343 0.527042 0.261936
v -0.583358 -0.679679 -0.165762
v -0.797022 0.384172 0.224565
v -0.806622 -0.371691 -0.208105
v -0.709335 -0.514614 -0.251152
v -0.572273 0.682650 0.195913
v -0.698933 0.568993 0.143151
v -0.584949 -0.637728 -0.284547
v -0.798892 0.433501 0.084888
v -0.438242 -0.736304 -0.307007
v -0.868310 0.281381 0.023363
v -0.274853 -0.806552 -0.317669
v -0.904518 0.118480 -0.039060
v -0.101060 -0.845774 -0.316123
v -0.906126 -0.048943 -0.099982
v -0.259161 0.827997 0.277112
v -0.873070 -0.214453 -0.157062
v -0.423781 0.770105 0.241146
v -0.262449 -0.783117 -0.380484
v -0.094737 -0.833826 -0.348146
v -0.872728 0.178543 -0.200051
v -0.873712 0.012297 -0.264127
v -0.252838 0.839944 0.245089
v -0.841279 -0.154391 -0.318053
v -0.411376 0.793540 0.178331
v -0.776676 -0.315113 -0.359756
v -0.554265 0.716673 0.104719
v -0.682384 -0.463695 -0.387634
v -0.676013 0.612296 0.027083
v -0.562029 -0.594425 -0.400615
v -0.771941 0.484420 -0.051593
v -0.420234 -0.702281 -0.398201
v -0.838364 0.337959 -0.128287
v -0.517692 0.750451 0.019164
v -0.629464 0.655287 -0.081807
v -0.627648 -0.413143 -0.515676
v -0.515480 -0.551434 -0.509506
v -0.717205 0.534972 -0.179635
v -0.383660 -0.668503 -0.483756
v -0.777545 0.394130 -0.270560
v -0.237256 -0.759850 -0.439416
v -0.808162 0.238173 -0.351087
v -0.081894 -0.821965 -0.378189
v -0.807882 0.073095 -0.418122
v -0.239995 0.851805 0.215046
v -0.776714 -0.094760 -0.469088
v -0.386184 0.816807 0.119399
v -0.715857 -0.258943 -0.502028
v -0.713303 0.295080 -0.486363
v -0.711164 0.131116 -0.556048
v -0.221126 0.863124 0.188138
v -0.063025 -0.810646 -0.405097
v -0.681854 -0.037854 -0.604365
v -0.349172 0.839011 0.066617
v -0.626501 -0.205338 -0.629456
v -0.463959 0.782686 -0.057464
v -0.547231 -0.364900 -0.630357
v -0.561074 0.696314 -0.179336
v -0.447090 -0.510407 -0.607035
v -0.636788 0.583215 -0.294317
v -0.329927 -0.636268 -0.560384
v -0.688189 0.447734 -0.397987
v -0.200244 -0.737646 -0.492198
v -0.444221 -0.320820 -0.727272
v -0.359488 -0.472921 -0.689453
v -0.473472 0.733800 -0.261755
v -0.533778 0.627294 -0.391231
v -0.261098 -0.606815 -0.625140
v -0.573731 0.496713 -0.505673
v -0.152834 -0.717359 -0.536803
v -0.591795 0.347075 -0.600681
v -0.038856 -0.800303 -0.427836
v -0.587276 0.184130 -0.672606
v -0.196957 0.873467 0.165398
v -0.560347 0.014141 -0.718683
v -0.301762 0.859298 0.022012
v -0.512044 -0.156360 -0.737141
v -0.395130 0.812139 -0.122220
v -0.168416 0.882435 0.147702
v -0.010315 -0.791335 -0.445533
v -0.440978 0.230100 -0.763316
v -0.416860 0.059227 -0.807650
v -0.245776 0.876890 -0.012701
v -0.376882 -0.113889 -0.820947
v -0.313851 0.837678 -0.172616
v -0.322580 -0.282598 -0.802694
v -0.370024 0.766306 -0.325897
v -0.256040 -0.440415 -0.753595
v -0.412136 0.665516 -0.466654
v -0.179820 -0.581276 -0.675536
v -0.438570 0.539183 -0.589478
v -0.096848 -0.699767 -0.571516
v -0.448308 0.392161 -0.689648
v -0.254706 0.792580 -0.369296
v -0.276536 0.696412 -0.517686
v -0.140721 -0.414141 -0.796995
v -0.089215 -0.560632 -0.709634
v -0.287899 0.573513 -0.646182
v -0.034438 -0.685547 -0.595003
v -0.288357 0.428605 -0.749845
v 0.021502 -0.784086 -0.457507
v -0.277893 0.267258 -0.824692
v -0.136599 0.889684 0.135728
v -0.256909 0.095672 -0.867847
v -0.183366 0.891110 -0.036189
v -0.226211 -0.079560 -0.877651
v -0.223246 0.858322 -0.206714
v -0.186979 -0.251702 -0.853727
v -0.104288 0.294177 -0.854376
v -0.086640 0.122073 -0.896960
v -0.102731 0.894936 0.129937
v -0.116931 0.901411 -0.047548
v -0.065821 -0.054690 -0.905075
v -0.126796 0.873277 -0.223206
v -0.042632 -0.229320 -0.878408
v -0.131948 0.811615 -0.390286
v -0.017964 -0.395106 -0.817984
v -0.132189 0.718795 -0.542367
v 0.007235 -0.545677 -0.726126
v -0.127509 0.598383 -0.673606
v 0.031997 -0.675246 -0.606363
v -0.118088 0.455007 -0.778958
v 0.055370 -0.778834 -0.463298
v 0.107515 -0.384043 -0.815757
v 0.105823 -0.536984 -0.724376
v 0.015358 0.731803 -0.539748
v 0.036437 0.612838 -0.670697
v 0.099906 -0.669259 -0.605158
v 0.055956 0.470352 -0.775869
v 0.089990 -0.775782 -0.462683
v 0.073166 0.309823 -0.851227
v -0.068111 0.897988 0.130551
v 0.087404 0.137418 -0.893871
v -0.049022 0.907399 -0.046343
v 0.098125 -0.040235 -0.902165
v -0.028208 0.881969 -0.221456
v 0.104915 -0.216311 -0.875789
v -0.006470 0.822678 -0.388059
v 0.258534 0.141117 -0.858698
v 0.259326 -0.036751 -0.869033
v 0.017750 0.908842 -0.032619
v 0.068729 0.884064 -0.201532
v 0.249992 -0.213176 -0.845971
v 0.116908 0.825345 -0.362701
v 0.230893 -0.381376 -0.790399
v 0.160435 0.734939 -0.509931
v 0.202760 -0.534889 -0.704452
v 0.197638 0.616321 -0.637565
v 0.166677 -0.667816 -0.591434
v 0.227086 0.474050 -0.740697
v 0.124030 -0.775046 -0.455687
v 0.247648 0.313594 -0.815365
v -0.034071 0.898724 0.137547
v 0.294322 -0.539472 -0.667121
v 0.229746 -0.670972 -0.565719
v 0.349899 0.608700 -0.575484
v 0.388726 0.465960 -0.674792
v 0.156182 -0.776656 -0.442578
v 0.412455 0.305345 -0.748169
v -0.001919 0.897115 0.150657
v 0.420174 0.133026 -0.792794
v 0.080818 0.905685 -0.006904
v 0.411587 -0.044372 -0.806953
v 0.160291 0.879482 -0.164201
v 0.387024 -0.220034 -0.790100
v 0.233444 0.819512 -0.315186
v 0.347428 -0.387209 -0.742885
v 0.297467 0.728080 -0.454060
v 0.137760 0.898050 0.029813
v 0.242958 0.868397 -0.110895
v 0.549057 -0.062805 -0.718309
v 0.510744 -0.236624 -0.710323
v 0.338659 0.805404 -0.247341
v 0.452644 -0.401317 -0.675040
v 0.421187 0.711491 -0.374282
v 0.376989 -0.550557 -0.613815
v 0.487369 0.590268 -0.486840
v 0.286688 -0.678607 -0.529002
v 0.534663 0.446392 -0.580688
v 0.185211 -0.780548 -0.423860
v 0.561251 0.285393 -0.652222
v 0.027110 0.893222 0.169375
v 0.566112 0.113458 -0.698690
v 0.604766 0.561731 -0.375040
v 0.659291 0.416098 -0.462002
v 0.335315 -0.690428 -0.482693
v 0.210001 -0.786574 -0.400251
v 0.688321 0.254505 -0.531210
v 0.051900 0.887196 0.192983
v 0.690739 0.083164 -0.580003
v 0.186388 0.886230 0.076122
v 0.666454 -0.091341 -0.606508
v 0.313554 0.851237 -0.043664
v 0.616398 -0.262306 -0.609705
v 0.428511 0.783563 -0.161773
v 0.542495 -0.423158 -0.589471
v 0.526841 0.685809 -0.273665
v 0.447585 -0.567717 -0.546584
v 0.759265 -0.128885 -0.475848
v 0.699926 -0.296094 -0.492114
v 0.369365 0.828660 0.034908
v 0.499545 0.754829 -0.061770
v 0.613530 -0.451892 -0.489468
v 0.610369 0.652021 -0.156073
v 0.503396 -0.590293 -0.468012
v 0.697577 0.524188 -0.244379
v 0.373759 -0.705978 -0.428571
v 0.757819 0.376242 -0.323293
v 0.229599 -0.794502 -0.372660
v 0.788779 0.213869 -0.389784
v 0.071498 0.879269 0.220574
v 0.789267 0.043308 -0.441295
v 0.224831 0.870679 0.130244
vt 0.750000 0.562500
vt 0.750000 0.625000
vt 0.718750 0.625000
vt 0.718750 0.562500
vt 0.750000 0.062500
vt 0.750000 0.125000
vt 0.718750 0.125000
vt 0.718750 0.062500
vt 0.750000 0.500000
vt 0.718750 0.500000
vt 0.750000 0.937500
vt 0.734375 1.000000
vt 0.718750 0.937500
vt 0.734375 0.000000
vt 0.750000 0.437500
vt 0.718750 0.437500
vt 0.750000 0.875000
vt 0.718750 0.875000
vt 0.750000 0.375000
vt 0.718750 0.375000
vt 0.750000 0.812500
vt 0.718750 0.812500
vt 0.750000 0.312500
vt 0.718750 0.312500
vt 0.750000 0.750000
vt 0.718750 0.750000
vt 0.750000 0.250000
vt 0.718750 0.250000
vt 0.750000 0.687500
vt 0.718750 0.687500
vt 0.750000 0.187500
vt 0.718750 0.187500
vt 0.687500 0.687500
vt 0.687500 0.625000
vt 0.687500 0.187500
vt 0.687500 0.125000
vt 0.687500 0.562500
vt 0.687500 0.062500
vt 0.687500 0.500000
vt 0.703125 1.000000
vt 0.687500 0.937500
vt 0.703125 0.000000
vt 0.687500 0.437500
vt 0.687500 0.875000
vt 0.687500 0.375000
vt 0.687500 0.812500
vt 0.687500 0.312500
vt 0.687500 0.750000
vt 0.687500 0.250000
vt 0.656250 0.437500
vt 0.656250 0.375000
vt 0.656250 0.875000
vt 0.656250 0.812500
vt 0.656250 0.312500
vt 0.656250 0.750000
vt 0.656250 0.250000
vt 0.656250 0.687500
vt 0.656250 0.187500
vt 0.656250 0.625000
vt 0.656250 0.125000
vt 0.656250 0.562500
vt 0.656250 0.062500
vt 0.656250 0.500000
vt 0.671875 1.000000
vt 0.656250 0.937500
vt 0.671875 0.000000
vt 0.625000 0.187500
vt 0.625000 0.125000
vt 0.625000 0.625000
vt 0.625000 0.562500
vt 0.625000 0.062500
vt 0.625000 0.500000
vt 0.640625 1.000000
vt 0.625000 0.937500
vt 0.640625 0.000000
vt 0.625000 0.437500
vt 0.625000 0.875000
vt 0.625000 0.375000
vt 0.625000 0.812500
vt 0.625000 0.312500
vt 0.625000 0.750000
vt 0.625000 0.250000
vt 0.625000 0.687500
vt 0.593750 0.875000
vt 0.593750 0.812500
vt 0.593750 0.375000
vt 0.593750 0.312500
vt 0.593750 0.750000
vt 0.593750 0.250000
vt 0.593750 0.687500
vt 0.593750 0.187500
vt 0.593750 0.625000
vt 0.593750 0.125000
vt 0.593750 0.562500
vt 0.593750 0.062500
vt 0.593750 0.500000
vt 0.609375 1.000000
vt 0.593750 0.937500
vt 0.609375 0.000000
vt 0.593750 0.437500
vt 0.562500 0.625000
vt 0.562500 0.562500
vt 0.562500 0.125000
vt 0.562500 0.062500
vt 0.562500 0.500000
vt 0.578125 1.000000
vt 0.562500 0.937500
vt 0.578125 0.000000
vt 0.562500 0.437500
vt 0.562500 0.875000
vt 0.562500 0.375000
vt 0.562500 0.812500
vt 0.562500 0.312500
vt 0.562500 0.750000
vt 0.562500 0.250000
vt 0.562500 0.687500
vt 0.562500 0.187500
vt 0.531250 0.375000
vt 0.531250 0.312500
vt 0.531250 0.812500
vt 0.531250 0.750000
vt 0.531250 0.250000
vt 0.531250 0.687500
vt 0.531250 0.187500
vt 0.531250 0.625000
vt 0.531250 0.125000
vt 0.531250 0.562500
vt 0.531250 0.062500
vt 0.531250 0.500000
vt 0.546875 1.000000
vt 0.531250 0.937500
vt 0.546875 0.000000
vt 0.531250 0.437500
vt 0.531250 0.875000
vt 0.500000 0.125000
vt 0.500000 0.062500
vt 0.500000 0.562500
vt 0.500000 0.500000
vt 0.515625 1.000000
vt 0.500000 0.937500
vt 0.515625 0.000000
vt 0.500000 0.437500
vt 0.500000 0.875000
vt 0.500000 0.375000
vt 0.500000 0.812500
vt 0.500000 0.312500
vt 0.500000 0.750000
vt 0.500000 0.250000
vt 0.500000 0.687500
vt 0.500000 0.187500
vt 0.500000 0.625000
vt 0.468750 0.312500
vt 0.468750 0.250000
vt 0.468750 0.750000
vt 0.468750 0.687500
vt 0.468750 0.187500
vt 0.468750 0.625000
vt 0.468750 0.125000
vt 0.468750 0.562500
vt 0.468750 0.062500
vt 0.468750 0.500000
vt 0.484374 1.000000
vt 0.468750 0.937500
vt 0.484375 0.000000
vt 0.468750 0.437500
vt 0.468750 0.875000
vt 0.468750 0.375000
vt 0.468750 0.812500
vt 0.453124 1.000000
vt 0.437500 0.937500
vt 0.453125 0.000000
vt 0.437500 0.062500
vt 0.437500 0.500000
vt 0.437500 0.437500
vt 0.437500 0.875000
vt 0.437500 0.375000
vt 0.437500 0.812500
vt 0.437500 0.312500
vt 0.437500 0.750000
vt 0.437500 0.250000
vt 0.437500 0.687500
vt 0.437500 0.187500
vt 0.437500 0.625000
vt 0.437500 0.125000
vt 0.437500 0.562500
vt 0.406250 0.750000
vt 0.406250 0.687500
vt 0.406250 0.250000
vt 0.406250 0.187500
vt 0.406250 0.625000
vt 0.406250 0.125000
vt 0.406250 0.562500
vt 0.406250 0.062500
vt 0.406250 0.500000
vt 0.421874 1.000000
vt 0.406250 0.937500
vt 0.421875 0.000000
vt 0.406250 0.437500
vt 0.406250 0.875000
vt 0.406250 0.375000
vt 0.406250 0.812500
vt 0.406250 0.312500
vt 0.375000 0.500000
vt 0.375000 0.437500
vt 0.375000 0.937500
vt 0.375000 0.875000
vt 0.375000 0.375000
vt 0.375000 0.812500
vt 0.375000 0.312500
vt 0.375000 0.750000
vt 0.375000 0.250000
vt 0.375000 0.687500
vt 0.375000 0.187500
vt 0.375000 0.625000
vt 0.375000 0.125000
vt 0.375000 0.562500
vt 0.375000 0.062500
vt 0.390625 1.000000
vt 0.390625 0.000000
vt 0.343750 0.250000
vt 0.343750 0.187500
vt 0.343750 0.687500
vt 0.343750 0.625000
vt 0.343750 0.125000
vt 0.343750 0.562500
vt 0.343750 0.062500
vt 0.343750 0.500000
vt 0.359375 1.000000
vt 0.343750 0.937500
vt 0.359375 0.000000
vt 0.343750 0.437500
vt 0.343750 0.875000
vt 0.343750 0.375000
vt 0.343750 0.812500
vt 0.343750 0.312500
vt 0.343750 0.750000
vt 0.312500 0.937500
vt 0.312500 0.875000
vt 0.312500 0.437500
vt 0.312500 0.375000
vt 0.312500 0.812500
vt 0.312500 0.312500
vt 0.312500 0.750000
vt 0.312500 0.250000
vt 0.312500 0.687500
vt 0.312500 0.187500
vt 0.312500 0.625000
vt 0.312500 0.125000
vt 0.312500 0.562500
vt 0.312500 0.062500
vt 0.312500 0.500000
vt 0.328125 1.000000
vt 0.328125 0.000000
vt 0.281250 0.687500
vt 0.281250 0.625000
vt 0.281250 0.187500
vt 0.281250 0.125000
vt 0.281250 0.562500
vt 0.281250 0.062500
vt 0.281250 0.500000
vt 0.296875 1.000000
vt 0.281250 0.937500
vt 0.296875 0.000000
vt 0.281250 0.437500
vt 0.281250 0.875000
vt 0.281250 0.375000
vt 0.281250 0.812500
vt 0.281250 0.312500
vt 0.281250 0.750000
vt 0.281250 0.250000
vt 0.250000 0.437500
vt 0.250000 0.375000
vt 0.250000 0.875000
vt 0.250000 0.812500
vt 0.250000 0.312500
vt 0.250000 0.750000
vt 0.250000 0.250000
vt 0.250000 0.687500
vt 0.250000 0.187500
vt 0.250000 0.625000
vt 0.250000 0.125000
vt 0.250000 0.562500
vt 0.250000 0.062500
vt 0.250000 0.500000
vt 0.265625 1.000000
vt 0.250000 0.937500
vt 0.265625 0.000000
vt 0.218750 0.187500
vt 0.218750 0.125000
vt 0.218750 0.625000
vt 0.218750 0.562500
vt 0.218750 0.062500
vt 0.218750 0.500000
vt 0.234375 1.000000
vt 0.218750 0.937500
vt 0.234375 0.000000
vt 0.218750 0.437500
vt 0.218750 0.875000
vt 0.218750 0.375000
vt 0.218750 0.812500
vt 0.218750 0.312500
vt 0.218750 0.750000
vt 0.218750 0.250000
vt 0.218750 0.687500
vt 0.187500 0.375000
vt 0.187500 0.312500
vt 0.187500 0.812500
vt 0.187500 0.750000
vt 0.187500 0.250000
vt 0.187500 0.687500
vt 0.187500 0.187500
vt 0.187500 0.625000
vt 0.187500 0.125000
vt 0.187500 0.562500
vt 0.187500 0.062500
vt 0.187500 0.500000
vt 0.203125 1.000000
vt 0.187500 0.937500
vt 0.203125 0.000000
vt 0.187500 0.437500
vt 0.187500 0.875000
vt 0.156250 0.125000
vt 0.156250 0.062500
vt 0.156250 0.562500
vt 0.156250 0.500000
vt 0.171875 1.000000
vt 0.156250 0.937500
vt 0.171875 0.000000
vt 0.156250 0.437500
vt 0.156250 0.875000
vt 0.156250 0.375000
vt 0.156250 0.812500
vt 0.156250 0.312500
vt 0.156250 0.750000
vt 0.156250 0.250000
vt 0.156250 0.687500
vt 0.156250 0.187500
vt 0.156250 0.625000
vt 0.125000 0.812500
vt 0.125000 0.750000
vt 0.125000 0.312500
vt 0.125000 0.250000
vt 0.125000 0.687500
vt 0.125000 0.187500
vt 0.125000 0.625000
vt 0.125000 0.125000
vt 0.125000 0.562500
vt 0.125000 0.062500
vt 0.125000 0.500000
vt 0.140625 1.000000
vt 0.125000 0.937500
vt 0.140625 0.000000
vt 0.125000 0.437500
vt 0.125000 0.875000
vt 0.125000 0.375000
vt 0.093750 0.562500
vt 0.093750 0.500000
vt 0.109375 1.000000
vt 0.093750 0.937500
vt 0.109375 0.000000
vt 0.093750 0.062500
vt 0.093750 0.437500
vt 0.093750 0.875000
vt 0.093750 0.375000
vt 0.093750 0.812500
vt 0.093750 0.312500
vt 0.093750 0.750000
vt 0.093750 0.250000
vt 0.093750 0.687500
vt 0.093750 0.187500
vt 0.093750 0.625000
vt 0.093750 0.125000
vt 0.062500 0.312500
vt 0.062500 0.250000
vt 0.062500 0.750000
vt 0.062500 0.687500
vt 0.062500 0.187500
vt 0.062500 0.625000
vt 0.062500 0.125000
vt 0.062500 0.562500
vt 0.062500 0.062500
vt 0.062500 0.500000
vt 0.078125 1.000000
vt 0.062500 0.937500
vt 0.078125 0.000000
vt 0.062500 0.437500
vt 0.062500 0.875000
vt 0.062500 0.375000
vt 0.062500 0.812500
vt 0.046875 1.000000
vt 0.031250 0.937500
vt 0.046875 0.000000
vt 0.031250 0.062500
vt 0.031250 0.500000
vt 0.031250 0.437500
vt 0.031250 0.875000
vt 0.031250 0.375000
vt 0.031250 0.812500
vt 0.031250 0.312500
vt 0.031250 0.750000
vt 0.031250 0.250000
vt 0.031250 0.687500
vt 0.031250 0.187500
vt 0.031250 0.625000
vt 0.031250 0.125000
vt 0.031250 0.562500
vt 0.000000 0.750000
vt 0.000000 0.687500
vt 0.000000 0.250000
vt 0.000000 0.187500
vt 0.000000 0.625000
vt 0.000000 0.125000
vt 0.000000 0.562500
vt 0.000000 0.062500
vt 0.000000 0.500000
vt 0.015625 1.000000
vt 0.000000 0.937500
vt 0.015625 0.000000
vt 0.000000 0.437500
vt 0.000000 0.875000
vt 0.000000 0.375000
vt 0.000000 0.812500
vt 0.000000 0.312500
vt 1.000000 0.437500
vt 1.000000 0.500000
vt 0.968750 0.500000
vt 0.968750 0.437500
vt 1.000000 0.875000
vt 1.000000 0.937500
vt 0.968750 0.937500
vt 0.968750 0.875000
vt 1.000000 0.375000
vt 0.968750 0.375000
vt 1.000000 0.812500
vt 0.968750 0.812500
vt 1.000000 0.312500
vt 0.968750 0.312500
vt 1.000000 0.750000
vt 0.968750 0.750000
vt 1.000000 0.250000
vt 0.968750 0.250000
vt 1.000000 0.687500
vt 0.968750 0.687500
vt 1.000000 0.187500
vt 0.968750 0.187500
vt 1.000000 0.625000
vt 0.968750 0.625000
vt 1.000000 0.125000
vt 0.968750 0.125000
vt 1.000000 0.562500
vt 0.968750 0.562500
vt 1.000000 0.062500
vt 0.968750 0.062500
vt 0.984375 1.000000
vt 0.984375 0.000000
vt 0.937500 0.250000
vt 0.937500 0.187500
vt 0.937500 0.687500
vt 0.937500 0.625000
vt 0.937500 0.125000
vt 0.937500 0.562500
vt 0.937500 0.062500
vt 0.937500 0.500000
vt 0.953125 1.000000
vt 0.937500 0.937500
vt 0.953125 0.000000
vt 0.937500 0.437500
vt 0.937500 0.875000
vt 0.937500 0.375000
vt 0.937500 0.812500
vt 0.937500 0.312500
vt 0.937500 0.750000
vt 0.906250 0.437500
vt 0.906250 0.375000
vt 0.906250 0.875000
vt 0.906250 0.812500
vt 0.906250 0.312500
vt 0.906250 0.750000
vt 0.906250 0.250000
vt 0.906250 0.687500
vt 0.906250 0.187500
vt 0.906250 0.625000
vt 0.906250 0.125000
vt 0.906250 0.562500
vt 0.906250 0.062500
vt 0.906250 0.500000
vt 0.921875 1.000000
vt 0.906250 0.937500
vt 0.921875 0.000000
vt 0.875000 0.187500
vt 0.875000 0.125000
vt 0.875000 0.625000
vt 0.875000 0.562500
vt 0.875000 0.062500
vt 0.875000 0.500000
vt 0.890625 1.000000
vt 0.875000 0.937500
vt 0.890625 0.000000
vt 0.875000 0.437500
vt 0.875000 0.875000
vt 0.875000 0.375000
vt 0.875000 0.812500
vt 0.875000 0.312500
vt 0.875000 0.750000
vt 0.875000 0.250000
vt 0.875000 0.687500
vt 0.843750 0.875000
vt 0.843750 0.812500
vt 0.843750 0.375000
vt 0.843750 0.312500
vt 0.843750 0.750000
vt 0.843750 0.250000
vt 0.843750 0.687500
vt 0.843750 0.187500
vt 0.843750 0.625000
vt 0.843750 0.125000
vt 0.843750 0.562500
vt 0.843750 0.062500
vt 0.843750 0.500000
vt 0.859375 1.000000
vt 0.843750 0.937500
vt 0.859375 0.000000
vt 0.843750 0.437500
vt 0.812500 0.625000
vt 0.812500 0.562500
vt 0.812500 0.125000
vt 0.812500 0.062500
vt 0.812500 0.500000
vt 0.828125 1.000000
vt 0.812500 0.937500
vt 0.828125 0.000000
vt 0.812500 0.437500
vt 0.812500 0.875000
vt 0.812500 0.375000
vt 0.812500 0.812500
vt 0.812500 0.312500
vt 0.812500 0.750000
vt 0.812500 0.250000
vt 0.812500 0.687500
vt 0.812500 0.187500
vt 0.781250 0.375000
vt 0.781250 0.312500
vt 0.781250 0.812500
vt 0.781250 0.750000
vt 0.781250 0.250000
vt 0.781250 0.687500
vt 0.781250 0.187500
vt 0.781250 0.625000
vt 0.781250 0.125000
vt 0.781250 0.562500
vt 0.781250 0.062500
vt 0.781250 0.500000
vt 0.796875 1.000000
vt 0.781250 0.937500
vt 0.796875 0.000000
vt 0.781250 0.437500
vt 0.781250 0.875000
vt 0.765625 1.000000
vt 0.765625 0.000000
vn 0.9142 0.3593 -0.1874
vn 0.8443 0.5244 -0.1108
vn 0.8817 0.4683 0.0574
vn 0.9540 0.2998 -0.0089
vn 0.2777 -0.8834 -0.3776
vn 0.4500 -0.7952 -0.4063
vn 0.4657 -0.8188 -0.3357
vn 0.2858 -0.8956 -0.3410
vn 0.9494 0.1807 -0.2568
vn 0.9899 0.1200 -0.0748
vn 0.1039 0.9560 0.2744
vn -0.0887 0.9388 0.3328
vn 0.1121 0.9438 0.3109
vn 0.0887 -0.9388 -0.3328
vn 0.9486 -0.0048 -0.3164
vn 0.9884 -0.0643 -0.1379
vn 0.2865 0.9354 0.2071
vn 0.3023 0.9119 0.2777
vn 0.9117 -0.1902 -0.3641
vn 0.9492 -0.2463 -0.1958
vn 0.4580 0.8791 0.1320
vn 0.4807 0.8451 0.2338
vn 0.8402 -0.3684 -0.3979
vn 0.8740 -0.4189 -0.2463
vn 0.6118 0.7893 0.0519
vn 0.6406 0.7462 0.1811
vn 0.7367 -0.5327 -0.4166
vn 0.7654 -0.5758 -0.2874
vn 0.7422 0.6695 -0.0301
vn 0.7759 0.6190 0.1216
vn 0.6050 -0.6768 -0.4195
vn 0.6276 -0.7108 -0.3176
vn 0.7780 0.5646 0.2756
vn 0.8840 0.4079 0.2284
vn 0.6290 -0.7473 -0.2142
vn 0.4667 -0.8441 -0.2640
vn 0.9564 0.2358 0.1724
vn 0.2863 -0.9087 -0.3039
vn 0.9924 0.0548 0.1100
vn 0.1126 0.9307 0.3481
vn 0.9908 -0.1284 0.0434
vn 0.3032 0.8866 0.3494
vn 0.9515 -0.3066 -0.0249
vn 0.4820 0.8086 0.3373
vn 0.8760 -0.4733 -0.0923
vn 0.6423 0.6999 0.3124
vn 0.7672 -0.6221 -0.1562
vn 0.9558 -0.1945 0.2206
vn 0.9185 -0.3689 0.1421
vn 0.2894 0.8604 0.4194
vn 0.4621 0.7709 0.4384
vn 0.8463 -0.5295 0.0582
vn 0.6170 0.6520 0.4407
vn 0.7419 -0.6700 -0.0279
vn 0.7483 0.5084 0.4261
vn 0.6091 -0.7850 -0.1131
vn 0.8510 0.3456 0.3954
vn 0.4529 -0.8702 -0.1940
vn 0.9214 0.1697 0.3496
vn 0.2792 -0.9222 -0.2676
vn 0.9568 -0.0126 0.2906
vn 0.1054 0.9171 0.3844
vn 0.5685 -0.8225 -0.0182
vn 0.4248 -0.8962 -0.1283
vn 0.7840 0.2837 0.5521
vn 0.8503 0.1041 0.5158
vn 0.2646 -0.9357 -0.2335
vn 0.8843 -0.0795 0.4600
vn 0.0908 0.9037 0.4184
vn 0.8847 -0.2601 0.3868
vn 0.2613 0.8345 0.4851
vn 0.8515 -0.4308 0.2988
vn 0.4215 0.7334 0.5333
vn 0.7860 -0.5852 0.1994
vn 0.5656 0.6045 0.5610
vn 0.6904 -0.7175 0.0924
vn 0.6879 0.4527 0.5673
vn 0.2200 0.8097 0.5440
vn 0.3620 0.6977 0.6182
vn 0.7531 -0.4898 0.4391
vn 0.6973 -0.6384 0.3259
vn 0.4900 0.5592 0.6687
vn 0.6149 -0.7628 0.2002
vn 0.5992 0.3995 0.6938
vn 0.5089 -0.8582 0.0667
vn 0.6856 0.2247 0.6924
vn 0.3835 -0.9209 -0.0694
vn 0.7459 0.0414 0.6647
vn 0.2432 -0.9485 -0.2030
vn 0.7779 -0.1434 0.6118
vn 0.0695 0.8909 0.4489
vn 0.7803 -0.3227 0.5357
vn 0.5596 0.1707 0.8110
vn 0.6122 -0.0158 0.7905
vn 0.3306 -0.9436 -0.0196
vn 0.2158 -0.9602 -0.1772
vn 0.6416 -0.2017 0.7400
vn 0.0421 0.8791 0.4747
vn 0.6466 -0.3799 0.6615
vn 0.1671 0.7871 0.5938
vn 0.6271 -0.5438 0.5577
vn 0.2857 0.6651 0.6900
vn 0.5837 -0.6870 0.4328
vn 0.3932 0.5178 0.7598
vn 0.5181 -0.8042 0.2913
vn 0.4857 0.3509 0.8006
vn 0.4326 -0.8909 0.1385
vn 0.4782 -0.5906 0.6500
vn 0.4496 -0.7292 0.5159
vn 0.1956 0.6367 0.7459
vn 0.2789 0.4818 0.8307
vn 0.4038 -0.8401 0.3621
vn 0.3515 0.3087 0.8838
vn 0.3425 -0.9192 0.1944
vn 0.4107 0.1240 0.9033
vn 0.2682 -0.9632 0.0191
vn 0.4543 -0.0654 0.8884
vn 0.1835 -0.9704 -0.1572
vn 0.4806 -0.2523 0.8399
vn 0.0097 0.8690 0.4947
vn 0.4887 -0.4295 0.7594
vn 0.1047 0.7675 0.6325
vn 0.1986 -0.9790 0.0453
vn 0.1474 -0.9786 -0.1436
vn 0.2783 -0.1055 0.9547
vn 0.3012 -0.2932 0.9074
vn -0.0263 0.8608 0.5083
vn 0.3127 -0.4697 0.8256
vn 0.0351 0.7516 0.6587
vn 0.3123 -0.6284 0.7125
vn 0.0951 0.6139 0.7837
vn 0.3000 -0.7632 0.5722
vn 0.1515 0.4528 0.8786
vn 0.2763 -0.8692 0.4101
vn 0.2020 0.2747 0.9401
vn 0.2421 -0.9421 0.2322
vn 0.2448 0.0862 0.9657
vn 0.1408 -0.7879 0.5994
vn 0.1407 -0.8902 0.4333
vn 0.0158 0.4318 0.9018
vn 0.0428 0.2500 0.9673
vn 0.1352 -0.9586 0.2505
vn 0.0682 0.0588 0.9959
vn 0.1245 -0.9905 0.0579
vn 0.0909 -0.1346 0.9867
vn 0.1090 -0.9845 -0.1370
vn 0.1102 -0.3228 0.9400
vn -0.0647 0.8548 0.5149
vn 0.1253 -0.4987 0.8577
vn -0.0390 0.7401 0.6713
vn 0.1356 -0.6557 0.7427
vn -0.0118 0.5973 0.8019
vn -0.1040 0.8514 0.5142
vn 0.0698 -0.9880 -0.1377
vn -0.0851 -0.3400 0.9366
vn -0.0662 -0.5156 0.8543
vn -0.1147 0.7335 0.6700
vn -0.0449 -0.6717 0.7395
vn -0.1211 0.5876 0.8000
vn -0.0219 -0.8023 0.5966
vn -0.1228 0.4196 0.8994
vn 0.0020 -0.9024 0.4308
vn -0.1199 0.2356 0.9644
vn 0.0259 -0.9683 0.2485
vn -0.1124 0.0429 0.9927
vn 0.0487 -0.9972 0.0566
vn -0.1006 -0.1515 0.9833
vn -0.2592 0.4166 0.8714
vn -0.2799 0.2322 0.9315
vn -0.1343 -0.9054 0.4028
vn -0.0816 -0.9706 0.2265
vn -0.2899 0.0390 0.9562
vn -0.0257 -0.9988 0.0413
vn -0.2890 -0.1555 0.9446
vn 0.0312 -0.9888 -0.1457
vn -0.2770 -0.3441 0.8971
vn -0.1425 0.8505 0.5063
vn -0.2546 -0.5197 0.8156
vn -0.1892 0.7318 0.6547
vn -0.2224 -0.6755 0.7030
vn -0.2286 0.5853 0.7779
vn -0.1818 -0.8057 0.5637
vn -0.4584 -0.3351 0.8232
vn -0.4325 -0.5108 0.7430
vn -0.1790 0.8523 0.4914
vn -0.2595 0.7354 0.6260
vn -0.3901 -0.6671 0.6346
vn -0.3301 0.5904 0.7365
vn -0.3330 -0.7982 0.5021
vn -0.3879 0.4231 0.8189
vn -0.2631 -0.8989 0.3503
vn -0.4310 0.2397 0.8699
vn -0.1831 -0.9655 0.1851
vn -0.4576 0.0474 0.8879
vn -0.0961 -0.9953 0.0126
vn -0.4669 -0.1466 0.8721
vn -0.0052 -0.9870 -0.1605
vn -0.3793 -0.8833 0.2753
vn -0.2747 -0.9532 0.1260
vn -0.5674 0.2580 0.7820
vn -0.6090 0.0677 0.7903
vn -0.1596 -0.9868 -0.0283
vn -0.6275 -0.1251 0.7685
vn -0.0381 -0.9826 -0.1817
vn -0.6221 -0.3131 0.7176
vn -0.2119 0.8568 0.4702
vn -0.5931 -0.4892 0.6395
vn -0.3230 0.7439 0.5851
vn -0.5415 -0.6468 0.5370
vn -0.4217 0.6027 0.6774
vn -0.4694 -0.7799 0.4141
vn -0.5042 0.4386 0.7439
vn -0.2400 0.8636 0.4434
vn -0.3773 0.7571 0.5334
vn -0.7302 -0.4559 0.5088
vn -0.6708 -0.6154 0.4139
vn -0.5000 0.6217 0.6029
vn -0.5859 -0.7516 0.3031
vn -0.6035 0.4628 0.6493
vn -0.4786 -0.8592 0.1808
vn -0.6839 0.2863 0.6710
vn -0.3530 -0.9342 0.0514
vn -0.7383 0.0991 0.6671
vn -0.2138 -0.9736 -0.0800
vn -0.7646 -0.0918 0.6379
vn -0.0662 -0.9758 -0.2085
vn -0.7619 -0.2791 0.5845
vn -0.7760 0.3236 0.5413
vn -0.8405 0.1405 0.5232
vn -0.4149 -0.9092 -0.0357
vn -0.2567 -0.9563 -0.1403
vn -0.8731 -0.0479 0.4853
vn -0.0885 -0.9668 -0.2398
vn -0.8724 -0.2344 0.4289
vn -0.2622 0.8726 0.4122
vn -0.8387 -0.4120 0.3562
vn -0.4201 0.7744 0.4731
vn -0.7730 -0.5740 0.2700
vn -0.5618 0.6467 0.5158
vn -0.6780 -0.7143 0.1735
vn -0.6820 0.4945 0.5388
vn -0.5571 -0.8275 0.0703
vn -0.9142 -0.3593 0.1874
vn -0.8443 -0.5244 0.1108
vn -0.4500 0.7952 0.4063
vn -0.6050 0.6768 0.4195
vn -0.7422 -0.6695 0.0301
vn -0.7367 0.5327 0.4166
vn -0.6118 -0.7893 -0.0519
vn -0.8402 0.3684 0.3979
vn -0.4580 -0.8791 -0.1320
vn -0.9117 0.1902 0.3641
vn -0.2865 -0.9354 -0.2071
vn -0.9486 0.0048 0.3164
vn -0.1039 -0.9560 -0.2744
vn -0.9494 -0.1807 0.2568
vn -0.2777 0.8834 0.3776
vn -0.4807 -0.8451 -0.2338
vn -0.3023 -0.9119 -0.2777
vn -0.9492 0.2463 0.1958
vn -0.9884 0.0643 0.1379
vn -0.1121 -0.9438 -0.3109
vn -0.9899 -0.1200 0.0748
vn -0.2858 0.8956 0.3410
vn -0.9540 -0.2998 0.0089
vn -0.4657 0.8188 0.3357
vn -0.8817 -0.4683 -0.0574
vn -0.6276 0.7108 0.3176
vn -0.7759 -0.6190 -0.1216
vn -0.7654 0.5758 0.2874
vn -0.6406 -0.7462 -0.1811
vn -0.8740 0.4189 0.2463
vn -0.8840 -0.4079 -0.2284
vn -0.7780 -0.5646 -0.2756
vn -0.6290 0.7473 0.2142
vn -0.7672 0.6221 0.1562
vn -0.6423 -0.6999 -0.3124
vn -0.8760 0.4733 0.0923
vn -0.4820 -0.8086 -0.3373
vn -0.9515 0.3066 0.0249
vn -0.3032 -0.8866 -0.3494
vn -0.9908 0.1284 -0.0434
vn -0.1126 -0.9307 -0.3481
vn -0.9924 -0.0548 -0.1100
vn -0.2863 0.9087 0.3039
vn -0.9564 -0.2358 -0.1724
vn -0.4667 0.8441 0.2640
vn -0.2894 -0.8604 -0.4194
vn -0.1054 -0.9171 -0.3844
vn -0.9558 0.1945 -0.2206
vn -0.9568 0.0126 -0.2906
vn -0.2791 0.9222 0.2676
vn -0.9214 -0.1697 -0.3496
vn -0.4529 0.8702 0.1940
vn -0.8510 -0.3456 -0.3954
vn -0.6091 0.7850 0.1131
vn -0.7483 -0.5084 -0.4261
vn -0.7419 0.6700 0.0279
vn -0.6170 -0.6520 -0.4407
vn -0.8463 0.5295 -0.0582
vn -0.4621 -0.7709 -0.4384
vn -0.9185 0.3689 -0.1421
vn -0.5685 0.8225 0.0182
vn -0.6904 0.7175 -0.0924
vn -0.6879 -0.4527 -0.5673
vn -0.5656 -0.6045 -0.5610
vn -0.7860 0.5852 -0.1994
vn -0.4215 -0.7334 -0.5333
vn -0.8515 0.4308 -0.2988
vn -0.2613 -0.8345 -0.4851
vn -0.8847 0.2601 -0.3868
vn -0.0909 -0.9037 -0.4184
vn -0.8843 0.0795 -0.4600
vn -0.2646 0.9357 0.2335
vn -0.8503 -0.1041 -0.5158
vn -0.4248 0.8962 0.1283
vn -0.7840 -0.2837 -0.5521
vn -0.7803 0.3227 -0.5357
vn -0.7779 0.1434 -0.6118
vn -0.2432 0.9485 0.2030
vn -0.0695 -0.8909 -0.4489
vn -0.7459 -0.0414 -0.6647
vn -0.3835 0.9209 0.0694
vn -0.6856 -0.2247 -0.6924
vn -0.5089 0.8582 -0.0667
vn -0.5992 -0.3995 -0.6938
vn -0.6149 0.7628 -0.2002
vn -0.4900 -0.5592 -0.6687
vn -0.6973 0.6384 -0.3259
vn -0.3620 -0.6977 -0.6182
vn -0.7531 0.4898 -0.4391
vn -0.2200 -0.8097 -0.5440
vn -0.4857 -0.3509 -0.8006
vn -0.3932 -0.5178 -0.7598
vn -0.5181 0.8042 -0.2913
vn -0.5837 0.6870 -0.4328
vn -0.2857 -0.6651 -0.6900
vn -0.6271 0.5438 -0.5577
vn -0.1671 -0.7871 -0.5938
vn -0.6466 0.3799 -0.6615
vn -0.0421 -0.8791 -0.4747
vn -0.6416 0.2017 -0.7400
vn -0.2158 0.9602 0.1772
vn -0.6122 0.0158 -0.7905
vn -0.3306 0.9436 0.0196
vn -0.5596 -0.1707 -0.8110
vn -0.4326 0.8909 -0.1385
vn -0.1835 0.9704 0.1572
vn -0.0097 -0.8690 -0.4947
vn -0.4806 0.2523 -0.8399
vn -0.4543 0.0654 -0.8884
vn -0.2682 0.9632 -0.0191
vn -0.4107 -0.1240 -0.9033
vn -0.3425 0.9192 -0.1944
vn -0.3515 -0.3087 -0.8838
vn -0.4038 0.8401 -0.3621
vn -0.2789 -0.4818 -0.8307
vn -0.4496 0.7292 -0.5159
vn -0.1956 -0.6367 -0.7459
vn -0.4782 0.5906 -0.6500
vn -0.1047 -0.7675 -0.6325
vn -0.4887 0.4295 -0.7594
vn -0.2763 0.8692 -0.4101
vn -0.3000 0.7632 -0.5722
vn -0.1515 -0.4528 -0.8786
vn -0.0951 -0.6139 -0.7837
vn -0.3123 0.6284 -0.7125
vn -0.0351 -0.7516 -0.6587
vn -0.3127 0.4697 -0.8256
vn 0.0263 -0.8608 -0.5083
vn -0.3012 0.2932 -0.9074
vn -0.1474 0.9786 0.1436
vn -0.2783 0.1055 -0.9547
vn -0.1986 0.9790 -0.0453
vn -0.2448 -0.0862 -0.9657
vn -0.2421 0.9421 -0.2322
vn -0.2020 -0.2747 -0.9401
vn -0.1102 0.3228 -0.9400
vn -0.0909 0.1346 -0.9867
vn -0.1090 0.9845 0.1370
vn -0.1245 0.9905 -0.0579
vn -0.0681 -0.0588 -0.9959
vn -0.1352 0.9586 -0.2505
vn -0.0428 -0.2500 -0.9673
vn -0.1407 0.8902 -0.4333
vn -0.0158 -0.4318 -0.9018
vn -0.1408 0.7879 -0.5994
vn 0.0118 -0.5973 -0.8019
vn -0.1356 0.6557 -0.7427
vn 0.0390 -0.7401 -0.6713
vn -0.1253 0.4987 -0.8577
vn 0.0647 -0.8548 -0.5149
vn 0.1228 -0.4196 -0.8994
vn 0.1211 -0.5876 -0.8000
vn 0.0219 0.8023 -0.5966
vn 0.0449 0.6717 -0.7395
vn 0.1147 -0.7335 -0.6700
vn 0.0662 0.5156 -0.8543
vn 0.1040 -0.8514 -0.5142
vn 0.0851 0.3400 -0.9366
vn -0.0698 0.9880 0.1377
vn 0.1006 0.1515 -0.9833
vn -0.0487 0.9972 -0.0566
vn 0.1124 -0.0429 -0.9927
vn -0.0259 0.9683 -0.2485
vn 0.1199 -0.2356 -0.9644
vn -0.0020 0.9024 -0.4308
vn 0.2890 0.1555 -0.9446
vn 0.2899 -0.0390 -0.9562
vn 0.0257 0.9988 -0.0413
vn 0.0816 0.9706 -0.2265
vn 0.2799 -0.2322 -0.9315
vn 0.1343 0.9054 -0.4028
vn 0.2592 -0.4166 -0.8714
vn 0.1818 0.8057 -0.5637
vn 0.2286 -0.5853 -0.7779
vn 0.2224 0.6755 -0.7030
vn 0.1892 -0.7318 -0.6547
vn 0.2546 0.5197 -0.8156
vn 0.1425 -0.8505 -0.5063
vn 0.2770 0.3441 -0.8971
vn -0.0312 0.9888 0.1457
vn 0.3301 -0.5904 -0.7365
vn 0.2595 -0.7354 -0.6260
vn 0.3901 0.6671 -0.6346
vn 0.4325 0.5108 -0.7430
vn 0.1790 -0.8523 -0.4914
vn 0.4584 0.3351 -0.8232
vn 0.0052 0.9870 0.1605
vn 0.4669 0.1466 -0.8721
vn 0.0961 0.9953 -0.0126
vn 0.4576 -0.0474 -0.8879
vn 0.1831 0.9655 -0.1851
vn 0.4310 -0.2397 -0.8699
vn 0.2631 0.8989 -0.3503
vn 0.3879 -0.4231 -0.8189
vn 0.3330 0.7982 -0.5021
vn 0.1596 0.9868 0.0283
vn 0.2747 0.9532 -0.1260
vn 0.6090 -0.0677 -0.7903
vn 0.5674 -0.2580 -0.7820
vn 0.3793 0.8833 -0.2753
vn 0.5042 -0.4386 -0.7439
vn 0.4694 0.7799 -0.4141
vn 0.4217 -0.6027 -0.6774
vn 0.5415 0.6468 -0.5370
vn 0.3230 -0.7439 -0.5851
vn 0.5931 0.4892 -0.6395
vn 0.2119 -0.8568 -0.4702
vn 0.6221 0.3131 -0.7176
vn 0.0382 0.9826 0.1818
vn 0.6275 0.1251 -0.7685
vn 0.6708 0.6154 -0.4139
vn 0.7302 0.4559 -0.5088
vn 0.3773 -0.7571 -0.5334
vn 0.2400 -0.8636 -0.4434
vn 0.7619 0.2791 -0.5845
vn 0.0662 0.9758 0.2085
vn 0.7646 0.0918 -0.6379
vn 0.2138 0.9736 0.0800
vn 0.7383 -0.0991 -0.6671
vn 0.3530 0.9342 -0.0514
vn 0.6839 -0.2863 -0.6710
vn 0.4786 0.8592 -0.1808
vn 0.6035 -0.4628 -0.6493
vn 0.5859 0.7516 -0.3031
vn 0.5000 -0.6217 -0.6029
vn 0.8405 -0.1405 -0.5232
vn 0.7760 -0.3236 -0.5413
vn 0.4149 0.9092 0.0357
vn 0.5571 0.8275 -0.0703
vn 0.6820 -0.4945 -0.5388
vn 0.6780 0.7143 -0.1735
vn 0.5618 -0.6467 -0.5158
vn 0.7730 0.5740 -0.2700
vn 0.4201 -0.7744 -0.4731
vn 0.8387 0.4120 -0.3562
vn 0.2622 -0.8726 -0.4122
vn 0.8724 0.2344 -0.4289
vn 0.0885 0.9668 0.2398
vn 0.8731 0.0479 -0.4853
vn 0.2567 0.9563 0.1403
usemtl Jupiter.004
s 1
f 1/1/1 2/2/2 3/3/3 4/4/4
f 5/5/5 6/6/6 7/7/7 8/8/8
f 9/9/9 1/1/1 4/4/4 10/10/10
f 11/11/11 12/12/12 13/13/13
f 14/14/14 5/5/5 8/8/8
f 15/15/15 9/9/9 10/10/10 16/16/16
f 17/17/17 11/11/11 13/13/13 18/18/18
f 19/19/19 15/15/15 16/16/16 20/20/20
f 21/21/21 17/17/17 18/18/18 22/22/22
f 23/23/23 19/19/19 20/20/20 24/24/24
f 25/25/25 21/21/21 22/22/22 26/26/26
f 27/27/27 23/23/23 24/24/24 28/28/28
f 29/29/29 25/25/25 26/26/26 30/30/30
f 31/31/31 27/27/27 28/28/28 32/32/32
f 2/2/2 29/29/29 30/30/30 3/3/3
f 6/6/6 31/31/31 32/32/32 7/7/7
f 3/3/3 30/30/30 33/33/33 34/34/34
f 7/7/7 32/32/32 35/35/35 36/36/36
f 4/4/4 3/3/3 34/34/34 37/37/37
f 8/8/8 7/7/7 36/36/36 38/38/38
f 10/10/10 4/4/4 37/37/37 39/39/39
f 13/13/13 12/40/12 40/41/40
f 14/42/14 8/8/8 38/38/38
f 16/16/16 10/10/10 39/39/39 41/43/41
f 18/18/18 13/13/13 40/41/40 42/44/42
f 20/20/20 16/16/16 41/43/41 43/45/43
f 22/22/22 18/18/18 42/44/42 44/46/44
f 24/24/24 20/20/20 43/45/43 45/47/45
f 26/26/26 22/22/22 44/46/44 46/48/46
f 28/28/28 24/24/24 45/47/45 47/49/47
f 30/30/30 26/26/26 46/48/46 33/33/33
f 32/32/32 28/28/28 47/49/47 35/35/35
f 43/45/43 41/43/41 48/50/48 49/51/49
f 44/46/44 42/44/42 50/52/50 51/53/51
f 45/47/45 43/45/43 49/51/49 52/54/52
f 46/48/46 44/46/44 51/53/51 53/55/53
f 47/49/47 45/47/45 52/54/52 54/56/54
f 33/33/33 46/48/46 53/55/53 55/57/55
f 35/35/35 47/49/47 54/56/54 56/58/56
f 34/34/34 33/33/33 55/57/55 57/59/57
f 36/36/36 35/35/35 56/58/56 58/60/58
f 37/37/37 34/34/34 57/59/57 59/61/59
f 38/38/38 36/36/36 58/60/58 60/62/60
f 39/39/39 37/37/37 59/61/59 61/63/61
f 40/41/40 12/64/12 62/65/62
f 14/66/14 38/38/38 60/62/60
f 41/43/41 39/39/39 61/63/61 48/50/48
f 42/44/42 40/41/40 62/65/62 50/52/50
f 58/60/58 56/58/56 63/67/63 64/68/64
f 59/61/59 57/59/57 65/69/65 66/70/66
f 60/62/60 58/60/58 64/68/64 67/71/67
f 61/63/61 59/61/59 66/70/66 68/72/68
f 62/65/62 12/73/12 69/74/69
f 14/75/14 60/62/60 67/71/67
f 48/50/48 61/63/61 68/72/68 70/76/70
f 50/52/50 62/65/62 69/74/69 71/77/71
f 49/51/49 48/50/48 70/76/70 72/78/72
f 51/53/51 50/52/50 71/77/71 73/79/73
f 52/54/52 49/51/49 72/78/72 74/80/74
f 53/55/53 51/53/51 73/79/73 75/81/75
f 54/56/54 52/54/52 74/80/74 76/82/76
f 55/57/55 53/55/53 75/81/75 77/83/77
f 56/58/56 54/56/54 76/82/76 63/67/63
f 57/59/57 55/57/55 77/83/77 65/69/65
f 73/79/73 71/77/71 78/84/78 79/85/79
f 74/80/74 72/78/72 80/86/80 81/87/81
f 75/81/75 73/79/73 79/85/79 82/88/82
f 76/82/76 74/80/74 81/87/81 83/89/83
f 77/83/77 75/81/75 82/88/82 84/90/84
f 63/67/63 76/82/76 83/89/83 85/91/85
f 65/69/65 77/83/77 84/90/84 86/92/86
f 64/68/64 63/67/63 85/91/85 87/93/87
f 66/70/66 65/69/65 86/92/86 88/94/88
f 67/71/67 64/68/64 87/93/87 89/95/89
f 68/72/68 66/70/66 88/94/88 90/96/90
f 69/74/69 12/97/12 91/98/91
f 14/99/14 67/71/67 89/95/89
f 70/76/70 68/72/68 90/96/90 92/100/92
f 71/77/71 69/74/69 91/98/91 78/84/78
f 72/78/72 70/76/70 92/100/92 80/86/80
f 88/94/88 86/92/86 93/101/93 94/102/94
f 89/95/89 87/93/87 95/103/95 96/104/96
f 90/96/90 88/94/88 94/102/94 97/105/97
f 91/98/91 12/106/12 98/107/98
f 14/108/14 89/95/89 96/104/96
f 92/100/92 90/96/90 97/105/97 99/109/99
f 78/84/78 91/98/91 98/107/98 100/110/100
f 80/86/80 92/100/92 99/109/99 101/111/101
f 79/85/79 78/84/78 100/110/100 102/112/102
f 81/87/81 80/86/80 101/111/101 103/113/103
f 82/88/82 79/85/79 102/112/102 104/114/104
f 83/89/83 81/87/81 103/113/103 105/115/105
f 84/90/84 82/88/82 104/114/104 106/116/106
f 85/91/85 83/89/83 105/115/105 107/117/107
f 86/92/86 84/90/84 106/116/106 93/101/93
f 87/93/87 85/91/85 107/117/107 95/103/95
f 103/113/103 101/111/101 108/118/108 109/119/109
f 104/114/104 102/112/102 110/120/110 111/121/111
f 105/115/105 103/113/103 109/119/109 112/122/112
f 106/116/106 104/114/104 111/121/111 113/123/113
f 107/117/107 105/115/105 112/122/112 114/124/114
f 93/101/93 106/116/106 113/123/113 115/125/115
f 95/103/95 107/117/107 114/124/114 116/126/116
f 94/102/94 93/101/93 115/125/115 117/127/117
f 96/104/96 95/103/95 116/126/116 118/128/118
f 97/105/97 94/102/94 117/127/117 119/129/119
f 98/107/98 12/130/12 120/131/120
f 14/132/14 96/104/96 118/128/118
f 99/109/99 97/105/97 119/129/119 121/133/121
f 100/110/100 98/107/98 120/131/120 122/134/122
f 101/111/101 99/109/99 121/133/121 108/118/108
f 102/112/102 100/110/100 122/134/122 110/120/110
f 118/128/118 116/126/116 123/135/123 124/136/124
f 119/129/119 117/127/117 125/137/125 126/138/126
f 120/131/120 12/139/12 127/140/127
f 14/141/14 118/128/118 124/136/124
f 121/133/121 119/129/119 126/138/126 128/142/128
f 122/134/122 120/131/120 127/140/127 129/143/129
f 108/118/108 121/133/121 128/142/128 130/144/130
f 110/120/110 122/134/122 129/143/129 131/145/131
f 109/119/109 108/118/108 130/144/130 132/146/132
f 111/121/111 110/120/110 131/145/131 133/147/133
f 112/122/112 109/119/109 132/146/132 134/148/134
f 113/123/113 111/121/111 133/147/133 135/149/135
f 114/124/114 112/122/112 134/148/134 136/150/136
f 115/125/115 113/123/113 135/149/135 137/151/137
f 116/126/116 114/124/114 136/150/136 123/135/123
f 117/127/117 115/125/115 137/151/137 125/137/125
f 134/148/134 132/146/132 138/152/138 139/153/139
f 135/149/135 133/147/133 140/154/140 141/155/141
f 136/150/136 134/148/134 139/153/139 142/156/142
f 137/151/137 135/149/135 141/155/141 143/157/143
f 123/135/123 136/150/136 142/156/142 144/158/144
f 125/137/125 137/151/137 143/157/143 145/159/145
f 124/136/124 123/135/123 144/158/144 146/160/146
f 126/138/126 125/137/125 145/159/145 147/161/147
f 127/140/127 12/162/12 148/163/148
f 14/164/14 124/136/124 146/160/146
f 128/142/128 126/138/126 147/161/147 149/165/149
f 129/143/129 127/140/127 148/163/148 150/166/150
f 130/144/130 128/142/128 149/165/149 151/167/151
f 131/145/131 129/143/129 150/166/150 152/168/152
f 132/146/132 130/144/130 151/167/151 138/152/138
f 133/147/133 131/145/131 152/168/152 140/154/140
f 148/163/148 12/169/12 153/170/153
f 14/171/14 146/160/146 154/172/154
f 149/165/149 147/161/147 155/173/155 156/174/156
f 150/166/150 148/163/148 153/170/153 157/175/157
f 151/167/151 149/165/149 156/174/156 158/176/158
f 152/168/152 150/166/150 157/175/157 159/177/159
f 138/152/138 151/167/151 158/176/158 160/178/160
f 140/154/140 152/168/152 159/177/159 161/179/161
f 139/153/139 138/152/138 160/178/160 162/180/162
f 141/155/141 140/154/140 161/179/161 163/181/163
f 142/156/142 139/153/139 162/180/162 164/182/164
f 143/157/143 141/155/141 163/181/163 165/183/165
f 144/158/144 142/156/142 164/182/164 166/184/166
f 145/159/145 143/157/143 165/183/165 167/185/167
f 146/160/146 144/158/144 166/184/166 154/172/154
f 147/161/147 145/159/145 167/185/167 155/173/155
f 163/181/163 161/179/161 168/186/168 169/187/169
f 164/182/164 162/180/162 170/188/170 171/189/171
f 165/183/165 163/181/163 169/187/169 172/190/172
f 166/184/166 164/182/164 171/189/171 173/191/173
f 167/185/167 165/183/165 172/190/172 174/192/174
f 154/172/154 166/184/166 173/191/173 175/193/175
f 155/173/155 167/185/167 174/192/174 176/194/176
f 153/170/153 12/195/12 177/196/177
f 14/197/14 154/172/154 175/193/175
f 156/174/156 155/173/155 176/194/176 178/198/178
f 157/175/157 153/170/153 177/196/177 179/199/179
f 158/176/158 156/174/156 178/198/178 180/200/180
f 159/177/159 157/175/157 179/199/179 181/201/181
f 160/178/160 158/176/158 180/200/180 182/202/182
f 161/179/161 159/177/159 181/201/181 168/186/168
f 162/180/162 160/178/160 182/202/182 170/188/170
f 178/198/178 176/194/176 183/203/183 184/204/184
f 179/199/179 177/196/177 185/205/185 186/206/186
f 180/200/180 178/198/178 184/204/184 187/207/187
f 181/201/181 179/199/179 186/206/186 188/208/188
f 182/202/182 180/200/180 187/207/187 189/209/189
f 168/186/168 181/201/181 188/208/188 190/210/190
f 170/188/170 182/202/182 189/209/189 191/211/191
f 169/187/169 168/186/168 190/210/190 192/212/192
f 171/189/171 170/188/170 191/211/191 193/213/193
f 172/190/172 169/187/169 192/212/192 194/214/194
f 173/191/173 171/189/171 193/213/193 195/215/195
f 174/192/174 172/190/172 194/214/194 196/216/196
f 175/193/175 173/191/173 195/215/195 197/217/197
f 176/194/176 174/192/174 196/216/196 183/203/183
f 177/196/177 12/218/12 185/205/185
f 14/219/14 175/193/175 197/217/197
f 193/213/193 191/211/191 198/220/198 199/221/199
f 194/214/194 192/212/192 200/222/200 201/223/201
f 195/215/195 193/213/193 199/221/199 202/224/202
f 196/216/196 194/214/194 201/223/201 203/225/203
f 197/217/197 195/215/195 202/224/202 204/226/204
f 183/203/183 196/216/196 203/225/203 205/227/205
f 185/205/185 12/228/12 206/229/206
f 14/230/14 197/217/197 204/226/204
f 184/204/184 183/203/183 205/227/205 207/231/207
f 186/206/186 185/205/185 206/229/206 208/232/208
f 187/207/187 184/204/184 207/231/207 209/233/209
f 188/208/188 186/206/186 208/232/208 210/234/210
f 189/209/189 187/207/187 209/233/209 211/235/211
f 190/210/190 188/208/188 210/234/210 212/236/212
f 191/211/191 189/209/189 211/235/211 198/220/198
f 192/212/192 190/210/190 212/236/212 200/222/200
f 208/232/208 206/229/206 213/237/213 214/238/214
f 209/233/209 207/231/207 215/239/215 216/240/216
f 210/234/210 208/232/208 214/238/214 217/241/217
f 211/235/211 209/233/209 216/240/216 218/242/218
f 212/236/212 210/234/210 217/241/217 219/243/219
f 198/220/198 211/235/211 218/242/218 220/244/220
f 200/222/200 212/236/212 219/243/219 221/245/221
f 199/221/199 198/220/198 220/244/220 222/246/222
f 201/223/201 200/222/200 221/245/221 223/247/223
f 202/224/202 199/221/199 222/246/222 224/248/224
f 203/225/203 201/223/201 223/247/223 225/249/225
f 204/226/204 202/224/202 224/248/224 226/250/226
f 205/227/205 203/225/203 225/249/225 227/251/227
f 206/229/206 12/252/12 213/237/213
f 14/253/14 204/226/204 226/250/226
f 207/231/207 205/227/205 227/251/227 215/239/215
f 223/247/223 221/245/221 228/254/228 229/255/229
f 224/248/224 222/246/222 230/256/230 231/257/231
f 225/249/225 223/247/223 229/255/229 232/258/232
f 226/250/226 224/248/224 231/257/231 233/259/233
f 227/251/227 225/249/225 232/258/232 234/260/234
f 213/237/213 12/261/12 235/262/235
f 14/263/14 226/250/226 233/259/233
f 215/239/215 227/251/227 234/260/234 236/264/236
f 214/238/214 213/237/213 235/262/235 237/265/237
f 216/240/216 215/239/215 236/264/236 238/266/238
f 217/241/217 214/238/214 237/265/237 239/267/239
f 218/242/218 216/240/216 238/266/238 240/268/240
f 219/243/219 217/241/217 239/267/239 241/269/241
f 220/244/220 218/242/218 240/268/240 242/270/242
f 221/245/221 219/243/219 241/269/241 228/254/228
f 222/246/222 220/244/220 242/270/242 230/256/230
f 238/266/238 236/264/236 243/271/243 244/272/244
f 239/267/239 237/265/237 245/273/245 246/274/246
f 240/268/240 238/266/238 244/272/244 247/275/247
f 241/269/241 239/267/239 246/274/246 248/276/248
f 242/270/242 240/268/240 247/275/247 249/277/249
f 228/254/228 241/269/241 248/276/248 250/278/250
f 230/256/230 242/270/242 249/277/249 251/279/251
f 229/255/229 228/254/228 250/278/250 252/280/252
f 231/257/231 230/256/230 251/279/251 253/281/253
f 232/258/232 229/255/229 252/280/252 254/282/254
f 233/259/233 231/257/231 253/281/253 255/283/255
f 234/260/234 232/258/232 254/282/254 256/284/256
f 235/262/235 12/285/12 257/286/257
f 14/287/14 233/259/233 255/283/255
f 236/264/236 234/260/234 256/284/256 243/271/243
f 237/265/237 235/262/235 257/286/257 245/273/245
f 253/281/253 251/279/251 258/288/258 259/289/259
f 254/282/254 252/280/252 260/290/260 261/291/261
f 255/283/255 253/281/253 259/289/259 262/292/262
f 256/284/256 254/282/254 261/291/261 263/293/263
f 257/286/257 12/294/12 264/295/264
f 14/296/14 255/283/255 262/292/262
f 243/271/243 256/284/256 263/293/263 265/297/265
f 245/273/245 257/286/257 264/295/264 266/298/266
f 244/272/244 243/271/243 265/297/265 267/299/267
f 246/274/246 245/273/245 266/298/266 268/300/268
f 247/275/247 244/272/244 267/299/267 269/301/269
f 248/276/248 246/274/246 268/300/268 270/302/270
f 249/277/249 247/275/247 269/301/269 271/303/271
f 250/278/250 248/276/248 270/302/270 272/304/272
f 251/279/251 249/277/249 271/303/271 258/288/258
f 252/280/252 250/278/250 272/304/272 260/290/260
f 269/301/269 267/299/267 273/305/273 274/306/274
f 270/302/270 268/300/268 275/307/275 276/308/276
f 271/303/271 269/301/269 274/306/274 277/309/277
f 272/304/272 270/302/270 276/308/276 278/310/278
f 258/288/258 271/303/271 277/309/277 279/311/279
f 260/290/260 272/304/272 278/310/278 280/312/280
f 259/289/259 258/288/258 279/311/279 281/313/281
f 261/291/261 260/290/260 280/312/280 282/314/282
f 262/292/262 259/289/259 281/313/281 283/315/283
f 263/293/263 261/291/261 282/314/282 284/316/284
f 264/295/264 12/317/12 285/318/285
f 14/319/14 262/292/262 283/315/283
f 265/297/265 263/293/263 284/316/284 286/320/286
f 266/298/266 264/295/264 285/318/285 287/321/287
f 267/299/267 265/297/265 286/320/286 273/305/273
f 268/300/268 266/298/266 287/321/287 275/307/275
f 283/315/283 281/313/281 288/322/288 289/323/289
f 284/316/284 282/314/282 290/324/290 291/325/291
f 285/318/285 12/326/12 292/327/292
f 14/328/14 283/315/283 289/323/289
f 286/320/286 284/316/284 291/325/291 293/329/293
f 287/321/287 285/318/285 292/327/292 294/330/294
f 273/305/273 286/320/286 293/329/293 295/331/295
f 275/307/275 287/321/287 294/330/294 296/332/296
f 274/306/274 273/305/273 295/331/295 297/333/297
f 276/308/276 275/307/275 296/332/296 298/334/298
f 277/309/277 274/306/274 297/333/297 299/335/299
f 278/310/278 276/308/276 298/334/298 300/336/300
f 279/311/279 277/309/277 299/335/299 301/337/301
f 280/312/280 278/310/278 300/336/300 302/338/302
f 281/313/281 279/311/279 301/337/301 288/322/288
f 282/314/282 280/312/280 302/338/302 290/324/290
f 298/334/298 296/332/296 303/339/303 304/340/304
f 299/335/299 297/333/297 305/341/305 306/342/306
f 300/336/300 298/334/298 304/340/304 307/343/307
f 301/337/301 299/335/299 306/342/306 308/344/308
f 302/338/302 300/336/300 307/343/307 309/345/309
f 288/322/288 301/337/301 308/344/308 310/346/310
f 290/324/290 302/338/302 309/345/309 311/347/311
f 289/323/289 288/322/288 310/346/310 312/348/312
f 291/325/291 290/324/290 311/347/311 313/349/313
f 292/327/292 12/350/12 314/351/314
f 14/352/14 289/323/289 312/348/312
f 293/329/293 291/325/291 313/349/313 315/353/315
f 294/330/294 292/327/292 314/351/314 316/354/316
f 295/331/295 293/329/293 315/353/315 317/355/317
f 296/332/296 294/330/294 316/354/316 303/339/303
f 297/333/297 295/331/295 317/355/317 305/341/305
f 313/349/313 311/347/311 318/356/318 319/357/319
f 314/351/314 12/358/12 320/359/320
f 14/360/14 312/348/312 321/361/321
f 315/353/315 313/349/313 319/357/319 322/362/322
f 316/354/316 314/351/314 320/359/320 323/363/323
f 317/355/317 315/353/315 322/362/322 324/364/324
f 303/339/303 316/354/316 323/363/323 325/365/325
f 305/341/305 317/355/317 324/364/324 326/366/326
f 304/340/304 303/339/303 325/365/325 327/367/327
f 306/342/306 305/341/305 326/366/326 328/368/328
f 307/343/307 304/340/304 327/367/327 329/369/329
f 308/344/308 306/342/306 328/368/328 330/370/330
f 309/345/309 307/343/307 329/369/329 331/371/331
f 310/346/310 308/344/308 330/370/330 332/372/332
f 311/347/311 309/345/309 331/371/331 318/356/318
f 312/348/312 310/346/310 332/372/332 321/361/321
f 328/368/328 326/366/326 333/373/333 334/374/334
f 329/369/329 327/367/327 335/375/335 336/376/336
f 330/370/330 328/368/328 334/374/334 337/377/337
f 331/371/331 329/369/329 336/376/336 338/378/338
f 332/372/332 330/370/330 337/377/337 339/379/339
f 318/356/318 331/371/331 338/378/338 340/380/340
f 321/361/321 332/372/332 339/379/339 341/381/341
f 319/357/319 318/356/318 340/380/340 342/382/342
f 320/359/320 12/383/12 343/384/343
f 14/385/14 321/361/321 341/381/341
f 322/362/322 319/357/319 342/382/342 344/386/344
f 323/363/323 320/359/320 343/384/343 345/387/345
f 324/364/324 322/362/322 344/386/344 346/388/346
f 325/365/325 323/363/323 345/387/345 347/389/347
f 326/366/326 324/364/324 346/388/346 333/373/333
f 327/367/327 325/365/325 347/389/347 335/375/335
f 343/384/343 12/390/12 348/391/348
f 14/392/14 341/381/341 349/393/349
f 344/386/344 342/382/342 350/394/350 351/395/351
f 345/387/345 343/384/343 348/391/348 352/396/352
f 346/388/346 344/386/344 351/395/351 353/397/353
f 347/389/347 345/387/345 352/396/352 354/398/354
f 333/373/333 346/388/346 353/397/353 355/399/355
f 335/375/335 347/389/347 354/398/354 356/400/356
f 334/374/334 333/373/333 355/399/355 357/401/357
f 336/376/336 335/375/335 356/400/356 358/402/358
f 337/377/337 334/374/334 357/401/357 359/403/359
f 338/378/338 336/376/336 358/402/358 360/404/360
f 339/379/339 337/377/337 359/403/359 361/405/361
f 340/380/340 338/378/338 360/404/360 362/406/362
f 341/381/341 339/379/339 361/405/361 349/393/349
f 342/382/342 340/380/340 362/406/362 350/394/350
f 358/402/358 356/400/356 363/407/363 364/408/364
f 359/403/359 357/401/357 365/409/365 366/410/366
f 360/404/360 358/402/358 364/408/364 367/411/367
f 361/405/361 359/403/359 366/410/366 368/412/368
f 362/406/362 360/404/360 367/411/367 369/413/369
f 349/393/349 361/405/361 368/412/368 370/414/370
f 350/394/350 362/406/362 369/413/369 371/415/371
f 348/391/348 12/416/12 372/417/372
f 14/418/14 349/393/349 370/414/370
f 351/395/351 350/394/350 371/415/371 373/419/373
f 352/396/352 348/391/348 372/417/372 374/420/374
f 353/397/353 351/395/351 373/419/373 375/421/375
f 354/398/354 352/396/352 374/420/374 376/422/376
f 355/399/355 353/397/353 375/421/375 377/423/377
f 356/400/356 354/398/354 376/422/376 363/407/363
f 357/401/357 355/399/355 377/423/377 365/409/365
f 373/424/373 371/425/371 378/426/378 379/427/379
f 374/428/374 372/429/372 380/430/380 381/431/381
f 375/432/375 373/424/373 379/427/379 382/433/382
f 376/434/376 374/428/374 381/431/381 383/435/383
f 377/436/377 375/432/375 382/433/382 384/437/384
f 363/438/363 376/434/376 383/435/383 385/439/385
f 365/440/365 377/436/377 384/437/384 386/441/386
f 364/442/364 363/438/363 385/439/385 387/443/387
f 366/444/366 365/440/365 386/441/386 388/445/388
f 367/446/367 364/442/364 387/443/387 389/447/389
f 368/448/368 366/444/366 388/445/388 390/449/390
f 369/450/369 367/446/367 389/447/389 391/451/391
f 370/452/370 368/448/368 390/449/390 392/453/392
f 371/425/371 369/450/369 391/451/391 378/426/378
f 372/429/372 12/454/12 380/430/380
f 14/455/14 370/452/370 392/453/392
f 388/445/388 386/441/386 393/456/393 394/457/394
f 389/447/389 387/443/387 395/458/395 396/459/396
f 390/449/390 388/445/388 394/457/394 397/460/397
f 391/451/391 389/447/389 396/459/396 398/461/398
f 392/453/392 390/449/390 397/460/397 399/462/399
f 378/426/378 391/451/391 398/461/398 400/463/400
f 380/430/380 12/464/12 401/465/401
f 14/466/14 392/453/392 399/462/399
f 379/427/379 378/426/378 400/463/400 402/467/402
f 381/431/381 380/430/380 401/465/401 403/468/403
f 382/433/382 379/427/379 402/467/402 404/469/404
f 383/435/383 381/431/381 403/468/403 405/470/405
f 384/437/384 382/433/382 404/469/404 406/471/406
f 385/439/385 383/435/383 405/470/405 407/472/407
f 386/441/386 384/437/384 406/471/406 393/456/393
f 387/443/387 385/439/385 407/472/407 395/458/395
f 404/469/404 402/467/402 408/473/408 409/474/409
f 405/470/405 403/468/403 410/475/410 411/476/411
f 406/471/406 404/469/404 409/474/409 412/477/412
f 407/472/407 405/470/405 411/476/411 413/478/413
f 393/456/393 406/471/406 412/477/412 414/479/414
f 395/458/395 407/472/407 413/478/413 415/480/415
f 394/457/394 393/456/393 414/479/414 416/481/416
f 396/459/396 395/458/395 415/480/415 417/482/417
f 397/460/397 394/457/394 416/481/416 418/483/418
f 398/461/398 396/459/396 417/482/417 419/484/419
f 399/462/399 397/460/397 418/483/418 420/485/420
f 400/463/400 398/461/398 419/484/419 421/486/421
f 401/465/401 12/487/12 422/488/422
f 14/489/14 399/462/399 420/485/420
f 402/467/402 400/463/400 421/486/421 408/473/408
f 403/468/403 401/465/401 422/488/422 410/475/410
f 418/483/418 416/481/416 423/490/423 424/491/424
f 419/484/419 417/482/417 425/492/425 426/493/426
f 420/485/420 418/483/418 424/491/424 427/494/427
f 421/486/421 419/484/419 426/493/426 428/495/428
f 422/488/422 12/496/12 429/497/429
f 14/498/14 420/485/420 427/494/427
f 408/473/408 421/486/421 428/495/428 430/499/430
f 410/475/410 422/488/422 429/497/429 431/500/431
f 409/474/409 408/473/408 430/499/430 432/501/432
f 411/476/411 410/475/410 431/500/431 433/502/433
f 412/477/412 409/474/409 432/501/432 434/503/434
f 413/478/413 411/476/411 433/502/433 435/504/435
f 414/479/414 412/477/412 434/503/434 436/505/436
f 415/480/415 413/478/413 435/504/435 437/506/437
f 416/481/416 414/479/414 436/505/436 423/490/423
f 417/482/417 415/480/415 437/506/437 425/492/425
f 433/502/433 431/500/431 438/507/438 439/508/439
f 434/503/434 432/501/432 440/509/440 441/510/441
f 435/504/435 433/502/433 439/508/439 442/511/442
f 436/505/436 434/503/434 441/510/441 443/512/443
f 437/506/437 435/504/435 442/511/442 444/513/444
f 423/490/423 436/505/436 443/512/443 445/514/445
f 425/492/425 437/506/437 444/513/444 446/515/446
f 424/491/424 423/490/423 445/514/445 447/516/447
f 426/493/426 425/492/425 446/515/446 448/517/448
f 427/494/427 424/491/424 447/516/447 449/518/449
f 428/495/428 426/493/426 448/517/448 450/519/450
f 429/497/429 12/520/12 451/521/451
f 14/522/14 427/494/427 449/518/449
f 430/499/430 428/495/428 450/519/450 452/523/452
f 431/500/431 429/497/429 451/521/451 438/507/438
f 432/501/432 430/499/430 452/523/452 440/509/440
f 448/517/448 446/515/446 453/524/453 454/525/454
f 449/518/449 447/516/447 455/526/455 456/527/456
f 450/519/450 448/517/448 454/525/454 457/528/457
f 451/521/451 12/529/12 458/530/458
f 14/531/14 449/518/449 456/527/456
f 452/523/452 450/519/450 457/528/457 459/532/459
f 438/507/438 451/521/451 458/530/458 460/533/460
f 440/509/440 452/523/452 459/532/459 461/534/461
f 439/508/439 438/507/438 460/533/460 462/535/462
f 441/510/441 440/509/440 461/534/461 463/536/463
f 442/511/442 439/508/439 462/535/462 464/537/464
f 443/512/443 441/510/441 463/536/463 465/538/465
f 444/513/444 442/511/442 464/537/464 466/539/466
f 445/514/445 443/512/443 465/538/465 467/540/467
f 446/515/446 444/513/444 466/539/466 453/524/453
f 447/516/447 445/514/445 467/540/467 455/526/455
f 463/536/463 461/534/461 468/541/468 469/542/469
f 464/537/464 462/535/462 470/543/470 471/544/471
f 465/538/465 463/536/463 469/542/469 472/545/472
f 466/539/466 464/537/464 471/544/471 473/546/473
f 467/540/467 465/538/465 472/545/472 474/547/474
f 453/524/453 466/539/466 473/546/473 475/548/475
f 455/526/455 467/540/467 474/547/474 476/549/476
f 454/525/454 453/524/453 475/548/475 477/550/477
f 456/527/456 455/526/455 476/549/476 478/551/478
f 457/528/457 454/525/454 477/550/477 479/552/479
f 458/530/458 12/553/12 480/554/480
f 14/555/14 456/527/456 478/551/478
f 459/532/459 457/528/457 479/552/479 481/556/481
f 460/533/460 458/530/458 480/554/480 482/557/482
f 461/534/461 459/532/459 481/556/481 468/541/468
f 462/535/462 460/533/460 482/557/482 470/543/470
f 478/551/478 476/549/476 6/6/6 5/5/5
f 479/552/479 477/550/477 1/1/1 9/9/9
f 480/554/480 12/558/12 11/11/11
f 14/559/14 478/551/478 5/5/5
f 481/556/481 479/552/479 9/9/9 15/15/15
f 482/557/482 480/554/480 11/11/11 17/17/17
f 468/541/468 481/556/481 15/15/15 19/19/19
f 470/543/470 482/557/482 17/17/17 21/21/21
f 469/542/469 468/541/468 19/19/19 23/23/23
f 471/544/471 470/543/470 21/21/21 25/25/25
f 472/545/472 469/542/469 23/23/23 27/27/27
f 473/546/473 471/544/471 25/25/25 29/29/29
f 474/547/474 472/545/472 27/27/27 31/31/31
f 475/548/475 473/546/473 29/29/29 2/2/2
f 476/549/476 474/547/474 31/31/31 6/6/6
f 477/550/477 475/548/475 2/2/2 1/1/1
