# Blender v2.92.0 OBJ File: ''
# www.blender.org
mtllib Scene.mtl
o Moon_Moon_Cube.004
v 0.905280 1.555559 -6.826304
v 0.600602 1.457741 -6.981385
v 0.701273 1.620658 -7.270692
v 1.001093 1.720413 -7.124256
v 0.770102 1.834334 -7.527300
v 1.057139 1.934651 -7.391134
v 0.800076 2.083759 -7.743458
v 1.073547 2.184216 -7.616122
v 0.786543 2.356022 -7.917532
v 1.052943 2.458293 -7.795331
v 0.278909 1.425546 -7.113943
v 0.381790 1.580676 -7.389141
v 0.462995 1.784355 -7.630596
v 0.510309 2.021281 -7.831080
v 0.507794 2.277920 -7.992606
v -0.042372 1.456176 -7.218790
v 0.061330 1.602328 -7.480524
v 0.155841 1.790569 -7.704862
v 0.228202 2.002190 -7.882610
v 0.243460 2.226422 -8.022590
v -0.352383 1.543680 -7.294538
v -0.246516 1.684230 -7.549308
v -0.135860 1.859690 -7.762986
v -0.030976 2.048219 -7.924567
v 0.046991 2.201131 -8.021162
v 1.262361 1.872028 -6.952806
v 1.173857 1.714486 -6.657707
v 1.473143 2.068607 -6.771471
v 1.391746 1.922920 -6.486054
v 1.628195 2.300782 -6.594996
v 1.552233 2.166750 -6.320007
v 1.728141 2.561470 -6.435066
v 1.655103 2.435205 -6.164371
v 1.306849 2.074490 -7.222317
v 1.508131 2.251146 -7.037478
v 1.655112 2.458435 -6.855465
v 1.749295 2.696849 -6.696911
v 1.312521 2.312449 -7.451706
v 1.504076 2.464164 -7.266043
v 1.641115 2.630622 -7.080703
v 1.726457 2.827952 -6.928968
v 1.287125 2.578648 -7.632298
v 1.475244 2.707772 -7.442088
v 1.609771 2.832720 -7.246517
v 1.684806 2.927098 -7.092353
v 1.040837 1.608768 -6.355898
v 0.774252 1.451593 -6.514325
v 0.875756 1.562685 -6.061240
v 0.616650 1.413034 -6.207055
v 0.693179 1.578170 -5.784635
v 0.442096 1.437260 -5.919339
v 0.506032 1.654024 -5.531213
v 0.257605 1.518615 -5.659064
v 1.261819 1.816903 -6.200694
v 1.096354 1.761245 -5.926000
v 0.912820 1.761840 -5.671455
v 0.731126 1.825389 -5.436931
v 1.427007 2.060832 -6.050400
v 1.264599 1.993225 -5.799219
v 1.085219 1.969457 -5.578723
v 0.917592 2.010855 -5.378104
v 1.532092 2.327579 -5.903462
v 1.369975 2.244827 -5.669309
v 1.189935 2.189584 -5.477326
v 1.040809 2.161892 -5.351847
v 0.478424 1.357340 -6.672409
v 0.168148 1.328872 -6.815958
v -0.142712 1.362258 -6.932957
v -0.445562 1.450219 -7.014576
v 0.336686 1.322427 -6.363814
v 0.047132 1.294279 -6.514876
v -0.239710 1.325150 -6.643376
v -0.520467 1.407457 -6.729871
v 0.177864 1.349357 -6.073413
v -0.086001 1.318745 -6.231250
v -0.333895 1.340771 -6.374185
v -0.573999 1.409594 -6.466157
v 0.002425 1.431273 -5.813316
v -0.241646 1.395319 -5.981932
v -0.455239 1.404295 -6.147407
v -0.603779 1.435657 -6.273612
v -0.513935 2.375921 -4.977008
v -0.790092 2.263328 -5.171215
v -0.603895 1.983594 -5.263380
v -0.328965 2.088437 -5.076112
v -0.399478 1.747945 -5.405228
v -0.132222 1.844848 -5.230407
v -0.193001 1.563566 -5.590411
v 0.065529 1.654241 -5.428115
v -1.026643 2.184355 -5.414417
v -0.845319 1.917400 -5.496854
v -0.640706 1.693304 -5.619654
v -0.432476 1.519566 -5.780306
v -1.214850 2.140337 -5.690671
v -1.040070 1.885542 -5.763954
v -0.838677 1.674061 -5.863396
v -0.633253 1.514955 -5.984460
v -1.352727 2.129704 -5.988118
v -1.180938 1.880829 -6.054935
v -0.978773 1.675514 -6.132266
v -0.769491 1.523757 -6.211416
v -0.038862 2.231626 -4.945072
v -0.213937 2.516310 -4.845539
v 0.252847 2.399596 -4.878509
v 0.091153 2.675287 -4.783115
v 0.534844 2.577364 -4.877839
v 0.385488 2.843450 -4.787947
v 0.801418 2.752066 -4.940602
v 0.660020 3.014370 -4.854339
v 0.141493 1.985742 -5.101355
v 0.411790 2.156026 -5.028540
v 0.669386 2.337262 -5.016675
v 0.914898 2.508684 -5.069499
v 0.323285 1.791123 -5.300971
v 0.568016 1.960495 -5.219371
v 0.787763 2.141173 -5.187701
v 0.995849 2.301919 -5.221626
v -0.378735 2.821689 -4.811699
v -0.675362 2.690774 -4.940788
v -0.519089 3.132538 -4.842049
v -0.804325 3.013286 -4.967639
v -0.624123 3.435719 -4.928868
v -0.896839 3.326769 -5.051450
v -0.686543 3.723978 -5.062468
v -0.952943 3.621707 -5.184669
v -0.072489 2.964165 -4.750054
v -0.221197 3.254497 -4.778682
v -0.338988 3.534550 -4.861419
v -0.407794 3.802080 -4.987393
v 0.224603 3.116104 -4.754521
v 0.068118 3.381345 -4.777890
v -0.066326 3.624263 -4.848881
v -0.143460 3.853578 -4.957410
v 0.499174 3.277775 -4.819709
v 0.330948 3.524187 -4.836277
v 0.171496 3.735119 -4.893060
v 0.053009 3.878869 -4.958838
v -0.942430 2.573708 -5.131390
v -1.168318 2.482057 -5.370818
v -1.347437 2.424390 -5.643619
v -1.480171 2.406650 -5.937177
v -1.057721 2.894833 -5.148341
v -1.269581 2.791934 -5.374053
v -1.434881 2.718338 -5.629867
v -1.557416 2.691217 -5.904568
v -1.137527 3.208278 -5.221289
v -1.334410 3.093822 -5.427606
v -1.481125 2.998289 -5.652095
v -1.587334 2.957208 -5.889625
v -1.187125 3.501352 -5.347702
v -1.375244 3.372228 -5.537912
v -1.509771 3.247280 -5.733483
v -1.584806 3.152902 -5.887647
v -0.805280 4.524441 -6.153696
v -1.073857 4.365514 -6.322292
v -1.162361 4.207972 -6.027194
v -0.901093 4.359587 -5.855743
v -1.206849 4.005510 -5.757683
v -0.957139 4.145349 -5.588866
v -1.212521 3.767550 -5.528294
v -0.973547 3.895784 -5.363878
v -1.291746 4.157080 -6.493946
v -1.373143 4.011393 -6.208529
v -1.408131 3.828854 -5.942522
v -1.404076 3.615836 -5.713957
v -1.452233 3.913250 -6.659993
v -1.528195 3.779218 -6.385004
v -1.555112 3.621565 -6.124535
v -1.541115 3.449378 -5.899297
v -1.555103 3.644795 -6.815629
v -1.628141 3.518530 -6.544934
v -1.649295 3.383151 -6.283089
v -1.626457 3.252048 -6.051032
v -0.601273 4.459342 -5.709308
v -0.500602 4.622260 -5.998614
v -0.281790 4.499324 -5.590858
v -0.178909 4.654454 -5.866056
v 0.038670 4.477672 -5.499475
v 0.142372 4.623824 -5.761209
v 0.346516 4.395770 -5.430692
v 0.452383 4.536320 -5.685462
v -0.670102 4.245666 -5.452700
v -0.362995 4.295645 -5.349403
v -0.055841 4.289431 -5.275137
v 0.235860 4.220310 -5.217013
v -0.700076 3.996241 -5.236542
v -0.410309 4.058719 -5.148920
v -0.128202 4.077810 -5.097390
v 0.130976 4.031781 -5.055433
v -0.378424 4.722660 -6.307590
v -0.674252 4.628406 -6.465674
v -0.236686 4.757573 -6.616186
v -0.516650 4.666966 -6.772944
v -0.077864 4.730643 -6.906587
v -0.342096 4.642740 -7.060660
v 0.097575 4.648727 -7.166684
v -0.157605 4.561385 -7.320936
v -0.068148 4.751128 -6.164042
v 0.052868 4.785721 -6.465124
v 0.186001 4.761255 -6.748750
v 0.341646 4.684681 -6.998067
v 0.242712 4.717742 -6.047042
v 0.339710 4.754850 -6.336624
v 0.433895 4.739229 -6.605814
v 0.555239 4.675705 -6.832592
v 0.545563 4.629781 -5.965424
v 0.620468 4.672543 -6.250129
v 0.673999 4.670406 -6.513843
v 0.703779 4.644343 -6.706388
v -0.940837 4.471232 -6.624102
v -1.161819 4.263097 -6.779305
v -1.327007 4.019168 -6.929600
v -1.432092 3.752421 -7.076538
v -0.775756 4.517315 -6.918759
v -0.996354 4.318755 -7.053999
v -1.164599 4.086775 -7.180780
v -1.269975 3.835173 -7.310691
v -0.593179 4.501830 -7.195364
v -0.812820 4.318160 -7.308545
v -0.985219 4.110543 -7.401277
v -1.089935 3.890416 -7.502674
v -0.406032 4.425976 -7.448787
v -0.631126 4.254611 -7.543068
v -0.817592 4.069145 -7.601896
v -0.940809 3.918108 -7.628153
v 0.613935 3.704079 -8.002992
v 0.313937 3.563690 -8.134460
v 0.138862 3.848374 -8.034927
v 0.428965 3.991563 -7.903889
v -0.041493 4.094258 -7.878645
v 0.232222 4.235152 -7.749593
v -0.223285 4.288877 -7.679029
v 0.034471 4.425759 -7.551885
v 0.008847 3.404713 -8.196885
v -0.152847 3.680404 -8.101491
v -0.311790 3.923974 -7.951460
v -0.468016 4.119504 -7.760629
v -0.285488 3.236550 -8.192053
v -0.434844 3.502636 -8.102160
v -0.569386 3.742738 -7.963325
v -0.687763 3.938827 -7.792299
v -0.560020 3.065630 -8.125661
v -0.701418 3.327934 -8.039398
v -0.814898 3.571316 -7.910501
v -0.895849 3.778081 -7.758374
v 0.703894 4.096406 -7.716619
v 0.890092 3.816672 -7.808784
v 0.945319 4.162600 -7.483146
v 1.126643 3.895645 -7.565583
v 1.140070 4.194458 -7.216045
v 1.314850 3.939663 -7.289329
v 1.280938 4.199171 -6.925065
v 1.452727 3.950296 -6.991882
v 0.499478 4.332055 -7.574771
v 0.740706 4.386696 -7.360347
v 0.938677 4.405939 -7.116603
v 1.078773 4.404486 -6.847733
v 0.293001 4.516434 -7.389588
v 0.532476 4.560434 -7.199694
v 0.733253 4.565045 -6.995540
v 0.869491 4.556243 -6.768583
v 1.042431 3.506292 -7.848610
v 0.775362 3.389226 -8.039211
v 1.157721 3.185167 -7.831659
v 0.904325 3.066714 -8.012361
v 1.237527 2.871722 -7.758711
v 0.996839 2.753231 -7.928550
v 1.268318 3.597943 -7.609181
v 1.369581 3.288066 -7.605947
v 1.434410 2.986178 -7.552394
v 1.447437 3.655610 -7.336380
v 1.534881 3.361662 -7.350133
v 1.581125 3.081711 -7.327905
v 1.580171 3.673350 -7.042823
v 1.657416 3.388783 -7.075432
v 1.687334 3.122792 -7.090375
v 0.478735 3.258311 -8.168301
v 0.172489 3.115835 -8.229946
v -0.124603 2.963896 -8.225479
v -0.399173 2.802225 -8.160291
v 0.619089 2.947462 -8.137951
v 0.321197 2.825503 -8.201318
v 0.031882 2.698655 -8.202110
v -0.230948 2.555813 -8.143723
v 0.724123 2.644281 -8.051132
v 0.438988 2.545450 -8.118581
v 0.166326 2.455737 -8.131119
v -0.071496 2.344881 -8.086940
v -1.371482 2.414530 -7.287712
v -1.170919 2.126437 -7.340251
v -1.257659 2.013917 -7.024181
v -1.454967 2.294056 -6.966244
v -1.289104 1.938438 -6.693785
v -1.477001 2.205611 -6.632236
v -1.263338 1.896273 -6.366714
v -1.441001 2.151152 -6.302834
v -0.924564 1.880012 -7.357653
v -1.013413 1.775962 -7.055267
v -1.056637 1.712732 -6.738764
v -1.047909 1.683986 -6.426846
v -0.647838 1.684879 -7.341373
v -0.738214 1.587652 -7.053534
v -0.795827 1.536032 -6.756127
v -0.814606 1.523328 -6.471857
v -1.592333 2.603033 -6.889960
v -1.513018 2.727669 -7.202455
v -1.665020 2.921142 -6.794546
v -1.589312 3.046567 -7.090651
v -1.675058 3.230400 -6.679972
v -1.601689 3.355240 -6.959801
v -1.609315 2.502372 -6.566133
v -1.680700 2.810119 -6.490375
v -1.692230 3.108868 -6.400224
v -1.569286 2.434751 -6.245554
v -1.641663 2.727627 -6.191895
v -1.659682 3.005941 -6.137871
v -1.372098 2.864451 -7.487490
v -1.229562 2.560826 -7.576867
v -1.180439 3.011008 -7.728283
v -1.038974 2.723714 -7.817504
v -0.952518 3.165357 -7.913872
v -0.812405 2.894033 -8.000998
v -1.454624 3.171516 -7.365772
v -1.270530 3.297723 -7.602631
v -1.052257 3.427307 -7.787377
v -1.474343 3.469673 -7.224797
v -1.302534 3.572909 -7.456865
v -1.104721 3.665770 -7.640304
v -1.036110 2.275382 -7.623090
v -0.800715 2.026420 -7.628906
v -0.534654 1.827034 -7.601333
v -0.857924 2.447158 -7.858350
v -0.642404 2.200487 -7.855270
v -0.401109 2.000266 -7.818014
v -0.643717 2.626983 -8.038012
v -0.453472 2.383853 -8.027581
v -0.253458 2.183394 -7.980740
v 1.471482 3.665470 -5.692287
v 1.270919 3.953563 -5.639749
v 1.136110 3.804618 -5.356910
v 1.329562 3.519174 -5.403132
v 0.957924 3.632842 -5.121650
v 1.138973 3.356286 -5.162496
v 0.743717 3.453017 -4.941988
v 0.912405 3.185967 -4.979001
v 1.024564 4.199988 -5.622346
v 0.900716 4.053580 -5.351094
v 0.742404 3.879513 -5.124730
v 0.553472 3.696147 -4.952419
v 0.747839 4.395121 -5.638627
v 0.634654 4.252966 -5.378666
v 0.501109 4.079734 -5.161985
v 0.353458 3.896606 -4.999260
v 1.472098 3.215549 -5.492510
v 1.613018 3.352331 -5.777545
v 1.554624 2.908484 -5.614228
v 1.689312 3.033433 -5.889349
v 1.574343 2.610327 -5.755203
v 1.701689 2.724760 -6.020199
v 1.280439 3.068992 -5.251717
v 1.370530 2.782277 -5.377370
v 1.402534 2.507091 -5.523135
v 1.052518 2.914644 -5.066128
v 1.152257 2.652693 -5.192622
v 1.204721 2.414230 -5.339696
v 1.692333 3.476967 -6.090040
v 1.554967 3.785944 -6.013756
v 1.709315 3.577628 -6.413867
v 1.577001 3.874389 -6.347764
v 1.669286 3.645249 -6.734446
v 1.541002 3.928848 -6.677166
v 1.765019 3.158858 -6.185454
v 1.780700 3.269880 -6.489625
v 1.741663 3.352373 -6.788105
v 1.775058 2.849600 -6.300028
v 1.792230 2.971132 -6.579776
v 1.759682 3.074059 -6.842129
v 1.357659 4.066083 -5.955819
v 1.113413 4.304038 -5.924733
v 0.838214 4.492348 -5.926466
v 1.389104 4.141562 -6.286215
v 1.156637 4.367268 -6.241236
v 0.895827 4.543968 -6.223873
v 1.363338 4.183727 -6.613286
v 1.147909 4.396014 -6.553154
v 0.914606 4.556672 -6.508142
vt 0.376507 0.827995
vt 0.407396 0.827995
vt 0.407396 0.868974
vt 0.376508 0.868974
vt 0.407396 0.909954
vt 0.376507 0.909954
vt 0.407396 0.950933
vt 0.376507 0.950933
vt 0.407396 0.991912
vt 0.376507 0.991912
vt 0.438284 0.827995
vt 0.438284 0.868974
vt 0.438284 0.909954
vt 0.438284 0.950933
vt 0.438284 0.991912
vt 0.469172 0.827995
vt 0.469172 0.868974
vt 0.469172 0.909954
vt 0.469172 0.950933
vt 0.469172 0.991912
vt 0.500060 0.827995
vt 0.500060 0.868974
vt 0.500060 0.909954
vt 0.500060 0.950933
vt 0.500060 0.991912
vt 0.345619 0.868974
vt 0.345619 0.827995
vt 0.314731 0.868974
vt 0.314731 0.827995
vt 0.283843 0.868974
vt 0.283843 0.827995
vt 0.252955 0.868974
vt 0.252955 0.827995
vt 0.345619 0.909954
vt 0.314731 0.909954
vt 0.283843 0.909954
vt 0.252955 0.909954
vt 0.345619 0.950933
vt 0.314731 0.950933
vt 0.283843 0.950933
vt 0.252955 0.950933
vt 0.345619 0.991912
vt 0.314731 0.991912
vt 0.283843 0.991912
vt 0.252955 0.991912
vt 0.345619 0.787015
vt 0.376507 0.787016
vt 0.345619 0.746036
vt 0.376507 0.746036
vt 0.345619 0.705057
vt 0.376507 0.705057
vt 0.345619 0.664078
vt 0.376507 0.664078
vt 0.314731 0.787015
vt 0.314731 0.746036
vt 0.314731 0.705057
vt 0.314731 0.664078
vt 0.283843 0.787016
vt 0.283843 0.746036
vt 0.283843 0.705057
vt 0.283843 0.664078
vt 0.252955 0.787016
vt 0.252955 0.746036
vt 0.252955 0.705057
vt 0.252955 0.664078
vt 0.407396 0.787016
vt 0.438284 0.787016
vt 0.469172 0.787016
vt 0.500060 0.787016
vt 0.407396 0.746036
vt 0.438284 0.746036
vt 0.469172 0.746036
vt 0.500060 0.746036
vt 0.407396 0.705057
vt 0.438284 0.705057
vt 0.469172 0.705057
vt 0.500060 0.705057
vt 0.407396 0.664078
vt 0.438284 0.664078
vt 0.469172 0.664078
vt 0.500060 0.664078
vt 0.376507 0.500000
vt 0.407396 0.500000
vt 0.407396 0.541019
vt 0.376508 0.541019
vt 0.407396 0.582039
vt 0.376507 0.582039
vt 0.407396 0.623058
vt 0.376507 0.623058
vt 0.438284 0.500000
vt 0.438284 0.541019
vt 0.438284 0.582039
vt 0.438284 0.623058
vt 0.469172 0.500000
vt 0.469172 0.541019
vt 0.469172 0.582039
vt 0.469172 0.623058
vt 0.500060 0.500000
vt 0.500060 0.541019
vt 0.500060 0.582039
vt 0.500060 0.623058
vt 0.345619 0.541019
vt 0.345619 0.500000
vt 0.314731 0.541019
vt 0.314731 0.500000
vt 0.283843 0.541019
vt 0.283843 0.500000
vt 0.252955 0.541019
vt 0.252955 0.500000
vt 0.345619 0.582039
vt 0.314731 0.582039
vt 0.283843 0.582039
vt 0.252955 0.582039
vt 0.345619 0.623058
vt 0.314731 0.623058
vt 0.283843 0.623058
vt 0.252955 0.623058
vt 0.345619 0.458981
vt 0.376507 0.458981
vt 0.345619 0.417961
vt 0.376507 0.417961
vt 0.345619 0.376942
vt 0.376507 0.376942
vt 0.345619 0.335922
vt 0.376507 0.335922
vt 0.314731 0.458981
vt 0.314731 0.417961
vt 0.314731 0.376942
vt 0.314731 0.335922
vt 0.283843 0.458981
vt 0.283843 0.417961
vt 0.283843 0.376942
vt 0.283843 0.335922
vt 0.252955 0.458981
vt 0.252955 0.417961
vt 0.252955 0.376942
vt 0.252955 0.335922
vt 0.407396 0.458981
vt 0.438284 0.458981
vt 0.469172 0.458981
vt 0.500060 0.458981
vt 0.407396 0.417961
vt 0.438284 0.417961
vt 0.469172 0.417961
vt 0.500060 0.417961
vt 0.407396 0.376942
vt 0.438284 0.376942
vt 0.469172 0.376942
vt 0.500060 0.376942
vt 0.407396 0.335922
vt 0.438284 0.335922
vt 0.469172 0.335922
vt 0.500060 0.335922
vt 0.376507 0.172005
vt 0.407396 0.172005
vt 0.407396 0.212984
vt 0.376508 0.212984
vt 0.407396 0.253964
vt 0.376507 0.253964
vt 0.407396 0.294943
vt 0.376507 0.294943
vt 0.438284 0.172005
vt 0.438284 0.212984
vt 0.438284 0.253964
vt 0.438284 0.294943
vt 0.469172 0.172005
vt 0.469172 0.212984
vt 0.469172 0.253964
vt 0.469172 0.294943
vt 0.500060 0.172005
vt 0.500060 0.212984
vt 0.500060 0.253964
vt 0.500060 0.294943
vt 0.345619 0.212984
vt 0.345619 0.172005
vt 0.314731 0.212984
vt 0.314731 0.172005
vt 0.283843 0.212984
vt 0.283843 0.172005
vt 0.252955 0.212984
vt 0.252955 0.172005
vt 0.345619 0.253964
vt 0.314731 0.253964
vt 0.283843 0.253964
vt 0.252955 0.253964
vt 0.345619 0.294943
vt 0.314731 0.294943
vt 0.283843 0.294943
vt 0.252955 0.294943
vt 0.345619 0.131026
vt 0.376507 0.131026
vt 0.345619 0.090046
vt 0.376507 0.090046
vt 0.345619 0.049067
vt 0.376507 0.049067
vt 0.345619 0.008088
vt 0.376507 0.008088
vt 0.314731 0.131026
vt 0.314731 0.090046
vt 0.314731 0.049067
vt 0.314731 0.008088
vt 0.283843 0.131026
vt 0.283843 0.090046
vt 0.283843 0.049067
vt 0.283843 0.008088
vt 0.252955 0.131026
vt 0.252955 0.090046
vt 0.252955 0.049067
vt 0.252955 0.008088
vt 0.407396 0.131026
vt 0.438284 0.131026
vt 0.469172 0.131026
vt 0.500060 0.131026
vt 0.407396 0.090046
vt 0.438284 0.090046
vt 0.469172 0.090046
vt 0.500060 0.090046
vt 0.407396 0.049067
vt 0.438284 0.049067
vt 0.469172 0.049067
vt 0.500060 0.049067
vt 0.407396 0.008088
vt 0.438284 0.008088
vt 0.469172 0.008088
vt 0.500060 0.008088
vt 0.870416 0.500000
vt 0.839543 0.500000
vt 0.839543 0.458981
vt 0.870416 0.458981
vt 0.839543 0.417961
vt 0.870416 0.417961
vt 0.839543 0.376942
vt 0.870416 0.376942
vt 0.839543 0.335922
vt 0.870416 0.335922
vt 0.808669 0.500000
vt 0.808669 0.458981
vt 0.808670 0.417961
vt 0.808670 0.376942
vt 0.808670 0.335922
vt 0.777796 0.500000
vt 0.777796 0.458981
vt 0.777796 0.417961
vt 0.777796 0.376942
vt 0.777796 0.335922
vt 0.746923 0.500000
vt 0.746923 0.458981
vt 0.746923 0.417961
vt 0.746923 0.376942
vt 0.746923 0.335922
vt 0.901290 0.458981
vt 0.901290 0.500000
vt 0.932163 0.458981
vt 0.932163 0.500000
vt 0.963036 0.458981
vt 0.963036 0.500000
vt 0.993910 0.458981
vt 0.993910 0.500000
vt 0.901290 0.417961
vt 0.932163 0.417961
vt 0.963036 0.417961
vt 0.993910 0.417961
vt 0.901290 0.376942
vt 0.932163 0.376942
vt 0.963036 0.376942
vt 0.993910 0.376942
vt 0.901290 0.335922
vt 0.932163 0.335922
vt 0.963036 0.335922
vt 0.993910 0.335922
vt 0.901290 0.541019
vt 0.870416 0.541019
vt 0.901290 0.582039
vt 0.870416 0.582039
vt 0.901290 0.623058
vt 0.870416 0.623058
vt 0.901290 0.664078
vt 0.870416 0.664078
vt 0.932163 0.541019
vt 0.932163 0.582039
vt 0.932163 0.623058
vt 0.932163 0.664078
vt 0.963036 0.541019
vt 0.963036 0.582039
vt 0.963036 0.623058
vt 0.963036 0.664078
vt 0.993910 0.541019
vt 0.993910 0.582039
vt 0.993910 0.623058
vt 0.993910 0.664078
vt 0.839543 0.541019
vt 0.808669 0.541019
vt 0.777796 0.541019
vt 0.746923 0.541019
vt 0.839543 0.582039
vt 0.808669 0.582039
vt 0.777796 0.582039
vt 0.746923 0.582039
vt 0.839543 0.623058
vt 0.808669 0.623058
vt 0.777796 0.623058
vt 0.746923 0.623058
vt 0.839543 0.664078
vt 0.808670 0.664078
vt 0.777796 0.664078
vt 0.746923 0.664078
vt 0.623492 0.500000
vt 0.623492 0.541019
vt 0.592634 0.541019
vt 0.592634 0.500000
vt 0.561776 0.541019
vt 0.561776 0.500000
vt 0.530918 0.541019
vt 0.530918 0.500000
vt 0.623492 0.582039
vt 0.592634 0.582039
vt 0.561776 0.582039
vt 0.530918 0.582039
vt 0.623492 0.623058
vt 0.592634 0.623058
vt 0.561776 0.623058
vt 0.530918 0.623058
vt 0.623492 0.664078
vt 0.592634 0.664078
vt 0.561776 0.664078
vt 0.530918 0.664078
vt 0.592634 0.458981
vt 0.623492 0.458981
vt 0.592634 0.417961
vt 0.623492 0.417961
vt 0.592634 0.376942
vt 0.623492 0.376942
vt 0.592634 0.335922
vt 0.623492 0.335922
vt 0.561776 0.458981
vt 0.561776 0.417961
vt 0.561776 0.376942
vt 0.561776 0.335922
vt 0.530918 0.458981
vt 0.530918 0.417961
vt 0.530918 0.376942
vt 0.530918 0.335922
vt 0.654349 0.458981
vt 0.654349 0.500000
vt 0.685207 0.458981
vt 0.685207 0.500000
vt 0.716065 0.458981
vt 0.716065 0.500000
vt 0.654349 0.417961
vt 0.685207 0.417961
vt 0.716065 0.417961
vt 0.654349 0.376942
vt 0.685207 0.376942
vt 0.716065 0.376942
vt 0.654349 0.335922
vt 0.685207 0.335922
vt 0.716065 0.335922
vt 0.654349 0.541019
vt 0.654349 0.582039
vt 0.654349 0.623058
vt 0.654349 0.664078
vt 0.685207 0.541019
vt 0.685207 0.582039
vt 0.685207 0.623058
vt 0.685207 0.664078
vt 0.716065 0.541019
vt 0.716065 0.582039
vt 0.716065 0.623058
vt 0.716065 0.664078
vt 0.129522 0.500000
vt 0.129522 0.458981
vt 0.160380 0.458981
vt 0.160381 0.500000
vt 0.191239 0.458981
vt 0.191239 0.500000
vt 0.222097 0.458981
vt 0.222097 0.500000
vt 0.129522 0.417961
vt 0.160380 0.417961
vt 0.191239 0.417961
vt 0.222097 0.417961
vt 0.129522 0.376942
vt 0.160380 0.376942
vt 0.191239 0.376942
vt 0.222097 0.376942
vt 0.129522 0.335922
vt 0.160380 0.335922
vt 0.191239 0.335922
vt 0.222097 0.335922
vt 0.160380 0.541019
vt 0.129522 0.541019
vt 0.160380 0.582039
vt 0.129522 0.582039
vt 0.160380 0.623058
vt 0.129522 0.623058
vt 0.160380 0.664078
vt 0.129522 0.664078
vt 0.191239 0.541019
vt 0.191239 0.582039
vt 0.191239 0.623058
vt 0.191239 0.664078
vt 0.222097 0.541019
vt 0.222097 0.582039
vt 0.222097 0.623058
vt 0.222097 0.664078
vt 0.098664 0.541019
vt 0.098664 0.500000
vt 0.067806 0.541019
vt 0.067806 0.500000
vt 0.036948 0.541019
vt 0.036948 0.500000
vt 0.006090 0.541019
vt 0.006090 0.500000
vt 0.098664 0.582039
vt 0.067806 0.582039
vt 0.036948 0.582039
vt 0.006090 0.582039
vt 0.098664 0.623058
vt 0.067806 0.623058
vt 0.036948 0.623058
vt 0.006090 0.623058
vt 0.098664 0.664078
vt 0.067806 0.664078
vt 0.036948 0.664078
vt 0.006090 0.664078
vt 0.098664 0.458981
vt 0.098664 0.417961
vt 0.098664 0.376942
vt 0.098664 0.335922
vt 0.067806 0.458981
vt 0.067806 0.417961
vt 0.067806 0.376942
vt 0.067806 0.335922
vt 0.036948 0.458981
vt 0.036948 0.417961
vt 0.036948 0.376942
vt 0.036948 0.335922
vt 0.006090 0.458981
vt 0.006090 0.417961
vt 0.006090 0.376942
vt 0.006090 0.335922
vn 0.4897 -0.8503 -0.1927
vn 0.3175 -0.9058 -0.2804
vn 0.3743 -0.8138 -0.4445
vn 0.5440 -0.7573 -0.3613
vn 0.4137 -0.6925 -0.5910
vn 0.5763 -0.6356 -0.5136
vn 0.4314 -0.5494 -0.7156
vn 0.5861 -0.4924 -0.6434
vn 0.4235 -0.3912 -0.8171
vn 0.5743 -0.3332 -0.7478
vn 0.1344 -0.9247 -0.3561
vn 0.1926 -0.8369 -0.5123
vn 0.2395 -0.7218 -0.6494
vn 0.2682 -0.5858 -0.7648
vn 0.2668 -0.4354 -0.8598
vn -0.0503 -0.9077 -0.4167
vn 0.0084 -0.8251 -0.5650
vn 0.0628 -0.7196 -0.6916
vn 0.1080 -0.6006 -0.7922
vn 0.1196 -0.4646 -0.8774
vn -0.2304 -0.8570 -0.4608
vn -0.1705 -0.7776 -0.6052
vn -0.1083 -0.6792 -0.7259
vn -0.0500 -0.5748 -0.8168
vn -0.0017 -0.4805 -0.8770
vn 0.6923 -0.6714 -0.2645
vn 0.6418 -0.7607 -0.0973
vn 0.8128 -0.5597 -0.1613
vn 0.7664 -0.6424 0.0005
vn 0.9025 -0.4266 -0.0597
vn 0.8593 -0.5024 0.0960
vn 0.9609 -0.2750 0.0332
vn 0.9193 -0.3465 0.1866
vn 0.7181 -0.5563 -0.4181
vn 0.8327 -0.4569 -0.3129
vn 0.9178 -0.3387 -0.2073
vn 0.9733 -0.1989 -0.1143
vn 0.7216 -0.4199 -0.5504
vn 0.8302 -0.3354 -0.4453
vn 0.9090 -0.2443 -0.3377
vn 0.9616 -0.1259 -0.2439
vn 0.7071 -0.2651 -0.6556
vn 0.8135 -0.1925 -0.5488
vn 0.8894 -0.1230 -0.4402
vn 0.9364 -0.0647 -0.3451
vn 0.5668 -0.8206 0.0738
vn 0.4157 -0.9093 -0.0162
vn 0.4731 -0.8472 0.2418
vn 0.3262 -0.9319 0.1589
vn 0.3682 -0.8389 0.4009
vn 0.2260 -0.9185 0.3246
vn 0.2596 -0.7949 0.5485
vn 0.1188 -0.8714 0.4760
vn 0.6930 -0.7025 0.1624
vn 0.5989 -0.7349 0.3180
vn 0.4929 -0.7359 0.4642
vn 0.3865 -0.6988 0.6019
vn 0.7885 -0.5625 0.2488
vn 0.6969 -0.6018 0.3901
vn 0.5938 -0.6192 0.5138
vn 0.4909 -0.5961 0.6354
vn 0.8498 -0.4075 0.3344
vn 0.7589 -0.4543 0.4665
vn 0.6593 -0.4856 0.5741
vn 0.5674 -0.5030 0.6519
vn 0.2481 -0.9630 -0.1055
vn 0.0715 -0.9797 -0.1873
vn -0.1071 -0.9610 -0.2549
vn -0.2833 -0.9101 -0.3023
vn 0.1674 -0.9834 0.0702
vn 0.0036 -0.9999 -0.0162
vn -0.1609 -0.9827 -0.0914
vn -0.3256 -0.9348 -0.1422
vn 0.0764 -0.9684 0.2373
vn -0.0718 -0.9864 0.1475
vn -0.2106 -0.9756 0.0628
vn -0.3558 -0.9346 0.0048
vn -0.0257 -0.9210 0.3887
vn -0.1631 -0.9418 0.2939
vn -0.2824 -0.9378 0.2019
vn -0.3744 -0.9189 0.1240
vn -0.3229 -0.3804 0.8666
vn -0.4792 -0.4442 0.7570
vn -0.3740 -0.6028 0.7048
vn -0.2184 -0.5431 0.8108
vn -0.2579 -0.7374 0.6243
vn -0.1065 -0.6822 0.7234
vn -0.1392 -0.8438 0.5183
vn 0.0072 -0.7923 0.6101
vn -0.6143 -0.4895 0.6189
vn -0.5117 -0.6410 0.5721
vn -0.3954 -0.7683 0.5033
vn -0.2750 -0.8686 0.4121
vn -0.7230 -0.5152 0.4604
vn -0.6241 -0.6595 0.4189
vn -0.5103 -0.7791 0.3640
vn -0.3919 -0.8700 0.2992
vn -0.8033 -0.5215 0.2875
vn -0.7062 -0.6626 0.2497
vn -0.5927 -0.7785 0.2063
vn -0.4766 -0.8640 0.1623
vn -0.0540 -0.4623 0.8851
vn -0.1533 -0.3011 0.9412
vn 0.1122 -0.3669 0.9235
vn 0.0204 -0.2106 0.9774
vn 0.2743 -0.2647 0.9245
vn 0.1897 -0.1140 0.9752
vn 0.4294 -0.1633 0.8882
vn 0.3493 -0.0147 0.9369
vn 0.0488 -0.6026 0.7966
vn 0.2017 -0.5057 0.8388
vn 0.3494 -0.4009 0.8469
vn 0.4936 -0.3004 0.8162
vn 0.1531 -0.7150 0.6822
vn 0.2907 -0.6193 0.7294
vn 0.4135 -0.5150 0.7508
vn 0.5393 -0.4161 0.7321
vn -0.2464 -0.1280 0.9607
vn -0.4143 -0.2024 0.8874
vn -0.3264 0.0491 0.9439
vn -0.4880 -0.0187 0.8726
vn -0.3872 0.2234 0.8945
vn -0.5415 0.1616 0.8250
vn -0.4235 0.3912 0.8171
vn -0.5743 0.3332 0.7478
vn -0.0722 -0.0468 0.9963
vn -0.1573 0.1176 0.9805
vn -0.2264 0.2783 0.9334
vn -0.2668 0.4354 0.8598
vn 0.0986 0.0404 0.9943
vn 0.0095 0.1895 0.9818
vn -0.0706 0.3256 0.9429
vn -0.1196 0.4646 0.8774
vn 0.2583 0.1345 0.9567
vn 0.1637 0.2734 0.9479
vn 0.0750 0.3913 0.9172
vn 0.0017 0.4805 0.8770
vn -0.5658 -0.2685 0.7796
vn -0.6949 -0.3208 0.6436
vn -0.7982 -0.3544 0.4871
vn -0.8757 -0.3647 0.3164
vn -0.6319 -0.0857 0.7703
vn -0.7522 -0.1449 0.6428
vn -0.8475 -0.1886 0.4961
vn -0.9197 -0.2046 0.3350
vn -0.6780 0.0946 0.7290
vn -0.7893 0.0291 0.6133
vn -0.8726 -0.0291 0.4876
vn -0.9374 -0.0564 0.3437
vn -0.7071 0.2651 0.6556
vn -0.8135 0.1925 0.5488
vn -0.8894 0.1230 0.4402
vn -0.9364 0.0647 0.3451
vn -0.4897 0.8503 0.1927
vn -0.6418 0.7607 0.0973
vn -0.6923 0.6714 0.2645
vn -0.5440 0.7573 0.3613
vn -0.7181 0.5563 0.4181
vn -0.5763 0.6356 0.5136
vn -0.7216 0.4199 0.5504
vn -0.5861 0.4924 0.6434
vn -0.7664 0.6424 -0.0005
vn -0.8128 0.5597 0.1613
vn -0.8327 0.4569 0.3129
vn -0.8302 0.3354 0.4453
vn -0.8593 0.5024 -0.0960
vn -0.9025 0.4266 0.0597
vn -0.9178 0.3387 0.2073
vn -0.9090 0.2443 0.3377
vn -0.9193 0.3465 -0.1866
vn -0.9609 0.2750 -0.0332
vn -0.9733 0.1989 0.1143
vn -0.9616 0.1259 0.2439
vn -0.3743 0.8138 0.4446
vn -0.3175 0.9058 0.2804
vn -0.1926 0.8369 0.5123
vn -0.1344 0.9247 0.3561
vn -0.0084 0.8251 0.5650
vn 0.0503 0.9077 0.4167
vn 0.1705 0.7776 0.6052
vn 0.2304 0.8570 0.4608
vn -0.4137 0.6925 0.5910
vn -0.2395 0.7218 0.6494
vn -0.0628 0.7196 0.6916
vn 0.1083 0.6792 0.7259
vn -0.4314 0.5494 0.7156
vn -0.2682 0.5858 0.7648
vn -0.1080 0.6006 0.7922
vn 0.0500 0.5748 0.8168
vn -0.2481 0.9630 0.1055
vn -0.4157 0.9093 0.0162
vn -0.1674 0.9834 -0.0702
vn -0.3262 0.9319 -0.1589
vn -0.0764 0.9684 -0.2373
vn -0.2260 0.9185 -0.3246
vn 0.0257 0.9210 -0.3887
vn -0.1188 0.8714 -0.4760
vn -0.0715 0.9797 0.1873
vn -0.0036 0.9999 0.0162
vn 0.0718 0.9864 -0.1475
vn 0.1631 0.9418 -0.2939
vn 0.1071 0.9610 0.2549
vn 0.1609 0.9827 0.0914
vn 0.2106 0.9756 -0.0628
vn 0.2824 0.9378 -0.2019
vn 0.2833 0.9101 0.3023
vn 0.3256 0.9348 0.1422
vn 0.3558 0.9346 -0.0048
vn 0.3744 0.9189 -0.1240
vn -0.5667 0.8206 -0.0738
vn -0.6930 0.7025 -0.1624
vn -0.7885 0.5625 -0.2488
vn -0.8498 0.4075 -0.3344
vn -0.4731 0.8472 -0.2418
vn -0.5989 0.7349 -0.3180
vn -0.6969 0.6018 -0.3901
vn -0.7589 0.4543 -0.4665
vn -0.3682 0.8389 -0.4009
vn -0.4929 0.7359 -0.4642
vn -0.5938 0.6192 -0.5138
vn -0.6593 0.4856 -0.5741
vn -0.2596 0.7949 -0.5485
vn -0.3865 0.6988 -0.6019
vn -0.4909 0.5961 -0.6354
vn -0.5674 0.5030 -0.6519
vn 0.3229 0.3804 -0.8666
vn 0.1533 0.3011 -0.9412
vn 0.0540 0.4623 -0.8851
vn 0.2184 0.5431 -0.8108
vn -0.0488 0.6026 -0.7966
vn 0.1065 0.6822 -0.7234
vn -0.1531 0.7150 -0.6822
vn -0.0072 0.7923 -0.6101
vn -0.0204 0.2106 -0.9774
vn -0.1122 0.3669 -0.9235
vn -0.2017 0.5057 -0.8388
vn -0.2907 0.6193 -0.7294
vn -0.1897 0.1140 -0.9752
vn -0.2743 0.2647 -0.9245
vn -0.3494 0.4009 -0.8469
vn -0.4135 0.5150 -0.7508
vn -0.3493 0.0147 -0.9369
vn -0.4294 0.1633 -0.8882
vn -0.4936 0.3004 -0.8162
vn -0.5393 0.4161 -0.7321
vn 0.3740 0.6028 -0.7048
vn 0.4792 0.4442 -0.7570
vn 0.5117 0.6410 -0.5721
vn 0.6143 0.4895 -0.6189
vn 0.6241 0.6595 -0.4189
vn 0.7230 0.5152 -0.4604
vn 0.7062 0.6626 -0.2497
vn 0.8033 0.5215 -0.2875
vn 0.2579 0.7374 -0.6243
vn 0.3954 0.7683 -0.5033
vn 0.5103 0.7791 -0.3640
vn 0.5927 0.7785 -0.2063
vn 0.1392 0.8438 -0.5183
vn 0.2750 0.8686 -0.4121
vn 0.3919 0.8700 -0.2992
vn 0.4766 0.8640 -0.1623
vn 0.5658 0.2685 -0.7796
vn 0.4143 0.2024 -0.8874
vn 0.6319 0.0857 -0.7703
vn 0.4880 0.0187 -0.8726
vn 0.6780 -0.0946 -0.7290
vn 0.5415 -0.1616 -0.8250
vn 0.6949 0.3208 -0.6436
vn 0.7522 0.1449 -0.6428
vn 0.7893 -0.0291 -0.6133
vn 0.7982 0.3544 -0.4871
vn 0.8475 0.1886 -0.4961
vn 0.8726 0.0291 -0.4876
vn 0.8757 0.3647 -0.3164
vn 0.9197 0.2046 -0.3350
vn 0.9374 0.0564 -0.3437
vn 0.2464 0.1280 -0.9607
vn 0.0722 0.0468 -0.9963
vn -0.0986 -0.0404 -0.9943
vn -0.2583 -0.1345 -0.9567
vn 0.3264 -0.0491 -0.9439
vn 0.1573 -0.1176 -0.9805
vn -0.0095 -0.1895 -0.9818
vn -0.1637 -0.2734 -0.9479
vn 0.3872 -0.2234 -0.8945
vn 0.2264 -0.2783 -0.9334
vn 0.0706 -0.3256 -0.9429
vn -0.0750 -0.3913 -0.9172
vn -0.8141 -0.3584 -0.4570
vn -0.7008 -0.5214 -0.4868
vn -0.7499 -0.5855 -0.3079
vn -0.8615 -0.4266 -0.2753
vn -0.7682 -0.6289 -0.1198
vn -0.8746 -0.4773 -0.0850
vn -0.7540 -0.6533 0.0683
vn -0.8544 -0.5089 0.1045
vn -0.5608 -0.6621 -0.4970
vn -0.6112 -0.7214 -0.3257
vn -0.6367 -0.7572 -0.1462
vn -0.6331 -0.7734 0.0334
vn -0.4020 -0.7748 -0.4879
vn -0.4533 -0.8300 -0.3250
vn -0.4870 -0.8591 -0.1575
vn -0.5018 -0.8650 0.0036
vn -0.9396 -0.2517 -0.2318
vn -0.8944 -0.1813 -0.4089
vn -0.9816 -0.0706 -0.1775
vn -0.9384 0.0004 -0.3454
vn -0.9879 0.1073 -0.1119
vn -0.9462 0.1780 -0.2703
vn -0.9498 -0.3091 -0.0474
vn -0.9909 -0.1344 -0.0052
vn -0.9982 0.0378 0.0455
vn -0.9273 -0.3484 0.1370
vn -0.9689 -0.1832 0.1663
vn -0.9809 -0.0245 0.1931
vn -0.8148 -0.1036 -0.5705
vn -0.7340 -0.2757 -0.6207
vn -0.7060 -0.0200 -0.7079
vn -0.6258 -0.1830 -0.7582
vn -0.5753 0.0686 -0.8151
vn -0.4958 -0.0851 -0.8642
vn -0.8622 0.0714 -0.5015
vn -0.7580 0.1423 -0.6365
vn -0.6327 0.2159 -0.7437
vn -0.8742 0.2429 -0.4205
vn -0.7778 0.3003 -0.5521
vn -0.6662 0.3495 -0.6588
vn -0.6244 -0.4373 -0.6472
vn -0.4906 -0.5793 -0.6509
vn -0.3380 -0.6944 -0.6352
vn -0.5232 -0.3397 -0.7816
vn -0.4016 -0.4803 -0.7797
vn -0.2638 -0.5966 -0.7580
vn -0.4004 -0.2363 -0.8853
vn -0.2942 -0.3742 -0.8795
vn -0.1838 -0.4908 -0.8517
vn 0.8141 0.3584 0.4570
vn 0.7008 0.5214 0.4868
vn 0.6244 0.4373 0.6472
vn 0.7340 0.2757 0.6207
vn 0.5232 0.3397 0.7816
vn 0.6258 0.1830 0.7582
vn 0.4004 0.2363 0.8853
vn 0.4958 0.0851 0.8642
vn 0.5608 0.6621 0.4970
vn 0.4906 0.5793 0.6509
vn 0.4016 0.4803 0.7797
vn 0.2942 0.3742 0.8795
vn 0.4020 0.7748 0.4879
vn 0.3380 0.6944 0.6352
vn 0.2638 0.5966 0.7580
vn 0.1838 0.4908 0.8517
vn 0.8148 0.1036 0.5705
vn 0.8944 0.1813 0.4089
vn 0.8622 -0.0714 0.5015
vn 0.9384 -0.0004 0.3454
vn 0.8742 -0.2429 0.4205
vn 0.9462 -0.1780 0.2703
vn 0.7060 0.0200 0.7079
vn 0.7580 -0.1423 0.6365
vn 0.7778 -0.3003 0.5521
vn 0.5753 -0.0686 0.8151
vn 0.6327 -0.2159 0.7437
vn 0.6662 -0.3495 0.6588
vn 0.9396 0.2517 0.2318
vn 0.8615 0.4266 0.2753
vn 0.9498 0.3091 0.0474
vn 0.8746 0.4773 0.0850
vn 0.9273 0.3484 -0.1370
vn 0.8544 0.5089 -0.1045
vn 0.9816 0.0706 0.1775
vn 0.9909 0.1344 0.0052
vn 0.9689 0.1832 -0.1663
vn 0.9879 -0.1073 0.1119
vn 0.9982 -0.0378 -0.0455
vn 0.9809 0.0245 -0.1931
vn 0.7499 0.5855 0.3079
vn 0.6112 0.7214 0.3257
vn 0.4533 0.8300 0.3250
vn 0.7682 0.6289 0.1198
vn 0.6367 0.7572 0.1462
vn 0.4870 0.8591 0.1575
vn 0.7540 0.6533 -0.0683
vn 0.6331 0.7734 -0.0334
vn 0.5018 0.8650 -0.0036
usemtl Moon.003
s 1
f 1/1/1 2/2/2 3/3/3 4/4/4
f 4/4/4 3/3/3 5/5/5 6/6/6
f 6/6/6 5/5/5 7/7/7 8/8/8
f 8/8/8 7/7/7 9/9/9 10/10/10
f 2/2/2 11/11/11 12/12/12 3/3/3
f 3/3/3 12/12/12 13/13/13 5/5/5
f 5/5/5 13/13/13 14/14/14 7/7/7
f 7/7/7 14/14/14 15/15/15 9/9/9
f 11/11/11 16/16/16 17/17/17 12/12/12
f 12/12/12 17/17/17 18/18/18 13/13/13
f 13/13/13 18/18/18 19/19/19 14/14/14
f 14/14/14 19/19/19 20/20/20 15/15/15
f 16/16/16 21/21/21 22/22/22 17/17/17
f 17/17/17 22/22/22 23/23/23 18/18/18
f 18/18/18 23/23/23 24/24/24 19/19/19
f 19/19/19 24/24/24 25/25/25 20/20/20
f 1/1/1 4/4/4 26/26/26 27/27/27
f 27/27/27 26/26/26 28/28/28 29/29/29
f 29/29/29 28/28/28 30/30/30 31/31/31
f 31/31/31 30/30/30 32/32/32 33/33/33
f 4/4/4 6/6/6 34/34/34 26/26/26
f 26/26/26 34/34/34 35/35/35 28/28/28
f 28/28/28 35/35/35 36/36/36 30/30/30
f 30/30/30 36/36/36 37/37/37 32/32/32
f 6/6/6 8/8/8 38/38/38 34/34/34
f 34/34/34 38/38/38 39/39/39 35/35/35
f 35/35/35 39/39/39 40/40/40 36/36/36
f 36/36/36 40/40/40 41/41/41 37/37/37
f 8/8/8 10/10/10 42/42/42 38/38/38
f 38/38/38 42/42/42 43/43/43 39/39/39
f 39/39/39 43/43/43 44/44/44 40/40/40
f 40/40/40 44/44/44 45/45/45 41/41/41
f 1/1/1 27/27/27 46/46/46 47/47/47
f 47/47/47 46/46/46 48/48/48 49/49/49
f 49/49/49 48/48/48 50/50/50 51/51/51
f 51/51/51 50/50/50 52/52/52 53/53/53
f 27/27/27 29/29/29 54/54/54 46/46/46
f 46/46/46 54/54/54 55/55/55 48/48/48
f 48/48/48 55/55/55 56/56/56 50/50/50
f 50/50/50 56/56/56 57/57/57 52/52/52
f 29/29/29 31/31/31 58/58/58 54/54/54
f 54/54/54 58/58/58 59/59/59 55/55/55
f 55/55/55 59/59/59 60/60/60 56/56/56
f 56/56/56 60/60/60 61/61/61 57/57/57
f 31/31/31 33/33/33 62/62/62 58/58/58
f 58/58/58 62/62/62 63/63/63 59/59/59
f 59/59/59 63/63/63 64/64/64 60/60/60
f 60/60/60 64/64/64 65/65/65 61/61/61
f 1/1/1 47/47/47 66/66/66 2/2/2
f 2/2/2 66/66/66 67/67/67 11/11/11
f 11/11/11 67/67/67 68/68/68 16/16/16
f 16/16/16 68/68/68 69/69/69 21/21/21
f 47/47/47 49/49/49 70/70/70 66/66/66
f 66/66/66 70/70/70 71/71/71 67/67/67
f 67/67/67 71/71/71 72/72/72 68/68/68
f 68/68/68 72/72/72 73/73/73 69/69/69
f 49/49/49 51/51/51 74/74/74 70/70/70
f 70/70/70 74/74/74 75/75/75 71/71/71
f 71/71/71 75/75/75 76/76/76 72/72/72
f 72/72/72 76/76/76 77/77/77 73/73/73
f 51/51/51 53/53/53 78/78/78 74/74/74
f 74/74/74 78/78/78 79/79/79 75/75/75
f 75/75/75 79/79/79 80/80/80 76/76/76
f 76/76/76 80/80/80 81/81/81 77/77/77
f 82/82/82 83/83/83 84/84/84 85/85/85
f 85/85/85 84/84/84 86/86/86 87/87/87
f 87/87/87 86/86/86 88/88/88 89/89/89
f 89/89/89 88/88/88 78/78/78 53/53/53
f 83/83/83 90/90/90 91/91/91 84/84/84
f 84/84/84 91/91/91 92/92/92 86/86/86
f 86/86/86 92/92/92 93/93/93 88/88/88
f 88/88/88 93/93/93 79/79/79 78/78/78
f 90/90/90 94/94/94 95/95/95 91/91/91
f 91/91/91 95/95/95 96/96/96 92/92/92
f 92/92/92 96/96/96 97/97/97 93/93/93
f 93/93/93 97/97/97 80/80/80 79/79/79
f 94/94/94 98/98/98 99/99/99 95/95/95
f 95/95/95 99/99/99 100/100/100 96/96/96
f 96/96/96 100/100/100 101/101/101 97/97/97
f 97/97/97 101/101/101 81/81/81 80/80/80
f 82/82/82 85/85/85 102/102/102 103/103/103
f 103/103/103 102/102/102 104/104/104 105/105/105
f 105/105/105 104/104/104 106/106/106 107/107/107
f 107/107/107 106/106/106 108/108/108 109/109/109
f 85/85/85 87/87/87 110/110/110 102/102/102
f 102/102/102 110/110/110 111/111/111 104/104/104
f 104/104/104 111/111/111 112/112/112 106/106/106
f 106/106/106 112/112/112 113/113/113 108/108/108
f 87/87/87 89/89/89 114/114/114 110/110/110
f 110/110/110 114/114/114 115/115/115 111/111/111
f 111/111/111 115/115/115 116/116/116 112/112/112
f 112/112/112 116/116/116 117/117/117 113/113/113
f 89/89/89 53/53/53 52/52/52 114/114/114
f 114/114/114 52/52/52 57/57/57 115/115/115
f 115/115/115 57/57/57 61/61/61 116/116/116
f 116/116/116 61/61/61 65/65/65 117/117/117
f 82/82/82 103/103/103 118/118/118 119/119/119
f 119/119/119 118/118/118 120/120/120 121/121/121
f 121/121/121 120/120/120 122/122/122 123/123/123
f 123/123/123 122/122/122 124/124/124 125/125/125
f 103/103/103 105/105/105 126/126/126 118/118/118
f 118/118/118 126/126/126 127/127/127 120/120/120
f 120/120/120 127/127/127 128/128/128 122/122/122
f 122/122/122 128/128/128 129/129/129 124/124/124
f 105/105/105 107/107/107 130/130/130 126/126/126
f 126/126/126 130/130/130 131/131/131 127/127/127
f 127/127/127 131/131/131 132/132/132 128/128/128
f 128/128/128 132/132/132 133/133/133 129/129/129
f 107/107/107 109/109/109 134/134/134 130/130/130
f 130/130/130 134/134/134 135/135/135 131/131/131
f 131/131/131 135/135/135 136/136/136 132/132/132
f 132/132/132 136/136/136 137/137/137 133/133/133
f 82/82/82 119/119/119 138/138/138 83/83/83
f 83/83/83 138/138/138 139/139/139 90/90/90
f 90/90/90 139/139/139 140/140/140 94/94/94
f 94/94/94 140/140/140 141/141/141 98/98/98
f 119/119/119 121/121/121 142/142/142 138/138/138
f 138/138/138 142/142/142 143/143/143 139/139/139
f 139/139/139 143/143/143 144/144/144 140/140/140
f 140/140/140 144/144/144 145/145/145 141/141/141
f 121/121/121 123/123/123 146/146/146 142/142/142
f 142/142/142 146/146/146 147/147/147 143/143/143
f 143/143/143 147/147/147 148/148/148 144/144/144
f 144/144/144 148/148/148 149/149/149 145/145/145
f 123/123/123 125/125/125 150/150/150 146/146/146
f 146/146/146 150/150/150 151/151/151 147/147/147
f 147/147/147 151/151/151 152/152/152 148/148/148
f 148/148/148 152/152/152 153/153/153 149/149/149
f 154/154/154 155/155/155 156/156/156 157/157/157
f 157/157/157 156/156/156 158/158/158 159/159/159
f 159/159/159 158/158/158 160/160/160 161/161/161
f 161/161/161 160/160/160 150/150/150 125/125/125
f 155/155/155 162/162/162 163/163/163 156/156/156
f 156/156/156 163/163/163 164/164/164 158/158/158
f 158/158/158 164/164/164 165/165/165 160/160/160
f 160/160/160 165/165/165 151/151/151 150/150/150
f 162/162/162 166/166/166 167/167/167 163/163/163
f 163/163/163 167/167/167 168/168/168 164/164/164
f 164/164/164 168/168/168 169/169/169 165/165/165
f 165/165/165 169/169/169 152/152/152 151/151/151
f 166/166/166 170/170/170 171/171/171 167/167/167
f 167/167/167 171/171/171 172/172/172 168/168/168
f 168/168/168 172/172/172 173/173/173 169/169/169
f 169/169/169 173/173/173 153/153/153 152/152/152
f 154/154/154 157/157/157 174/174/174 175/175/175
f 175/175/175 174/174/174 176/176/176 177/177/177
f 177/177/177 176/176/176 178/178/178 179/179/179
f 179/179/179 178/178/178 180/180/180 181/181/181
f 157/157/157 159/159/159 182/182/182 174/174/174
f 174/174/174 182/182/182 183/183/183 176/176/176
f 176/176/176 183/183/183 184/184/184 178/178/178
f 178/178/178 184/184/184 185/185/185 180/180/180
f 159/159/159 161/161/161 186/186/186 182/182/182
f 182/182/182 186/186/186 187/187/187 183/183/183
f 183/183/183 187/187/187 188/188/188 184/184/184
f 184/184/184 188/188/188 189/189/189 185/185/185
f 161/161/161 125/125/125 124/124/124 186/186/186
f 186/186/186 124/124/124 129/129/129 187/187/187
f 187/187/187 129/129/129 133/133/133 188/188/188
f 188/188/188 133/133/133 137/137/137 189/189/189
f 154/154/154 175/175/175 190/190/190 191/191/191
f 191/191/191 190/190/190 192/192/192 193/193/193
f 193/193/193 192/192/192 194/194/194 195/195/195
f 195/195/195 194/194/194 196/196/196 197/197/197
f 175/175/175 177/177/177 198/198/198 190/190/190
f 190/190/190 198/198/198 199/199/199 192/192/192
f 192/192/192 199/199/199 200/200/200 194/194/194
f 194/194/194 200/200/200 201/201/201 196/196/196
f 177/177/177 179/179/179 202/202/202 198/198/198
f 198/198/198 202/202/202 203/203/203 199/199/199
f 199/199/199 203/203/203 204/204/204 200/200/200
f 200/200/200 204/204/204 205/205/205 201/201/201
f 179/179/179 181/181/181 206/206/206 202/202/202
f 202/202/202 206/206/206 207/207/207 203/203/203
f 203/203/203 207/207/207 208/208/208 204/204/204
f 204/204/204 208/208/208 209/209/209 205/205/205
f 154/154/154 191/191/191 210/210/210 155/155/155
f 155/155/155 210/210/210 211/211/211 162/162/162
f 162/162/162 211/211/211 212/212/212 166/166/166
f 166/166/166 212/212/212 213/213/213 170/170/170
f 191/191/191 193/193/193 214/214/214 210/210/210
f 210/210/210 214/214/214 215/215/215 211/211/211
f 211/211/211 215/215/215 216/216/216 212/212/212
f 212/212/212 216/216/216 217/217/217 213/213/213
f 193/193/193 195/195/195 218/218/218 214/214/214
f 214/214/214 218/218/218 219/219/219 215/215/215
f 215/215/215 219/219/219 220/220/220 216/216/216
f 216/216/216 220/220/220 221/221/221 217/217/217
f 195/195/195 197/197/197 222/222/222 218/218/218
f 218/218/218 222/222/222 223/223/223 219/219/219
f 219/219/219 223/223/223 224/224/224 220/220/220
f 220/220/220 224/224/224 225/225/225 221/221/221
f 226/226/226 227/227/227 228/228/228 229/229/229
f 229/229/229 228/228/228 230/230/230 231/231/231
f 231/231/231 230/230/230 232/232/232 233/233/233
f 233/233/233 232/232/232 222/234/222 197/235/197
f 227/227/227 234/236/234 235/237/235 228/228/228
f 228/228/228 235/237/235 236/238/236 230/230/230
f 230/230/230 236/238/236 237/239/237 232/232/232
f 232/232/232 237/239/237 223/240/223 222/234/222
f 234/236/234 238/241/238 239/242/239 235/237/235
f 235/237/235 239/242/239 240/243/240 236/238/236
f 236/238/236 240/243/240 241/244/241 237/239/237
f 237/239/237 241/244/241 224/245/224 223/240/223
f 238/241/238 242/246/242 243/247/243 239/242/239
f 239/242/239 243/247/243 244/248/244 240/243/240
f 240/243/240 244/248/244 245/249/245 241/244/241
f 241/244/241 245/249/245 225/250/225 224/245/224
f 226/226/226 229/229/229 246/251/246 247/252/247
f 247/252/247 246/251/246 248/253/248 249/254/249
f 249/254/249 248/253/248 250/255/250 251/256/251
f 251/256/251 250/255/250 252/257/252 253/258/253
f 229/229/229 231/231/231 254/259/254 246/251/246
f 246/251/246 254/259/254 255/260/255 248/253/248
f 248/253/248 255/260/255 256/261/256 250/255/250
f 250/255/250 256/261/256 257/262/257 252/257/252
f 231/231/231 233/233/233 258/263/258 254/259/254
f 254/259/254 258/263/258 259/264/259 255/260/255
f 255/260/255 259/264/259 260/265/260 256/261/256
f 256/261/256 260/265/260 261/266/261 257/262/257
f 233/233/233 197/235/197 196/267/196 258/263/258
f 258/263/258 196/267/196 201/268/201 259/264/259
f 259/264/259 201/268/201 205/269/205 260/265/260
f 260/265/260 205/269/205 209/270/209 261/266/261
f 226/226/226 247/252/247 262/271/262 263/272/263
f 263/272/263 262/271/262 264/273/264 265/274/265
f 265/274/265 264/273/264 266/275/266 267/276/267
f 267/276/267 266/275/266 42/277/42 10/278/10
f 247/252/247 249/254/249 268/279/268 262/271/262
f 262/271/262 268/279/268 269/280/269 264/273/264
f 264/273/264 269/280/269 270/281/270 266/275/266
f 266/275/266 270/281/270 43/282/43 42/277/42
f 249/254/249 251/256/251 271/283/271 268/279/268
f 268/279/268 271/283/271 272/284/272 269/280/269
f 269/280/269 272/284/272 273/285/273 270/281/270
f 270/281/270 273/285/273 44/286/44 43/282/43
f 251/256/251 253/258/253 274/287/274 271/283/271
f 271/283/271 274/287/274 275/288/275 272/284/272
f 272/284/272 275/288/275 276/289/276 273/285/273
f 273/285/273 276/289/276 45/290/45 44/286/44
f 226/226/226 263/272/263 277/291/277 227/227/227
f 227/227/227 277/291/277 278/292/278 234/236/234
f 234/236/234 278/292/278 279/293/279 238/241/238
f 238/241/238 279/293/279 280/294/280 242/246/242
f 263/272/263 265/274/265 281/295/281 277/291/277
f 277/291/277 281/295/281 282/296/282 278/292/278
f 278/292/278 282/296/282 283/297/283 279/293/279
f 279/293/279 283/297/283 284/298/284 280/294/280
f 265/274/265 267/276/267 285/299/285 281/295/281
f 281/295/281 285/299/285 286/300/286 282/296/282
f 282/296/282 286/300/286 287/301/287 283/297/283
f 283/297/283 287/301/287 288/302/288 284/298/284
f 267/276/267 10/278/10 9/303/9 285/299/285
f 285/299/285 9/303/9 15/304/15 286/300/286
f 286/300/286 15/304/15 20/305/20 287/301/287
f 287/301/287 20/305/20 25/306/25 288/302/288
f 289/307/289 290/308/290 291/309/291 292/310/292
f 292/310/292 291/309/291 293/311/293 294/312/294
f 294/312/294 293/311/293 295/313/295 296/314/296
f 296/314/296 295/313/295 99/99/99 98/98/98
f 290/308/290 297/315/297 298/316/298 291/309/291
f 291/309/291 298/316/298 299/317/299 293/311/293
f 293/311/293 299/317/299 300/318/300 295/313/295
f 295/313/295 300/318/300 100/100/100 99/99/99
f 297/315/297 301/319/301 302/320/302 298/316/298
f 298/316/298 302/320/302 303/321/303 299/317/299
f 299/317/299 303/321/303 304/322/304 300/318/300
f 300/318/300 304/322/304 101/101/101 100/100/100
f 301/319/301 21/323/21 69/324/69 302/320/302
f 302/320/302 69/324/69 73/325/73 303/321/303
f 303/321/303 73/325/73 77/326/77 304/322/304
f 304/322/304 77/326/77 81/81/81 101/101/101
f 289/307/289 292/310/292 305/327/305 306/328/306
f 306/328/306 305/327/305 307/329/307 308/330/308
f 308/330/308 307/329/307 309/331/309 310/332/310
f 310/332/310 309/331/309 171/333/171 170/334/170
f 292/310/292 294/312/294 311/335/311 305/327/305
f 305/327/305 311/335/311 312/336/312 307/329/307
f 307/329/307 312/336/312 313/337/313 309/331/309
f 309/331/309 313/337/313 172/338/172 171/333/171
f 294/312/294 296/314/296 314/339/314 311/335/311
f 311/335/311 314/339/314 315/340/315 312/336/312
f 312/336/312 315/340/315 316/341/316 313/337/313
f 313/337/313 316/341/316 173/342/173 172/338/172
f 296/314/296 98/98/98 141/141/141 314/339/314
f 314/339/314 141/141/141 145/145/145 315/340/315
f 315/340/315 145/145/145 149/149/149 316/341/316
f 316/341/316 149/149/149 153/153/153 173/342/173
f 289/307/289 306/328/306 317/343/317 318/344/318
f 318/344/318 317/343/317 319/345/319 320/346/320
f 320/346/320 319/345/319 321/347/321 322/348/322
f 322/348/322 321/347/321 243/247/243 242/246/242
f 306/328/306 308/330/308 323/349/323 317/343/317
f 317/343/317 323/349/323 324/350/324 319/345/319
f 319/345/319 324/350/324 325/351/325 321/347/321
f 321/347/321 325/351/325 244/248/244 243/247/243
f 308/330/308 310/332/310 326/352/326 323/349/323
f 323/349/323 326/352/326 327/353/327 324/350/324
f 324/350/324 327/353/327 328/354/328 325/351/325
f 325/351/325 328/354/328 245/249/245 244/248/244
f 310/332/310 170/334/170 213/355/213 326/352/326
f 326/352/326 213/355/213 217/356/217 327/353/327
f 327/353/327 217/356/217 221/357/221 328/354/328
f 328/354/328 221/357/221 225/250/225 245/249/245
f 289/307/289 318/344/318 329/358/329 290/308/290
f 290/308/290 329/358/329 330/359/330 297/315/297
f 297/315/297 330/359/330 331/360/331 301/319/301
f 301/319/301 331/360/331 22/361/22 21/323/21
f 318/344/318 320/346/320 332/362/332 329/358/329
f 329/358/329 332/362/332 333/363/333 330/359/330
f 330/359/330 333/363/333 334/364/334 331/360/331
f 331/360/331 334/364/334 23/365/23 22/361/22
f 320/346/320 322/348/322 335/366/335 332/362/332
f 332/362/332 335/366/335 336/367/336 333/363/333
f 333/363/333 336/367/336 337/368/337 334/364/334
f 334/364/334 337/368/337 24/369/24 23/365/23
f 322/348/322 242/246/242 280/294/280 335/366/335
f 335/366/335 280/294/280 284/298/284 336/367/336
f 336/367/336 284/298/284 288/302/288 337/368/337
f 337/368/337 288/302/288 25/306/25 24/369/24
f 338/370/338 339/371/339 340/372/340 341/373/341
f 341/373/341 340/372/340 342/374/342 343/375/343
f 343/375/343 342/374/342 344/376/344 345/377/345
f 345/377/345 344/376/344 134/134/134 109/109/109
f 339/371/339 346/378/346 347/379/347 340/372/340
f 340/372/340 347/379/347 348/380/348 342/374/342
f 342/374/342 348/380/348 349/381/349 344/376/344
f 344/376/344 349/381/349 135/135/135 134/134/134
f 346/378/346 350/382/350 351/383/351 347/379/347
f 347/379/347 351/383/351 352/384/352 348/380/348
f 348/380/348 352/384/352 353/385/353 349/381/349
f 349/381/349 353/385/353 136/136/136 135/135/135
f 350/382/350 181/386/181 180/387/180 351/383/351
f 351/383/351 180/387/180 185/388/185 352/384/352
f 352/384/352 185/388/185 189/389/189 353/385/353
f 353/385/353 189/389/189 137/137/137 136/136/136
f 338/370/338 341/373/341 354/390/354 355/391/355
f 355/391/355 354/390/354 356/392/356 357/393/357
f 357/393/357 356/392/356 358/394/358 359/395/359
f 359/395/359 358/394/358 62/396/62 33/397/33
f 341/373/341 343/375/343 360/398/360 354/390/354
f 354/390/354 360/398/360 361/399/361 356/392/356
f 356/392/356 361/399/361 362/400/362 358/394/358
f 358/394/358 362/400/362 63/401/63 62/396/62
f 343/375/343 345/377/345 363/402/363 360/398/360
f 360/398/360 363/402/363 364/403/364 361/399/361
f 361/399/361 364/403/364 365/404/365 362/400/362
f 362/400/362 365/404/365 64/405/64 63/401/63
f 345/377/345 109/109/109 108/108/108 363/402/363
f 363/402/363 108/108/108 113/113/113 364/403/364
f 364/403/364 113/113/113 117/117/117 365/404/365
f 365/404/365 117/117/117 65/65/65 64/405/64
f 338/370/338 355/391/355 366/406/366 367/407/367
f 367/407/367 366/406/366 368/408/368 369/409/369
f 369/409/369 368/408/368 370/410/370 371/411/371
f 371/411/371 370/410/370 274/412/274 253/413/253
f 355/391/355 357/393/357 372/414/372 366/406/366
f 366/406/366 372/414/372 373/415/373 368/408/368
f 368/408/368 373/415/373 374/416/374 370/410/370
f 370/410/370 374/416/374 275/417/275 274/412/274
f 357/393/357 359/395/359 375/418/375 372/414/372
f 372/414/372 375/418/375 376/419/376 373/415/373
f 373/415/373 376/419/376 377/420/377 374/416/374
f 374/416/374 377/420/377 276/421/276 275/417/275
f 359/395/359 33/397/33 32/422/32 375/418/375
f 375/418/375 32/422/32 37/423/37 376/419/376
f 376/419/376 37/423/37 41/424/41 377/420/377
f 377/420/377 41/424/41 45/425/45 276/421/276
f 338/370/338 367/407/367 378/426/378 339/371/339
f 339/371/339 378/426/378 379/427/379 346/378/346
f 346/378/346 379/427/379 380/428/380 350/382/350
f 350/382/350 380/428/380 206/429/206 181/386/181
f 367/407/367 369/409/369 381/430/381 378/426/378
f 378/426/378 381/430/381 382/431/382 379/427/379
f 379/427/379 382/431/382 383/432/383 380/428/380
f 380/428/380 383/432/383 207/433/207 206/429/206
f 369/409/369 371/411/371 384/434/384 381/430/381
f 381/430/381 384/434/384 385/435/385 382/431/382
f 382/431/382 385/435/385 386/436/386 383/432/383
f 383/432/383 386/436/386 208/437/208 207/433/207
f 371/411/371 253/413/253 252/438/252 384/434/384
f 384/434/384 252/438/252 257/439/257 385/435/385
f 385/435/385 257/439/257 261/440/261 386/436/386
f 386/436/386 261/440/261 209/441/209 208/437/208
o Earth_Earth_Cube.002
v -0.172738 3.165391 0.157984
v 0.469477 3.137852 0.089277
v 0.392176 3.103807 -0.535798
v -0.238083 3.128375 -0.480714
v 0.311232 2.949461 -1.130624
v -0.292668 2.967402 -1.087829
v 0.242365 2.688665 -1.669381
v -0.334600 2.699311 -1.635929
v 0.200165 2.336825 -2.138617
v -0.363538 2.341218 -2.112116
v 1.081685 2.983978 0.018142
v 0.996850 2.957232 -0.579283
v 0.893126 2.821520 -1.147104
v 0.794946 2.587096 -1.658159
v 0.737408 2.262713 -2.100204
v 1.634928 2.720081 -0.051656
v 1.545925 2.701632 -0.621124
v 1.420203 2.592841 -1.155290
v 1.284297 2.407707 -1.621118
v 1.205818 2.138170 -2.012146
v 2.115063 2.363708 -0.117855
v 2.021784 2.352476 -0.672861
v 1.872038 2.271853 -1.186868
v 1.689439 2.141826 -1.622613
v 1.530344 2.014376 -1.916985
v -0.857194 3.028987 -0.406145
v -0.806228 3.062041 0.219991
v -1.432204 2.813550 -0.327450
v -1.393834 2.838628 0.271873
v -1.939337 2.499154 -0.260192
v -1.910322 2.515532 0.311878
v -2.367494 2.102762 -0.218771
v -2.345323 2.111524 0.339745
v -0.884311 2.877951 -1.004932
v -1.433786 2.683912 -0.902979
v -1.915744 2.398839 -0.806225
v -2.319590 2.032861 -0.749317
v -0.899037 2.621040 -1.548023
v -1.417664 2.457247 -1.423610
v -1.859800 2.225704 -1.289141
v -2.218873 1.919305 -1.211350
v -0.914469 2.271850 -2.019144
v -1.416054 2.138113 -1.870231
v -1.834067 1.964060 -1.689131
v -2.112132 1.807618 -1.531637
v -0.722934 2.974831 0.838000
v -0.100249 3.072352 0.790632
v -0.623024 2.772021 1.415005
v -0.025072 2.858158 1.380147
v -0.523653 2.467751 1.926263
v 0.048896 2.541766 1.900402
v -0.441083 2.076958 2.359277
v 0.119331 2.141436 2.339767
v -1.304630 2.762130 0.862015
v -1.185105 2.583189 1.413209
v -1.060439 2.311533 1.899153
v -0.966364 1.953165 2.307766
v -1.818447 2.450137 0.874400
v -1.680903 2.303245 1.394318
v -1.525171 2.088722 1.839998
v -1.417143 1.792179 2.203248
v -2.250238 2.054675 0.888391
v -2.092438 1.939470 1.390919
v -1.897038 1.786537 1.812189
v -1.725258 1.647547 2.093697
v 0.527675 3.048005 0.711143
v 1.126586 2.902927 0.615075
v 1.669473 2.649052 0.519501
v 2.141823 2.300636 0.440644
v 0.574690 2.840643 1.294209
v 1.145620 2.715707 1.177704
v 1.659734 2.490959 1.055891
v 2.104101 2.171842 0.964551
v 0.620432 2.531803 1.810949
v 1.156887 2.435084 1.675255
v 1.624702 2.262980 1.521105
v 2.017313 2.000923 1.414655
v 0.676377 2.138164 2.246168
v 1.192064 2.071123 2.089002
v 1.628814 1.958140 1.893977
v 1.923516 1.845829 1.722642
v 0.342073 -0.144259 3.152249
v 0.974102 -0.107022 3.018968
v 0.920695 0.523623 2.992096
v 0.300056 0.500633 3.119909
v 0.842166 1.124220 2.846292
v 0.246725 1.113024 2.962229
v 0.755228 1.667309 2.593108
v 0.185589 1.664417 2.696251
v 1.553661 -0.066261 2.766992
v 1.493429 0.535996 2.748977
v 1.394891 1.109931 2.626181
v 1.282557 1.626494 2.405007
v 2.055885 -0.024284 2.418108
v 1.992221 0.549430 2.409083
v 1.875595 1.090222 2.316907
v 1.732780 1.563260 2.151322
v 2.471028 0.017436 1.992037
v 2.404098 0.576476 1.990599
v 2.268059 1.098001 1.929974
v 2.087475 1.543227 1.826307
v -0.333003 0.457038 3.123255
v -0.305026 -0.175537 3.154464
v -0.943083 0.406518 3.003304
v -0.927702 -0.199123 3.028897
v -1.501808 0.363610 2.772518
v -1.496111 -0.214373 2.791092
v -1.993483 0.342388 2.446077
v -1.995537 -0.221458 2.458309
v -0.357788 1.060377 2.970200
v -0.939690 0.985652 2.867049
v -1.469456 0.911967 2.661487
v -1.932270 0.873776 2.361639
v -0.390000 1.605695 2.710007
v -0.936736 1.507150 2.631639
v -1.419328 1.393792 2.473327
v -1.828529 1.332389 2.226145
v -0.264298 -0.800973 3.059916
v 0.369860 -0.782710 3.053697
v -0.224267 -1.384661 2.847265
v 0.382201 -1.376704 2.834273
v -0.198545 -1.900858 2.534130
v 0.379647 -1.899936 2.514082
v -0.200165 -2.336825 2.138617
v 0.363538 -2.341218 2.112116
v -0.877659 -0.797657 2.944139
v -0.812367 -1.357247 2.751807
v -0.754290 -1.850037 2.466355
v -0.737408 -2.262713 2.100204
v -1.440184 -0.785647 2.717191
v -1.349868 -1.315222 2.553927
v -1.249211 -1.769699 2.319943
v -1.205818 -2.138170 2.012146
v -1.934485 -0.778926 2.392810
v -1.817933 -1.292191 2.258287
v -1.666451 -1.724388 2.079404
v -1.530344 -2.014376 1.916985
v 0.988152 -0.732717 2.925949
v 1.556676 -0.665254 2.684901
v 2.051172 -0.596224 2.347702
v 2.460303 -0.541055 1.930975
v 0.973504 -1.317894 2.718445
v 1.518380 -1.227823 2.502293
v 1.990473 -1.130625 2.198682
v 2.377472 -1.061308 1.815421
v 0.943993 -1.835650 2.411175
v 1.460274 -1.724358 2.229055
v 1.897110 -1.592450 1.984836
v 2.243505 -1.505392 1.665826
v 0.914469 -2.271850 2.019144
v 1.416054 -2.138112 1.870231
v 1.834067 -1.964060 1.689131
v 2.112132 -1.807618 1.531637
v 0.172738 -3.165391 -0.157984
v 0.806228 -3.062041 -0.219991
v 0.857194 -3.028987 0.406146
v 0.238083 -3.128375 0.480714
v 0.884311 -2.877951 1.004932
v 0.292668 -2.967402 1.087829
v 0.899037 -2.621040 1.548024
v 0.334600 -2.699311 1.635929
v 1.393834 -2.838628 -0.271873
v 1.432204 -2.813550 0.327450
v 1.433786 -2.683912 0.902979
v 1.417664 -2.457247 1.423610
v 1.910322 -2.515532 -0.311878
v 1.939337 -2.499154 0.260192
v 1.915744 -2.398838 0.806225
v 1.859800 -2.225703 1.289141
v 2.345323 -2.111523 -0.339745
v 2.367494 -2.102762 0.218771
v 2.319590 -2.032861 0.749317
v 2.218873 -1.919304 1.211350
v -0.392176 -3.103807 0.535798
v -0.469477 -3.137852 -0.089277
v -0.996850 -2.957232 0.579283
v -1.081685 -2.983978 -0.018142
v -1.545925 -2.701632 0.621124
v -1.634928 -2.720081 0.051656
v -2.021784 -2.352476 0.672861
v -2.115063 -2.363708 0.117855
v -0.311232 -2.949461 1.130624
v -0.893126 -2.821520 1.147104
v -1.420203 -2.592841 1.155290
v -1.872038 -2.271853 1.186868
v -0.242365 -2.688665 1.669381
v -0.794946 -2.587096 1.658159
v -1.284297 -2.407707 1.621118
v -1.689439 -2.141826 1.622613
v -0.527675 -3.048005 -0.711143
v 0.100249 -3.072352 -0.790632
v -0.574690 -2.840643 -1.294209
v 0.025072 -2.858158 -1.380147
v -0.620432 -2.531803 -1.810949
v -0.048896 -2.541766 -1.900402
v -0.676377 -2.138164 -2.246168
v -0.119331 -2.141436 -2.339767
v -1.126586 -2.902927 -0.615075
v -1.145620 -2.715707 -1.177704
v -1.156887 -2.435084 -1.675255
v -1.192064 -2.071123 -2.089002
v -1.669473 -2.649052 -0.519501
v -1.659734 -2.490959 -1.055891
v -1.624702 -2.262980 -1.521105
v -1.628814 -1.958140 -1.893977
v -2.141823 -2.300636 -0.440644
v -2.104101 -2.171842 -0.964551
v -2.017313 -2.000923 -1.414655
v -1.923516 -1.845829 -1.722642
v 0.722934 -2.974831 -0.838000
v 1.304630 -2.762130 -0.862015
v 1.818447 -2.450137 -0.874400
v 2.250238 -2.054675 -0.888391
v 0.623024 -2.772021 -1.415005
v 1.185105 -2.583189 -1.413209
v 1.680903 -2.303245 -1.394318
v 2.092438 -1.939470 -1.390919
v 0.523653 -2.467751 -1.926263
v 1.060439 -2.311533 -1.899153
v 1.525171 -2.088722 -1.839998
v 1.897038 -1.786537 -1.812189
v 0.441083 -2.076958 -2.359277
v 0.966364 -1.953165 -2.307766
v 1.417143 -1.792179 -2.203248
v 1.725258 -1.647547 -2.093697
v -0.342073 0.144259 -3.152249
v 0.305026 0.175537 -3.154464
v 0.333003 -0.457038 -3.123255
v -0.300056 -0.500633 -3.119909
v 0.357788 -1.060377 -2.970200
v -0.246725 -1.113024 -2.962229
v 0.390000 -1.605695 -2.710007
v -0.185589 -1.664417 -2.696251
v 0.927702 0.199123 -3.028897
v 0.943083 -0.406518 -3.003304
v 0.939689 -0.985652 -2.867049
v 0.936736 -1.507150 -2.631639
v 1.496112 0.214373 -2.791091
v 1.501808 -0.363610 -2.772518
v 1.469456 -0.911967 -2.661487
v 1.419328 -1.393792 -2.473327
v 1.995537 0.221458 -2.458309
v 1.993483 -0.342388 -2.446077
v 1.932271 -0.873776 -2.361639
v 1.828529 -1.332389 -2.226145
v -0.920695 -0.523623 -2.992096
v -0.974102 0.107022 -3.018968
v -1.493429 -0.535996 -2.748977
v -1.553662 0.066261 -2.766992
v -1.992221 -0.549430 -2.409083
v -2.055885 0.024284 -2.418108
v -2.404098 -0.576476 -1.990599
v -2.471028 -0.017436 -1.992037
v -0.842166 -1.124220 -2.846292
v -1.394891 -1.109931 -2.626181
v -1.875594 -1.090222 -2.316907
v -2.268059 -1.098001 -1.929974
v -0.755228 -1.667309 -2.593108
v -1.282557 -1.626495 -2.405008
v -1.732780 -1.563261 -2.151322
v -2.087475 -1.543227 -1.826307
v -0.988152 0.732717 -2.925949
v -0.369860 0.782710 -3.053697
v -0.973504 1.317894 -2.718445
v -0.382201 1.376704 -2.834273
v -0.943993 1.835650 -2.411175
v -0.379647 1.899936 -2.514082
v -1.556676 0.665255 -2.684901
v -1.518381 1.227823 -2.502293
v -1.460274 1.724358 -2.229055
v -2.051173 0.596224 -2.347702
v -1.990473 1.130625 -2.198682
v -1.897110 1.592451 -1.984836
v -2.460303 0.541055 -1.930975
v -2.377472 1.061308 -1.815421
v -2.243505 1.505392 -1.665826
v 0.264298 0.800973 -3.059916
v 0.877659 0.797657 -2.944139
v 1.440184 0.785647 -2.717191
v 1.934485 0.778926 -2.392810
v 0.224267 1.384660 -2.847265
v 0.812367 1.357247 -2.751807
v 1.349868 1.315222 -2.553927
v 1.817933 1.292191 -2.258287
v 0.198545 1.900858 -2.534130
v 0.754290 1.850037 -2.466355
v 1.249211 1.769699 -2.319943
v 1.666451 1.724388 -2.079404
v 3.152972 0.168369 -0.323907
v 3.056856 0.805306 -0.285670
v 3.062540 0.760208 0.342684
v 3.155188 0.135767 0.317571
v 2.948128 0.696670 0.947464
v 3.032000 0.098418 0.933695
v 2.724362 0.630311 1.501684
v 2.798556 0.058483 1.496383
v 2.839228 1.399040 -0.236572
v 2.851575 1.345471 0.364312
v 2.756739 1.259709 0.942348
v 2.560883 1.165560 1.468962
v 2.519089 1.922591 -0.179801
v 2.538798 1.863988 0.393130
v 2.471405 1.757273 0.937359
v 2.326277 1.628460 1.418116
v 3.123129 -0.492437 0.279402
v 3.119020 -0.473930 -0.348712
v 2.971104 -1.090307 0.241383
v 2.961620 -1.083672 -0.359106
v 2.713883 -1.631655 0.216883
v 2.697986 -1.633661 -0.355697
v 3.006415 -0.501910 0.885467
v 2.871665 -1.073445 0.822043
v 2.639273 -1.588306 0.765517
v 2.780788 -0.513983 1.441366
v 2.671399 -1.052943 1.352567
v 2.485628 -1.524583 1.253712
v 2.992484 -0.436200 -0.963984
v 3.021382 0.194105 -0.952930
v 2.751350 -0.392398 -1.533165
v 2.771306 0.211630 -1.532833
v 2.412622 -0.356540 -2.031410
v 2.423068 0.220631 -2.038274
v 2.846140 -1.037384 -0.947534
v 2.627492 -0.970125 -1.493198
v 2.319366 -0.904239 -1.969109
v 2.594321 -1.581873 -0.917430
v 2.406727 -1.491391 -1.434543
v 2.153621 -1.386091 -1.874877
v 2.930684 0.818103 -0.903492
v 2.724485 1.401294 -0.829490
v 2.416602 1.917344 -0.747211
v 2.690936 0.809087 -1.476056
v 2.508811 1.368143 -1.381502
v 2.234208 1.860494 -1.273333
v 2.353558 0.791344 -1.977129
v 2.204192 1.320586 -1.863354
v 1.988532 1.774713 -1.723552
v -3.152972 -0.168369 0.323907
v -3.056856 -0.805306 0.285670
v -2.930684 -0.818103 0.903492
v -3.021381 -0.194105 0.952930
v -2.690936 -0.809087 1.476056
v -2.771306 -0.211630 1.532833
v -2.353558 -0.791344 1.977129
v -2.423068 -0.220631 2.038274
v -2.839228 -1.399040 0.236572
v -2.724485 -1.401294 0.829490
v -2.508811 -1.368143 1.381502
v -2.204192 -1.320586 1.863354
v -2.519089 -1.922591 0.179801
v -2.416602 -1.917344 0.747211
v -2.234208 -1.860494 1.273333
v -1.988532 -1.774713 1.723552
v -2.992484 0.436200 0.963984
v -3.119020 0.473930 0.348712
v -2.846140 1.037384 0.947534
v -2.961620 1.083672 0.359106
v -2.594320 1.581873 0.917429
v -2.697986 1.633661 0.355697
v -2.751350 0.392398 1.533165
v -2.627492 0.970125 1.493198
v -2.406727 1.491391 1.434543
v -2.412622 0.356540 2.031410
v -2.319366 0.904239 1.969109
v -2.153621 1.386091 1.874877
v -3.123129 0.492437 -0.279402
v -3.155188 -0.135767 -0.317571
v -3.006415 0.501910 -0.885467
v -3.032000 -0.098418 -0.933695
v -2.780788 0.513983 -1.441366
v -2.798556 -0.058483 -1.496383
v -2.971104 1.090307 -0.241383
v -2.871665 1.073446 -0.822043
v -2.671399 1.052943 -1.352567
v -2.713883 1.631655 -0.216883
v -2.639273 1.588306 -0.765517
v -2.485628 1.524583 -1.253712
v -3.062539 -0.760208 -0.342684
v -2.851575 -1.345471 -0.364312
v -2.538798 -1.863988 -0.393130
v -2.948128 -0.696670 -0.947464
v -2.756739 -1.259709 -0.942348
v -2.471405 -1.757274 -0.937359
v -2.724362 -0.630311 -1.501685
v -2.560883 -1.165560 -1.468962
v -2.326277 -1.628460 -1.418116
vt 0.377979 0.825310
vt 0.408469 0.825310
vt 0.408469 0.865983
vt 0.377979 0.865983
vt 0.408469 0.906657
vt 0.377979 0.906657
vt 0.408469 0.947331
vt 0.377979 0.947331
vt 0.408469 0.988004
vt 0.377979 0.988004
vt 0.438960 0.825310
vt 0.438960 0.865984
vt 0.438960 0.906657
vt 0.438960 0.947331
vt 0.438960 0.988004
vt 0.469450 0.825310
vt 0.469450 0.865983
vt 0.469450 0.906657
vt 0.469450 0.947331
vt 0.469450 0.988004
vt 0.499940 0.825310
vt 0.499940 0.865983
vt 0.499940 0.906657
vt 0.499940 0.947331
vt 0.499940 0.988004
vt 0.347489 0.865983
vt 0.347489 0.825310
vt 0.316998 0.865984
vt 0.316998 0.825310
vt 0.286508 0.865983
vt 0.286508 0.825310
vt 0.256018 0.865983
vt 0.256018 0.825310
vt 0.347489 0.906657
vt 0.316998 0.906657
vt 0.286508 0.906657
vt 0.256018 0.906657
vt 0.347489 0.947331
vt 0.316998 0.947331
vt 0.286508 0.947331
vt 0.256018 0.947331
vt 0.347489 0.988004
vt 0.316998 0.988004
vt 0.286508 0.988004
vt 0.256018 0.988004
vt 0.347489 0.784636
vt 0.377979 0.784636
vt 0.347489 0.743963
vt 0.377979 0.743962
vt 0.347489 0.703289
vt 0.377979 0.703289
vt 0.347489 0.662615
vt 0.377979 0.662615
vt 0.316998 0.784636
vt 0.316998 0.743962
vt 0.316998 0.703289
vt 0.316998 0.662615
vt 0.286508 0.784636
vt 0.286508 0.743963
vt 0.286508 0.703289
vt 0.286508 0.662615
vt 0.256018 0.784636
vt 0.256018 0.743963
vt 0.256018 0.703289
vt 0.256018 0.662615
vt 0.408469 0.784636
vt 0.438960 0.784636
vt 0.469450 0.784636
vt 0.499940 0.784636
vt 0.408469 0.743963
vt 0.438960 0.743963
vt 0.469450 0.743963
vt 0.499940 0.743963
vt 0.408469 0.703289
vt 0.438960 0.703289
vt 0.469450 0.703289
vt 0.499940 0.703289
vt 0.408469 0.662615
vt 0.438960 0.662615
vt 0.469450 0.662615
vt 0.499940 0.662615
vt 0.377979 0.500000
vt 0.408469 0.500000
vt 0.408469 0.540654
vt 0.377979 0.540654
vt 0.408469 0.581308
vt 0.377979 0.581308
vt 0.408469 0.621961
vt 0.377979 0.621961
vt 0.438960 0.500000
vt 0.438960 0.540654
vt 0.438960 0.581308
vt 0.438960 0.621961
vt 0.469450 0.500000
vt 0.469450 0.540654
vt 0.469450 0.581308
vt 0.469450 0.621961
vt 0.499940 0.500000
vt 0.499940 0.540654
vt 0.499940 0.581308
vt 0.499940 0.621961
vt 0.347489 0.540654
vt 0.347489 0.500000
vt 0.316998 0.540654
vt 0.316998 0.500000
vt 0.286508 0.540654
vt 0.286508 0.500000
vt 0.256018 0.540654
vt 0.256018 0.500000
vt 0.347489 0.581308
vt 0.316998 0.581308
vt 0.286508 0.581308
vt 0.256018 0.581308
vt 0.347489 0.621961
vt 0.316998 0.621961
vt 0.286508 0.621961
vt 0.256018 0.621961
vt 0.347489 0.459346
vt 0.377979 0.459346
vt 0.347489 0.418692
vt 0.377979 0.418692
vt 0.347489 0.378039
vt 0.377979 0.378039
vt 0.347489 0.337385
vt 0.377979 0.337385
vt 0.316998 0.459346
vt 0.316998 0.418692
vt 0.316998 0.378039
vt 0.316998 0.337385
vt 0.286508 0.459346
vt 0.286508 0.418692
vt 0.286508 0.378039
vt 0.286508 0.337385
vt 0.256018 0.459346
vt 0.256018 0.418692
vt 0.256018 0.378039
vt 0.256018 0.337385
vt 0.408469 0.459346
vt 0.438960 0.459346
vt 0.469450 0.459346
vt 0.499940 0.459346
vt 0.408469 0.418692
vt 0.438960 0.418692
vt 0.469450 0.418692
vt 0.499940 0.418692
vt 0.408469 0.378039
vt 0.438960 0.378039
vt 0.469450 0.378039
vt 0.499940 0.378039
vt 0.408469 0.337385
vt 0.438960 0.337385
vt 0.469450 0.337385
vt 0.499940 0.337385
vt 0.377979 0.174690
vt 0.408469 0.174690
vt 0.408469 0.215364
vt 0.377979 0.215364
vt 0.408469 0.256038
vt 0.377979 0.256038
vt 0.408469 0.296711
vt 0.377979 0.296711
vt 0.438960 0.174690
vt 0.438960 0.215364
vt 0.438960 0.256037
vt 0.438960 0.296711
vt 0.469450 0.174690
vt 0.469450 0.215364
vt 0.469450 0.256038
vt 0.469450 0.296711
vt 0.499940 0.174690
vt 0.499940 0.215364
vt 0.499940 0.256038
vt 0.499940 0.296711
vt 0.347489 0.215364
vt 0.347489 0.174690
vt 0.316998 0.215364
vt 0.316998 0.174690
vt 0.286508 0.215364
vt 0.286508 0.174690
vt 0.256018 0.215364
vt 0.256018 0.174690
vt 0.347489 0.256038
vt 0.316998 0.256037
vt 0.286508 0.256038
vt 0.256018 0.256038
vt 0.347489 0.296711
vt 0.316998 0.296711
vt 0.286508 0.296711
vt 0.256018 0.296711
vt 0.347489 0.134017
vt 0.377979 0.134017
vt 0.347489 0.093343
vt 0.377979 0.093343
vt 0.347489 0.052669
vt 0.377979 0.052669
vt 0.347489 0.011996
vt 0.377979 0.011996
vt 0.316998 0.134017
vt 0.316998 0.093343
vt 0.316998 0.052669
vt 0.316998 0.011996
vt 0.286508 0.134017
vt 0.286508 0.093343
vt 0.286508 0.052669
vt 0.286508 0.011996
vt 0.256018 0.134017
vt 0.256018 0.093343
vt 0.256018 0.052669
vt 0.256018 0.011996
vt 0.408469 0.134017
vt 0.438960 0.134017
vt 0.469450 0.134017
vt 0.499940 0.134017
vt 0.408469 0.093343
vt 0.438960 0.093343
vt 0.469450 0.093343
vt 0.499940 0.093343
vt 0.408469 0.052669
vt 0.438960 0.052669
vt 0.469450 0.052669
vt 0.499940 0.052669
vt 0.408469 0.011996
vt 0.438960 0.011996
vt 0.469450 0.011996
vt 0.499940 0.011996
vt 0.866003 0.500000
vt 0.835498 0.500000
vt 0.835498 0.459346
vt 0.866003 0.459346
vt 0.835498 0.418692
vt 0.866003 0.418692
vt 0.835498 0.378039
vt 0.866003 0.378039
vt 0.835498 0.337385
vt 0.866003 0.337385
vt 0.804993 0.500000
vt 0.804993 0.459346
vt 0.804993 0.418692
vt 0.804993 0.378039
vt 0.804993 0.337385
vt 0.774488 0.500000
vt 0.774488 0.459346
vt 0.774488 0.418692
vt 0.774488 0.378039
vt 0.774488 0.337385
vt 0.743982 0.500000
vt 0.743982 0.459346
vt 0.743982 0.418692
vt 0.743982 0.378039
vt 0.743982 0.337385
vt 0.896509 0.459346
vt 0.896509 0.500000
vt 0.927014 0.459346
vt 0.927014 0.500000
vt 0.957519 0.459346
vt 0.957519 0.500000
vt 0.988024 0.459346
vt 0.988024 0.500000
vt 0.896509 0.418692
vt 0.927014 0.418692
vt 0.957519 0.418692
vt 0.988024 0.418692
vt 0.896509 0.378039
vt 0.927014 0.378039
vt 0.957519 0.378039
vt 0.988024 0.378039
vt 0.896509 0.337385
vt 0.927014 0.337385
vt 0.957519 0.337385
vt 0.988024 0.337385
vt 0.896509 0.540654
vt 0.866003 0.540654
vt 0.896509 0.581308
vt 0.866003 0.581308
vt 0.896509 0.621961
vt 0.866003 0.621961
vt 0.896509 0.662615
vt 0.866003 0.662615
vt 0.927014 0.540654
vt 0.927014 0.581308
vt 0.927014 0.621961
vt 0.927014 0.662615
vt 0.957519 0.540654
vt 0.957519 0.581308
vt 0.957519 0.621961
vt 0.957519 0.662615
vt 0.988024 0.540654
vt 0.988024 0.581308
vt 0.988024 0.621961
vt 0.988024 0.662615
vt 0.835498 0.540654
vt 0.804993 0.540654
vt 0.774488 0.540654
vt 0.743982 0.540654
vt 0.835498 0.581308
vt 0.804993 0.581308
vt 0.774488 0.581308
vt 0.743982 0.581308
vt 0.835498 0.621961
vt 0.804993 0.621961
vt 0.774488 0.621961
vt 0.743982 0.621961
vt 0.835498 0.662615
vt 0.804993 0.662615
vt 0.774488 0.662615
vt 0.743982 0.662615
vt 0.621961 0.500000
vt 0.621961 0.540654
vt 0.591456 0.540654
vt 0.591456 0.500000
vt 0.560951 0.540654
vt 0.560951 0.500000
vt 0.530446 0.540654
vt 0.530446 0.500000
vt 0.621961 0.581308
vt 0.591456 0.581308
vt 0.560951 0.581308
vt 0.530446 0.581308
vt 0.621961 0.621961
vt 0.591456 0.621961
vt 0.560951 0.621961
vt 0.530446 0.621961
vt 0.621961 0.662615
vt 0.591456 0.662615
vt 0.560951 0.662615
vt 0.530446 0.662615
vt 0.591456 0.459346
vt 0.621961 0.459346
vt 0.591456 0.418692
vt 0.621961 0.418692
vt 0.591456 0.378039
vt 0.621961 0.378039
vt 0.591456 0.337385
vt 0.621961 0.337385
vt 0.560951 0.459346
vt 0.560951 0.418692
vt 0.560951 0.378039
vt 0.560951 0.337385
vt 0.530446 0.459346
vt 0.530446 0.418692
vt 0.530446 0.378039
vt 0.530446 0.337385
vt 0.652467 0.459346
vt 0.652467 0.500000
vt 0.682972 0.459346
vt 0.682972 0.500000
vt 0.713477 0.459346
vt 0.713477 0.500000
vt 0.652467 0.418692
vt 0.682972 0.418692
vt 0.713477 0.418692
vt 0.652467 0.378039
vt 0.682972 0.378039
vt 0.713477 0.378039
vt 0.652467 0.337385
vt 0.682972 0.337385
vt 0.713477 0.337385
vt 0.652467 0.540654
vt 0.652467 0.581308
vt 0.652467 0.621961
vt 0.652467 0.662615
vt 0.682972 0.540654
vt 0.682972 0.581308
vt 0.682972 0.621961
vt 0.682972 0.662615
vt 0.713477 0.540654
vt 0.713477 0.581308
vt 0.713477 0.621961
vt 0.713477 0.662615
vt 0.133997 0.500000
vt 0.133997 0.459346
vt 0.164502 0.459346
vt 0.164502 0.500000
vt 0.195007 0.459346
vt 0.195007 0.500000
vt 0.225512 0.459346
vt 0.225512 0.500000
vt 0.133997 0.418692
vt 0.164502 0.418692
vt 0.195007 0.418692
vt 0.225512 0.418692
vt 0.133997 0.378039
vt 0.164502 0.378039
vt 0.195007 0.378039
vt 0.225512 0.378039
vt 0.133997 0.337385
vt 0.164502 0.337385
vt 0.195007 0.337385
vt 0.225512 0.337385
vt 0.164502 0.540654
vt 0.133997 0.540654
vt 0.164502 0.581308
vt 0.133997 0.581308
vt 0.164502 0.621961
vt 0.133997 0.621961
vt 0.164502 0.662615
vt 0.133997 0.662615
vt 0.195007 0.540654
vt 0.195007 0.581308
vt 0.195007 0.621961
vt 0.195007 0.662615
vt 0.225512 0.540654
vt 0.225512 0.581308
vt 0.225512 0.621961
vt 0.225512 0.662615
vt 0.103491 0.540654
vt 0.103491 0.500000
vt 0.072986 0.540654
vt 0.072986 0.500000
vt 0.042481 0.540654
vt 0.042481 0.500000
vt 0.011976 0.540654
vt 0.011976 0.500000
vt 0.103491 0.581308
vt 0.072986 0.581308
vt 0.042481 0.581308
vt 0.011976 0.581308
vt 0.103491 0.621961
vt 0.072986 0.621961
vt 0.042481 0.621961
vt 0.011976 0.621961
vt 0.103491 0.662615
vt 0.072986 0.662615
vt 0.042481 0.662615
vt 0.011976 0.662615
vt 0.103491 0.459346
vt 0.103491 0.418692
vt 0.103491 0.378039
vt 0.103491 0.337385
vt 0.072986 0.459346
vt 0.072986 0.418692
vt 0.072986 0.378039
vt 0.072986 0.337385
vt 0.042481 0.459346
vt 0.042481 0.418692
vt 0.042481 0.378039
vt 0.042481 0.337385
vt 0.011976 0.459346
vt 0.011976 0.418692
vt 0.011976 0.378039
vt 0.011976 0.337385
vn -0.0542 0.9973 0.0498
vn 0.1455 0.9889 0.0284
vn 0.1218 0.9785 -0.1664
vn -0.0746 0.9860 -0.1489
vn 0.0966 0.9306 -0.3529
vn -0.0917 0.9362 -0.3394
vn 0.0746 0.8487 -0.5236
vn -0.1051 0.8519 -0.5131
vn 0.0612 0.7363 -0.6739
vn -0.1144 0.7376 -0.6655
vn 0.3375 0.9413 0.0061
vn 0.3113 0.9331 -0.1802
vn 0.2783 0.8915 -0.3575
vn 0.2462 0.8183 -0.5195
vn 0.2276 0.7138 -0.6623
vn 0.5127 0.8584 -0.0160
vn 0.4851 0.8528 -0.1934
vn 0.4455 0.8201 -0.3591
vn 0.3997 0.7652 -0.5047
vn 0.3716 0.6763 -0.6360
vn 0.6663 0.7447 -0.0372
vn 0.6374 0.7413 -0.2101
vn 0.5914 0.7168 -0.3694
vn 0.5360 0.6776 -0.5035
vn 0.4821 0.6346 -0.6040
vn -0.2676 0.9553 -0.1260
vn -0.2514 0.9654 0.0691
vn -0.4480 0.8883 -0.1015
vn -0.4358 0.8960 0.0855
vn -0.6087 0.7893 -0.0801
vn -0.5996 0.7943 0.0982
vn -0.7459 0.6627 -0.0670
vn -0.7389 0.6653 0.1071
vn -0.2763 0.9084 -0.3138
vn -0.4480 0.8486 -0.2814
vn -0.6009 0.7593 -0.2497
vn -0.7315 0.6414 -0.2314
vn -0.2809 0.8277 -0.4858
vn -0.4421 0.7779 -0.4466
vn -0.5806 0.7084 -0.4013
vn -0.7014 0.6072 -0.3734
vn -0.2861 0.7161 -0.6367
vn -0.4417 0.6751 -0.5909
vn -0.5705 0.6224 -0.5359
vn -0.6654 0.5695 -0.4826
vn -0.2258 0.9383 0.2618
vn -0.0317 0.9686 0.2467
vn -0.1947 0.8752 0.4428
vn -0.0082 0.9020 0.4316
vn -0.1632 0.7795 0.6047
vn 0.0152 0.8024 0.5966
vn -0.1369 0.6546 0.7434
vn 0.0377 0.6746 0.7372
vn -0.4082 0.8722 0.2696
vn -0.3704 0.8171 0.4418
vn -0.3300 0.7322 0.5959
vn -0.2997 0.6167 0.7279
vn -0.5710 0.7740 0.2735
vn -0.5278 0.7295 0.4349
vn -0.4762 0.6657 0.5745
vn -0.4384 0.5679 0.6966
vn -0.7094 0.6476 0.2781
vn -0.6609 0.6123 0.4340
vn -0.6016 0.5660 0.5637
vn -0.5435 0.5190 0.6597
vn 0.1640 0.9611 0.2222
vn 0.3517 0.9161 0.1923
vn 0.5236 0.8364 0.1619
vn 0.6748 0.7252 0.1369
vn 0.1789 0.8966 0.4051
vn 0.3571 0.8585 0.3681
vn 0.5200 0.7884 0.3286
vn 0.6635 0.6857 0.2992
vn 0.1932 0.7995 0.5688
vn 0.3596 0.7706 0.5261
vn 0.5059 0.7201 0.4750
vn 0.6376 0.6340 0.4376
vn 0.2112 0.6737 0.7081
vn 0.3710 0.6534 0.6599
vn 0.5055 0.6194 0.6007
vn 0.6060 0.5815 0.5427
vn 0.1077 -0.0454 0.9931
vn 0.3043 -0.0338 0.9520
vn 0.2881 0.1627 0.9437
vn 0.0947 0.1552 0.9833
vn 0.2637 0.3510 0.8985
vn 0.0780 0.3472 0.9345
vn 0.2362 0.5230 0.8190
vn 0.0588 0.5219 0.8510
vn 0.4862 -0.0210 0.8736
vn 0.4677 0.1668 0.8680
vn 0.4365 0.3460 0.8305
vn 0.4001 0.5097 0.7616
vn 0.6455 -0.0077 0.7637
vn 0.6258 0.1710 0.7610
vn 0.5891 0.3388 0.7336
vn 0.5418 0.4868 0.6852
vn 0.7784 0.0056 0.6277
vn 0.7577 0.1798 0.6273
vn 0.7160 0.3414 0.6089
vn 0.6614 0.4784 0.5777
vn -0.1026 0.1419 0.9845
vn -0.0936 -0.0552 0.9941
vn -0.2938 0.1262 0.9475
vn -0.2888 -0.0626 0.9553
vn -0.4707 0.1125 0.8751
vn -0.4688 -0.0675 0.8807
vn -0.6281 0.1058 0.7709
vn -0.6286 -0.0698 0.7746
vn -0.1105 0.3310 0.9371
vn -0.2921 0.3071 0.9057
vn -0.4600 0.2828 0.8417
vn -0.6095 0.2705 0.7452
vn -0.1205 0.5037 0.8554
vn -0.2901 0.4725 0.8322
vn -0.4410 0.4339 0.7856
vn -0.5783 0.4115 0.7044
vn -0.0812 -0.2501 0.9648
vn 0.1163 -0.2440 0.9628
vn -0.0689 -0.4331 0.8987
vn 0.1202 -0.4304 0.8946
vn -0.0606 -0.5967 0.8002
vn 0.1195 -0.5963 0.7938
vn -0.0612 -0.7363 0.6739
vn 0.1144 -0.7376 0.6655
vn -0.2734 -0.2493 0.9290
vn -0.2525 -0.4241 0.8697
vn -0.2330 -0.5804 0.7803
vn -0.2276 -0.7138 0.6623
vn -0.4515 -0.2455 0.8578
vn -0.4228 -0.4099 0.8082
vn -0.3880 -0.5524 0.7378
vn -0.3716 -0.6763 0.6360
vn -0.6097 -0.2435 0.7543
vn -0.5740 -0.4026 0.7130
vn -0.5282 -0.5357 0.6589
vn -0.4821 -0.6346 0.6040
vn 0.3090 -0.2288 0.9231
vn 0.4874 -0.2078 0.8481
vn 0.6441 -0.1859 0.7420
vn 0.7753 -0.1684 0.6088
vn 0.3047 -0.4123 0.8586
vn 0.4750 -0.3837 0.7919
vn 0.6249 -0.3520 0.6968
vn 0.7501 -0.3297 0.5733
vn 0.2953 -0.5764 0.7619
vn 0.4558 -0.5413 0.7065
vn 0.5931 -0.4972 0.6333
vn 0.7097 -0.4664 0.5280
vn 0.2861 -0.7161 0.6367
vn 0.4417 -0.6751 0.5909
vn 0.5705 -0.6224 0.5359
vn 0.6654 -0.5695 0.4826
vn 0.0542 -0.9973 -0.0498
vn 0.2514 -0.9654 -0.0691
vn 0.2676 -0.9553 0.1260
vn 0.0746 -0.9860 0.1489
vn 0.2763 -0.9084 0.3138
vn 0.0917 -0.9362 0.3394
vn 0.2809 -0.8277 0.4858
vn 0.1051 -0.8519 0.5131
vn 0.4358 -0.8960 -0.0855
vn 0.4480 -0.8883 0.1015
vn 0.4480 -0.8486 0.2814
vn 0.4421 -0.7779 0.4466
vn 0.5996 -0.7943 -0.0982
vn 0.6087 -0.7893 0.0801
vn 0.6009 -0.7593 0.2497
vn 0.5806 -0.7084 0.4013
vn 0.7389 -0.6653 -0.1071
vn 0.7459 -0.6627 0.0670
vn 0.7315 -0.6414 0.2314
vn 0.7014 -0.6072 0.3734
vn -0.1218 -0.9785 0.1664
vn -0.1455 -0.9889 -0.0284
vn -0.3113 -0.9331 0.1802
vn -0.3375 -0.9413 -0.0061
vn -0.4851 -0.8528 0.1934
vn -0.5127 -0.8584 0.0160
vn -0.6374 -0.7413 0.2101
vn -0.6663 -0.7447 0.0372
vn -0.0966 -0.9306 0.3529
vn -0.2783 -0.8915 0.3575
vn -0.4455 -0.8201 0.3591
vn -0.5914 -0.7168 0.3694
vn -0.0746 -0.8487 0.5236
vn -0.2462 -0.8183 0.5195
vn -0.3997 -0.7652 0.5047
vn -0.5360 -0.6776 0.5035
vn -0.1640 -0.9611 -0.2222
vn 0.0317 -0.9686 -0.2467
vn -0.1789 -0.8966 -0.4051
vn 0.0082 -0.9020 -0.4316
vn -0.1932 -0.7995 -0.5688
vn -0.0152 -0.8024 -0.5966
vn -0.2112 -0.6737 -0.7081
vn -0.0377 -0.6746 -0.7372
vn -0.3517 -0.9161 -0.1923
vn -0.3571 -0.8585 -0.3681
vn -0.3596 -0.7706 -0.5261
vn -0.3710 -0.6534 -0.6599
vn -0.5236 -0.8364 -0.1619
vn -0.5200 -0.7884 -0.3286
vn -0.5059 -0.7201 -0.4750
vn -0.5055 -0.6194 -0.6007
vn -0.6748 -0.7252 -0.1369
vn -0.6635 -0.6857 -0.2992
vn -0.6376 -0.6340 -0.4376
vn -0.6060 -0.5815 -0.5427
vn 0.2258 -0.9383 -0.2618
vn 0.4082 -0.8722 -0.2696
vn 0.5710 -0.7740 -0.2735
vn 0.7094 -0.6476 -0.2781
vn 0.1947 -0.8752 -0.4428
vn 0.3704 -0.8171 -0.4418
vn 0.5278 -0.7295 -0.4349
vn 0.6609 -0.6123 -0.4340
vn 0.1632 -0.7795 -0.6047
vn 0.3300 -0.7322 -0.5959
vn 0.4762 -0.6657 -0.5745
vn 0.6016 -0.5660 -0.5637
vn 0.1369 -0.6546 -0.7434
vn 0.2997 -0.6167 -0.7279
vn 0.4384 -0.5679 -0.6966
vn 0.5435 -0.5190 -0.6597
vn -0.1077 0.0454 -0.9931
vn 0.0936 0.0552 -0.9941
vn 0.1026 -0.1419 -0.9845
vn -0.0947 -0.1552 -0.9833
vn 0.1105 -0.3310 -0.9371
vn -0.0780 -0.3472 -0.9345
vn 0.1205 -0.5037 -0.8554
vn -0.0588 -0.5219 -0.8510
vn 0.2888 0.0626 -0.9553
vn 0.2938 -0.1262 -0.9475
vn 0.2921 -0.3071 -0.9057
vn 0.2901 -0.4725 -0.8322
vn 0.4688 0.0675 -0.8807
vn 0.4707 -0.1125 -0.8751
vn 0.4600 -0.2828 -0.8417
vn 0.4410 -0.4339 -0.7856
vn 0.6286 0.0698 -0.7746
vn 0.6281 -0.1058 -0.7709
vn 0.6095 -0.2705 -0.7452
vn 0.5783 -0.4115 -0.7044
vn -0.2881 -0.1627 -0.9437
vn -0.3043 0.0338 -0.9520
vn -0.4677 -0.1668 -0.8680
vn -0.4862 0.0210 -0.8736
vn -0.6258 -0.1710 -0.7610
vn -0.6455 0.0077 -0.7637
vn -0.7577 -0.1798 -0.6273
vn -0.7784 -0.0056 -0.6277
vn -0.2637 -0.3510 -0.8985
vn -0.4365 -0.3460 -0.8305
vn -0.5891 -0.3388 -0.7336
vn -0.7160 -0.3414 -0.6089
vn -0.2362 -0.5230 -0.8190
vn -0.4001 -0.5097 -0.7616
vn -0.5418 -0.4868 -0.6852
vn -0.6614 -0.4784 -0.5777
vn -0.3090 0.2288 -0.9231
vn -0.1163 0.2440 -0.9628
vn -0.3047 0.4123 -0.8586
vn -0.1202 0.4304 -0.8946
vn -0.2953 0.5764 -0.7619
vn -0.1195 0.5963 -0.7938
vn -0.4874 0.2078 -0.8481
vn -0.4750 0.3837 -0.7919
vn -0.4558 0.5413 -0.7065
vn -0.6441 0.1859 -0.7420
vn -0.6249 0.3520 -0.6968
vn -0.5931 0.4972 -0.6333
vn -0.7753 0.1684 -0.6088
vn -0.7501 0.3297 -0.5733
vn -0.7097 0.4664 -0.5280
vn 0.0812 0.2501 -0.9648
vn 0.2734 0.2493 -0.9290
vn 0.4515 0.2455 -0.8578
vn 0.6097 0.2435 -0.7543
vn 0.0689 0.4331 -0.8987
vn 0.2525 0.4241 -0.8697
vn 0.4228 0.4099 -0.8082
vn 0.5740 0.4026 -0.7130
vn 0.0606 0.5967 -0.8002
vn 0.2330 0.5804 -0.7803
vn 0.3880 0.5524 -0.7378
vn 0.5282 0.5357 -0.6589
vn 0.9933 0.0532 -0.1021
vn 0.9637 0.2514 -0.0903
vn 0.9656 0.2377 0.1056
vn 0.9943 0.0431 0.0975
vn 0.9302 0.2180 0.2952
vn 0.9563 0.0314 0.2907
vn 0.8600 0.1969 0.4707
vn 0.8830 0.0188 0.4690
vn 0.8960 0.4377 -0.0749
vn 0.9000 0.4212 0.1125
vn 0.8712 0.3939 0.2930
vn 0.8103 0.3632 0.4599
vn 0.7953 0.6036 -0.0570
vn 0.8016 0.5854 0.1215
vn 0.7818 0.5518 0.2904
vn 0.7397 0.5086 0.4406
vn 0.9845 -0.1527 0.0859
vn 0.9831 -0.1466 -0.1099
vn 0.9374 -0.3403 0.0741
vn 0.9343 -0.3379 -0.1132
vn 0.8566 -0.5117 0.0662
vn 0.8515 -0.5123 -0.1122
vn 0.9485 -0.1559 0.2759
vn 0.9071 -0.3344 0.2555
vn 0.8345 -0.4977 0.2366
vn 0.8776 -0.1596 0.4520
vn 0.8447 -0.3269 0.4238
vn 0.7894 -0.4746 0.3895
vn 0.9438 -0.1352 -0.3017
vn 0.9526 0.0612 -0.2979
vn 0.8687 -0.1216 -0.4803
vn 0.8748 0.0667 -0.4799
vn 0.7620 -0.1102 -0.6381
vn 0.7651 0.0696 -0.6401
vn 0.8984 -0.3237 -0.2968
vn 0.8309 -0.3021 -0.4673
vn 0.7342 -0.2802 -0.6184
vn 0.8193 -0.4962 -0.2873
vn 0.7621 -0.4675 -0.4479
vn 0.6858 -0.4313 -0.5862
vn 0.9245 0.2557 -0.2828
vn 0.8603 0.4386 -0.2598
vn 0.7635 0.6020 -0.2337
vn 0.8498 0.2531 -0.4624
vn 0.7938 0.4277 -0.4324
vn 0.7080 0.5839 -0.3972
vn 0.7436 0.2474 -0.6211
vn 0.6984 0.4117 -0.5854
vn 0.6344 0.5542 -0.5389
vn -0.9933 -0.0532 0.1021
vn -0.9637 -0.2514 0.0903
vn -0.9245 -0.2557 0.2828
vn -0.9526 -0.0612 0.2979
vn -0.8498 -0.2531 0.4624
vn -0.8748 -0.0667 0.4799
vn -0.7436 -0.2474 0.6211
vn -0.7651 -0.0696 0.6401
vn -0.8960 -0.4377 0.0749
vn -0.8603 -0.4386 0.2598
vn -0.7938 -0.4277 0.4324
vn -0.6984 -0.4117 0.5854
vn -0.7953 -0.6036 0.0570
vn -0.7635 -0.6020 0.2337
vn -0.7080 -0.5839 0.3972
vn -0.6344 -0.5542 0.5389
vn -0.9438 0.1352 0.3017
vn -0.9831 0.1466 0.1099
vn -0.8984 0.3237 0.2968
vn -0.9343 0.3379 0.1132
vn -0.8193 0.4962 0.2873
vn -0.8515 0.5123 0.1122
vn -0.8687 0.1216 0.4803
vn -0.8309 0.3021 0.4673
vn -0.7621 0.4675 0.4479
vn -0.7620 0.1102 0.6381
vn -0.7342 0.2802 0.6184
vn -0.6858 0.4313 0.5862
vn -0.9845 0.1527 -0.0859
vn -0.9943 -0.0431 -0.0975
vn -0.9485 0.1559 -0.2759
vn -0.9563 -0.0314 -0.2907
vn -0.8776 0.1596 -0.4520
vn -0.8830 -0.0188 -0.4690
vn -0.9374 0.3403 -0.0741
vn -0.9071 0.3344 -0.2555
vn -0.8447 0.3269 -0.4238
vn -0.8566 0.5117 -0.0662
vn -0.8345 0.4977 -0.2366
vn -0.7894 0.4746 -0.3895
vn -0.9656 -0.2377 -0.1056
vn -0.9000 -0.4212 -0.1125
vn -0.8016 -0.5854 -0.1215
vn -0.9302 -0.2180 -0.2952
vn -0.8712 -0.3939 -0.2930
vn -0.7818 -0.5518 -0.2904
vn -0.8600 -0.1969 -0.4707
vn -0.8103 -0.3632 -0.4599
vn -0.7397 -0.5086 -0.4406
usemtl Earth
s 1
f 387/442/387 388/443/388 389/444/389 390/445/390
f 390/445/390 389/444/389 391/446/391 392/447/392
f 392/447/392 391/446/391 393/448/393 394/449/394
f 394/449/394 393/448/393 395/450/395 396/451/396
f 388/443/388 397/452/397 398/453/398 389/444/389
f 389/444/389 398/453/398 399/454/399 391/446/391
f 391/446/391 399/454/399 400/455/400 393/448/393
f 393/448/393 400/455/400 401/456/401 395/450/395
f 397/452/397 402/457/402 403/458/403 398/453/398
f 398/453/398 403/458/403 404/459/404 399/454/399
f 399/454/399 404/459/404 405/460/405 400/455/400
f 400/455/400 405/460/405 406/461/406 401/456/401
f 402/457/402 407/462/407 408/463/408 403/458/403
f 403/458/403 408/463/408 409/464/409 404/459/404
f 404/459/404 409/464/409 410/465/410 405/460/405
f 405/460/405 410/465/410 411/466/411 406/461/406
f 387/442/387 390/445/390 412/467/412 413/468/413
f 413/468/413 412/467/412 414/469/414 415/470/415
f 415/470/415 414/469/414 416/471/416 417/472/417
f 417/472/417 416/471/416 418/473/418 419/474/419
f 390/445/390 392/447/392 420/475/420 412/467/412
f 412/467/412 420/475/420 421/476/421 414/469/414
f 414/469/414 421/476/421 422/477/422 416/471/416
f 416/471/416 422/477/422 423/478/423 418/473/418
f 392/447/392 394/449/394 424/479/424 420/475/420
f 420/475/420 424/479/424 425/480/425 421/476/421
f 421/476/421 425/480/425 426/481/426 422/477/422
f 422/477/422 426/481/426 427/482/427 423/478/423
f 394/449/394 396/451/396 428/483/428 424/479/424
f 424/479/424 428/483/428 429/484/429 425/480/425
f 425/480/425 429/484/429 430/485/430 426/481/426
f 426/481/426 430/485/430 431/486/431 427/482/427
f 387/442/387 413/468/413 432/487/432 433/488/433
f 433/488/433 432/487/432 434/489/434 435/490/435
f 435/490/435 434/489/434 436/491/436 437/492/437
f 437/492/437 436/491/436 438/493/438 439/494/439
f 413/468/413 415/470/415 440/495/440 432/487/432
f 432/487/432 440/495/440 441/496/441 434/489/434
f 434/489/434 441/496/441 442/497/442 436/491/436
f 436/491/436 442/497/442 443/498/443 438/493/438
f 415/470/415 417/472/417 444/499/444 440/495/440
f 440/495/440 444/499/444 445/500/445 441/496/441
f 441/496/441 445/500/445 446/501/446 442/497/442
f 442/497/442 446/501/446 447/502/447 443/498/443
f 417/472/417 419/474/419 448/503/448 444/499/444
f 444/499/444 448/503/448 449/504/449 445/500/445
f 445/500/445 449/504/449 450/505/450 446/501/446
f 446/501/446 450/505/450 451/506/451 447/502/447
f 387/442/387 433/488/433 452/507/452 388/443/388
f 388/443/388 452/507/452 453/508/453 397/452/397
f 397/452/397 453/508/453 454/509/454 402/457/402
f 402/457/402 454/509/454 455/510/455 407/462/407
f 433/488/433 435/490/435 456/511/456 452/507/452
f 452/507/452 456/511/456 457/512/457 453/508/453
f 453/508/453 457/512/457 458/513/458 454/509/454
f 454/509/454 458/513/458 459/514/459 455/510/455
f 435/490/435 437/492/437 460/515/460 456/511/456
f 456/511/456 460/515/460 461/516/461 457/512/457
f 457/512/457 461/516/461 462/517/462 458/513/458
f 458/513/458 462/517/462 463/518/463 459/514/459
f 437/492/437 439/494/439 464/519/464 460/515/460
f 460/515/460 464/519/464 465/520/465 461/516/461
f 461/516/461 465/520/465 466/521/466 462/517/462
f 462/517/462 466/521/466 467/522/467 463/518/463
f 468/523/468 469/524/469 470/525/470 471/526/471
f 471/526/471 470/525/470 472/527/472 473/528/473
f 473/528/473 472/527/472 474/529/474 475/530/475
f 475/530/475 474/529/474 464/519/464 439/494/439
f 469/524/469 476/531/476 477/532/477 470/525/470
f 470/525/470 477/532/477 478/533/478 472/527/472
f 472/527/472 478/533/478 479/534/479 474/529/474
f 474/529/474 479/534/479 465/520/465 464/519/464
f 476/531/476 480/535/480 481/536/481 477/532/477
f 477/532/477 481/536/481 482/537/482 478/533/478
f 478/533/478 482/537/482 483/538/483 479/534/479
f 479/534/479 483/538/483 466/521/466 465/520/465
f 480/535/480 484/539/484 485/540/485 481/536/481
f 481/536/481 485/540/485 486/541/486 482/537/482
f 482/537/482 486/541/486 487/542/487 483/538/483
f 483/538/483 487/542/487 467/522/467 466/521/466
f 468/523/468 471/526/471 488/543/488 489/544/489
f 489/544/489 488/543/488 490/545/490 491/546/491
f 491/546/491 490/545/490 492/547/492 493/548/493
f 493/548/493 492/547/492 494/549/494 495/550/495
f 471/526/471 473/528/473 496/551/496 488/543/488
f 488/543/488 496/551/496 497/552/497 490/545/490
f 490/545/490 497/552/497 498/553/498 492/547/492
f 492/547/492 498/553/498 499/554/499 494/549/494
f 473/528/473 475/530/475 500/555/500 496/551/496
f 496/551/496 500/555/500 501/556/501 497/552/497
f 497/552/497 501/556/501 502/557/502 498/553/498
f 498/553/498 502/557/502 503/558/503 499/554/499
f 475/530/475 439/494/439 438/493/438 500/555/500
f 500/555/500 438/493/438 443/498/443 501/556/501
f 501/556/501 443/498/443 447/502/447 502/557/502
f 502/557/502 447/502/447 451/506/451 503/558/503
f 468/523/468 489/544/489 504/559/504 505/560/505
f 505/560/505 504/559/504 506/561/506 507/562/507
f 507/562/507 506/561/506 508/563/508 509/564/509
f 509/564/509 508/563/508 510/565/510 511/566/511
f 489/544/489 491/546/491 512/567/512 504/559/504
f 504/559/504 512/567/512 513/568/513 506/561/506
f 506/561/506 513/568/513 514/569/514 508/563/508
f 508/563/508 514/569/514 515/570/515 510/565/510
f 491/546/491 493/548/493 516/571/516 512/567/512
f 512/567/512 516/571/516 517/572/517 513/568/513
f 513/568/513 517/572/517 518/573/518 514/569/514
f 514/569/514 518/573/518 519/574/519 515/570/515
f 493/548/493 495/550/495 520/575/520 516/571/516
f 516/571/516 520/575/520 521/576/521 517/572/517
f 517/572/517 521/576/521 522/577/522 518/573/518
f 518/573/518 522/577/522 523/578/523 519/574/519
f 468/523/468 505/560/505 524/579/524 469/524/469
f 469/524/469 524/579/524 525/580/525 476/531/476
f 476/531/476 525/580/525 526/581/526 480/535/480
f 480/535/480 526/581/526 527/582/527 484/539/484
f 505/560/505 507/562/507 528/583/528 524/579/524
f 524/579/524 528/583/528 529/584/529 525/580/525
f 525/580/525 529/584/529 530/585/530 526/581/526
f 526/581/526 530/585/530 531/586/531 527/582/527
f 507/562/507 509/564/509 532/587/532 528/583/528
f 528/583/528 532/587/532 533/588/533 529/584/529
f 529/584/529 533/588/533 534/589/534 530/585/530
f 530/585/530 534/589/534 535/590/535 531/586/531
f 509/564/509 511/566/511 536/591/536 532/587/532
f 532/587/532 536/591/536 537/592/537 533/588/533
f 533/588/533 537/592/537 538/593/538 534/589/534
f 534/589/534 538/593/538 539/594/539 535/590/535
f 540/595/540 541/596/541 542/597/542 543/598/543
f 543/598/543 542/597/542 544/599/544 545/600/545
f 545/600/545 544/599/544 546/601/546 547/602/547
f 547/602/547 546/601/546 536/591/536 511/566/511
f 541/596/541 548/603/548 549/604/549 542/597/542
f 542/597/542 549/604/549 550/605/550 544/599/544
f 544/599/544 550/605/550 551/606/551 546/601/546
f 546/601/546 551/606/551 537/592/537 536/591/536
f 548/603/548 552/607/552 553/608/553 549/604/549
f 549/604/549 553/608/553 554/609/554 550/605/550
f 550/605/550 554/609/554 555/610/555 551/606/551
f 551/606/551 555/610/555 538/593/538 537/592/537
f 552/607/552 556/611/556 557/612/557 553/608/553
f 553/608/553 557/612/557 558/613/558 554/609/554
f 554/609/554 558/613/558 559/614/559 555/610/555
f 555/610/555 559/614/559 539/594/539 538/593/538
f 540/595/540 543/598/543 560/615/560 561/616/561
f 561/616/561 560/615/560 562/617/562 563/618/563
f 563/618/563 562/617/562 564/619/564 565/620/565
f 565/620/565 564/619/564 566/621/566 567/622/567
f 543/598/543 545/600/545 568/623/568 560/615/560
f 560/615/560 568/623/568 569/624/569 562/617/562
f 562/617/562 569/624/569 570/625/570 564/619/564
f 564/619/564 570/625/570 571/626/571 566/621/566
f 545/600/545 547/602/547 572/627/572 568/623/568
f 568/623/568 572/627/572 573/628/573 569/624/569
f 569/624/569 573/628/573 574/629/574 570/625/570
f 570/625/570 574/629/574 575/630/575 571/626/571
f 547/602/547 511/566/511 510/565/510 572/627/572
f 572/627/572 510/565/510 515/570/515 573/628/573
f 573/628/573 515/570/515 519/574/519 574/629/574
f 574/629/574 519/574/519 523/578/523 575/630/575
f 540/595/540 561/616/561 576/631/576 577/632/577
f 577/632/577 576/631/576 578/633/578 579/634/579
f 579/634/579 578/633/578 580/635/580 581/636/581
f 581/636/581 580/635/580 582/637/582 583/638/583
f 561/616/561 563/618/563 584/639/584 576/631/576
f 576/631/576 584/639/584 585/640/585 578/633/578
f 578/633/578 585/640/585 586/641/586 580/635/580
f 580/635/580 586/641/586 587/642/587 582/637/582
f 563/618/563 565/620/565 588/643/588 584/639/584
f 584/639/584 588/643/588 589/644/589 585/640/585
f 585/640/585 589/644/589 590/645/590 586/641/586
f 586/641/586 590/645/590 591/646/591 587/642/587
f 565/620/565 567/622/567 592/647/592 588/643/588
f 588/643/588 592/647/592 593/648/593 589/644/589
f 589/644/589 593/648/593 594/649/594 590/645/590
f 590/645/590 594/649/594 595/650/595 591/646/591
f 540/595/540 577/632/577 596/651/596 541/596/541
f 541/596/541 596/651/596 597/652/597 548/603/548
f 548/603/548 597/652/597 598/653/598 552/607/552
f 552/607/552 598/653/598 599/654/599 556/611/556
f 577/632/577 579/634/579 600/655/600 596/651/596
f 596/651/596 600/655/600 601/656/601 597/652/597
f 597/652/597 601/656/601 602/657/602 598/653/598
f 598/653/598 602/657/602 603/658/603 599/654/599
f 579/634/579 581/636/581 604/659/604 600/655/600
f 600/655/600 604/659/604 605/660/605 601/656/601
f 601/656/601 605/660/605 606/661/606 602/657/602
f 602/657/602 606/661/606 607/662/607 603/658/603
f 581/636/581 583/638/583 608/663/608 604/659/604
f 604/659/604 608/663/608 609/664/609 605/660/605
f 605/660/605 609/664/609 610/665/610 606/661/606
f 606/661/606 610/665/610 611/666/611 607/662/607
f 612/667/612 613/668/613 614/669/614 615/670/615
f 615/670/615 614/669/614 616/671/616 617/672/617
f 617/672/617 616/671/616 618/673/618 619/674/619
f 619/674/619 618/673/618 608/675/608 583/676/583
f 613/668/613 620/677/620 621/678/621 614/669/614
f 614/669/614 621/678/621 622/679/622 616/671/616
f 616/671/616 622/679/622 623/680/623 618/673/618
f 618/673/618 623/680/623 609/681/609 608/675/608
f 620/677/620 624/682/624 625/683/625 621/678/621
f 621/678/621 625/683/625 626/684/626 622/679/622
f 622/679/622 626/684/626 627/685/627 623/680/623
f 623/680/623 627/685/627 610/686/610 609/681/609
f 624/682/624 628/687/628 629/688/629 625/683/625
f 625/683/625 629/688/629 630/689/630 626/684/626
f 626/684/626 630/689/630 631/690/631 627/685/627
f 627/685/627 631/690/631 611/691/611 610/686/610
f 612/667/612 615/670/615 632/692/632 633/693/633
f 633/693/633 632/692/632 634/694/634 635/695/635
f 635/695/635 634/694/634 636/696/636 637/697/637
f 637/697/637 636/696/636 638/698/638 639/699/639
f 615/670/615 617/672/617 640/700/640 632/692/632
f 632/692/632 640/700/640 641/701/641 634/694/634
f 634/694/634 641/701/641 642/702/642 636/696/636
f 636/696/636 642/702/642 643/703/643 638/698/638
f 617/672/617 619/674/619 644/704/644 640/700/640
f 640/700/640 644/704/644 645/705/645 641/701/641
f 641/701/641 645/705/645 646/706/646 642/702/642
f 642/702/642 646/706/646 647/707/647 643/703/643
f 619/674/619 583/676/583 582/708/582 644/704/644
f 644/704/644 582/708/582 587/709/587 645/705/645
f 645/705/645 587/709/587 591/710/591 646/706/646
f 646/706/646 591/710/591 595/711/595 647/707/647
f 612/667/612 633/693/633 648/712/648 649/713/649
f 649/713/649 648/712/648 650/714/650 651/715/651
f 651/715/651 650/714/650 652/716/652 653/717/653
f 653/717/653 652/716/652 428/718/428 396/719/396
f 633/693/633 635/695/635 654/720/654 648/712/648
f 648/712/648 654/720/654 655/721/655 650/714/650
f 650/714/650 655/721/655 656/722/656 652/716/652
f 652/716/652 656/722/656 429/723/429 428/718/428
f 635/695/635 637/697/637 657/724/657 654/720/654
f 654/720/654 657/724/657 658/725/658 655/721/655
f 655/721/655 658/725/658 659/726/659 656/722/656
f 656/722/656 659/726/659 430/727/430 429/723/429
f 637/697/637 639/699/639 660/728/660 657/724/657
f 657/724/657 660/728/660 661/729/661 658/725/658
f 658/725/658 661/729/661 662/730/662 659/726/659
f 659/726/659 662/730/662 431/731/431 430/727/430
f 612/667/612 649/713/649 663/732/663 613/668/613
f 613/668/613 663/732/663 664/733/664 620/677/620
f 620/677/620 664/733/664 665/734/665 624/682/624
f 624/682/624 665/734/665 666/735/666 628/687/628
f 649/713/649 651/715/651 667/736/667 663/732/663
f 663/732/663 667/736/667 668/737/668 664/733/664
f 664/733/664 668/737/668 669/738/669 665/734/665
f 665/734/665 669/738/669 670/739/670 666/735/666
f 651/715/651 653/717/653 671/740/671 667/736/667
f 667/736/667 671/740/671 672/741/672 668/737/668
f 668/737/668 672/741/672 673/742/673 669/738/669
f 669/738/669 673/742/673 674/743/674 670/739/670
f 653/717/653 396/719/396 395/744/395 671/740/671
f 671/740/671 395/744/395 401/745/401 672/741/672
f 672/741/672 401/745/401 406/746/406 673/742/673
f 673/742/673 406/746/406 411/747/411 674/743/674
f 675/748/675 676/749/676 677/750/677 678/751/678
f 678/751/678 677/750/677 679/752/679 680/753/680
f 680/753/680 679/752/679 681/754/681 682/755/682
f 682/755/682 681/754/681 485/540/485 484/539/484
f 676/749/676 683/756/683 684/757/684 677/750/677
f 677/750/677 684/757/684 685/758/685 679/752/679
f 679/752/679 685/758/685 686/759/686 681/754/681
f 681/754/681 686/759/686 486/541/486 485/540/485
f 683/756/683 687/760/687 688/761/688 684/757/684
f 684/757/684 688/761/688 689/762/689 685/758/685
f 685/758/685 689/762/689 690/763/690 686/759/686
f 686/759/686 690/763/690 487/542/487 486/541/486
f 687/760/687 407/764/407 455/765/455 688/761/688
f 688/761/688 455/765/455 459/766/459 689/762/689
f 689/762/689 459/766/459 463/767/463 690/763/690
f 690/763/690 463/767/463 467/522/467 487/542/487
f 675/748/675 678/751/678 691/768/691 692/769/692
f 692/769/692 691/768/691 693/770/693 694/771/694
f 694/771/694 693/770/693 695/772/695 696/773/696
f 696/773/696 695/772/695 557/774/557 556/775/556
f 678/751/678 680/753/680 697/776/697 691/768/691
f 691/768/691 697/776/697 698/777/698 693/770/693
f 693/770/693 698/777/698 699/778/699 695/772/695
f 695/772/695 699/778/699 558/779/558 557/774/557
f 680/753/680 682/755/682 700/780/700 697/776/697
f 697/776/697 700/780/700 701/781/701 698/777/698
f 698/777/698 701/781/701 702/782/702 699/778/699
f 699/778/699 702/782/702 559/783/559 558/779/558
f 682/755/682 484/539/484 527/582/527 700/780/700
f 700/780/700 527/582/527 531/586/531 701/781/701
f 701/781/701 531/586/531 535/590/535 702/782/702
f 702/782/702 535/590/535 539/594/539 559/783/559
f 675/748/675 692/769/692 703/784/703 704/785/704
f 704/785/704 703/784/703 705/786/705 706/787/706
f 706/787/706 705/786/705 707/788/707 708/789/708
f 708/789/708 707/788/707 629/688/629 628/687/628
f 692/769/692 694/771/694 709/790/709 703/784/703
f 703/784/703 709/790/709 710/791/710 705/786/705
f 705/786/705 710/791/710 711/792/711 707/788/707
f 707/788/707 711/792/711 630/689/630 629/688/629
f 694/771/694 696/773/696 712/793/712 709/790/709
f 709/790/709 712/793/712 713/794/713 710/791/710
f 710/791/710 713/794/713 714/795/714 711/792/711
f 711/792/711 714/795/714 631/690/631 630/689/630
f 696/773/696 556/775/556 599/796/599 712/793/712
f 712/793/712 599/796/599 603/797/603 713/794/713
f 713/794/713 603/797/603 607/798/607 714/795/714
f 714/795/714 607/798/607 611/691/611 631/690/631
f 675/748/675 704/785/704 715/799/715 676/749/676
f 676/749/676 715/799/715 716/800/716 683/756/683
f 683/756/683 716/800/716 717/801/717 687/760/687
f 687/760/687 717/801/717 408/802/408 407/764/407
f 704/785/704 706/787/706 718/803/718 715/799/715
f 715/799/715 718/803/718 719/804/719 716/800/716
f 716/800/716 719/804/719 720/805/720 717/801/717
f 717/801/717 720/805/720 409/806/409 408/802/408
f 706/787/706 708/789/708 721/807/721 718/803/718
f 718/803/718 721/807/721 722/808/722 719/804/719
f 719/804/719 722/808/722 723/809/723 720/805/720
f 720/805/720 723/809/723 410/810/410 409/806/409
f 708/789/708 628/687/628 666/735/666 721/807/721
f 721/807/721 666/735/666 670/739/670 722/808/722
f 722/808/722 670/739/670 674/743/674 723/809/723
f 723/809/723 674/743/674 411/747/411 410/810/410
f 724/811/724 725/812/725 726/813/726 727/814/727
f 727/814/727 726/813/726 728/815/728 729/816/729
f 729/816/729 728/815/728 730/817/730 731/818/731
f 731/818/731 730/817/730 520/575/520 495/550/495
f 725/812/725 732/819/732 733/820/733 726/813/726
f 726/813/726 733/820/733 734/821/734 728/815/728
f 728/815/728 734/821/734 735/822/735 730/817/730
f 730/817/730 735/822/735 521/576/521 520/575/520
f 732/819/732 736/823/736 737/824/737 733/820/733
f 733/820/733 737/824/737 738/825/738 734/821/734
f 734/821/734 738/825/738 739/826/739 735/822/735
f 735/822/735 739/826/739 522/577/522 521/576/521
f 736/823/736 567/827/567 566/828/566 737/824/737
f 737/824/737 566/828/566 571/829/571 738/825/738
f 738/825/738 571/829/571 575/830/575 739/826/739
f 739/826/739 575/830/575 523/578/523 522/577/522
f 724/811/724 727/814/727 740/831/740 741/832/741
f 741/832/741 740/831/740 742/833/742 743/834/743
f 743/834/743 742/833/742 744/835/744 745/836/745
f 745/836/745 744/835/744 448/837/448 419/838/419
f 727/814/727 729/816/729 746/839/746 740/831/740
f 740/831/740 746/839/746 747/840/747 742/833/742
f 742/833/742 747/840/747 748/841/748 744/835/744
f 744/835/744 748/841/748 449/842/449 448/837/448
f 729/816/729 731/818/731 749/843/749 746/839/746
f 746/839/746 749/843/749 750/844/750 747/840/747
f 747/840/747 750/844/750 751/845/751 748/841/748
f 748/841/748 751/845/751 450/846/450 449/842/449
f 731/818/731 495/550/495 494/549/494 749/843/749
f 749/843/749 494/549/494 499/554/499 750/844/750
f 750/844/750 499/554/499 503/558/503 751/845/751
f 751/845/751 503/558/503 451/506/451 450/846/450
f 724/811/724 741/832/741 752/847/752 753/848/753
f 753/848/753 752/847/752 754/849/754 755/850/755
f 755/850/755 754/849/754 756/851/756 757/852/757
f 757/852/757 756/851/756 660/853/660 639/854/639
f 741/832/741 743/834/743 758/855/758 752/847/752
f 752/847/752 758/855/758 759/856/759 754/849/754
f 754/849/754 759/856/759 760/857/760 756/851/756
f 756/851/756 760/857/760 661/858/661 660/853/660
f 743/834/743 745/836/745 761/859/761 758/855/758
f 758/855/758 761/859/761 762/860/762 759/856/759
f 759/856/759 762/860/762 763/861/763 760/857/760
f 760/857/760 763/861/763 662/862/662 661/858/661
f 745/836/745 419/838/419 418/863/418 761/859/761
f 761/859/761 418/863/418 423/864/423 762/860/762
f 762/860/762 423/864/423 427/865/427 763/861/763
f 763/861/763 427/865/427 431/866/431 662/862/662
f 724/811/724 753/848/753 764/867/764 725/812/725
f 725/812/725 764/867/764 765/868/765 732/819/732
f 732/819/732 765/868/765 766/869/766 736/823/736
f 736/823/736 766/869/766 592/870/592 567/827/567
f 753/848/753 755/850/755 767/871/767 764/867/764
f 764/867/764 767/871/767 768/872/768 765/868/765
f 765/868/765 768/872/768 769/873/769 766/869/766
f 766/869/766 769/873/769 593/874/593 592/870/592
f 755/850/755 757/852/757 770/875/770 767/871/767
f 767/871/767 770/875/770 771/876/771 768/872/768
f 768/872/768 771/876/771 772/877/772 769/873/769
f 769/873/769 772/877/772 594/878/594 593/874/593
f 757/852/757 639/854/639 638/879/638 770/875/770
f 770/875/770 638/879/638 643/880/643 771/876/771
f 771/876/771 643/880/643 647/881/647 772/877/772
f 772/877/772 647/881/647 595/882/595 594/878/594
