# Blender v2.92.0 OBJ File: ''
# www.blender.org
mtllib Moon2K.mtl
o Moon_Cube.004
v 0.855280 -1.484441 -0.336304
v 0.550602 -1.582259 -0.491385
v 0.651273 -1.419342 -0.780692
v 0.951093 -1.319587 -0.634256
v 0.720102 -1.205666 -1.037300
v 1.007139 -1.105349 -0.901134
v 0.750076 -0.956241 -1.253458
v 1.023547 -0.855784 -1.126122
v 0.736543 -0.683978 -1.427532
v 1.002943 -0.581707 -1.305331
v 0.228909 -1.614454 -0.623943
v 0.331790 -1.459324 -0.899141
v 0.412995 -1.255645 -1.140596
v 0.460309 -1.018719 -1.341080
v 0.457794 -0.762080 -1.502606
v -0.092372 -1.583824 -0.728790
v 0.011330 -1.437672 -0.990524
v 0.105841 -1.249431 -1.214862
v 0.178202 -1.037810 -1.392610
v 0.193460 -0.813578 -1.532590
v -0.402383 -1.496320 -0.804538
v -0.296516 -1.355770 -1.059308
v -0.185860 -1.180310 -1.272986
v -0.080976 -0.991781 -1.434567
v -0.003009 -0.838869 -1.531162
v 1.212361 -1.167972 -0.462806
v 1.123857 -1.325514 -0.167707
v 1.423143 -0.971393 -0.281471
v 1.341746 -1.117080 0.003946
v 1.578195 -0.739218 -0.104996
v 1.502233 -0.873250 0.169993
v 1.678141 -0.478530 0.054934
v 1.605103 -0.604795 0.325629
v 1.256849 -0.965510 -0.732317
v 1.458131 -0.788854 -0.547478
v 1.605112 -0.581565 -0.365465
v 1.699295 -0.343151 -0.206911
v 1.262521 -0.727551 -0.961706
v 1.454076 -0.575836 -0.776043
v 1.591115 -0.409378 -0.590703
v 1.676457 -0.212048 -0.438968
v 1.237125 -0.461352 -1.142298
v 1.425244 -0.332228 -0.952088
v 1.559771 -0.207280 -0.756517
v 1.634806 -0.112902 -0.602353
v 0.990837 -1.431232 0.134102
v 0.724252 -1.588407 -0.024325
v 0.825756 -1.477315 0.428760
v 0.566650 -1.626966 0.282945
v 0.643179 -1.461830 0.705365
v 0.392096 -1.602740 0.570661
v 0.456032 -1.385976 0.958787
v 0.207605 -1.521385 0.830936
v 1.211819 -1.223097 0.289306
v 1.046354 -1.278755 0.564000
v 0.862820 -1.278160 0.818545
v 0.681126 -1.214611 1.053069
v 1.377007 -0.979168 0.439600
v 1.214599 -1.046775 0.690781
v 1.035219 -1.070543 0.911277
v 0.867592 -1.029145 1.111896
v 1.482092 -0.712421 0.586538
v 1.319975 -0.795173 0.820691
v 1.139935 -0.850416 1.012674
v 0.990809 -0.878108 1.138153
v 0.428424 -1.682660 -0.182409
v 0.118148 -1.711128 -0.325958
v -0.192712 -1.677742 -0.442957
v -0.495562 -1.589781 -0.524576
v 0.286686 -1.717573 0.126186
v -0.002868 -1.745721 -0.024876
v -0.289710 -1.714850 -0.153376
v -0.570467 -1.632543 -0.239871
v 0.127864 -1.690643 0.416587
v -0.136001 -1.721255 0.258750
v -0.383895 -1.699229 0.115815
v -0.623999 -1.630406 0.023843
v -0.047575 -1.608727 0.676684
v -0.291646 -1.644681 0.508068
v -0.505239 -1.635705 0.342593
v -0.653779 -1.604343 0.216388
v -0.563935 -0.664079 1.512992
v -0.840092 -0.776672 1.318785
v -0.653895 -1.056406 1.226620
v -0.378965 -0.951563 1.413888
v -0.449478 -1.292055 1.084772
v -0.182222 -1.195152 1.259593
v -0.243001 -1.476434 0.899589
v 0.015529 -1.385759 1.061885
v -1.076643 -0.855645 1.075583
v -0.895319 -1.122600 0.993146
v -0.690706 -1.346696 0.870346
v -0.482476 -1.520434 0.709694
v -1.264850 -0.899663 0.799329
v -1.090070 -1.154458 0.726046
v -0.888677 -1.365939 0.626604
v -0.683253 -1.525045 0.505540
v -1.402727 -0.910296 0.501882
v -1.230938 -1.159171 0.435065
v -1.028773 -1.364486 0.357734
v -0.819491 -1.516243 0.278584
v -0.088862 -0.808374 1.544928
v -0.263937 -0.523690 1.644461
v 0.202847 -0.640404 1.611491
v 0.041153 -0.364713 1.706885
v 0.484844 -0.462636 1.612161
v 0.335488 -0.196550 1.702053
v 0.751418 -0.287934 1.549398
v 0.610020 -0.025630 1.635661
v 0.091493 -1.054258 1.388645
v 0.361790 -0.883974 1.461460
v 0.619386 -0.702738 1.473325
v 0.864898 -0.531316 1.420501
v 0.273285 -1.248877 1.189029
v 0.518016 -1.079505 1.270629
v 0.737763 -0.898827 1.302299
v 0.945849 -0.738081 1.268374
v -0.428735 -0.218311 1.678301
v -0.725362 -0.349226 1.549212
v -0.569089 0.092538 1.647951
v -0.854325 -0.026714 1.522361
v -0.674123 0.395719 1.561132
v -0.946839 0.286769 1.438550
v -0.736543 0.683978 1.427532
v -1.002943 0.581707 1.305331
v -0.122489 -0.075835 1.739946
v -0.271197 0.214497 1.711318
v -0.388988 0.494550 1.628581
v -0.457794 0.762080 1.502606
v 0.174603 0.076104 1.735479
v 0.018118 0.341345 1.712110
v -0.116326 0.584263 1.641119
v -0.193460 0.813578 1.532590
v 0.449174 0.237775 1.670291
v 0.280948 0.484187 1.653723
v 0.121496 0.695119 1.596940
v 0.003009 0.838869 1.531162
v -0.992430 -0.466292 1.358610
v -1.218318 -0.557943 1.119182
v -1.397437 -0.615610 0.846381
v -1.530171 -0.633350 0.552823
v -1.107721 -0.145167 1.341659
v -1.319581 -0.248066 1.115947
v -1.484881 -0.321662 0.860133
v -1.607416 -0.348783 0.585432
v -1.187527 0.168278 1.268711
v -1.384410 0.053822 1.062394
v -1.531125 -0.041711 0.837905
v -1.637334 -0.082792 0.600375
v -1.237125 0.461352 1.142298
v -1.425244 0.332228 0.952088
v -1.559771 0.207280 0.756517
v -1.634806 0.112902 0.602353
v -0.855280 1.484441 0.336304
v -1.123857 1.325514 0.167707
v -1.212361 1.167972 0.462806
v -0.951093 1.319587 0.634256
v -1.256849 0.965510 0.732317
v -1.007139 1.105349 0.901134
v -1.262521 0.727550 0.961706
v -1.023547 0.855784 1.126122
v -1.341746 1.117080 -0.003946
v -1.423143 0.971393 0.281471
v -1.458131 0.788854 0.547478
v -1.454076 0.575836 0.776043
v -1.502233 0.873250 -0.169993
v -1.578195 0.739218 0.104996
v -1.605112 0.581565 0.365465
v -1.591115 0.409378 0.590703
v -1.605103 0.604795 -0.325629
v -1.678141 0.478530 -0.054934
v -1.699295 0.343151 0.206911
v -1.676457 0.212048 0.438968
v -0.651273 1.419342 0.780692
v -0.550602 1.582260 0.491385
v -0.331790 1.459324 0.899141
v -0.228909 1.614454 0.623943
v -0.011330 1.437672 0.990524
v 0.092372 1.583824 0.728790
v 0.296516 1.355770 1.059308
v 0.402383 1.496320 0.804538
v -0.720102 1.205666 1.037300
v -0.412995 1.255645 1.140596
v -0.105841 1.249431 1.214862
v 0.185860 1.180310 1.272986
v -0.750076 0.956241 1.253458
v -0.460309 1.018719 1.341080
v -0.178202 1.037810 1.392610
v 0.080976 0.991781 1.434567
v -0.428424 1.682660 0.182409
v -0.724252 1.588406 0.024325
v -0.286686 1.717573 -0.126186
v -0.566650 1.626966 -0.282945
v -0.127864 1.690643 -0.416587
v -0.392096 1.602740 -0.570661
v 0.047575 1.608727 -0.676684
v -0.207605 1.521385 -0.830936
v -0.118148 1.711128 0.325958
v 0.002868 1.745721 0.024876
v 0.136001 1.721255 -0.258750
v 0.291646 1.644681 -0.508068
v 0.192712 1.677742 0.442957
v 0.289710 1.714850 0.153376
v 0.383895 1.699229 -0.115815
v 0.505239 1.635705 -0.342593
v 0.495563 1.589781 0.524576
v 0.570468 1.632543 0.239871
v 0.623999 1.630406 -0.023843
v 0.653779 1.604343 -0.216388
v -0.990837 1.431232 -0.134102
v -1.211819 1.223097 -0.289306
v -1.377007 0.979168 -0.439600
v -1.482092 0.712421 -0.586538
v -0.825756 1.477315 -0.428760
v -1.046354 1.278755 -0.564000
v -1.214599 1.046775 -0.690781
v -1.319975 0.795173 -0.820691
v -0.643179 1.461830 -0.705365
v -0.862820 1.278160 -0.818545
v -1.035219 1.070543 -0.911277
v -1.139935 0.850416 -1.012674
v -0.456032 1.385976 -0.958787
v -0.681126 1.214611 -1.053069
v -0.867592 1.029145 -1.111896
v -0.990809 0.878108 -1.138153
v 0.563935 0.664079 -1.512992
v 0.263937 0.523690 -1.644461
v 0.088862 0.808374 -1.544928
v 0.378965 0.951563 -1.413889
v -0.091493 1.054258 -1.388645
v 0.182222 1.195152 -1.259593
v -0.273285 1.248877 -1.189029
v -0.015529 1.385759 -1.061885
v -0.041153 0.364713 -1.706885
v -0.202847 0.640404 -1.611491
v -0.361790 0.883974 -1.461460
v -0.518016 1.079504 -1.270629
v -0.335488 0.196550 -1.702053
v -0.484844 0.462636 -1.612160
v -0.619386 0.702738 -1.473325
v -0.737763 0.898827 -1.302299
v -0.610020 0.025630 -1.635661
v -0.751418 0.287934 -1.549398
v -0.864898 0.531316 -1.420501
v -0.945849 0.738081 -1.268374
v 0.653894 1.056406 -1.226620
v 0.840092 0.776672 -1.318785
v 0.895319 1.122600 -0.993146
v 1.076643 0.855645 -1.075583
v 1.090070 1.154458 -0.726046
v 1.264850 0.899663 -0.799329
v 1.230938 1.159171 -0.435065
v 1.402727 0.910296 -0.501882
v 0.449478 1.292055 -1.084772
v 0.690706 1.346696 -0.870347
v 0.888677 1.365939 -0.626604
v 1.028773 1.364486 -0.357734
v 0.243001 1.476434 -0.899589
v 0.482476 1.520434 -0.709694
v 0.683253 1.525045 -0.505540
v 0.819491 1.516243 -0.278584
v 0.992431 0.466292 -1.358610
v 0.725362 0.349226 -1.549212
v 1.107721 0.145167 -1.341659
v 0.854325 0.026714 -1.522361
v 1.187527 -0.168278 -1.268711
v 0.946839 -0.286769 -1.438550
v 1.218318 0.557943 -1.119182
v 1.319581 0.248066 -1.115947
v 1.384410 -0.053822 -1.062394
v 1.397437 0.615610 -0.846381
v 1.484881 0.321662 -0.860133
v 1.531125 0.041711 -0.837905
v 1.530171 0.633350 -0.552823
v 1.607416 0.348783 -0.585432
v 1.637334 0.082792 -0.600375
v 0.428735 0.218311 -1.678301
v 0.122489 0.075835 -1.739946
v -0.174603 -0.076104 -1.735479
v -0.449173 -0.237775 -1.670291
v 0.569089 -0.092538 -1.647951
v 0.271197 -0.214497 -1.711318
v -0.018118 -0.341345 -1.712110
v -0.280948 -0.484187 -1.653723
v 0.674123 -0.395719 -1.561132
v 0.388988 -0.494550 -1.628581
v 0.116326 -0.584263 -1.641119
v -0.121496 -0.695119 -1.596940
v -1.421482 -0.625470 -0.797712
v -1.220919 -0.913563 -0.850251
v -1.307659 -1.026083 -0.534181
v -1.504967 -0.745944 -0.476244
v -1.339104 -1.101562 -0.203785
v -1.527001 -0.834389 -0.142236
v -1.313338 -1.143727 0.123286
v -1.491001 -0.888848 0.187166
v -0.974564 -1.159988 -0.867653
v -1.063413 -1.264038 -0.565267
v -1.106637 -1.327268 -0.248764
v -1.097909 -1.356014 0.063154
v -0.697838 -1.355121 -0.851373
v -0.788214 -1.452348 -0.563534
v -0.845827 -1.503968 -0.266127
v -0.864606 -1.516672 0.018143
v -1.642333 -0.436967 -0.399960
v -1.563018 -0.312331 -0.712455
v -1.715020 -0.118858 -0.304546
v -1.639312 0.006567 -0.600651
v -1.725058 0.190400 -0.189972
v -1.651689 0.315240 -0.469801
v -1.659315 -0.537628 -0.076133
v -1.730700 -0.229881 -0.000375
v -1.742230 0.068868 0.089776
v -1.619286 -0.605249 0.244446
v -1.691663 -0.312373 0.298105
v -1.709682 -0.034059 0.352129
v -1.422098 -0.175549 -0.997490
v -1.279562 -0.479174 -1.086867
v -1.230439 -0.028992 -1.238283
v -1.088974 -0.316286 -1.327504
v -1.002518 0.125357 -1.423872
v -0.862405 -0.145967 -1.510999
v -1.504624 0.131516 -0.875772
v -1.320530 0.257723 -1.112631
v -1.102257 0.387307 -1.297378
v -1.524343 0.429673 -0.734797
v -1.352534 0.532909 -0.966865
v -1.154721 0.625770 -1.150304
v -1.086110 -0.764618 -1.133090
v -0.850715 -1.013580 -1.138906
v -0.584654 -1.212966 -1.111333
v -0.907924 -0.592842 -1.368350
v -0.692404 -0.839513 -1.365270
v -0.451109 -1.039734 -1.328014
v -0.693717 -0.413017 -1.548012
v -0.503472 -0.656147 -1.537581
v -0.303458 -0.856606 -1.490740
v 1.421482 0.625470 0.797712
v 1.220919 0.913563 0.850251
v 1.086110 0.764618 1.133090
v 1.279562 0.479174 1.086867
v 0.907924 0.592842 1.368350
v 1.088973 0.316286 1.327504
v 0.693717 0.413017 1.548012
v 0.862405 0.145967 1.510999
v 0.974564 1.159988 0.867653
v 0.850716 1.013580 1.138906
v 0.692404 0.839513 1.365270
v 0.503472 0.656147 1.537581
v 0.697839 1.355121 0.851373
v 0.584654 1.212966 1.111333
v 0.451109 1.039734 1.328014
v 0.303458 0.856606 1.490740
v 1.422098 0.175549 0.997490
v 1.563018 0.312331 0.712455
v 1.504624 -0.131516 0.875772
v 1.639312 -0.006567 0.600651
v 1.524343 -0.429673 0.734797
v 1.651689 -0.315240 0.469801
v 1.230439 0.028992 1.238283
v 1.320530 -0.257723 1.112630
v 1.352534 -0.532909 0.966865
v 1.002518 -0.125356 1.423872
v 1.102257 -0.387307 1.297378
v 1.154721 -0.625770 1.150304
v 1.642333 0.436967 0.399960
v 1.504967 0.745944 0.476244
v 1.659315 0.537628 0.076133
v 1.527001 0.834389 0.142236
v 1.619286 0.605249 -0.244446
v 1.491002 0.888848 -0.187167
v 1.715019 0.118858 0.304546
v 1.730700 0.229880 0.000375
v 1.691663 0.312373 -0.298105
v 1.725058 -0.190400 0.189972
v 1.742230 -0.068868 -0.089776
v 1.709682 0.034059 -0.352129
v 1.307659 1.026083 0.534181
v 1.063413 1.264038 0.565267
v 0.788214 1.452348 0.563534
v 1.339104 1.101562 0.203785
v 1.106637 1.327268 0.248764
v 0.845827 1.503968 0.266127
v 1.313338 1.143727 -0.123286
v 1.097909 1.356014 -0.063154
v 0.864606 1.516672 -0.018143
vt 0.376507 0.827995
vt 0.407396 0.827995
vt 0.407396 0.868974
vt 0.376508 0.868974
vt 0.407396 0.909954
vt 0.376507 0.909954
vt 0.407396 0.950933
vt 0.376507 0.950933
vt 0.407396 0.991912
vt 0.376507 0.991912
vt 0.438284 0.827995
vt 0.438284 0.868974
vt 0.438284 0.909954
vt 0.438284 0.950933
vt 0.438284 0.991912
vt 0.469172 0.827995
vt 0.469172 0.868974
vt 0.469172 0.909954
vt 0.469172 0.950933
vt 0.469172 0.991912
vt 0.500060 0.827995
vt 0.500060 0.868974
vt 0.500060 0.909954
vt 0.500060 0.950933
vt 0.500060 0.991912
vt 0.345619 0.868974
vt 0.345619 0.827995
vt 0.314731 0.868974
vt 0.314731 0.827995
vt 0.283843 0.868974
vt 0.283843 0.827995
vt 0.252955 0.868974
vt 0.252955 0.827995
vt 0.345619 0.909954
vt 0.314731 0.909954
vt 0.283843 0.909954
vt 0.252955 0.909954
vt 0.345619 0.950933
vt 0.314731 0.950933
vt 0.283843 0.950933
vt 0.252955 0.950933
vt 0.345619 0.991912
vt 0.314731 0.991912
vt 0.283843 0.991912
vt 0.252955 0.991912
vt 0.345619 0.787015
vt 0.376507 0.787016
vt 0.345619 0.746036
vt 0.376507 0.746036
vt 0.345619 0.705057
vt 0.376507 0.705057
vt 0.345619 0.664078
vt 0.376507 0.664078
vt 0.314731 0.787015
vt 0.314731 0.746036
vt 0.314731 0.705057
vt 0.314731 0.664078
vt 0.283843 0.787016
vt 0.283843 0.746036
vt 0.283843 0.705057
vt 0.283843 0.664078
vt 0.252955 0.787016
vt 0.252955 0.746036
vt 0.252955 0.705057
vt 0.252955 0.664078
vt 0.407396 0.787016
vt 0.438284 0.787016
vt 0.469172 0.787016
vt 0.500060 0.787016
vt 0.407396 0.746036
vt 0.438284 0.746036
vt 0.469172 0.746036
vt 0.500060 0.746036
vt 0.407396 0.705057
vt 0.438284 0.705057
vt 0.469172 0.705057
vt 0.500060 0.705057
vt 0.407396 0.664078
vt 0.438284 0.664078
vt 0.469172 0.664078
vt 0.500060 0.664078
vt 0.376507 0.500000
vt 0.407396 0.500000
vt 0.407396 0.541019
vt 0.376508 0.541019
vt 0.407396 0.582039
vt 0.376507 0.582039
vt 0.407396 0.623058
vt 0.376507 0.623058
vt 0.438284 0.500000
vt 0.438284 0.541019
vt 0.438284 0.582039
vt 0.438284 0.623058
vt 0.469172 0.500000
vt 0.469172 0.541019
vt 0.469172 0.582039
vt 0.469172 0.623058
vt 0.500060 0.500000
vt 0.500060 0.541019
vt 0.500060 0.582039
vt 0.500060 0.623058
vt 0.345619 0.541019
vt 0.345619 0.500000
vt 0.314731 0.541019
vt 0.314731 0.500000
vt 0.283843 0.541019
vt 0.283843 0.500000
vt 0.252955 0.541019
vt 0.252955 0.500000
vt 0.345619 0.582039
vt 0.314731 0.582039
vt 0.283843 0.582039
vt 0.252955 0.582039
vt 0.345619 0.623058
vt 0.314731 0.623058
vt 0.283843 0.623058
vt 0.252955 0.623058
vt 0.345619 0.458981
vt 0.376507 0.458981
vt 0.345619 0.417961
vt 0.376507 0.417961
vt 0.345619 0.376942
vt 0.376507 0.376942
vt 0.345619 0.335922
vt 0.376507 0.335922
vt 0.314731 0.458981
vt 0.314731 0.417961
vt 0.314731 0.376942
vt 0.314731 0.335922
vt 0.283843 0.458981
vt 0.283843 0.417961
vt 0.283843 0.376942
vt 0.283843 0.335922
vt 0.252955 0.458981
vt 0.252955 0.417961
vt 0.252955 0.376942
vt 0.252955 0.335922
vt 0.407396 0.458981
vt 0.438284 0.458981
vt 0.469172 0.458981
vt 0.500060 0.458981
vt 0.407396 0.417961
vt 0.438284 0.417961
vt 0.469172 0.417961
vt 0.500060 0.417961
vt 0.407396 0.376942
vt 0.438284 0.376942
vt 0.469172 0.376942
vt 0.500060 0.376942
vt 0.407396 0.335922
vt 0.438284 0.335922
vt 0.469172 0.335922
vt 0.500060 0.335922
vt 0.376507 0.172005
vt 0.407396 0.172005
vt 0.407396 0.212984
vt 0.376508 0.212984
vt 0.407396 0.253964
vt 0.376507 0.253964
vt 0.407396 0.294943
vt 0.376507 0.294943
vt 0.438284 0.172005
vt 0.438284 0.212984
vt 0.438284 0.253964
vt 0.438284 0.294943
vt 0.469172 0.172005
vt 0.469172 0.212984
vt 0.469172 0.253964
vt 0.469172 0.294943
vt 0.500060 0.172005
vt 0.500060 0.212984
vt 0.500060 0.253964
vt 0.500060 0.294943
vt 0.345619 0.212984
vt 0.345619 0.172005
vt 0.314731 0.212984
vt 0.314731 0.172005
vt 0.283843 0.212984
vt 0.283843 0.172005
vt 0.252955 0.212984
vt 0.252955 0.172005
vt 0.345619 0.253964
vt 0.314731 0.253964
vt 0.283843 0.253964
vt 0.252955 0.253964
vt 0.345619 0.294943
vt 0.314731 0.294943
vt 0.283843 0.294943
vt 0.252955 0.294943
vt 0.345619 0.131026
vt 0.376507 0.131026
vt 0.345619 0.090046
vt 0.376507 0.090046
vt 0.345619 0.049067
vt 0.376507 0.049067
vt 0.345619 0.008088
vt 0.376507 0.008088
vt 0.314731 0.131026
vt 0.314731 0.090046
vt 0.314731 0.049067
vt 0.314731 0.008088
vt 0.283843 0.131026
vt 0.283843 0.090046
vt 0.283843 0.049067
vt 0.283843 0.008088
vt 0.252955 0.131026
vt 0.252955 0.090046
vt 0.252955 0.049067
vt 0.252955 0.008088
vt 0.407396 0.131026
vt 0.438284 0.131026
vt 0.469172 0.131026
vt 0.500060 0.131026
vt 0.407396 0.090046
vt 0.438284 0.090046
vt 0.469172 0.090046
vt 0.500060 0.090046
vt 0.407396 0.049067
vt 0.438284 0.049067
vt 0.469172 0.049067
vt 0.500060 0.049067
vt 0.407396 0.008088
vt 0.438284 0.008088
vt 0.469172 0.008088
vt 0.500060 0.008088
vt 0.870416 0.500000
vt 0.839543 0.500000
vt 0.839543 0.458981
vt 0.870416 0.458981
vt 0.839543 0.417961
vt 0.870416 0.417961
vt 0.839543 0.376942
vt 0.870416 0.376942
vt 0.839543 0.335922
vt 0.870416 0.335922
vt 0.808669 0.500000
vt 0.808669 0.458981
vt 0.808670 0.417961
vt 0.808670 0.376942
vt 0.808670 0.335922
vt 0.777796 0.500000
vt 0.777796 0.458981
vt 0.777796 0.417961
vt 0.777796 0.376942
vt 0.777796 0.335922
vt 0.746923 0.500000
vt 0.746923 0.458981
vt 0.746923 0.417961
vt 0.746923 0.376942
vt 0.746923 0.335922
vt 0.901290 0.458981
vt 0.901290 0.500000
vt 0.932163 0.458981
vt 0.932163 0.500000
vt 0.963036 0.458981
vt 0.963036 0.500000
vt 0.993910 0.458981
vt 0.993910 0.500000
vt 0.901290 0.417961
vt 0.932163 0.417961
vt 0.963036 0.417961
vt 0.993910 0.417961
vt 0.901290 0.376942
vt 0.932163 0.376942
vt 0.963036 0.376942
vt 0.993910 0.376942
vt 0.901290 0.335922
vt 0.932163 0.335922
vt 0.963036 0.335922
vt 0.993910 0.335922
vt 0.901290 0.541019
vt 0.870416 0.541019
vt 0.901290 0.582039
vt 0.870416 0.582039
vt 0.901290 0.623058
vt 0.870416 0.623058
vt 0.901290 0.664078
vt 0.870416 0.664078
vt 0.932163 0.541019
vt 0.932163 0.582039
vt 0.932163 0.623058
vt 0.932163 0.664078
vt 0.963036 0.541019
vt 0.963036 0.582039
vt 0.963036 0.623058
vt 0.963036 0.664078
vt 0.993910 0.541019
vt 0.993910 0.582039
vt 0.993910 0.623058
vt 0.993910 0.664078
vt 0.839543 0.541019
vt 0.808669 0.541019
vt 0.777796 0.541019
vt 0.746923 0.541019
vt 0.839543 0.582039
vt 0.808669 0.582039
vt 0.777796 0.582039
vt 0.746923 0.582039
vt 0.839543 0.623058
vt 0.808669 0.623058
vt 0.777796 0.623058
vt 0.746923 0.623058
vt 0.839543 0.664078
vt 0.808670 0.664078
vt 0.777796 0.664078
vt 0.746923 0.664078
vt 0.623492 0.500000
vt 0.623492 0.541019
vt 0.592634 0.541019
vt 0.592634 0.500000
vt 0.561776 0.541019
vt 0.561776 0.500000
vt 0.530918 0.541019
vt 0.530918 0.500000
vt 0.623492 0.582039
vt 0.592634 0.582039
vt 0.561776 0.582039
vt 0.530918 0.582039
vt 0.623492 0.623058
vt 0.592634 0.623058
vt 0.561776 0.623058
vt 0.530918 0.623058
vt 0.623492 0.664078
vt 0.592634 0.664078
vt 0.561776 0.664078
vt 0.530918 0.664078
vt 0.592634 0.458981
vt 0.623492 0.458981
vt 0.592634 0.417961
vt 0.623492 0.417961
vt 0.592634 0.376942
vt 0.623492 0.376942
vt 0.592634 0.335922
vt 0.623492 0.335922
vt 0.561776 0.458981
vt 0.561776 0.417961
vt 0.561776 0.376942
vt 0.561776 0.335922
vt 0.530918 0.458981
vt 0.530918 0.417961
vt 0.530918 0.376942
vt 0.530918 0.335922
vt 0.654349 0.458981
vt 0.654349 0.500000
vt 0.685207 0.458981
vt 0.685207 0.500000
vt 0.716065 0.458981
vt 0.716065 0.500000
vt 0.654349 0.417961
vt 0.685207 0.417961
vt 0.716065 0.417961
vt 0.654349 0.376942
vt 0.685207 0.376942
vt 0.716065 0.376942
vt 0.654349 0.335922
vt 0.685207 0.335922
vt 0.716065 0.335922
vt 0.654349 0.541019
vt 0.654349 0.582039
vt 0.654349 0.623058
vt 0.654349 0.664078
vt 0.685207 0.541019
vt 0.685207 0.582039
vt 0.685207 0.623058
vt 0.685207 0.664078
vt 0.716065 0.541019
vt 0.716065 0.582039
vt 0.716065 0.623058
vt 0.716065 0.664078
vt 0.129522 0.500000
vt 0.129522 0.458981
vt 0.160380 0.458981
vt 0.160381 0.500000
vt 0.191239 0.458981
vt 0.191239 0.500000
vt 0.222097 0.458981
vt 0.222097 0.500000
vt 0.129522 0.417961
vt 0.160380 0.417961
vt 0.191239 0.417961
vt 0.222097 0.417961
vt 0.129522 0.376942
vt 0.160380 0.376942
vt 0.191239 0.376942
vt 0.222097 0.376942
vt 0.129522 0.335922
vt 0.160380 0.335922
vt 0.191239 0.335922
vt 0.222097 0.335922
vt 0.160380 0.541019
vt 0.129522 0.541019
vt 0.160380 0.582039
vt 0.129522 0.582039
vt 0.160380 0.623058
vt 0.129522 0.623058
vt 0.160380 0.664078
vt 0.129522 0.664078
vt 0.191239 0.541019
vt 0.191239 0.582039
vt 0.191239 0.623058
vt 0.191239 0.664078
vt 0.222097 0.541019
vt 0.222097 0.582039
vt 0.222097 0.623058
vt 0.222097 0.664078
vt 0.098664 0.541019
vt 0.098664 0.500000
vt 0.067806 0.541019
vt 0.067806 0.500000
vt 0.036948 0.541019
vt 0.036948 0.500000
vt 0.006090 0.541019
vt 0.006090 0.500000
vt 0.098664 0.582039
vt 0.067806 0.582039
vt 0.036948 0.582039
vt 0.006090 0.582039
vt 0.098664 0.623058
vt 0.067806 0.623058
vt 0.036948 0.623058
vt 0.006090 0.623058
vt 0.098664 0.664078
vt 0.067806 0.664078
vt 0.036948 0.664078
vt 0.006090 0.664078
vt 0.098664 0.458981
vt 0.098664 0.417961
vt 0.098664 0.376942
vt 0.098664 0.335922
vt 0.067806 0.458981
vt 0.067806 0.417961
vt 0.067806 0.376942
vt 0.067806 0.335922
vt 0.036948 0.458981
vt 0.036948 0.417961
vt 0.036948 0.376942
vt 0.036948 0.335922
vt 0.006090 0.458981
vt 0.006090 0.417961
vt 0.006090 0.376942
vt 0.006090 0.335922
vn 0.4897 -0.8503 -0.1927
vn 0.3175 -0.9058 -0.2804
vn 0.3743 -0.8138 -0.4445
vn 0.5440 -0.7573 -0.3613
vn 0.4137 -0.6925 -0.5910
vn 0.5763 -0.6356 -0.5136
vn 0.4314 -0.5494 -0.7156
vn 0.5861 -0.4924 -0.6434
vn 0.4235 -0.3912 -0.8171
vn 0.5743 -0.3332 -0.7478
vn 0.1344 -0.9247 -0.3561
vn 0.1926 -0.8369 -0.5123
vn 0.2395 -0.7218 -0.6494
vn 0.2682 -0.5858 -0.7648
vn 0.2668 -0.4354 -0.8598
vn -0.0503 -0.9077 -0.4167
vn 0.0084 -0.8251 -0.5650
vn 0.0628 -0.7196 -0.6916
vn 0.1080 -0.6006 -0.7922
vn 0.1196 -0.4646 -0.8774
vn -0.2304 -0.8570 -0.4608
vn -0.1705 -0.7776 -0.6052
vn -0.1083 -0.6792 -0.7259
vn -0.0500 -0.5748 -0.8168
vn -0.0017 -0.4805 -0.8770
vn 0.6923 -0.6714 -0.2645
vn 0.6418 -0.7607 -0.0973
vn 0.8128 -0.5597 -0.1613
vn 0.7664 -0.6424 0.0005
vn 0.9025 -0.4266 -0.0597
vn 0.8593 -0.5024 0.0960
vn 0.9609 -0.2750 0.0332
vn 0.9193 -0.3465 0.1866
vn 0.7181 -0.5563 -0.4181
vn 0.8327 -0.4569 -0.3129
vn 0.9178 -0.3387 -0.2073
vn 0.9733 -0.1989 -0.1143
vn 0.7216 -0.4199 -0.5504
vn 0.8302 -0.3354 -0.4453
vn 0.9090 -0.2443 -0.3377
vn 0.9616 -0.1259 -0.2439
vn 0.7071 -0.2651 -0.6556
vn 0.8135 -0.1925 -0.5488
vn 0.8894 -0.1230 -0.4402
vn 0.9364 -0.0647 -0.3451
vn 0.5668 -0.8206 0.0738
vn 0.4157 -0.9093 -0.0162
vn 0.4731 -0.8472 0.2418
vn 0.3262 -0.9319 0.1589
vn 0.3682 -0.8389 0.4009
vn 0.2260 -0.9185 0.3246
vn 0.2596 -0.7949 0.5485
vn 0.1188 -0.8714 0.4760
vn 0.6930 -0.7025 0.1624
vn 0.5989 -0.7349 0.3180
vn 0.4929 -0.7359 0.4642
vn 0.3865 -0.6988 0.6019
vn 0.7885 -0.5625 0.2488
vn 0.6969 -0.6018 0.3901
vn 0.5938 -0.6192 0.5138
vn 0.4909 -0.5961 0.6354
vn 0.8498 -0.4075 0.3344
vn 0.7589 -0.4543 0.4665
vn 0.6593 -0.4856 0.5741
vn 0.5674 -0.5030 0.6519
vn 0.2481 -0.9630 -0.1055
vn 0.0715 -0.9797 -0.1873
vn -0.1071 -0.9610 -0.2549
vn -0.2833 -0.9101 -0.3023
vn 0.1674 -0.9834 0.0702
vn 0.0036 -0.9999 -0.0162
vn -0.1609 -0.9827 -0.0914
vn -0.3256 -0.9348 -0.1422
vn 0.0764 -0.9684 0.2373
vn -0.0718 -0.9864 0.1475
vn -0.2106 -0.9756 0.0628
vn -0.3558 -0.9346 0.0048
vn -0.0257 -0.9210 0.3887
vn -0.1631 -0.9418 0.2939
vn -0.2824 -0.9378 0.2019
vn -0.3744 -0.9189 0.1240
vn -0.3229 -0.3804 0.8666
vn -0.4792 -0.4442 0.7570
vn -0.3740 -0.6028 0.7048
vn -0.2184 -0.5431 0.8108
vn -0.2579 -0.7374 0.6243
vn -0.1065 -0.6822 0.7234
vn -0.1392 -0.8438 0.5183
vn 0.0072 -0.7923 0.6101
vn -0.6143 -0.4895 0.6189
vn -0.5117 -0.6410 0.5721
vn -0.3954 -0.7683 0.5033
vn -0.2750 -0.8686 0.4121
vn -0.7230 -0.5152 0.4604
vn -0.6241 -0.6595 0.4189
vn -0.5103 -0.7791 0.3640
vn -0.3919 -0.8700 0.2992
vn -0.8033 -0.5215 0.2875
vn -0.7062 -0.6626 0.2497
vn -0.5927 -0.7785 0.2063
vn -0.4766 -0.8640 0.1623
vn -0.0540 -0.4623 0.8851
vn -0.1533 -0.3011 0.9412
vn 0.1122 -0.3669 0.9235
vn 0.0204 -0.2106 0.9774
vn 0.2743 -0.2647 0.9245
vn 0.1897 -0.1140 0.9752
vn 0.4294 -0.1633 0.8882
vn 0.3493 -0.0147 0.9369
vn 0.0488 -0.6026 0.7966
vn 0.2017 -0.5057 0.8388
vn 0.3494 -0.4009 0.8469
vn 0.4936 -0.3004 0.8162
vn 0.1531 -0.7150 0.6822
vn 0.2907 -0.6193 0.7294
vn 0.4135 -0.5150 0.7508
vn 0.5393 -0.4161 0.7321
vn -0.2464 -0.1280 0.9607
vn -0.4143 -0.2024 0.8874
vn -0.3264 0.0491 0.9439
vn -0.4880 -0.0187 0.8726
vn -0.3872 0.2234 0.8945
vn -0.5415 0.1616 0.8250
vn -0.4235 0.3912 0.8171
vn -0.5743 0.3332 0.7478
vn -0.0722 -0.0468 0.9963
vn -0.1573 0.1176 0.9805
vn -0.2264 0.2783 0.9334
vn -0.2668 0.4354 0.8598
vn 0.0986 0.0404 0.9943
vn 0.0095 0.1895 0.9818
vn -0.0706 0.3256 0.9429
vn -0.1196 0.4646 0.8774
vn 0.2583 0.1345 0.9567
vn 0.1637 0.2734 0.9479
vn 0.0750 0.3913 0.9172
vn 0.0017 0.4805 0.8770
vn -0.5658 -0.2685 0.7796
vn -0.6949 -0.3208 0.6436
vn -0.7982 -0.3544 0.4871
vn -0.8757 -0.3647 0.3164
vn -0.6319 -0.0857 0.7703
vn -0.7522 -0.1449 0.6428
vn -0.8475 -0.1886 0.4961
vn -0.9197 -0.2046 0.3350
vn -0.6780 0.0946 0.7290
vn -0.7893 0.0291 0.6133
vn -0.8726 -0.0291 0.4876
vn -0.9374 -0.0564 0.3437
vn -0.7071 0.2651 0.6556
vn -0.8135 0.1925 0.5488
vn -0.8894 0.1230 0.4402
vn -0.9364 0.0647 0.3451
vn -0.4897 0.8503 0.1927
vn -0.6418 0.7607 0.0973
vn -0.6923 0.6714 0.2645
vn -0.5440 0.7573 0.3613
vn -0.7181 0.5563 0.4181
vn -0.5763 0.6356 0.5136
vn -0.7216 0.4199 0.5504
vn -0.5861 0.4924 0.6434
vn -0.7664 0.6424 -0.0005
vn -0.8128 0.5597 0.1613
vn -0.8327 0.4569 0.3129
vn -0.8302 0.3354 0.4453
vn -0.8593 0.5024 -0.0960
vn -0.9025 0.4266 0.0597
vn -0.9178 0.3387 0.2073
vn -0.9090 0.2443 0.3377
vn -0.9193 0.3465 -0.1866
vn -0.9609 0.2750 -0.0332
vn -0.9733 0.1989 0.1143
vn -0.9616 0.1259 0.2439
vn -0.3743 0.8138 0.4446
vn -0.3175 0.9058 0.2804
vn -0.1926 0.8369 0.5123
vn -0.1344 0.9247 0.3561
vn -0.0084 0.8251 0.5650
vn 0.0503 0.9077 0.4167
vn 0.1705 0.7776 0.6052
vn 0.2304 0.8570 0.4608
vn -0.4137 0.6925 0.5910
vn -0.2395 0.7218 0.6494
vn -0.0628 0.7196 0.6916
vn 0.1083 0.6792 0.7259
vn -0.4314 0.5494 0.7156
vn -0.2682 0.5858 0.7648
vn -0.1080 0.6006 0.7922
vn 0.0500 0.5748 0.8168
vn -0.2481 0.9630 0.1055
vn -0.4157 0.9093 0.0162
vn -0.1674 0.9834 -0.0702
vn -0.3262 0.9319 -0.1589
vn -0.0764 0.9684 -0.2373
vn -0.2260 0.9185 -0.3246
vn 0.0257 0.9210 -0.3887
vn -0.1188 0.8714 -0.4760
vn -0.0715 0.9797 0.1873
vn -0.0036 0.9999 0.0162
vn 0.0718 0.9864 -0.1475
vn 0.1631 0.9418 -0.2939
vn 0.1071 0.9610 0.2549
vn 0.1609 0.9827 0.0914
vn 0.2106 0.9756 -0.0628
vn 0.2824 0.9378 -0.2019
vn 0.2833 0.9101 0.3023
vn 0.3256 0.9348 0.1422
vn 0.3558 0.9346 -0.0048
vn 0.3744 0.9189 -0.1240
vn -0.5667 0.8206 -0.0738
vn -0.6930 0.7025 -0.1624
vn -0.7885 0.5625 -0.2488
vn -0.8498 0.4075 -0.3344
vn -0.4731 0.8472 -0.2418
vn -0.5989 0.7349 -0.3180
vn -0.6969 0.6018 -0.3901
vn -0.7589 0.4543 -0.4665
vn -0.3682 0.8389 -0.4009
vn -0.4929 0.7359 -0.4642
vn -0.5938 0.6192 -0.5138
vn -0.6593 0.4856 -0.5741
vn -0.2596 0.7949 -0.5485
vn -0.3865 0.6988 -0.6019
vn -0.4909 0.5961 -0.6354
vn -0.5674 0.5030 -0.6519
vn 0.3229 0.3804 -0.8666
vn 0.1533 0.3011 -0.9412
vn 0.0540 0.4623 -0.8851
vn 0.2184 0.5431 -0.8108
vn -0.0488 0.6026 -0.7966
vn 0.1065 0.6822 -0.7234
vn -0.1531 0.7150 -0.6822
vn -0.0072 0.7923 -0.6101
vn -0.0204 0.2106 -0.9774
vn -0.1122 0.3669 -0.9235
vn -0.2017 0.5057 -0.8388
vn -0.2907 0.6193 -0.7294
vn -0.1897 0.1140 -0.9752
vn -0.2743 0.2647 -0.9245
vn -0.3494 0.4009 -0.8469
vn -0.4135 0.5150 -0.7508
vn -0.3493 0.0147 -0.9369
vn -0.4294 0.1633 -0.8882
vn -0.4936 0.3004 -0.8162
vn -0.5393 0.4161 -0.7321
vn 0.3740 0.6028 -0.7048
vn 0.4792 0.4442 -0.7570
vn 0.5117 0.6410 -0.5721
vn 0.6143 0.4895 -0.6189
vn 0.6241 0.6595 -0.4189
vn 0.7230 0.5152 -0.4604
vn 0.7062 0.6626 -0.2497
vn 0.8033 0.5215 -0.2875
vn 0.2579 0.7374 -0.6243
vn 0.3954 0.7683 -0.5033
vn 0.5103 0.7791 -0.3640
vn 0.5927 0.7785 -0.2063
vn 0.1392 0.8438 -0.5183
vn 0.2750 0.8686 -0.4121
vn 0.3919 0.8700 -0.2992
vn 0.4766 0.8640 -0.1623
vn 0.5658 0.2685 -0.7796
vn 0.4143 0.2024 -0.8874
vn 0.6319 0.0857 -0.7703
vn 0.4880 0.0187 -0.8726
vn 0.6780 -0.0946 -0.7290
vn 0.5415 -0.1616 -0.8250
vn 0.6949 0.3208 -0.6436
vn 0.7522 0.1449 -0.6428
vn 0.7893 -0.0291 -0.6133
vn 0.7982 0.3544 -0.4871
vn 0.8475 0.1886 -0.4961
vn 0.8726 0.0291 -0.4876
vn 0.8757 0.3647 -0.3164
vn 0.9197 0.2046 -0.3350
vn 0.9374 0.0564 -0.3437
vn 0.2464 0.1280 -0.9607
vn 0.0722 0.0468 -0.9963
vn -0.0986 -0.0404 -0.9943
vn -0.2583 -0.1345 -0.9567
vn 0.3264 -0.0491 -0.9439
vn 0.1573 -0.1176 -0.9805
vn -0.0095 -0.1895 -0.9818
vn -0.1637 -0.2734 -0.9479
vn 0.3872 -0.2234 -0.8945
vn 0.2264 -0.2783 -0.9334
vn 0.0706 -0.3256 -0.9429
vn -0.0750 -0.3913 -0.9172
vn -0.8141 -0.3584 -0.4570
vn -0.7008 -0.5214 -0.4868
vn -0.7499 -0.5855 -0.3079
vn -0.8615 -0.4266 -0.2753
vn -0.7682 -0.6289 -0.1198
vn -0.8746 -0.4773 -0.0850
vn -0.7540 -0.6533 0.0683
vn -0.8544 -0.5089 0.1045
vn -0.5608 -0.6621 -0.4970
vn -0.6112 -0.7214 -0.3257
vn -0.6367 -0.7572 -0.1462
vn -0.6331 -0.7734 0.0334
vn -0.4020 -0.7748 -0.4879
vn -0.4533 -0.8300 -0.3250
vn -0.4870 -0.8591 -0.1575
vn -0.5018 -0.8650 0.0036
vn -0.9396 -0.2517 -0.2318
vn -0.8944 -0.1813 -0.4089
vn -0.9816 -0.0706 -0.1775
vn -0.9384 0.0004 -0.3455
vn -0.9879 0.1073 -0.1119
vn -0.9462 0.1780 -0.2703
vn -0.9498 -0.3091 -0.0474
vn -0.9909 -0.1344 -0.0052
vn -0.9982 0.0378 0.0455
vn -0.9273 -0.3484 0.1370
vn -0.9689 -0.1832 0.1663
vn -0.9809 -0.0245 0.1931
vn -0.8148 -0.1036 -0.5705
vn -0.7340 -0.2757 -0.6207
vn -0.7060 -0.0200 -0.7079
vn -0.6258 -0.1830 -0.7582
vn -0.5753 0.0686 -0.8151
vn -0.4958 -0.0851 -0.8642
vn -0.8622 0.0714 -0.5015
vn -0.7580 0.1423 -0.6365
vn -0.6327 0.2159 -0.7437
vn -0.8742 0.2429 -0.4205
vn -0.7778 0.3003 -0.5521
vn -0.6662 0.3495 -0.6588
vn -0.6244 -0.4373 -0.6472
vn -0.4906 -0.5793 -0.6509
vn -0.3380 -0.6944 -0.6352
vn -0.5232 -0.3397 -0.7816
vn -0.4016 -0.4803 -0.7797
vn -0.2638 -0.5966 -0.7580
vn -0.4004 -0.2363 -0.8853
vn -0.2942 -0.3742 -0.8795
vn -0.1838 -0.4908 -0.8517
vn 0.8141 0.3584 0.4570
vn 0.7008 0.5214 0.4868
vn 0.6244 0.4373 0.6472
vn 0.7340 0.2757 0.6207
vn 0.5232 0.3397 0.7816
vn 0.6258 0.1830 0.7582
vn 0.4004 0.2363 0.8853
vn 0.4958 0.0851 0.8642
vn 0.5608 0.6621 0.4970
vn 0.4906 0.5793 0.6509
vn 0.4016 0.4803 0.7797
vn 0.2942 0.3742 0.8795
vn 0.4020 0.7748 0.4879
vn 0.3380 0.6944 0.6352
vn 0.2638 0.5966 0.7580
vn 0.1838 0.4908 0.8517
vn 0.8148 0.1036 0.5705
vn 0.8944 0.1813 0.4089
vn 0.8622 -0.0714 0.5015
vn 0.9384 -0.0004 0.3454
vn 0.8742 -0.2429 0.4205
vn 0.9462 -0.1780 0.2703
vn 0.7060 0.0200 0.7079
vn 0.7580 -0.1423 0.6365
vn 0.7778 -0.3003 0.5521
vn 0.5753 -0.0686 0.8151
vn 0.6327 -0.2159 0.7437
vn 0.6662 -0.3495 0.6588
vn 0.9396 0.2517 0.2318
vn 0.8615 0.4266 0.2753
vn 0.9498 0.3091 0.0474
vn 0.8746 0.4773 0.0850
vn 0.9273 0.3484 -0.1370
vn 0.8544 0.5089 -0.1045
vn 0.9816 0.0706 0.1775
vn 0.9909 0.1344 0.0052
vn 0.9689 0.1832 -0.1663
vn 0.9879 -0.1073 0.1119
vn 0.9982 -0.0378 -0.0455
vn 0.9809 0.0245 -0.1931
vn 0.7499 0.5855 0.3079
vn 0.6112 0.7214 0.3257
vn 0.4533 0.8300 0.3250
vn 0.7682 0.6289 0.1198
vn 0.6367 0.7572 0.1462
vn 0.4870 0.8591 0.1575
vn 0.7540 0.6533 -0.0683
vn 0.6331 0.7734 -0.0334
vn 0.5018 0.8650 -0.0036
usemtl Moon.003
s 1
f 1/1/1 2/2/2 3/3/3 4/4/4
f 4/4/4 3/3/3 5/5/5 6/6/6
f 6/6/6 5/5/5 7/7/7 8/8/8
f 8/8/8 7/7/7 9/9/9 10/10/10
f 2/2/2 11/11/11 12/12/12 3/3/3
f 3/3/3 12/12/12 13/13/13 5/5/5
f 5/5/5 13/13/13 14/14/14 7/7/7
f 7/7/7 14/14/14 15/15/15 9/9/9
f 11/11/11 16/16/16 17/17/17 12/12/12
f 12/12/12 17/17/17 18/18/18 13/13/13
f 13/13/13 18/18/18 19/19/19 14/14/14
f 14/14/14 19/19/19 20/20/20 15/15/15
f 16/16/16 21/21/21 22/22/22 17/17/17
f 17/17/17 22/22/22 23/23/23 18/18/18
f 18/18/18 23/23/23 24/24/24 19/19/19
f 19/19/19 24/24/24 25/25/25 20/20/20
f 1/1/1 4/4/4 26/26/26 27/27/27
f 27/27/27 26/26/26 28/28/28 29/29/29
f 29/29/29 28/28/28 30/30/30 31/31/31
f 31/31/31 30/30/30 32/32/32 33/33/33
f 4/4/4 6/6/6 34/34/34 26/26/26
f 26/26/26 34/34/34 35/35/35 28/28/28
f 28/28/28 35/35/35 36/36/36 30/30/30
f 30/30/30 36/36/36 37/37/37 32/32/32
f 6/6/6 8/8/8 38/38/38 34/34/34
f 34/34/34 38/38/38 39/39/39 35/35/35
f 35/35/35 39/39/39 40/40/40 36/36/36
f 36/36/36 40/40/40 41/41/41 37/37/37
f 8/8/8 10/10/10 42/42/42 38/38/38
f 38/38/38 42/42/42 43/43/43 39/39/39
f 39/39/39 43/43/43 44/44/44 40/40/40
f 40/40/40 44/44/44 45/45/45 41/41/41
f 1/1/1 27/27/27 46/46/46 47/47/47
f 47/47/47 46/46/46 48/48/48 49/49/49
f 49/49/49 48/48/48 50/50/50 51/51/51
f 51/51/51 50/50/50 52/52/52 53/53/53
f 27/27/27 29/29/29 54/54/54 46/46/46
f 46/46/46 54/54/54 55/55/55 48/48/48
f 48/48/48 55/55/55 56/56/56 50/50/50
f 50/50/50 56/56/56 57/57/57 52/52/52
f 29/29/29 31/31/31 58/58/58 54/54/54
f 54/54/54 58/58/58 59/59/59 55/55/55
f 55/55/55 59/59/59 60/60/60 56/56/56
f 56/56/56 60/60/60 61/61/61 57/57/57
f 31/31/31 33/33/33 62/62/62 58/58/58
f 58/58/58 62/62/62 63/63/63 59/59/59
f 59/59/59 63/63/63 64/64/64 60/60/60
f 60/60/60 64/64/64 65/65/65 61/61/61
f 1/1/1 47/47/47 66/66/66 2/2/2
f 2/2/2 66/66/66 67/67/67 11/11/11
f 11/11/11 67/67/67 68/68/68 16/16/16
f 16/16/16 68/68/68 69/69/69 21/21/21
f 47/47/47 49/49/49 70/70/70 66/66/66
f 66/66/66 70/70/70 71/71/71 67/67/67
f 67/67/67 71/71/71 72/72/72 68/68/68
f 68/68/68 72/72/72 73/73/73 69/69/69
f 49/49/49 51/51/51 74/74/74 70/70/70
f 70/70/70 74/74/74 75/75/75 71/71/71
f 71/71/71 75/75/75 76/76/76 72/72/72
f 72/72/72 76/76/76 77/77/77 73/73/73
f 51/51/51 53/53/53 78/78/78 74/74/74
f 74/74/74 78/78/78 79/79/79 75/75/75
f 75/75/75 79/79/79 80/80/80 76/76/76
f 76/76/76 80/80/80 81/81/81 77/77/77
f 82/82/82 83/83/83 84/84/84 85/85/85
f 85/85/85 84/84/84 86/86/86 87/87/87
f 87/87/87 86/86/86 88/88/88 89/89/89
f 89/89/89 88/88/88 78/78/78 53/53/53
f 83/83/83 90/90/90 91/91/91 84/84/84
f 84/84/84 91/91/91 92/92/92 86/86/86
f 86/86/86 92/92/92 93/93/93 88/88/88
f 88/88/88 93/93/93 79/79/79 78/78/78
f 90/90/90 94/94/94 95/95/95 91/91/91
f 91/91/91 95/95/95 96/96/96 92/92/92
f 92/92/92 96/96/96 97/97/97 93/93/93
f 93/93/93 97/97/97 80/80/80 79/79/79
f 94/94/94 98/98/98 99/99/99 95/95/95
f 95/95/95 99/99/99 100/100/100 96/96/96
f 96/96/96 100/100/100 101/101/101 97/97/97
f 97/97/97 101/101/101 81/81/81 80/80/80
f 82/82/82 85/85/85 102/102/102 103/103/103
f 103/103/103 102/102/102 104/104/104 105/105/105
f 105/105/105 104/104/104 106/106/106 107/107/107
f 107/107/107 106/106/106 108/108/108 109/109/109
f 85/85/85 87/87/87 110/110/110 102/102/102
f 102/102/102 110/110/110 111/111/111 104/104/104
f 104/104/104 111/111/111 112/112/112 106/106/106
f 106/106/106 112/112/112 113/113/113 108/108/108
f 87/87/87 89/89/89 114/114/114 110/110/110
f 110/110/110 114/114/114 115/115/115 111/111/111
f 111/111/111 115/115/115 116/116/116 112/112/112
f 112/112/112 116/116/116 117/117/117 113/113/113
f 89/89/89 53/53/53 52/52/52 114/114/114
f 114/114/114 52/52/52 57/57/57 115/115/115
f 115/115/115 57/57/57 61/61/61 116/116/116
f 116/116/116 61/61/61 65/65/65 117/117/117
f 82/82/82 103/103/103 118/118/118 119/119/119
f 119/119/119 118/118/118 120/120/120 121/121/121
f 121/121/121 120/120/120 122/122/122 123/123/123
f 123/123/123 122/122/122 124/124/124 125/125/125
f 103/103/103 105/105/105 126/126/126 118/118/118
f 118/118/118 126/126/126 127/127/127 120/120/120
f 120/120/120 127/127/127 128/128/128 122/122/122
f 122/122/122 128/128/128 129/129/129 124/124/124
f 105/105/105 107/107/107 130/130/130 126/126/126
f 126/126/126 130/130/130 131/131/131 127/127/127
f 127/127/127 131/131/131 132/132/132 128/128/128
f 128/128/128 132/132/132 133/133/133 129/129/129
f 107/107/107 109/109/109 134/134/134 130/130/130
f 130/130/130 134/134/134 135/135/135 131/131/131
f 131/131/131 135/135/135 136/136/136 132/132/132
f 132/132/132 136/136/136 137/137/137 133/133/133
f 82/82/82 119/119/119 138/138/138 83/83/83
f 83/83/83 138/138/138 139/139/139 90/90/90
f 90/90/90 139/139/139 140/140/140 94/94/94
f 94/94/94 140/140/140 141/141/141 98/98/98
f 119/119/119 121/121/121 142/142/142 138/138/138
f 138/138/138 142/142/142 143/143/143 139/139/139
f 139/139/139 143/143/143 144/144/144 140/140/140
f 140/140/140 144/144/144 145/145/145 141/141/141
f 121/121/121 123/123/123 146/146/146 142/142/142
f 142/142/142 146/146/146 147/147/147 143/143/143
f 143/143/143 147/147/147 148/148/148 144/144/144
f 144/144/144 148/148/148 149/149/149 145/145/145
f 123/123/123 125/125/125 150/150/150 146/146/146
f 146/146/146 150/150/150 151/151/151 147/147/147
f 147/147/147 151/151/151 152/152/152 148/148/148
f 148/148/148 152/152/152 153/153/153 149/149/149
f 154/154/154 155/155/155 156/156/156 157/157/157
f 157/157/157 156/156/156 158/158/158 159/159/159
f 159/159/159 158/158/158 160/160/160 161/161/161
f 161/161/161 160/160/160 150/150/150 125/125/125
f 155/155/155 162/162/162 163/163/163 156/156/156
f 156/156/156 163/163/163 164/164/164 158/158/158
f 158/158/158 164/164/164 165/165/165 160/160/160
f 160/160/160 165/165/165 151/151/151 150/150/150
f 162/162/162 166/166/166 167/167/167 163/163/163
f 163/163/163 167/167/167 168/168/168 164/164/164
f 164/164/164 168/168/168 169/169/169 165/165/165
f 165/165/165 169/169/169 152/152/152 151/151/151
f 166/166/166 170/170/170 171/171/171 167/167/167
f 167/167/167 171/171/171 172/172/172 168/168/168
f 168/168/168 172/172/172 173/173/173 169/169/169
f 169/169/169 173/173/173 153/153/153 152/152/152
f 154/154/154 157/157/157 174/174/174 175/175/175
f 175/175/175 174/174/174 176/176/176 177/177/177
f 177/177/177 176/176/176 178/178/178 179/179/179
f 179/179/179 178/178/178 180/180/180 181/181/181
f 157/157/157 159/159/159 182/182/182 174/174/174
f 174/174/174 182/182/182 183/183/183 176/176/176
f 176/176/176 183/183/183 184/184/184 178/178/178
f 178/178/178 184/184/184 185/185/185 180/180/180
f 159/159/159 161/161/161 186/186/186 182/182/182
f 182/182/182 186/186/186 187/187/187 183/183/183
f 183/183/183 187/187/187 188/188/188 184/184/184
f 184/184/184 188/188/188 189/189/189 185/185/185
f 161/161/161 125/125/125 124/124/124 186/186/186
f 186/186/186 124/124/124 129/129/129 187/187/187
f 187/187/187 129/129/129 133/133/133 188/188/188
f 188/188/188 133/133/133 137/137/137 189/189/189
f 154/154/154 175/175/175 190/190/190 191/191/191
f 191/191/191 190/190/190 192/192/192 193/193/193
f 193/193/193 192/192/192 194/194/194 195/195/195
f 195/195/195 194/194/194 196/196/196 197/197/197
f 175/175/175 177/177/177 198/198/198 190/190/190
f 190/190/190 198/198/198 199/199/199 192/192/192
f 192/192/192 199/199/199 200/200/200 194/194/194
f 194/194/194 200/200/200 201/201/201 196/196/196
f 177/177/177 179/179/179 202/202/202 198/198/198
f 198/198/198 202/202/202 203/203/203 199/199/199
f 199/199/199 203/203/203 204/204/204 200/200/200
f 200/200/200 204/204/204 205/205/205 201/201/201
f 179/179/179 181/181/181 206/206/206 202/202/202
f 202/202/202 206/206/206 207/207/207 203/203/203
f 203/203/203 207/207/207 208/208/208 204/204/204
f 204/204/204 208/208/208 209/209/209 205/205/205
f 154/154/154 191/191/191 210/210/210 155/155/155
f 155/155/155 210/210/210 211/211/211 162/162/162
f 162/162/162 211/211/211 212/212/212 166/166/166
f 166/166/166 212/212/212 213/213/213 170/170/170
f 191/191/191 193/193/193 214/214/214 210/210/210
f 210/210/210 214/214/214 215/215/215 211/211/211
f 211/211/211 215/215/215 216/216/216 212/212/212
f 212/212/212 216/216/216 217/217/217 213/213/213
f 193/193/193 195/195/195 218/218/218 214/214/214
f 214/214/214 218/218/218 219/219/219 215/215/215
f 215/215/215 219/219/219 220/220/220 216/216/216
f 216/216/216 220/220/220 221/221/221 217/217/217
f 195/195/195 197/197/197 222/222/222 218/218/218
f 218/218/218 222/222/222 223/223/223 219/219/219
f 219/219/219 223/223/223 224/224/224 220/220/220
f 220/220/220 224/224/224 225/225/225 221/221/221
f 226/226/226 227/227/227 228/228/228 229/229/229
f 229/229/229 228/228/228 230/230/230 231/231/231
f 231/231/231 230/230/230 232/232/232 233/233/233
f 233/233/233 232/232/232 222/234/222 197/235/197
f 227/227/227 234/236/234 235/237/235 228/228/228
f 228/228/228 235/237/235 236/238/236 230/230/230
f 230/230/230 236/238/236 237/239/237 232/232/232
f 232/232/232 237/239/237 223/240/223 222/234/222
f 234/236/234 238/241/238 239/242/239 235/237/235
f 235/237/235 239/242/239 240/243/240 236/238/236
f 236/238/236 240/243/240 241/244/241 237/239/237
f 237/239/237 241/244/241 224/245/224 223/240/223
f 238/241/238 242/246/242 243/247/243 239/242/239
f 239/242/239 243/247/243 244/248/244 240/243/240
f 240/243/240 244/248/244 245/249/245 241/244/241
f 241/244/241 245/249/245 225/250/225 224/245/224
f 226/226/226 229/229/229 246/251/246 247/252/247
f 247/252/247 246/251/246 248/253/248 249/254/249
f 249/254/249 248/253/248 250/255/250 251/256/251
f 251/256/251 250/255/250 252/257/252 253/258/253
f 229/229/229 231/231/231 254/259/254 246/251/246
f 246/251/246 254/259/254 255/260/255 248/253/248
f 248/253/248 255/260/255 256/261/256 250/255/250
f 250/255/250 256/261/256 257/262/257 252/257/252
f 231/231/231 233/233/233 258/263/258 254/259/254
f 254/259/254 258/263/258 259/264/259 255/260/255
f 255/260/255 259/264/259 260/265/260 256/261/256
f 256/261/256 260/265/260 261/266/261 257/262/257
f 233/233/233 197/235/197 196/267/196 258/263/258
f 258/263/258 196/267/196 201/268/201 259/264/259
f 259/264/259 201/268/201 205/269/205 260/265/260
f 260/265/260 205/269/205 209/270/209 261/266/261
f 226/226/226 247/252/247 262/271/262 263/272/263
f 263/272/263 262/271/262 264/273/264 265/274/265
f 265/274/265 264/273/264 266/275/266 267/276/267
f 267/276/267 266/275/266 42/277/42 10/278/10
f 247/252/247 249/254/249 268/279/268 262/271/262
f 262/271/262 268/279/268 269/280/269 264/273/264
f 264/273/264 269/280/269 270/281/270 266/275/266
f 266/275/266 270/281/270 43/282/43 42/277/42
f 249/254/249 251/256/251 271/283/271 268/279/268
f 268/279/268 271/283/271 272/284/272 269/280/269
f 269/280/269 272/284/272 273/285/273 270/281/270
f 270/281/270 273/285/273 44/286/44 43/282/43
f 251/256/251 253/258/253 274/287/274 271/283/271
f 271/283/271 274/287/274 275/288/275 272/284/272
f 272/284/272 275/288/275 276/289/276 273/285/273
f 273/285/273 276/289/276 45/290/45 44/286/44
f 226/226/226 263/272/263 277/291/277 227/227/227
f 227/227/227 277/291/277 278/292/278 234/236/234
f 234/236/234 278/292/278 279/293/279 238/241/238
f 238/241/238 279/293/279 280/294/280 242/246/242
f 263/272/263 265/274/265 281/295/281 277/291/277
f 277/291/277 281/295/281 282/296/282 278/292/278
f 278/292/278 282/296/282 283/297/283 279/293/279
f 279/293/279 283/297/283 284/298/284 280/294/280
f 265/274/265 267/276/267 285/299/285 281/295/281
f 281/295/281 285/299/285 286/300/286 282/296/282
f 282/296/282 286/300/286 287/301/287 283/297/283
f 283/297/283 287/301/287 288/302/288 284/298/284
f 267/276/267 10/278/10 9/303/9 285/299/285
f 285/299/285 9/303/9 15/304/15 286/300/286
f 286/300/286 15/304/15 20/305/20 287/301/287
f 287/301/287 20/305/20 25/306/25 288/302/288
f 289/307/289 290/308/290 291/309/291 292/310/292
f 292/310/292 291/309/291 293/311/293 294/312/294
f 294/312/294 293/311/293 295/313/295 296/314/296
f 296/314/296 295/313/295 99/99/99 98/98/98
f 290/308/290 297/315/297 298/316/298 291/309/291
f 291/309/291 298/316/298 299/317/299 293/311/293
f 293/311/293 299/317/299 300/318/300 295/313/295
f 295/313/295 300/318/300 100/100/100 99/99/99
f 297/315/297 301/319/301 302/320/302 298/316/298
f 298/316/298 302/320/302 303/321/303 299/317/299
f 299/317/299 303/321/303 304/322/304 300/318/300
f 300/318/300 304/322/304 101/101/101 100/100/100
f 301/319/301 21/323/21 69/324/69 302/320/302
f 302/320/302 69/324/69 73/325/73 303/321/303
f 303/321/303 73/325/73 77/326/77 304/322/304
f 304/322/304 77/326/77 81/81/81 101/101/101
f 289/307/289 292/310/292 305/327/305 306/328/306
f 306/328/306 305/327/305 307/329/307 308/330/308
f 308/330/308 307/329/307 309/331/309 310/332/310
f 310/332/310 309/331/309 171/333/171 170/334/170
f 292/310/292 294/312/294 311/335/311 305/327/305
f 305/327/305 311/335/311 312/336/312 307/329/307
f 307/329/307 312/336/312 313/337/313 309/331/309
f 309/331/309 313/337/313 172/338/172 171/333/171
f 294/312/294 296/314/296 314/339/314 311/335/311
f 311/335/311 314/339/314 315/340/315 312/336/312
f 312/336/312 315/340/315 316/341/316 313/337/313
f 313/337/313 316/341/316 173/342/173 172/338/172
f 296/314/296 98/98/98 141/141/141 314/339/314
f 314/339/314 141/141/141 145/145/145 315/340/315
f 315/340/315 145/145/145 149/149/149 316/341/316
f 316/341/316 149/149/149 153/153/153 173/342/173
f 289/307/289 306/328/306 317/343/317 318/344/318
f 318/344/318 317/343/317 319/345/319 320/346/320
f 320/346/320 319/345/319 321/347/321 322/348/322
f 322/348/322 321/347/321 243/247/243 242/246/242
f 306/328/306 308/330/308 323/349/323 317/343/317
f 317/343/317 323/349/323 324/350/324 319/345/319
f 319/345/319 324/350/324 325/351/325 321/347/321
f 321/347/321 325/351/325 244/248/244 243/247/243
f 308/330/308 310/332/310 326/352/326 323/349/323
f 323/349/323 326/352/326 327/353/327 324/350/324
f 324/350/324 327/353/327 328/354/328 325/351/325
f 325/351/325 328/354/328 245/249/245 244/248/244
f 310/332/310 170/334/170 213/355/213 326/352/326
f 326/352/326 213/355/213 217/356/217 327/353/327
f 327/353/327 217/356/217 221/357/221 328/354/328
f 328/354/328 221/357/221 225/250/225 245/249/245
f 289/307/289 318/344/318 329/358/329 290/308/290
f 290/308/290 329/358/329 330/359/330 297/315/297
f 297/315/297 330/359/330 331/360/331 301/319/301
f 301/319/301 331/360/331 22/361/22 21/323/21
f 318/344/318 320/346/320 332/362/332 329/358/329
f 329/358/329 332/362/332 333/363/333 330/359/330
f 330/359/330 333/363/333 334/364/334 331/360/331
f 331/360/331 334/364/334 23/365/23 22/361/22
f 320/346/320 322/348/322 335/366/335 332/362/332
f 332/362/332 335/366/335 336/367/336 333/363/333
f 333/363/333 336/367/336 337/368/337 334/364/334
f 334/364/334 337/368/337 24/369/24 23/365/23
f 322/348/322 242/246/242 280/294/280 335/366/335
f 335/366/335 280/294/280 284/298/284 336/367/336
f 336/367/336 284/298/284 288/302/288 337/368/337
f 337/368/337 288/302/288 25/306/25 24/369/24
f 338/370/338 339/371/339 340/372/340 341/373/341
f 341/373/341 340/372/340 342/374/342 343/375/343
f 343/375/343 342/374/342 344/376/344 345/377/345
f 345/377/345 344/376/344 134/134/134 109/109/109
f 339/371/339 346/378/346 347/379/347 340/372/340
f 340/372/340 347/379/347 348/380/348 342/374/342
f 342/374/342 348/380/348 349/381/349 344/376/344
f 344/376/344 349/381/349 135/135/135 134/134/134
f 346/378/346 350/382/350 351/383/351 347/379/347
f 347/379/347 351/383/351 352/384/352 348/380/348
f 348/380/348 352/384/352 353/385/353 349/381/349
f 349/381/349 353/385/353 136/136/136 135/135/135
f 350/382/350 181/386/181 180/387/180 351/383/351
f 351/383/351 180/387/180 185/388/185 352/384/352
f 352/384/352 185/388/185 189/389/189 353/385/353
f 353/385/353 189/389/189 137/137/137 136/136/136
f 338/370/338 341/373/341 354/390/354 355/391/355
f 355/391/355 354/390/354 356/392/356 357/393/357
f 357/393/357 356/392/356 358/394/358 359/395/359
f 359/395/359 358/394/358 62/396/62 33/397/33
f 341/373/341 343/375/343 360/398/360 354/390/354
f 354/390/354 360/398/360 361/399/361 356/392/356
f 356/392/356 361/399/361 362/400/362 358/394/358
f 358/394/358 362/400/362 63/401/63 62/396/62
f 343/375/343 345/377/345 363/402/363 360/398/360
f 360/398/360 363/402/363 364/403/364 361/399/361
f 361/399/361 364/403/364 365/404/365 362/400/362
f 362/400/362 365/404/365 64/405/64 63/401/63
f 345/377/345 109/109/109 108/108/108 363/402/363
f 363/402/363 108/108/108 113/113/113 364/403/364
f 364/403/364 113/113/113 117/117/117 365/404/365
f 365/404/365 117/117/117 65/65/65 64/405/64
f 338/370/338 355/391/355 366/406/366 367/407/367
f 367/407/367 366/406/366 368/408/368 369/409/369
f 369/409/369 368/408/368 370/410/370 371/411/371
f 371/411/371 370/410/370 274/412/274 253/413/253
f 355/391/355 357/393/357 372/414/372 366/406/366
f 366/406/366 372/414/372 373/415/373 368/408/368
f 368/408/368 373/415/373 374/416/374 370/410/370
f 370/410/370 374/416/374 275/417/275 274/412/274
f 357/393/357 359/395/359 375/418/375 372/414/372
f 372/414/372 375/418/375 376/419/376 373/415/373
f 373/415/373 376/419/376 377/420/377 374/416/374
f 374/416/374 377/420/377 276/421/276 275/417/275
f 359/395/359 33/397/33 32/422/32 375/418/375
f 375/418/375 32/422/32 37/423/37 376/419/376
f 376/419/376 37/423/37 41/424/41 377/420/377
f 377/420/377 41/424/41 45/425/45 276/421/276
f 338/370/338 367/407/367 378/426/378 339/371/339
f 339/371/339 378/426/378 379/427/379 346/378/346
f 346/378/346 379/427/379 380/428/380 350/382/350
f 350/382/350 380/428/380 206/429/206 181/386/181
f 367/407/367 369/409/369 381/430/381 378/426/378
f 378/426/378 381/430/381 382/431/382 379/427/379
f 379/427/379 382/431/382 383/432/383 380/428/380
f 380/428/380 383/432/383 207/433/207 206/429/206
f 369/409/369 371/411/371 384/434/384 381/430/381
f 381/430/381 384/434/384 385/435/385 382/431/382
f 382/431/382 385/435/385 386/436/386 383/432/383
f 383/432/383 386/436/386 208/437/208 207/433/207
f 371/411/371 253/413/253 252/438/252 384/434/384
f 384/434/384 252/438/252 257/439/257 385/435/385
f 385/435/385 257/439/257 261/440/261 386/436/386
f 386/436/386 261/440/261 209/441/209 208/437/208
