# Blender v2.92.0 OBJ File: ''
# www.blender.org
mtllib rock.mtl
o Cube.001
v -0.053787 -0.005800 0.115438
v -0.105209 -0.006460 0.095451
v -0.115573 -0.021785 0.045947
v -0.117643 0.128123 0.064638
v -0.101978 0.117495 0.110596
v -0.061028 0.114795 0.132788
v 0.080846 0.134641 0.090208
v 0.044401 0.103271 0.151382
v 0.093632 0.067755 0.142649
v -0.128159 0.088399 0.121808
v -0.171944 0.091651 -0.069978
v -0.135602 0.124504 -0.071685
v -0.068186 0.118046 -0.148157
v -0.032146 -0.006030 -0.070205
v -0.069244 -0.011430 -0.083583
v -0.106328 0.007452 -0.101561
v -0.035969 -0.021968 -0.059675
v -0.047622 -0.027404 -0.003739
v -0.109463 -0.025402 -0.011846
v 0.054806 -0.028411 -0.065762
v 0.048042 -0.031211 -0.011106
v -0.001579 -0.031271 -0.006024
v 0.038345 -0.029815 0.053317
v 0.024359 -0.014148 0.119107
v -0.015456 -0.011450 0.122899
v -0.019801 0.136038 0.063082
v -0.034485 0.115238 0.173000
v -0.006528 0.110293 0.179604
v 0.080156 0.133331 -0.071666
v 0.006300 0.127630 -0.099431
v 0.004611 0.135156 -0.025373
v -0.054418 0.129005 -0.088941
v -0.117709 0.130324 0.000980
v 0.134767 0.018976 0.074682
v 0.126746 0.063073 0.100836
v 0.115527 0.047804 0.138159
v 0.132379 0.012738 -0.085606
v 0.126711 0.060021 -0.068973
v 0.117518 0.069247 0.016903
v 0.142354 0.089721 -0.070703
v 0.123195 0.121687 -0.059447
v 0.097543 0.124656 0.004790
v -0.070669 0.019064 0.134694
v -0.104357 0.040293 0.128959
v -0.164806 0.045201 0.085359
v 0.066703 0.043993 0.144868
v 0.026008 0.045264 0.136545
v -0.013512 0.015668 0.150502
v 0.052419 0.069141 0.141045
v -0.175990 0.031961 -0.072461
v -0.118573 0.048156 -0.113356
v -0.164648 0.046261 0.045902
v -0.164888 0.042982 -0.006403
v -0.154844 -0.015380 -0.025559
v -0.143432 0.101710 0.074678
v -0.026320 0.091678 -0.171677
v -0.077546 0.049756 -0.140250
v 0.080204 0.085032 -0.152859
v 0.055632 0.044927 -0.149650
v -0.019982 0.033682 -0.153642
v 0.046895 -0.014286 -0.102681
v 0.006726 -0.007271 -0.078352
v -0.018052 0.006095 -0.123390
v -0.063092 -0.022633 0.059233
v -0.010627 -0.027435 0.059596
v -0.067792 0.132970 0.069818
v -0.060334 0.134358 -0.001128
v 0.111593 0.106789 0.098097
v 0.105091 0.106850 0.019751
v -0.094451 0.074362 0.139234
v -0.006687 0.065206 0.160219
v -0.097453 0.092607 -0.143144
v -0.148306 0.106852 0.004533
v -0.075105 0.014906 -0.112301
v -0.086236 -0.021920 -0.053711
v 0.017279 -0.018847 -0.053246
v 0.104202 -0.019049 -0.063787
v 0.104541 -0.015760 -0.014800
v 0.100887 -0.012646 0.047026
v 0.073631 -0.007603 0.106676
v 0.034278 0.137089 0.086369
v 0.061150 0.135234 -0.029078
v 0.077045 0.112219 -0.129970
v 0.010526 0.112682 -0.158507
v -0.017499 0.114717 -0.180116
v 0.101459 0.018349 0.131295
v 0.126890 0.024109 -0.006388
v 0.108127 0.017512 -0.128756
v 0.120036 0.053825 -0.122168
v 0.138583 0.080758 -0.118181
v 0.130375 0.108375 -0.102354
v -0.157134 0.011028 0.077071
v 0.049427 0.015344 0.139946
v -0.134644 -0.007870 -0.080808
v -0.155038 0.003351 0.048764
v 0.015323 0.083925 -0.183223
v 0.051271 0.011469 -0.119838
v 0.089693 -0.011670 -0.107806
vt 0.058285 0.569867
vt 0.082613 0.506661
vt 0.152906 0.498683
vt 0.206316 0.378186
vt 0.155630 0.402329
vt 0.099783 0.387655
vt 0.854473 0.349296
vt 0.794976 0.248970
vt 0.870663 0.174892
vt 0.944083 0.694636
vt 0.905653 0.682602
vt 0.916733 0.604517
vt 0.336809 0.082005
vt 0.369246 0.000842
vt 0.489191 0.000000
vt 0.512673 0.310590
vt 0.481603 0.323059
vt 0.447322 0.276247
vt 0.276846 0.583529
vt 0.215363 0.578539
vt 0.223692 0.502410
vt 0.288525 0.695621
vt 0.226456 0.694739
vt 0.220811 0.635843
vt 0.149628 0.688747
vt 0.060049 0.668982
vt 0.053708 0.620010
vt 0.115533 0.299946
vt 0.042023 0.402498
vt 0.011393 0.383384
vt 0.133867 0.094672
vt 0.226136 0.127633
vt 0.165692 0.199396
vt 0.273683 0.187557
vt 0.335575 0.267841
vt 0.258354 0.321530
vt 0.422948 0.654063
vt 0.520455 0.684734
vt 0.477461 0.726331
vt 0.422729 0.459207
vt 0.529375 0.479105
vt 0.539575 0.580737
vt 0.744126 0.814485
vt 0.672331 0.787452
vt 0.683844 0.711964
vt 0.016271 0.536299
vt 0.006598 0.482318
vt 0.054401 0.402498
vt 0.855242 0.125920
vt 0.818683 0.137473
vt 0.786060 0.070157
vt 0.829103 0.182611
vt 0.720806 0.251159
vt 0.693981 0.268226
vt 0.348488 0.225548
vt 0.431026 0.176751
vt 0.821728 0.494375
vt 0.758928 0.488146
vt 0.747834 0.361119
vt 0.853441 0.628842
vt 0.844101 0.700647
vt 0.766741 0.707183
vt 0.554998 0.057463
vt 0.491069 0.166304
vt 0.661203 0.071636
vt 0.642437 0.169965
vt 0.565426 0.199969
vt 0.619708 0.321108
vt 0.560004 0.310321
vt 0.556413 0.271543
vt 0.137636 0.563411
vt 0.140662 0.629249
vt 0.155028 0.344089
vt 0.206193 0.274302
vt 0.896175 0.282885
vt 0.907061 0.133559
vt 0.622627 0.581780
vt 0.617335 0.678426
vt 0.662917 0.562066
vt 0.672331 0.661064
vt 0.949240 0.587705
vt 0.869574 0.490922
vt 0.791582 0.866218
vt 0.744126 0.821215
vt 0.752056 0.707183
vt 0.999879 0.706758
vt 0.460672 0.063535
vt 0.766456 0.640000
vt 0.672331 0.596657
vt 0.677773 0.459778
vt 0.674914 0.687648
vt 0.485748 0.254952
vt 0.336809 0.833560
vt 0.336920 0.785916
vt 0.384519 0.726331
vt 0.506205 0.350977
vt 0.448079 0.354288
vt 0.559475 0.342029
vt 0.266533 0.646047
vt 0.609960 0.361119
vt 0.278588 0.749240
vt 0.320949 0.673747
vt 0.218381 0.752553
vt 0.143231 0.752483
vt 0.069266 0.722735
vt 0.808347 0.361119
vt 0.116225 0.149680
vt 0.046020 0.277128
vt 0.000000 0.241327
vt 0.056221 0.145884
vt 0.187902 0.035191
vt 0.085645 0.065345
vt 0.273048 0.064123
vt 0.316518 0.068429
vt 0.336809 0.140426
vt 0.340137 0.610197
vt 0.404599 0.713241
vt 0.339988 0.536299
vt 0.439840 0.553878
vt 0.429528 0.400325
vt 0.336833 0.476818
vt 0.517650 0.412671
vt 0.604166 0.482239
vt 0.586459 0.423461
vt 0.646477 0.441109
vt 0.670954 0.491413
vt 0.090851 0.431859
vt 0.000000 0.608449
vt 0.694133 0.143704
vt 0.012308 0.682984
vt 0.019832 0.742597
vt 0.857058 0.070133
vt 0.758736 0.168010
vt 0.408067 0.318081
vt 0.232244 0.440506
vt 0.291247 0.454530
vt 0.270084 0.523882
vt 0.685316 0.388716
vt 0.130148 0.436240
vt 0.834672 0.401576
vt 0.563922 0.000091
vt 0.582099 0.007382
vt 0.608937 0.072162
vt 0.207942 0.000000
vt 0.293309 0.025246
vt 0.579472 0.365264
vt 0.477201 0.361119
vt 0.628288 0.255903
vt 0.693981 0.150197
vt 0.693822 0.237100
vt 0.668575 0.311882
vt 0.731678 0.707183
vt 0.934356 0.187628
vt 0.939564 0.506329
vt 0.791426 0.711743
vt 1.000000 0.606532
vt 0.387737 0.801509
vt 0.324683 0.722893
vt 0.116277 0.014773
vt 0.336809 0.674909
vt 0.353162 0.419686
vt 0.736508 0.092307
vt 0.913859 0.076969
vt 0.867108 0.417288
vt 0.639569 0.392860
vn -0.2335 -0.8198 0.5228
vn -0.3418 -0.6257 0.7012
vn -0.2767 -0.9378 0.2099
vn -0.4240 0.8907 0.1639
vn -0.3392 0.8184 0.4639
vn -0.4606 0.7729 0.4365
vn 0.3785 0.8849 0.2715
vn 0.4712 0.5797 0.6648
vn 0.3206 0.1589 0.9338
vn -0.6469 0.2888 0.7058
vn -0.9007 0.3720 -0.2243
vn -0.4584 0.8627 -0.2136
vn -0.3010 0.8200 -0.4868
vn 0.0107 -0.8069 -0.5905
vn 0.2300 -0.6944 -0.6818
vn -0.2313 -0.5951 -0.7697
vn 0.0168 -0.8465 -0.5321
vn -0.0404 -0.9986 -0.0330
vn -0.1221 -0.9917 -0.0412
vn -0.0122 -0.9719 -0.2350
vn 0.1223 -0.9924 0.0150
vn -0.0710 -0.9930 -0.0940
vn 0.1222 -0.9814 0.1481
vn 0.0805 -0.8494 0.5216
vn -0.0862 -0.8494 0.5207
vn -0.0467 0.9964 0.0705
vn -0.2177 0.4944 0.8415
vn -0.0864 0.1466 0.9854
vn 0.1783 0.9707 -0.1613
vn 0.0073 0.9872 -0.1591
vn -0.0273 0.9981 -0.0548
vn -0.0444 0.9916 -0.1219
vn -0.3447 0.9385 0.0225
vn 0.9216 -0.3604 0.1438
vn 0.9593 0.2226 0.1738
vn 0.6485 -0.0321 0.7605
vn 0.9199 -0.2912 -0.2625
vn 0.9855 -0.1624 0.0501
vn 0.9635 0.2672 -0.0184
vn 0.9934 0.0353 0.1095
vn 0.6381 0.7690 0.0386
vn 0.5967 0.7991 0.0731
vn -0.3263 -0.4738 0.8180
vn -0.4341 -0.3292 0.8386
vn -0.9136 0.0898 0.3966
vn 0.1268 -0.0326 0.9914
vn -0.1891 -0.1869 0.9640
vn -0.0736 -0.1842 0.9801
vn 0.1147 -0.2422 0.9634
vn -0.8990 -0.3405 -0.2756
vn -0.4795 -0.3319 -0.8123
vn -0.9937 0.1071 0.0343
vn -0.9992 0.0001 0.0399
vn -0.7394 -0.6548 -0.1565
vn -0.8247 0.5050 0.2546
vn -0.2181 -0.1818 -0.9588
vn -0.4323 -0.2968 -0.8515
vn 0.4269 0.1494 -0.8919
vn 0.2259 -0.4304 -0.8739
vn -0.1170 -0.5871 -0.8010
vn -0.0769 -0.8426 -0.5330
vn -0.2119 -0.9383 -0.2733
vn -0.1316 -0.8494 -0.5110
vn -0.0855 -0.9798 0.1806
vn -0.0559 -0.9878 0.1455
vn -0.0936 0.9867 0.1331
vn -0.0434 0.9988 -0.0211
vn 0.7524 0.5710 0.3283
vn 0.9405 0.3383 0.0304
vn -0.3647 -0.0202 0.9309
vn -0.0063 -0.5229 0.8524
vn -0.5491 0.0864 -0.8313
vn -0.8189 0.5649 0.1013
vn -0.1091 -0.7750 -0.6225
vn -0.0435 -0.9705 -0.2373
vn -0.2164 -0.9160 -0.3378
vn 0.4830 -0.8673 -0.1207
vn 0.5862 -0.8084 0.0528
vn 0.4533 -0.8785 0.1509
vn 0.3021 -0.8881 0.3465
vn -0.0117 0.9902 0.1393
vn 0.1047 0.9945 -0.0060
vn 0.2874 0.7995 -0.5274
vn 0.2265 0.7973 -0.5594
vn 0.1669 0.3983 -0.9020
vn 0.4500 -0.5911 0.6694
vn 0.9912 -0.1319 -0.0064
vn 0.4217 -0.2477 -0.8723
vn 0.7199 -0.3290 -0.6111
vn 0.8733 -0.0270 -0.4864
vn 0.6960 0.6588 -0.2857
vn -0.7358 -0.5525 0.3915
vn 0.1493 -0.4769 0.8662
vn -0.4672 -0.7146 -0.5206
vn -0.7914 -0.5919 0.1529
vn 0.1508 0.0222 -0.9883
vn 0.0720 -0.5648 -0.8221
vn 0.2467 -0.8123 -0.5285
usemtl Material.001
s 1
f 1/1/1 2/2/2 3/3/3
f 4/4/4 5/5/5 6/6/6
f 7/7/7 8/8/8 9/9/9
f 6/10/6 5/11/5 10/12/10
f 11/13/11 12/14/12 13/15/13
f 14/16/14 15/17/15 16/18/16
f 17/19/17 18/20/18 19/21/19
f 20/22/20 21/23/21 22/24/22
f 23/25/23 24/26/24 25/27/25
f 26/28/26 27/29/27 28/30/28
f 29/31/29 30/32/30 31/33/31
f 32/34/32 12/35/12 33/36/33
f 34/37/34 35/38/35 36/39/36
f 37/40/37 38/41/38 39/42/39
f 40/43/40 41/44/41 42/45/42
f 43/46/43 44/47/44 45/48/45
f 46/49/46 47/50/47 48/51/48
f 49/52/49 28/53/28 27/54/27
f 50/55/50 51/56/51 16/18/16
f 52/57/52 53/58/53 54/59/54
f 55/60/55 4/61/4 33/62/33
f 56/63/56 57/64/57 51/56/51
f 58/65/58 59/66/59 60/67/60
f 61/68/61 62/69/62 63/70/63
f 64/71/64 3/3/3 19/21/19
f 22/24/22 65/72/65 64/71/64
f 25/27/25 1/1/1 64/71/64
f 66/73/66 6/6/6 27/29/27
f 31/33/31 67/74/67 66/73/66
f 67/74/67 33/36/33 4/4/4
f 68/75/68 9/9/9 36/76/36
f 69/77/69 68/78/68 35/38/35
f 42/79/42 7/80/7 68/78/68
f 70/81/70 10/12/10 45/82/45
f 47/83/47 71/84/71 70/85/70
f 27/86/27 6/10/6 70/81/70
f 50/55/50 11/13/11 72/87/72
f 73/88/73 11/89/11 50/90/50
f 33/62/33 12/91/12 11/89/11
f 57/64/57 74/92/74 16/18/16
f 63/70/63 74/92/74 57/64/57
f 62/93/62 14/94/14 74/95/74
f 14/16/14 17/96/17 75/97/75
f 76/98/76 17/96/17 14/16/14
f 76/99/76 22/24/22 18/20/18
f 61/68/61 20/100/20 76/98/76
f 77/101/77 20/22/20 61/102/61
f 77/101/77 78/103/78 21/23/21
f 21/23/21 23/25/23 65/72/65
f 78/103/78 79/104/79 23/25/23
f 79/104/79 80/105/80 24/26/24
f 7/7/7 81/106/81 28/53/28
f 82/107/82 81/108/81 7/109/7
f 82/107/82 31/33/31 26/28/26
f 29/31/29 82/107/82 42/110/42
f 83/111/83 29/31/29 41/112/41
f 84/113/84 30/32/30 29/31/29
f 30/32/30 32/34/32 67/74/67
f 85/114/85 32/34/32 30/32/30
f 85/114/85 13/115/13 12/35/12
f 79/116/79 34/37/34 86/117/86
f 78/118/78 87/119/87 34/37/34
f 87/119/87 39/42/39 35/38/35
f 37/40/37 87/119/87 78/118/78
f 88/120/88 37/40/37 77/121/77
f 88/120/88 89/122/89 38/41/38
f 38/41/38 40/123/40 69/77/69
f 89/122/89 90/124/90 40/123/40
f 90/124/90 91/125/91 41/126/41
f 1/1/1 43/46/43 92/127/92
f 25/27/25 48/128/48 43/46/43
f 48/51/48 47/50/47 44/129/44
f 93/130/93 48/128/48 25/27/25
f 86/131/86 93/130/93 24/26/24
f 36/76/36 46/49/46 93/132/93
f 46/49/46 49/52/49 71/133/71
f 36/76/36 9/9/9 49/52/49
f 9/9/9 8/8/8 28/53/28
f 94/134/94 16/18/16 15/17/15
f 54/135/54 94/136/94 75/137/75
f 53/58/53 50/90/50 94/138/94
f 3/3/3 95/139/95 54/135/54
f 2/2/2 92/127/92 95/139/95
f 45/82/45 52/57/52 95/140/95
f 55/60/55 73/88/73 53/58/53
f 10/12/10 55/60/55 52/57/52
f 10/12/10 5/11/5 4/61/4
f 85/141/85 56/63/56 72/87/72
f 84/142/84 96/143/96 56/63/56
f 96/143/96 60/67/60 57/64/57
f 83/111/83 58/144/58 96/145/96
f 91/125/91 90/124/90 58/146/58
f 90/124/90 89/122/89 59/147/59
f 59/66/59 97/148/97 63/70/63
f 89/149/89 88/150/88 97/148/97
f 88/150/88 98/151/98 61/68/61
f 64/71/64 1/1/1 3/3/3
f 66/73/66 4/4/4 6/6/6
f 68/75/68 7/7/7 9/9/9
f 70/81/70 6/10/6 10/12/10
f 72/87/72 11/13/11 13/15/13
f 74/92/74 14/16/14 16/18/16
f 75/137/75 17/19/17 19/21/19
f 76/99/76 20/22/20 22/24/22
f 65/72/65 23/25/23 25/27/25
f 81/108/81 26/28/26 28/30/28
f 82/107/82 29/31/29 31/33/31
f 67/74/67 32/34/32 33/36/33
f 86/117/86 34/37/34 36/39/36
f 87/119/87 37/40/37 39/42/39
f 69/152/69 40/43/40 42/45/42
f 92/127/92 43/46/43 45/48/45
f 93/132/93 46/49/46 48/51/48
f 71/133/71 49/52/49 27/54/27
f 94/134/94 50/55/50 16/18/16
f 95/140/95 52/57/52 54/59/54
f 73/88/73 55/60/55 33/62/33
f 72/87/72 56/63/56 51/56/51
f 96/143/96 58/65/58 60/67/60
f 97/148/97 61/68/61 63/70/63
f 18/20/18 64/71/64 19/21/19
f 18/20/18 22/24/22 64/71/64
f 65/72/65 25/27/25 64/71/64
f 26/28/26 66/73/66 27/29/27
f 26/28/26 31/33/31 66/73/66
f 66/73/66 67/74/67 4/4/4
f 35/153/35 68/75/68 36/76/36
f 39/42/39 69/77/69 35/38/35
f 69/77/69 42/79/42 68/78/68
f 44/154/44 70/81/70 45/82/45
f 44/155/44 47/83/47 70/85/70
f 71/156/71 27/86/27 70/81/70
f 51/56/51 50/55/50 72/87/72
f 53/58/53 73/88/73 50/90/50
f 73/88/73 33/62/33 11/89/11
f 51/56/51 57/64/57 16/18/16
f 60/67/60 63/70/63 57/64/57
f 63/157/63 62/93/62 74/95/74
f 15/17/15 14/16/14 75/97/75
f 62/69/62 76/98/76 14/16/14
f 17/19/17 76/99/76 18/20/18
f 62/69/62 61/68/61 76/98/76
f 98/158/98 77/101/77 61/102/61
f 20/22/20 77/101/77 21/23/21
f 22/24/22 21/23/21 65/72/65
f 21/23/21 78/103/78 23/25/23
f 23/25/23 79/104/79 24/26/24
f 8/8/8 7/7/7 28/53/28
f 42/110/42 82/107/82 7/109/7
f 81/108/81 82/107/82 26/28/26
f 41/112/41 29/31/29 42/110/42
f 91/159/91 83/111/83 41/112/41
f 83/111/83 84/113/84 29/31/29
f 31/33/31 30/32/30 67/74/67
f 84/113/84 85/114/85 30/32/30
f 32/34/32 85/114/85 12/35/12
f 80/160/80 79/116/79 86/117/86
f 79/116/79 78/118/78 34/37/34
f 34/37/34 87/119/87 35/38/35
f 77/121/77 37/40/37 78/118/78
f 98/161/98 88/120/88 77/121/77
f 37/40/37 88/120/88 38/41/38
f 39/42/39 38/41/38 69/77/69
f 38/41/38 89/122/89 40/123/40
f 40/123/40 90/124/90 41/126/41
f 2/2/2 1/1/1 92/127/92
f 1/1/1 25/27/25 43/46/43
f 43/162/43 48/51/48 44/129/44
f 24/26/24 93/130/93 25/27/25
f 80/105/80 86/131/86 24/26/24
f 86/163/86 36/76/36 93/132/93
f 47/50/47 46/49/46 71/133/71
f 46/49/46 36/76/36 49/52/49
f 49/52/49 9/9/9 28/53/28
f 75/97/75 94/134/94 15/17/15
f 19/21/19 54/135/54 75/137/75
f 54/59/54 53/58/53 94/138/94
f 19/21/19 3/3/3 54/135/54
f 3/3/3 2/2/2 95/139/95
f 92/164/92 45/82/45 95/140/95
f 52/57/52 55/60/55 53/58/53
f 45/82/45 10/12/10 52/57/52
f 55/60/55 10/12/10 4/61/4
f 13/15/13 85/141/85 72/87/72
f 85/141/85 84/142/84 56/63/56
f 56/63/56 96/143/96 57/64/57
f 84/113/84 83/111/83 96/145/96
f 83/165/83 91/125/91 58/146/58
f 58/146/58 90/124/90 59/147/59
f 60/67/60 59/66/59 63/70/63
f 59/66/59 89/149/89 97/148/97
f 97/148/97 88/150/88 61/68/61
