# Blender v2.92.0 OBJ File: ''
# www.blender.org
mtllib saturn.mtl
o Saturn.007
v -0.125416 0.330094 -0.498610
v -0.199141 0.390350 -0.425823
v -0.116487 0.454958 -0.390401
v -0.037670 0.398681 -0.461006
v 0.388755 -0.342736 -0.323987
v 0.357058 -0.271535 -0.415036
v 0.391295 -0.244773 -0.400364
v 0.406209 -0.329093 -0.316508
v -0.046923 0.257105 -0.552236
v 0.042541 0.327036 -0.513896
v -0.409264 0.441056 0.108515
v -0.408193 0.398333 0.220488
v -0.391810 0.454699 0.115995
v 0.405460 -0.400815 -0.220488
v 0.033320 0.174188 -0.584640
v 0.121065 0.242775 -0.547037
v -0.394659 0.466782 -0.007628
v -0.360423 0.493544 0.007045
v 0.112231 0.084529 -0.594577
v 0.194885 0.149137 -0.559155
v -0.364940 0.474522 -0.123477
v -0.315237 0.513374 -0.102176
v 0.186775 -0.008426 -0.581664
v 0.261162 0.049720 -0.549785
v -0.321250 0.463979 -0.234582
v -0.257989 0.513428 -0.207471
v 0.254090 -0.101105 -0.546398
v 0.317351 -0.051655 -0.519288
v -0.265266 0.435557 -0.336671
v -0.190879 0.493703 -0.304792
v 0.311587 -0.189945 -0.490135
v 0.361291 -0.151094 -0.468834
v -0.117895 0.541359 -0.256493
v -0.035391 0.507911 -0.336733
v 0.410057 -0.119250 -0.436562
v 0.424886 -0.222839 -0.378134
v 0.048420 0.454896 -0.404033
v 0.423333 -0.317911 -0.305175
v 0.130318 0.384352 -0.455807
v -0.374686 0.465881 0.127328
v 0.207156 0.298990 -0.490064
v -0.326832 0.515478 0.029274
v 0.275980 0.202090 -0.505488
v -0.266470 0.545217 -0.069904
v 0.334146 0.097376 -0.501486
v -0.195921 0.553956 -0.166396
v 0.379418 -0.011127 -0.478213
v 0.288283 0.340671 -0.415911
v 0.352400 0.241353 -0.435637
v -0.295178 0.531741 0.058207
v -0.220516 0.568828 -0.027900
v 0.402922 0.132712 -0.438622
v -0.137432 0.584007 -0.112934
v 0.437907 0.018924 -0.424751
v -0.049119 0.576695 -0.193629
v 0.456012 -0.095640 -0.394558
v 0.041028 0.547174 -0.266883
v 0.456540 -0.206576 -0.349201
v 0.129547 0.496577 -0.329881
v 0.439470 -0.309621 -0.290425
v 0.213034 0.426850 -0.380201
v -0.358549 0.474172 0.142078
v 0.497389 -0.081169 -0.344436
v 0.485041 -0.196608 -0.314677
v 0.109836 0.571238 -0.183534
v 0.202593 0.522123 -0.241398
v 0.454000 -0.304539 -0.272825
v 0.287511 0.452897 -0.289985
v -0.344019 0.479254 0.159678
v 0.361328 0.366217 -0.327428
v -0.266677 0.541709 0.092732
v 0.421207 0.265417 -0.352288
v -0.179139 0.583298 0.022222
v 0.464847 0.154369 -0.363610
v -0.084769 0.602424 -0.049142
v 0.490571 0.037341 -0.360959
v 0.012806 0.598352 -0.118617
v -0.242424 0.544998 0.131521
v -0.143929 0.588073 0.078535
v 0.479759 0.273357 -0.258643
v 0.517542 0.161515 -0.279332
v -0.039956 0.608502 0.022531
v 0.535384 0.043418 -0.289286
v 0.065501 0.605498 -0.034339
v 0.532599 -0.076394 -0.288123
v 0.168387 0.579178 -0.089889
v 0.509293 -0.193319 -0.275888
v 0.264751 0.530553 -0.141985
v 0.466364 -0.302862 -0.253050
v 0.350887 0.461491 -0.188624
v -0.331655 0.480930 0.179452
v 0.423486 0.374647 -0.228015
v 0.214432 0.570689 0.010453
v 0.313631 0.521541 -0.035463
v 0.528366 -0.196835 -0.234325
v 0.476087 -0.304655 -0.231862
v 0.400725 0.452303 -0.080015
v -0.321932 0.479138 0.200641
v 0.472367 0.365635 -0.121493
v -0.223351 0.541481 0.173084
v 0.525804 0.264869 -0.158302
v -0.116240 0.582968 0.138875
v 0.558981 0.153876 -0.189027
v -0.004714 0.602005 0.099329
v 0.570625 0.036922 -0.212488
v 0.106940 0.597858 0.055966
v 0.560288 -0.081499 -0.227783
v 0.557573 0.240277 -0.055119
v 0.587573 0.131744 -0.096165
v -0.097136 0.568180 0.200923
v 0.019601 0.583183 0.178302
v 0.594940 0.018100 -0.133515
v 0.135531 0.575727 0.148828
v 0.579392 -0.096287 -0.165735
v 0.246201 0.546098 0.113635
v 0.541525 -0.207021 -0.191585
v 0.347357 0.495435 0.074075
v 0.482795 -0.309848 -0.210073
v 0.435112 0.425685 0.031669
v -0.315223 0.473945 0.222430
v 0.506093 0.339529 -0.011955
v -0.210192 0.531295 0.215823
v 0.548265 -0.223486 -0.149311
v 0.486231 -0.318241 -0.188522
v 0.364631 0.453237 0.182420
v 0.452725 0.382661 0.142136
v -0.311787 0.465551 0.243981
v 0.523367 0.297331 0.096390
v -0.203452 0.514831 0.258097
v 0.573845 0.200528 0.046939
v -0.087351 0.544278 0.262295
v 0.602217 0.095971 -0.004315
v 0.032055 0.552760 0.256414
v 0.607394 -0.012323 -0.055403
v 0.150176 0.539953 0.240678
v 0.589177 -0.120190 -0.104363
v 0.262473 0.506349 0.215693
v 0.602352 0.047931 0.082993
v 0.607509 -0.053177 0.018846
v 0.032169 0.511906 0.330663
v 0.150311 0.491913 0.327986
v 0.589267 -0.152289 -0.046025
v 0.262623 0.452970 0.312705
v 0.548327 -0.245596 -0.109128
v 0.364791 0.396570 0.285407
v 0.486263 -0.329513 -0.168037
v 0.452887 0.324884 0.247141
v -0.311756 0.454280 0.264466
v 0.523526 0.240664 0.199377
v -0.203390 0.492720 0.298281
v 0.573995 0.147149 0.143951
v -0.087261 0.512178 0.320633
v -0.315129 0.440563 0.283099
v 0.482889 -0.343230 -0.149404
v 0.435592 0.254574 0.342648
v 0.506564 0.171705 0.293049
v -0.210008 0.465814 0.334830
v 0.558017 0.082191 0.232188
v -0.096869 0.473116 0.373694
v 0.587972 -0.010530 0.162405
v 0.019940 0.462189 0.398197
v 0.595280 -0.102894 0.086380
v 0.135931 0.433453 0.407398
v 0.579659 -0.191351 0.007036
v 0.246645 0.388012 0.400942
v 0.541709 -0.272503 -0.072579
v 0.347828 0.327612 0.379079
v -0.004163 0.405521 0.456420
v 0.107589 0.366818 0.475861
v 0.571177 -0.159562 0.144603
v 0.560721 -0.235875 0.052781
v 0.215153 0.313971 0.477014
v 0.528665 -0.303171 -0.041069
v 0.314397 0.249011 0.459836
v 0.476239 -0.358865 -0.133341
v 0.401506 0.174433 0.424987
v -0.321780 0.424928 0.299162
v 0.473133 0.093105 0.373806
v -0.223053 0.435145 0.366340
v 0.526525 0.008150 0.308260
v -0.115806 0.428592 0.419439
v 0.559630 -0.077165 0.230868
v 0.351937 0.087541 0.490995
v 0.424516 0.007882 0.438546
v -0.331450 0.407976 0.312040
v -0.242022 0.401893 0.391600
v 0.480729 -0.072127 0.369243
v -0.143345 0.380318 0.456111
v 0.518415 -0.149413 0.285751
v -0.039213 0.344079 0.503094
v 0.536127 -0.221004 0.191277
v 0.066374 0.294570 0.530744
v 0.533182 -0.284150 0.089453
v 0.169358 0.233694 0.537997
v 0.509695 -0.336424 -0.015809
v 0.265781 0.163788 0.524576
v 0.466569 -0.375816 -0.120463
v 0.491476 -0.284858 0.224609
v 0.498100 -0.334320 0.115642
v 0.013870 0.219486 0.569938
v 0.111019 0.150264 0.581548
v 0.485531 -0.370981 0.002231
v 0.203848 0.075220 0.570809
v 0.454250 -0.393434 -0.111267
v 0.288791 -0.002762 0.538134
v -0.343769 0.390359 0.321236
v 0.362584 -0.080686 0.484779
v -0.266187 0.367335 0.409639
v 0.422390 -0.155557 0.412794
v -0.178427 0.330148 0.482300
v 0.465911 -0.224497 0.324945
v -0.083864 0.280225 0.536427
v -0.358264 0.372753 0.326398
v -0.294619 0.332800 0.419764
v 0.289715 -0.169197 0.510729
v 0.353749 -0.238932 0.437238
v -0.219704 0.280010 0.497000
v 0.404136 -0.299533 0.346945
v -0.136399 0.216412 0.555136
v 0.438940 -0.348671 0.243319
v -0.047905 0.144449 0.591938
v 0.456823 -0.384457 0.130342
v 0.042377 0.066888 0.605992
v 0.457098 -0.405516 0.012356
v 0.130979 -0.013291 0.596759
v 0.439755 -0.411040 -0.106105
v 0.214495 -0.093007 0.564592
v -0.116578 0.072346 0.595897
v -0.033928 -0.013229 0.610392
v 0.410938 -0.432636 0.132987
v 0.425492 -0.438702 0.014178
v 0.049974 -0.098343 0.601429
v 0.423642 -0.427958 -0.105176
v 0.131903 -0.179726 0.569354
v -0.374377 0.355835 0.327327
v 0.208710 -0.254250 0.515399
v -0.326225 0.299614 0.421587
v 0.277444 -0.319050 0.441638
v -0.265590 0.231832 0.499645
v 0.335463 -0.371637 0.350904
v -0.194801 0.155093 0.558503
v 0.380539 -0.409990 0.246686
v 0.122682 -0.332574 0.498610
v 0.196407 -0.392831 0.425822
v -0.359792 0.269053 0.415036
v -0.314321 0.187464 0.490135
v 0.262532 -0.438038 0.336671
v -0.256824 0.098623 0.546398
v 0.318516 -0.466460 0.234581
v -0.189509 0.005945 0.581664
v 0.362207 -0.477003 0.123477
v -0.114964 -0.087010 0.594577
v 0.391925 -0.469263 0.007627
v -0.036054 -0.176669 0.584640
v 0.406530 -0.443538 -0.108516
v 0.044189 -0.259586 0.552236
v -0.391489 0.340255 0.323987
v 0.312503 -0.515855 0.102176
v 0.357689 -0.496025 -0.007045
v -0.197618 -0.151618 0.559155
v -0.123799 -0.245256 0.547036
v 0.389076 -0.457180 -0.115995
v -0.045275 -0.329517 0.513895
v -0.408942 0.326612 0.316507
v 0.034936 -0.401162 0.461006
v -0.394028 0.242292 0.400364
v 0.113753 -0.457439 0.390400
v -0.364025 0.148612 0.468834
v 0.188145 -0.496184 0.304792
v -0.320084 0.049174 0.519287
v 0.255255 -0.515909 0.207470
v -0.263896 -0.052201 0.549785
v 0.032658 -0.510392 0.336733
v 0.115162 -0.543840 0.256492
v -0.412791 0.116769 0.436561
v -0.382152 0.008646 0.478212
v 0.193188 -0.556437 0.166395
v -0.336880 -0.099857 0.501485
v 0.263737 -0.547698 0.069903
v -0.278714 -0.204571 0.505487
v 0.324098 -0.517959 -0.029275
v -0.209890 -0.301471 0.490063
v 0.371952 -0.468362 -0.127328
v -0.133052 -0.386833 0.455806
v -0.426067 0.315430 0.305175
v -0.051154 -0.457377 0.404033
v -0.427619 0.220358 0.378134
v 0.292444 -0.534222 -0.058208
v 0.355815 -0.476653 -0.142078
v -0.291016 -0.343152 0.415910
v -0.215768 -0.429331 0.380201
v -0.442204 0.307139 0.290425
v -0.132281 -0.499058 0.329880
v -0.459273 0.204095 0.349201
v -0.043762 -0.549655 0.266883
v -0.458746 0.093159 0.394557
v 0.046386 -0.579176 0.193629
v -0.440641 -0.021405 0.424751
v 0.134698 -0.586488 0.112934
v -0.405656 -0.135193 0.438622
v 0.217782 -0.571308 0.027899
v -0.355134 -0.243834 0.435637
v -0.500123 0.078688 0.344436
v -0.493304 -0.039822 0.360958
v -0.015540 -0.600833 0.118616
v 0.082035 -0.604905 0.049141
v -0.467581 -0.156850 0.363610
v 0.176405 -0.585779 -0.022222
v -0.423941 -0.267898 0.352288
v 0.263943 -0.544190 -0.092732
v -0.364062 -0.368698 0.327427
v 0.341285 -0.481735 -0.159678
v -0.290245 -0.455377 0.289984
v -0.456734 0.302058 0.272824
v -0.205326 -0.524604 0.241397
v -0.487774 0.194127 0.314676
v -0.112570 -0.573719 0.183534
v -0.426220 -0.377127 0.228015
v -0.353621 -0.463972 0.188624
v -0.469098 0.300381 0.253050
v 0.328921 -0.483411 -0.179453
v -0.267484 -0.533033 0.141984
v -0.512027 0.190838 0.275887
v -0.171121 -0.581659 0.089889
v -0.535332 0.073913 0.288123
v -0.068234 -0.607979 0.034339
v -0.538118 -0.045899 0.289286
v 0.037222 -0.610982 -0.022531
v -0.520276 -0.163996 0.279332
v 0.141195 -0.590554 -0.078535
v -0.482493 -0.275838 0.258643
v 0.239690 -0.547478 -0.131521
v -0.109674 -0.600339 -0.055967
v 0.001981 -0.604486 -0.099329
v -0.573359 -0.039402 0.212488
v -0.561715 -0.156356 0.189026
v 0.113507 -0.585449 -0.138875
v -0.528537 -0.267349 0.158301
v 0.220618 -0.543962 -0.173084
v -0.475101 -0.368116 0.121492
v 0.319198 -0.481619 -0.200641
v -0.403459 -0.454784 0.080015
v -0.478821 0.302174 0.231861
v -0.316365 -0.524022 0.035462
v -0.531100 0.194354 0.234325
v -0.217166 -0.573170 -0.010453
v -0.563021 0.079018 0.227783
v -0.485529 0.307367 0.210073
v 0.312490 -0.476426 -0.222430
v -0.437846 -0.428166 -0.031669
v -0.350091 -0.497916 -0.074076
v -0.544259 0.204540 0.191585
v -0.248935 -0.548579 -0.113635
v -0.582125 0.093806 0.165735
v -0.138265 -0.578207 -0.148828
v -0.597674 -0.020581 0.133515
v -0.022334 -0.585664 -0.178302
v -0.590306 -0.134225 0.096165
v 0.094402 -0.570661 -0.200923
v -0.560306 -0.242758 0.055119
v 0.207459 -0.533776 -0.215824
v -0.508827 -0.342010 0.011954
v -0.610128 0.009842 0.055403
v -0.604951 -0.098451 0.004315
v -0.034788 -0.555242 -0.256414
v 0.084617 -0.546758 -0.262296
v -0.576578 -0.203009 -0.046940
v 0.200719 -0.517312 -0.258097
v -0.526101 -0.299812 -0.096390
v 0.309054 -0.468032 -0.243981
v -0.455458 -0.385142 -0.142136
v -0.488965 0.315760 0.188522
v -0.367365 -0.455718 -0.182420
v -0.550999 0.221005 0.149311
v -0.265207 -0.508830 -0.215694
v -0.591910 0.117709 0.104362
v -0.152909 -0.542434 -0.240678
v -0.455621 -0.327365 -0.247141
v -0.367524 -0.399051 -0.285407
v -0.488997 0.327032 0.168036
v -0.551061 0.243115 0.109127
v -0.265357 -0.455451 -0.312705
v -0.592001 0.149808 0.046025
v -0.153044 -0.494394 -0.327987
v -0.610242 0.050696 -0.018847
v -0.034903 -0.514387 -0.330664
v -0.605085 -0.050411 -0.082993
v 0.084527 -0.514659 -0.320633
v -0.576728 -0.149630 -0.143951
v 0.200656 -0.495201 -0.298281
v -0.526260 -0.243145 -0.199377
v 0.309022 -0.456761 -0.264466
v -0.022674 -0.464670 -0.398197
v 0.094136 -0.475597 -0.373694
v -0.590706 0.008049 -0.162405
v -0.560750 -0.084672 -0.232188
v 0.207275 -0.468295 -0.334830
v -0.509298 -0.174186 -0.293049
v 0.312396 -0.443044 -0.283099
v -0.438326 -0.257055 -0.342648
v -0.485623 0.340749 0.149404
v -0.350562 -0.330092 -0.379079
v -0.544443 0.270022 0.072578
v -0.249379 -0.390493 -0.400943
v -0.582392 0.188870 -0.007036
v -0.138664 -0.435934 -0.407398
v -0.598013 0.100413 -0.086380
v -0.317131 -0.251492 -0.459837
v -0.217887 -0.316452 -0.477014
v -0.531398 0.300690 0.041068
v -0.563455 0.233394 -0.052782
v -0.110323 -0.369299 -0.475861
v -0.573911 0.157081 -0.144603
v 0.001429 -0.408002 -0.456420
v -0.562364 0.074684 -0.230868
v 0.113073 -0.431073 -0.419440
v -0.529258 -0.010631 -0.308260
v 0.220319 -0.437626 -0.366340
v -0.475866 -0.095585 -0.373806
v 0.319046 -0.427409 -0.299162
v -0.404240 -0.176914 -0.424988
v -0.478973 0.356384 0.133340
v 0.140612 -0.382799 -0.456111
v 0.239288 -0.404374 -0.391600
v -0.483463 0.069646 -0.369243
v -0.427250 -0.010363 -0.438546
v 0.328716 -0.410457 -0.312040
v -0.354671 -0.090022 -0.490995
v -0.469303 0.373335 0.120463
v -0.268514 -0.166269 -0.524576
v -0.512429 0.333942 0.015809
v -0.172092 -0.236175 -0.537997
v -0.535916 0.281669 -0.089453
v -0.069108 -0.297051 -0.530744
v -0.538860 0.218523 -0.191278
v 0.036479 -0.346560 -0.503095
v -0.521149 0.146932 -0.285751
v -0.488264 0.368500 -0.002231
v -0.500834 0.331839 -0.115642
v -0.113752 -0.152745 -0.581548
v -0.016604 -0.221967 -0.569939
v -0.494209 0.282377 -0.224610
v 0.081130 -0.282706 -0.536427
v -0.468645 0.222016 -0.324945
v 0.175694 -0.332629 -0.482300
v -0.425124 0.153076 -0.412794
v 0.263453 -0.369816 -0.409639
v -0.365317 0.078205 -0.484779
v 0.341036 -0.392840 -0.321236
v -0.291525 0.000281 -0.538134
v -0.456983 0.390953 0.111266
v -0.206582 -0.077701 -0.570809
v -0.356483 0.236451 -0.437239
v -0.292448 0.166716 -0.510729
v 0.291885 -0.335281 -0.419765
v 0.355530 -0.375234 -0.326398
v -0.217228 0.090526 -0.564592
v -0.442489 0.408559 0.106105
v -0.133713 0.010810 -0.596759
v -0.459832 0.403035 -0.012356
v -0.045111 -0.069369 -0.605993
v -0.459557 0.381976 -0.130342
v 0.045172 -0.146931 -0.591938
v -0.441674 0.346190 -0.243319
v 0.133666 -0.218893 -0.555136
v -0.406870 0.297052 -0.346945
v 0.216971 -0.282491 -0.497000
v 0.031194 0.010748 -0.610392
v 0.113844 -0.074827 -0.595897
v -0.413671 0.430154 -0.132987
v -0.383272 0.407509 -0.246686
v 0.192067 -0.157574 -0.558503
v -0.338197 0.369156 -0.350904
v 0.262857 -0.234313 -0.499645
v -0.280178 0.316569 -0.441638
v 0.323492 -0.302095 -0.421587
v -0.211443 0.251768 -0.515399
v 0.371643 -0.358316 -0.327327
v -0.134636 0.177245 -0.569354
v -0.426376 0.425477 0.105176
v -0.052708 0.095862 -0.601429
v -0.428225 0.436221 -0.014178
v 0.736909 0.225664 1.033051
v 0.470857 0.149707 0.669174
v 0.384011 0.029659 0.737633
v 0.602383 0.039707 1.139097
v -0.979887 -0.684662 -0.489044
v -0.637448 -0.437968 -0.313438
v -0.613518 -0.346724 -0.446637
v -0.942820 -0.543323 -0.695374
v -0.471640 0.170055 -1.188795
v -0.309341 0.113807 -0.765173
v -0.195850 0.230621 -0.775881
v -0.295839 0.351002 -1.205381
v 0.842589 0.403385 0.887553
v 0.539080 0.264437 0.575245
v -0.979826 -0.799254 -0.263674
v -0.637408 -0.511945 -0.167947
v -0.629843 -0.016991 -1.126278
v -0.411471 -0.006943 -0.724814
v 0.915361 0.566040 0.708192
v 0.586059 0.369442 0.459456
v -0.942638 -0.882694 -0.027926
v -0.613401 -0.565811 -0.015756
v -0.764369 -0.202948 -1.020232
v -0.498317 -0.126990 -0.656355
v 0.952428 0.707379 0.501862
v 0.609989 0.460686 0.326257
v -0.869752 -0.931776 0.209143
v -0.566348 -0.597497 0.137287
v -0.870049 -0.380668 -0.874733
v -0.566540 -0.241720 -0.562426
v 0.952367 0.821971 0.276493
v 0.609949 0.534662 0.180766
v -0.763970 -0.944615 0.438420
v -0.498059 -0.605785 0.285301
v 0.915179 0.905411 0.040744
v 0.585942 0.588528 0.028575
v -0.629357 -0.920715 0.651096
v -0.411157 -0.590356 0.422597
v 0.842293 0.954494 -0.196325
v 0.538889 0.620214 -0.124469
v -0.471086 -0.860997 0.838996
v -0.308983 -0.551804 0.543898
v 0.736511 0.967332 -0.425602
v 0.470600 0.628502 -0.272482
v -0.295238 -0.767755 0.994901
v -0.195462 -0.491610 0.644545
v 0.601898 0.943432 -0.638278
v 0.383698 0.613073 -0.409778
v -0.108573 -0.644571 1.112818
v -0.074957 -0.412087 0.720669
v 0.443626 0.883714 -0.826178
v 0.281523 0.574521 -0.531080
v 0.081737 -0.496181 1.188217
v 0.047901 -0.316291 0.769344
v 0.267779 0.790471 -0.982082
v 0.168002 0.514327 -0.631727
v 0.268379 -0.328286 1.218200
v 0.168390 -0.207904 0.788699
v 0.081113 0.667288 -1.100000
v 0.047497 0.434804 -0.707850
v 0.444180 -0.147339 1.201614
v 0.281881 -0.091091 0.777992
v -0.109198 0.518897 -1.175398
v -0.075361 0.339008 -0.756525
v 0.761634 0.200467 1.020233
v 0.627108 0.014511 1.126279
v 0.408736 0.004463 0.724815
v 0.495582 0.124510 0.656356
v -0.955162 -0.709858 -0.501862
v -0.918095 -0.568519 -0.708192
v -0.588793 -0.371921 -0.459456
v -0.612723 -0.463165 -0.326256
v -0.446915 0.144858 -1.201613
v -0.271115 0.325806 -1.218199
v -0.171125 0.205424 -0.788699
v -0.284616 0.088611 -0.777991
v 0.867314 0.378188 0.874735
v 0.563805 0.239240 0.562427
v -0.955101 -0.824450 -0.276492
v -0.612683 -0.537141 -0.180765
v -0.605118 -0.042188 -1.139096
v -0.386746 -0.032140 -0.737632
v 0.940086 0.540843 0.695374
v 0.610784 0.344245 0.446638
v -0.917913 -0.907891 -0.040744
v -0.588676 -0.591007 -0.028574
v -0.739644 -0.228144 -1.033050
v -0.473592 -0.152187 -0.669173
v 0.977154 0.682183 0.489044
v 0.634713 0.435489 0.313439
v -0.845028 -0.956973 0.196325
v -0.541624 -0.622693 0.124469
v -0.845324 -0.405865 -0.887551
v -0.541815 -0.266917 -0.575244
v 0.977092 0.796775 0.263675
v 0.634674 0.509466 0.167948
v -0.739246 -0.969811 0.425602
v -0.473334 -0.630981 0.272482
v 0.939904 0.880215 0.027925
v 0.610667 0.563332 0.015756
v -0.604632 -0.945912 0.638278
v -0.386433 -0.615553 0.409778
v 0.867018 0.929297 -0.209143
v 0.563614 0.595018 -0.137287
v -0.446361 -0.886193 0.826178
v -0.284258 -0.577000 0.531080
v 0.761236 0.942135 -0.438420
v 0.495325 0.603305 -0.285300
v -0.270514 -0.792951 0.982082
v -0.170737 -0.516806 0.631727
v 0.626623 0.918236 -0.651096
v 0.408423 0.587877 -0.422596
v -0.083848 -0.669768 1.100000
v -0.050232 -0.437284 0.707851
v 0.468351 0.858518 -0.838996
v 0.306248 0.549325 -0.543899
v 0.106463 -0.521377 1.175399
v 0.072625 -0.341488 0.756526
v 0.292503 0.765275 -0.994901
v 0.192727 0.489130 -0.644545
v 0.293104 -0.353482 1.205382
v 0.193115 -0.233101 0.775881
v 0.105838 0.642091 -1.112818
v 0.072222 0.409607 -0.720668
v 0.468905 -0.172535 1.188796
v 0.306606 -0.116287 0.765174
v -0.084473 0.493701 -1.188217
v -0.050636 0.313811 -0.769343
vt 0.835169 0.721800
vt 0.835169 0.759639
vt 0.816250 0.759639
vt 0.816250 0.721800
vt 0.835169 0.419091
vt 0.835169 0.456930
vt 0.816250 0.456930
vt 0.816250 0.419091
vt 0.835169 0.683962
vt 0.816250 0.683962
vt 0.835169 0.948832
vt 0.825709 0.986671
vt 0.816250 0.948832
vt 0.825709 0.381253
vt 0.835169 0.646123
vt 0.816250 0.646123
vt 0.835169 0.910993
vt 0.816250 0.910993
vt 0.835169 0.608285
vt 0.816250 0.608285
vt 0.835169 0.873155
vt 0.816250 0.873155
vt 0.835169 0.570446
vt 0.816250 0.570446
vt 0.835169 0.835316
vt 0.816250 0.835316
vt 0.835169 0.532607
vt 0.816250 0.532607
vt 0.835169 0.797478
vt 0.816250 0.797478
vt 0.835169 0.494769
vt 0.816250 0.494769
vt 0.797330 0.797478
vt 0.797330 0.759639
vt 0.797330 0.494769
vt 0.797330 0.456930
vt 0.797330 0.721800
vt 0.797330 0.419091
vt 0.797330 0.683962
vt 0.806790 0.986671
vt 0.797330 0.948832
vt 0.806790 0.381253
vt 0.797330 0.646123
vt 0.797330 0.910993
vt 0.797330 0.608285
vt 0.797330 0.873155
vt 0.797330 0.570446
vt 0.797330 0.835316
vt 0.797330 0.532607
vt 0.778411 0.646123
vt 0.778411 0.608285
vt 0.778411 0.910993
vt 0.778411 0.873155
vt 0.778411 0.570446
vt 0.778411 0.835316
vt 0.778411 0.532607
vt 0.778411 0.797478
vt 0.778411 0.494769
vt 0.778411 0.759639
vt 0.778411 0.456930
vt 0.778411 0.721800
vt 0.778411 0.419091
vt 0.778411 0.683962
vt 0.787870 0.986671
vt 0.778411 0.948832
vt 0.787870 0.381253
vt 0.759492 0.494769
vt 0.759492 0.456930
vt 0.759492 0.759639
vt 0.759492 0.721800
vt 0.759492 0.419091
vt 0.759492 0.683962
vt 0.768951 0.986671
vt 0.759492 0.948832
vt 0.768951 0.381253
vt 0.759492 0.646123
vt 0.759492 0.910993
vt 0.759492 0.608285
vt 0.759492 0.873155
vt 0.759492 0.570446
vt 0.759492 0.835316
vt 0.759492 0.532607
vt 0.759492 0.797478
vt 0.740572 0.910993
vt 0.740572 0.873155
vt 0.740572 0.608285
vt 0.740572 0.570446
vt 0.740572 0.835316
vt 0.740572 0.532607
vt 0.740572 0.797478
vt 0.740572 0.494769
vt 0.740572 0.759639
vt 0.740572 0.456930
vt 0.740572 0.721800
vt 0.740572 0.419091
vt 0.740572 0.683962
vt 0.750032 0.986671
vt 0.740572 0.948832
vt 0.750032 0.381253
vt 0.740572 0.646123
vt 0.721653 0.759639
vt 0.721653 0.721800
vt 0.721653 0.456930
vt 0.721653 0.419091
vt 0.721653 0.683962
vt 0.731112 0.986671
vt 0.721653 0.948832
vt 0.731112 0.381253
vt 0.721653 0.646123
vt 0.721653 0.910993
vt 0.721653 0.608285
vt 0.721653 0.873155
vt 0.721653 0.570446
vt 0.721653 0.835316
vt 0.721653 0.532607
vt 0.721653 0.797478
vt 0.721653 0.494769
vt 0.702734 0.608285
vt 0.702734 0.570446
vt 0.702734 0.873155
vt 0.702734 0.835316
vt 0.702734 0.532607
vt 0.702734 0.797478
vt 0.702734 0.494769
vt 0.702734 0.759639
vt 0.702734 0.456930
vt 0.702734 0.721800
vt 0.702734 0.419091
vt 0.702734 0.683962
vt 0.712193 0.986671
vt 0.702734 0.948832
vt 0.712193 0.381253
vt 0.702734 0.646123
vt 0.702734 0.910993
vt 0.683814 0.456930
vt 0.683814 0.419091
vt 0.683814 0.721800
vt 0.683814 0.683962
vt 0.693274 0.986671
vt 0.683814 0.948832
vt 0.693274 0.381253
vt 0.683814 0.646123
vt 0.683814 0.910993
vt 0.683814 0.608285
vt 0.683814 0.873155
vt 0.683814 0.570446
vt 0.683814 0.835316
vt 0.683814 0.532607
vt 0.683814 0.797478
vt 0.683814 0.494769
vt 0.683814 0.759639
vt 0.664895 0.570446
vt 0.664895 0.532607
vt 0.664895 0.835316
vt 0.664895 0.797478
vt 0.664895 0.494769
vt 0.664895 0.759639
vt 0.664895 0.456930
vt 0.664895 0.721800
vt 0.664895 0.419091
vt 0.664895 0.683962
vt 0.674354 0.986671
vt 0.664895 0.948832
vt 0.674355 0.381253
vt 0.664895 0.646123
vt 0.664895 0.910993
vt 0.664895 0.608285
vt 0.664895 0.873155
vt 0.655435 0.986671
vt 0.645976 0.948832
vt 0.655435 0.381253
vt 0.645976 0.419091
vt 0.645976 0.683962
vt 0.645976 0.646123
vt 0.645976 0.910993
vt 0.645976 0.608285
vt 0.645976 0.873155
vt 0.645976 0.570446
vt 0.645976 0.835316
vt 0.645976 0.532607
vt 0.645976 0.797478
vt 0.645976 0.494769
vt 0.645976 0.759639
vt 0.645976 0.456930
vt 0.645976 0.721800
vt 0.627056 0.835316
vt 0.627056 0.797477
vt 0.627056 0.532607
vt 0.627056 0.494769
vt 0.627056 0.759639
vt 0.627056 0.456930
vt 0.627056 0.721800
vt 0.627056 0.419091
vt 0.627056 0.683962
vt 0.636516 0.986671
vt 0.627056 0.948832
vt 0.636516 0.381253
vt 0.627056 0.646123
vt 0.627056 0.910993
vt 0.627056 0.608285
vt 0.627056 0.873155
vt 0.627056 0.570446
vt 0.608137 0.683962
vt 0.608137 0.646123
vt 0.608137 0.948832
vt 0.608137 0.910993
vt 0.608137 0.608285
vt 0.608137 0.873155
vt 0.608137 0.570446
vt 0.608137 0.835316
vt 0.608137 0.532607
vt 0.608137 0.797478
vt 0.608137 0.494769
vt 0.608137 0.759639
vt 0.608137 0.456930
vt 0.608137 0.721800
vt 0.608137 0.419091
vt 0.617597 0.986671
vt 0.617597 0.381253
vt 0.589218 0.532607
vt 0.589218 0.494769
vt 0.589218 0.797477
vt 0.589218 0.759639
vt 0.589218 0.456930
vt 0.589218 0.721800
vt 0.589218 0.419091
vt 0.589218 0.683962
vt 0.598677 0.986671
vt 0.589218 0.948832
vt 0.598677 0.381253
vt 0.589218 0.646123
vt 0.589218 0.910993
vt 0.589218 0.608285
vt 0.589218 0.873155
vt 0.589218 0.570446
vt 0.589218 0.835316
vt 0.570299 0.948832
vt 0.570299 0.910993
vt 0.570299 0.646123
vt 0.570299 0.608285
vt 0.570299 0.873155
vt 0.570299 0.570446
vt 0.570299 0.835316
vt 0.570299 0.532607
vt 0.570299 0.797478
vt 0.570299 0.494769
vt 0.570299 0.759639
vt 0.570299 0.456930
vt 0.570299 0.721800
vt 0.570299 0.419091
vt 0.570299 0.683962
vt 0.579758 0.986671
vt 0.579758 0.381253
vt 0.551379 0.797478
vt 0.551379 0.759639
vt 0.551379 0.494769
vt 0.551379 0.456930
vt 0.551379 0.721800
vt 0.551379 0.419091
vt 0.551379 0.683962
vt 0.560839 0.986671
vt 0.551379 0.948832
vt 0.560839 0.381253
vt 0.551379 0.646123
vt 0.551379 0.910993
vt 0.551379 0.608285
vt 0.551379 0.873155
vt 0.551379 0.570446
vt 0.551379 0.835316
vt 0.551379 0.532607
vt 0.532460 0.646123
vt 0.532460 0.608285
vt 0.532460 0.910993
vt 0.532460 0.873155
vt 0.532460 0.570446
vt 0.532460 0.835316
vt 0.532460 0.532607
vt 0.532460 0.797478
vt 0.532460 0.494769
vt 0.532460 0.759639
vt 0.532460 0.456930
vt 0.532460 0.721800
vt 0.532460 0.419091
vt 0.532460 0.683962
vt 0.541920 0.986671
vt 0.532460 0.948832
vt 0.541920 0.381253
vt 0.513541 0.494769
vt 0.513541 0.456930
vt 0.513541 0.759639
vt 0.513541 0.721800
vt 0.513541 0.419091
vt 0.513541 0.683962
vt 0.523000 0.986671
vt 0.513541 0.948832
vt 0.523000 0.381253
vt 0.513541 0.646123
vt 0.513541 0.910993
vt 0.513541 0.608285
vt 0.513541 0.873155
vt 0.513541 0.570446
vt 0.513541 0.835316
vt 0.513541 0.532607
vt 0.513541 0.797478
vt 0.494621 0.608285
vt 0.494621 0.570446
vt 0.494621 0.873155
vt 0.494621 0.835316
vt 0.494621 0.532607
vt 0.494621 0.797478
vt 0.494621 0.494769
vt 0.494621 0.759639
vt 0.494621 0.456930
vt 0.494621 0.721800
vt 0.494621 0.419091
vt 0.494621 0.683962
vt 0.504081 0.986671
vt 0.494621 0.948832
vt 0.504081 0.381253
vt 0.494621 0.646123
vt 0.494621 0.910993
vt 0.475702 0.456930
vt 0.475702 0.419091
vt 0.475702 0.721800
vt 0.475702 0.683962
vt 0.485162 0.986671
vt 0.475702 0.948832
vt 0.485162 0.381253
vt 0.475702 0.646123
vt 0.475702 0.910993
vt 0.475702 0.608285
vt 0.475702 0.873155
vt 0.475702 0.570446
vt 0.475702 0.835316
vt 0.475702 0.532607
vt 0.475702 0.797478
vt 0.475702 0.494769
vt 0.475702 0.759639
vt 0.456783 0.873155
vt 0.456783 0.835316
vt 0.456783 0.570446
vt 0.456783 0.532607
vt 0.456783 0.797478
vt 0.456783 0.494769
vt 0.456783 0.759639
vt 0.456783 0.456930
vt 0.456783 0.721800
vt 0.456783 0.419091
vt 0.456783 0.683962
vt 0.466243 0.986671
vt 0.456783 0.948832
vt 0.466243 0.381253
vt 0.456783 0.646123
vt 0.456783 0.910993
vt 0.456783 0.608285
vt 0.437863 0.721800
vt 0.437863 0.683962
vt 0.447323 0.986671
vt 0.437864 0.948832
vt 0.447323 0.381253
vt 0.437864 0.419091
vt 0.437863 0.646123
vt 0.437864 0.910993
vt 0.437864 0.608285
vt 0.437864 0.873155
vt 0.437863 0.570446
vt 0.437864 0.835316
vt 0.437864 0.532607
vt 0.437863 0.797478
vt 0.437864 0.494769
vt 0.437864 0.759639
vt 0.437864 0.456930
vt 0.418944 0.570446
vt 0.418944 0.532607
vt 0.418944 0.835316
vt 0.418944 0.797478
vt 0.418944 0.494769
vt 0.418944 0.759639
vt 0.418944 0.456930
vt 0.418944 0.721800
vt 0.418944 0.419091
vt 0.418944 0.683962
vt 0.428404 0.986671
vt 0.418944 0.948832
vt 0.428404 0.381253
vt 0.418944 0.646123
vt 0.418944 0.910993
vt 0.418944 0.608285
vt 0.418944 0.873155
vt 0.409485 0.986671
vt 0.400025 0.948832
vt 0.409485 0.381253
vt 0.400025 0.419091
vt 0.400025 0.683962
vt 0.400025 0.646123
vt 0.400025 0.910993
vt 0.400025 0.608285
vt 0.400025 0.873155
vt 0.400025 0.570446
vt 0.400025 0.835316
vt 0.400025 0.532607
vt 0.400025 0.797478
vt 0.400025 0.494769
vt 0.400025 0.759639
vt 0.400025 0.456930
vt 0.400025 0.721800
vt 0.381106 0.835316
vt 0.381106 0.797478
vt 0.381106 0.532607
vt 0.381106 0.494769
vt 0.381106 0.759639
vt 0.381106 0.456930
vt 0.381106 0.721800
vt 0.381106 0.419091
vt 0.381106 0.683962
vt 0.390566 0.986671
vt 0.381106 0.948832
vt 0.390565 0.381253
vt 0.381106 0.646123
vt 0.381106 0.910993
vt 0.381106 0.608285
vt 0.381106 0.873155
vt 0.381106 0.570446
vt 0.986523 0.646123
vt 0.986523 0.683962
vt 0.967604 0.683962
vt 0.967604 0.646123
vt 0.986523 0.910993
vt 0.986523 0.948832
vt 0.967604 0.948832
vt 0.967604 0.910993
vt 0.986523 0.608285
vt 0.967604 0.608285
vt 0.986523 0.873155
vt 0.967604 0.873155
vt 0.986523 0.570446
vt 0.967604 0.570446
vt 0.986523 0.835316
vt 0.967604 0.835316
vt 0.986523 0.532607
vt 0.967604 0.532607
vt 0.986523 0.797478
vt 0.967604 0.797478
vt 0.986523 0.494769
vt 0.967604 0.494769
vt 0.986523 0.759639
vt 0.967604 0.759639
vt 0.986523 0.456930
vt 0.967604 0.456930
vt 0.986523 0.721800
vt 0.967604 0.721800
vt 0.986523 0.419091
vt 0.967604 0.419091
vt 0.977064 0.986671
vt 0.977064 0.381253
vt 0.948685 0.532607
vt 0.948685 0.494769
vt 0.948685 0.797478
vt 0.948685 0.759639
vt 0.948685 0.456930
vt 0.948685 0.721800
vt 0.948685 0.419091
vt 0.948685 0.683962
vt 0.958145 0.986671
vt 0.948685 0.948832
vt 0.958145 0.381253
vt 0.948685 0.646123
vt 0.948685 0.910993
vt 0.948685 0.608285
vt 0.948685 0.873155
vt 0.948685 0.570446
vt 0.948685 0.835316
vt 0.929765 0.646123
vt 0.929765 0.608285
vt 0.929765 0.910993
vt 0.929765 0.873155
vt 0.929765 0.570446
vt 0.929765 0.835316
vt 0.929765 0.532607
vt 0.929765 0.797478
vt 0.929765 0.494769
vt 0.929765 0.759639
vt 0.929765 0.456930
vt 0.929765 0.721800
vt 0.929766 0.419091
vt 0.929765 0.683962
vt 0.939225 0.986671
vt 0.929765 0.948832
vt 0.939225 0.381253
vt 0.910846 0.494769
vt 0.910846 0.456930
vt 0.910846 0.759639
vt 0.910846 0.721800
vt 0.910846 0.419091
vt 0.910846 0.683962
vt 0.920306 0.986671
vt 0.910846 0.948832
vt 0.920306 0.381253
vt 0.910846 0.646123
vt 0.910846 0.910993
vt 0.910846 0.608285
vt 0.910846 0.873155
vt 0.910846 0.570446
vt 0.910846 0.835316
vt 0.910846 0.532607
vt 0.910846 0.797478
vt 0.891927 0.910993
vt 0.891927 0.873155
vt 0.891927 0.608285
vt 0.891927 0.570446
vt 0.891927 0.835316
vt 0.891927 0.532607
vt 0.891927 0.797478
vt 0.891927 0.494769
vt 0.891927 0.759639
vt 0.891927 0.456930
vt 0.891927 0.721800
vt 0.891927 0.419091
vt 0.891927 0.683962
vt 0.901387 0.986671
vt 0.891927 0.948832
vt 0.901387 0.381253
vt 0.891927 0.646123
vt 0.873007 0.759639
vt 0.873007 0.721800
vt 0.873007 0.456930
vt 0.873008 0.419091
vt 0.873007 0.683962
vt 0.882467 0.986671
vt 0.873007 0.948832
vt 0.882467 0.381253
vt 0.873007 0.646123
vt 0.873007 0.910993
vt 0.873007 0.608285
vt 0.873007 0.873155
vt 0.873007 0.570446
vt 0.873007 0.835316
vt 0.873007 0.532607
vt 0.873007 0.797478
vt 0.873007 0.494769
vt 0.854088 0.608285
vt 0.854088 0.570446
vt 0.854088 0.873155
vt 0.854088 0.835316
vt 0.854088 0.532607
vt 0.854088 0.797478
vt 0.854088 0.494769
vt 0.854088 0.759639
vt 0.854088 0.456930
vt 0.854088 0.721800
vt 0.854088 0.419091
vt 0.854088 0.683962
vt 0.863548 0.986671
vt 0.854088 0.948832
vt 0.863548 0.381253
vt 0.854088 0.646123
vt 0.854088 0.910993
vt 0.844629 0.986671
vt 0.844629 0.381253
vt 0.142759 0.048904
vt 0.168486 0.111015
vt 0.146284 0.122883
vt 0.108934 0.066983
vt 0.179461 0.421547
vt 0.192577 0.355610
vt 0.217630 0.358077
vt 0.217630 0.425307
vt 0.355974 0.368003
vt 0.308436 0.320465
vt 0.324406 0.301004
vt 0.380305 0.338355
vt 0.179461 0.037770
vt 0.192577 0.103708
vt 0.142759 0.410414
vt 0.168486 0.348302
vt 0.326326 0.392334
vt 0.288976 0.336435
vt 0.217630 0.034011
vt 0.217630 0.101240
vt 0.108934 0.392334
vt 0.146284 0.336435
vt 0.292501 0.410414
vt 0.266774 0.348302
vt 0.255799 0.037770
vt 0.242683 0.103708
vt 0.079286 0.368003
vt 0.126824 0.320464
vt 0.255799 0.421547
vt 0.242683 0.355610
vt 0.292501 0.048904
vt 0.266774 0.111015
vt 0.054955 0.338355
vt 0.110854 0.301004
vt 0.326326 0.066983
vt 0.288976 0.122883
vt 0.036875 0.304530
vt 0.098987 0.278802
vt 0.355974 0.091315
vt 0.308436 0.138853
vt 0.025741 0.267828
vt 0.091679 0.254712
vt 0.380305 0.120963
vt 0.324406 0.158313
vt 0.021982 0.229659
vt 0.089211 0.229659
vt 0.398385 0.154788
vt 0.336273 0.180515
vt 0.025741 0.191490
vt 0.091679 0.204606
vt 0.409519 0.191490
vt 0.343581 0.204606
vt 0.036875 0.154787
vt 0.098987 0.180515
vt 0.413278 0.229659
vt 0.346049 0.229659
vt 0.054955 0.120963
vt 0.110854 0.158313
vt 0.409519 0.267828
vt 0.343581 0.254712
vt 0.079286 0.091315
vt 0.126824 0.138853
vt 0.398385 0.304530
vt 0.336273 0.278803
vt 0.142759 0.048904
vt 0.108934 0.066983
vt 0.146284 0.122883
vt 0.168486 0.111015
vt 0.179461 0.421547
vt 0.217630 0.425307
vt 0.217630 0.358077
vt 0.192577 0.355610
vt 0.355974 0.368003
vt 0.380305 0.338355
vt 0.324406 0.301004
vt 0.308436 0.320465
vt 0.179461 0.037770
vt 0.192577 0.103708
vt 0.142759 0.410414
vt 0.168486 0.348302
vt 0.326326 0.392334
vt 0.288976 0.336435
vt 0.217630 0.034011
vt 0.217630 0.101240
vt 0.108934 0.392334
vt 0.146284 0.336435
vt 0.292501 0.410414
vt 0.266774 0.348302
vt 0.255799 0.037770
vt 0.242683 0.103708
vt 0.079286 0.368003
vt 0.126824 0.320464
vt 0.255799 0.421547
vt 0.242683 0.355610
vt 0.292501 0.048904
vt 0.266774 0.111015
vt 0.054955 0.338355
vt 0.110854 0.301004
vt 0.326326 0.066983
vt 0.288976 0.122883
vt 0.036875 0.304530
vt 0.098987 0.278802
vt 0.355974 0.091315
vt 0.308436 0.138853
vt 0.025741 0.267828
vt 0.091679 0.254712
vt 0.380305 0.120963
vt 0.324406 0.158313
vt 0.021982 0.229659
vt 0.089211 0.229659
vt 0.398385 0.154788
vt 0.336273 0.180515
vt 0.025741 0.191490
vt 0.091679 0.204606
vt 0.409519 0.191490
vt 0.343581 0.204606
vt 0.036875 0.154787
vt 0.098987 0.180515
vt 0.413278 0.229659
vt 0.346049 0.229659
vt 0.054955 0.120963
vt 0.110854 0.158313
vt 0.409519 0.267828
vt 0.343581 0.254712
vt 0.079286 0.091315
vt 0.126824 0.138853
vt 0.398385 0.304530
vt 0.336273 0.278803
vt 0.860233 0.024838
vt 0.840751 0.024838
vt 0.840751 0.044320
vt 0.860233 0.044320
vt 0.821269 0.024838
vt 0.821269 0.044320
vt 0.801786 0.024838
vt 0.801786 0.044320
vt 0.782304 0.024838
vt 0.782304 0.044320
vt 0.762822 0.024838
vt 0.762822 0.044320
vt 0.743340 0.024838
vt 0.743340 0.044320
vt 0.723858 0.024838
vt 0.723858 0.044320
vt 0.704376 0.024838
vt 0.704376 0.044320
vt 0.684894 0.024838
vt 0.684894 0.044320
vt 0.665412 0.024838
vt 0.665412 0.044320
vt 0.645930 0.024838
vt 0.645930 0.044320
vt 0.626447 0.024838
vt 0.626447 0.044320
vt 0.606965 0.024838
vt 0.606965 0.044320
vt 0.587483 0.024838
vt 0.587483 0.044320
vt 0.568001 0.024838
vt 0.568001 0.044320
vt 0.548519 0.024838
vt 0.548519 0.044320
vt 0.529037 0.024838
vt 0.529037 0.044320
vt 0.509555 0.024838
vt 0.509555 0.044320
vt 0.490073 0.024838
vt 0.490073 0.044320
vt 0.470591 0.024838
vt 0.470591 0.044320
vt 0.451108 0.024838
vt 0.451108 0.044320
vt 0.431626 0.024838
vt 0.431626 0.044320
vt 0.412144 0.024838
vt 0.412144 0.044320
vt 0.392662 0.024838
vt 0.392662 0.044320
vt 0.373180 0.024838
vt 0.373180 0.044320
vt 0.353698 0.024838
vt 0.353698 0.044320
vt 0.977126 0.024838
vt 0.957643 0.024838
vt 0.957643 0.044320
vt 0.977126 0.044320
vt 0.938161 0.024838
vt 0.938161 0.044320
vt 0.918679 0.024838
vt 0.918679 0.044320
vt 0.899197 0.024838
vt 0.899197 0.044320
vt 0.879715 0.024838
vt 0.879715 0.044320
vt 0.906588 0.066283
vt 0.887688 0.066283
vt 0.887688 0.085184
vt 0.906588 0.085184
vt 0.868787 0.066283
vt 0.868787 0.085184
vt 0.849887 0.066283
vt 0.849887 0.085184
vt 0.830987 0.066283
vt 0.830987 0.085184
vt 0.812086 0.066283
vt 0.812086 0.085184
vt 0.793186 0.066283
vt 0.793186 0.085184
vt 0.774285 0.066283
vt 0.774285 0.085184
vt 0.755385 0.066283
vt 0.755385 0.085184
vt 0.736484 0.066283
vt 0.736484 0.085184
vt 0.717584 0.066283
vt 0.717584 0.085184
vt 0.698684 0.066283
vt 0.698684 0.085184
vt 0.679783 0.066283
vt 0.679783 0.085184
vt 0.660883 0.066283
vt 0.660883 0.085184
vt 0.641982 0.066283
vt 0.641982 0.085184
vt 0.623082 0.066283
vt 0.623082 0.085184
vt 0.604181 0.066283
vt 0.604181 0.085184
vt 0.585281 0.066283
vt 0.585281 0.085184
vt 0.566381 0.066283
vt 0.566381 0.085184
vt 0.547480 0.066283
vt 0.547480 0.085184
vt 0.528580 0.066283
vt 0.528580 0.085184
vt 0.509679 0.066283
vt 0.509679 0.085184
vt 0.490779 0.066283
vt 0.490779 0.085184
vt 0.471878 0.066283
vt 0.471878 0.085184
vt 0.452978 0.066283
vt 0.452978 0.085184
vt 0.434078 0.066283
vt 0.434078 0.085184
vt 0.415177 0.066283
vt 0.415177 0.085184
vt 0.396277 0.066283
vt 0.396277 0.085184
vt 0.377376 0.066283
vt 0.377376 0.085184
vt 0.982190 0.066283
vt 0.963289 0.066283
vt 0.963289 0.085184
vt 0.982190 0.085184
vt 0.944389 0.066283
vt 0.944389 0.085184
vt 0.925489 0.066283
vt 0.925489 0.085184
vn -0.2021 0.5413 -0.8162
vn -0.3221 0.6395 -0.6981
vn -0.1868 0.7453 -0.6401
vn -0.0586 0.6535 -0.7547
vn 0.6369 -0.5553 -0.5348
vn 0.5844 -0.4385 -0.6828
vn 0.6412 -0.3941 -0.6584
vn 0.6663 -0.5323 -0.5222
vn -0.0745 0.4226 -0.9033
vn 0.0718 0.5369 -0.8406
vn -0.6668 0.7252 0.1718
vn -0.6654 0.6536 0.3606
vn -0.6374 0.7481 0.1844
vn 0.6654 -0.6536 -0.3606
vn 0.0559 0.2878 -0.9561
vn 0.1995 0.4000 -0.8945
vn -0.6422 0.7663 -0.0180
vn -0.5855 0.8107 0.0064
vn 0.1843 0.1421 -0.9725
vn 0.3196 0.2478 -0.9146
vn -0.5931 0.7781 -0.2068
vn -0.5112 0.8421 -0.1717
vn 0.3057 -0.0091 -0.9521
vn 0.4277 0.0862 -0.8998
vn -0.5214 0.7602 -0.3875
vn -0.4175 0.8415 -0.3430
vn 0.4156 -0.1601 -0.8954
vn 0.5195 -0.0788 -0.8508
vn -0.4299 0.7134 -0.5534
vn -0.3080 0.8087 -0.5011
vn 0.5097 -0.3050 -0.8045
vn 0.5916 -0.2410 -0.7694
vn -0.1883 0.8868 -0.4219
vn -0.0540 0.8320 -0.5522
vn 0.6720 -0.1885 -0.7162
vn 0.6969 -0.3578 -0.6216
vn 0.0823 0.7455 -0.6614
vn 0.6951 -0.5135 -0.5031
vn 0.2154 0.6307 -0.7455
vn -0.6086 0.7670 0.2035
vn 0.3403 0.4920 -0.8013
vn -0.5298 0.8470 0.0432
vn 0.4524 0.3345 -0.8267
vn -0.4308 0.8946 -0.1185
vn 0.5473 0.1643 -0.8206
vn -0.3155 0.9080 -0.2755
vn 0.6215 -0.0123 -0.7834
vn 0.4731 0.5602 -0.6800
vn 0.5775 0.3988 -0.7123
vn -0.4773 0.8740 0.0912
vn -0.3551 0.9335 -0.0493
vn 0.6601 0.2222 -0.7176
vn -0.2195 0.9574 -0.1877
vn 0.7175 0.0371 -0.6955
vn -0.0756 0.9448 -0.3189
vn 0.7477 -0.1496 -0.6470
vn 0.0711 0.8962 -0.4379
vn 0.7494 -0.3308 -0.5736
vn 0.2150 0.8137 -0.5401
vn 0.7223 -0.4995 -0.4783
vn 0.3507 0.7002 -0.6219
vn -0.5814 0.7809 0.2283
vn 0.8159 -0.1258 -0.5644
vn 0.7966 -0.3143 -0.5164
vn 0.1837 0.9356 -0.3014
vn 0.3345 0.8555 -0.3954
vn 0.7468 -0.4909 -0.4486
vn 0.4725 0.7428 -0.4743
vn -0.5569 0.7895 0.2580
vn 0.5926 0.6020 -0.5352
vn -0.4301 0.8905 0.1484
vn 0.6902 0.4382 -0.5759
vn -0.2869 0.9574 0.0333
vn 0.7616 0.2577 -0.5946
vn -0.1330 0.9876 -0.0829
vn 0.8040 0.0674 -0.5907
vn 0.0259 0.9803 -0.1959
vn -0.3898 0.8960 0.2127
vn -0.2289 0.9652 0.1261
vn 0.7860 0.4512 -0.4226
vn 0.8480 0.2695 -0.4565
vn -0.0593 0.9976 0.0348
vn 0.8777 0.0773 -0.4730
vn 0.1123 0.9920 -0.0578
vn 0.8739 -0.1179 -0.4715
vn 0.2796 0.9486 -0.1481
vn 0.8368 -0.3088 -0.4521
vn 0.4362 0.8692 -0.2327
vn 0.7676 -0.4881 -0.4153
vn 0.5762 0.7569 -0.3085
vn -0.5361 0.7923 0.2913
vn 0.6943 0.6158 -0.3726
vn 0.3550 0.9347 0.0162
vn 0.5162 0.8545 -0.0585
vn 0.8684 -0.3146 -0.3832
vn 0.7840 -0.4911 -0.3796
vn 0.6577 0.7418 -0.1309
vn -0.5197 0.7893 0.3270
vn 0.7742 0.6010 -0.1983
vn -0.3582 0.8901 0.2816
vn 0.8614 0.4373 -0.2583
vn -0.1832 0.9568 0.2256
vn 0.9159 0.2569 -0.3084
vn -0.0015 0.9870 0.1610
vn 0.9355 0.0667 -0.3469
vn 0.1803 0.9795 0.0903
vn 0.9196 -0.1263 -0.3721
vn 0.9134 0.3971 -0.0893
vn 0.9628 0.2207 -0.1562
vn -0.1518 0.9325 0.3278
vn 0.0385 0.9560 0.2907
vn 0.9755 0.0357 -0.2171
vn 0.2271 0.9432 0.2425
vn 0.9510 -0.1507 -0.2698
vn 0.4070 0.8945 0.1851
vn 0.8903 -0.3315 -0.3123
vn 0.5713 0.8118 0.1208
vn 0.7953 -0.4999 -0.3429
vn 0.7139 0.6983 0.0518
vn -0.5084 0.7806 0.3637
vn 0.8294 0.5583 -0.0191
vn -0.3364 0.8733 0.3525
vn 0.9014 -0.3588 -0.2422
vn 0.8011 -0.5140 -0.3066
vn 0.5996 0.7428 0.2980
vn 0.7427 0.6279 0.2325
vn -0.5026 0.7664 0.4000
vn 0.8577 0.4893 0.1581
vn -0.3252 0.8460 0.4226
vn 0.9401 0.3320 0.0778
vn -0.1356 0.8931 0.4290
vn 0.9868 0.1620 -0.0056
vn 0.0589 0.9061 0.4190
vn 0.9959 -0.0142 -0.0888
vn 0.2511 0.8845 0.3931
vn 0.9672 -0.1901 -0.1687
vn 0.4336 0.8294 0.3522
vn 0.9870 0.0833 0.1375
vn 0.9961 -0.0813 0.0332
vn 0.0591 0.8390 0.5410
vn 0.2513 0.8058 0.5362
vn 0.9673 -0.2430 -0.0726
vn 0.4339 0.7420 0.5111
vn 0.9015 -0.3955 -0.1756
vn 0.5998 0.6500 0.4665
vn 0.8012 -0.5330 -0.2721
vn 0.7430 0.5334 0.4042
vn -0.5025 0.7474 0.4345
vn 0.8579 0.3966 0.3266
vn -0.3251 0.8093 0.4892
vn 0.9403 0.2446 0.2366
vn -0.1355 0.8402 0.5251
vn -0.5082 0.7243 0.4659
vn 0.7955 -0.5561 -0.2407
vn 0.7147 0.4184 0.5605
vn 0.8302 0.2837 0.4799
vn -0.3361 0.7647 0.5498
vn 0.9142 0.1382 0.3810
vn -0.1513 0.7758 0.6126
vn 0.9634 -0.0126 0.2677
vn 0.0390 0.7573 0.6519
vn 0.9760 -0.1630 0.1441
vn 0.2278 0.7100 0.6664
vn 0.9515 -0.3073 0.0149
vn 0.4077 0.6356 0.6555
vn 0.8906 -0.4401 -0.1150
vn 0.5721 0.5372 0.6198
vn -0.0005 0.6642 0.7476
vn 0.1813 0.6007 0.7786
vn 0.9365 -0.2561 0.2397
vn 0.9203 -0.3807 0.0903
vn 0.3562 0.5144 0.7801
vn 0.8689 -0.4909 -0.0628
vn 0.5174 0.4086 0.7519
vn 0.7843 -0.5825 -0.2136
vn 0.6590 0.2873 0.6951
vn -0.5194 0.6980 0.4930
vn 0.7755 0.1551 0.6120
vn -0.3577 0.7138 0.6020
vn 0.8626 0.0170 0.5056
vn -0.1825 0.7024 0.6880
vn 0.9170 -0.1218 0.3799
vn 0.5779 0.1452 0.8031
vn 0.6960 0.0157 0.7179
vn -0.5357 0.6694 0.5147
vn -0.3892 0.6587 0.6439
vn 0.7876 -0.1144 0.6054
vn -0.2279 0.6229 0.7484
vn 0.8494 -0.2403 0.4699
vn -0.0581 0.5633 0.8242
vn 0.8789 -0.3570 0.3164
vn 0.1138 0.4823 0.8686
vn 0.8749 -0.4603 0.1507
vn 0.2812 0.3830 0.8799
vn 0.8375 -0.5461 -0.0209
vn 0.4379 0.2692 0.8578
vn 0.7680 -0.6110 -0.1919
vn 0.8055 -0.4619 0.3712
vn 0.8171 -0.5430 0.1939
vn 0.0277 0.3592 0.9329
vn 0.1857 0.2464 0.9512
vn 0.7974 -0.6034 0.0090
vn 0.3365 0.1243 0.9334
vn 0.7472 -0.6407 -0.1764
vn 0.4746 -0.0025 0.8802
vn -0.5565 0.6397 0.5302
vn 0.5946 -0.1292 0.7936
vn -0.4292 0.6014 0.6738
vn 0.6921 -0.2510 0.6767
vn -0.2857 0.5402 0.7916
vn 0.7633 -0.3633 0.5342
vn -0.1315 0.4584 0.8790
vn -0.5809 0.6101 0.5389
vn -0.4764 0.5442 0.6906
vn 0.4754 -0.2740 0.8360
vn 0.5797 -0.3875 0.7168
vn -0.3538 0.4576 0.8158
vn 0.6621 -0.4863 0.5702
vn -0.2178 0.3536 0.9097
vn 0.7192 -0.5667 0.4019
vn -0.0736 0.2362 0.9689
vn 0.7490 -0.6256 0.2181
vn 0.0733 0.1099 0.9912
vn 0.7503 -0.6606 0.0258
vn 0.2173 -0.0205 0.9759
vn 0.7228 -0.6704 -0.1677
vn 0.3531 -0.1501 0.9235
vn -0.1862 0.1180 0.9754
vn -0.0516 -0.0213 0.9984
vn 0.6734 -0.7050 0.2225
vn 0.6979 -0.7156 0.0288
vn 0.0848 -0.1597 0.9835
vn 0.6957 -0.6989 -0.1661
vn 0.2180 -0.2919 0.9313
vn -0.6080 0.5816 0.5404
vn 0.3429 -0.4131 0.8436
vn -0.5288 0.4892 0.6936
vn 0.4548 -0.5187 0.7240
vn -0.4294 0.3782 0.8201
vn 0.5495 -0.6045 0.5767
vn -0.3137 0.2528 0.9152
vn 0.6233 -0.6675 0.4074
vn 0.2021 -0.5413 0.8162
vn 0.3221 -0.6395 0.6981
vn -0.5844 0.4385 0.6828
vn -0.5097 0.3050 0.8045
vn 0.4299 -0.7134 0.5534
vn -0.4156 0.1601 0.8954
vn 0.5214 -0.7602 0.3875
vn -0.3057 0.0091 0.9521
vn 0.5931 -0.7781 0.2068
vn -0.1843 -0.1421 0.9725
vn 0.6422 -0.7663 0.0180
vn -0.0559 -0.2878 0.9561
vn 0.6668 -0.7252 -0.1718
vn 0.0745 -0.4226 0.9033
vn -0.6369 0.5553 0.5348
vn 0.5112 -0.8421 0.1717
vn 0.5855 -0.8107 -0.0064
vn -0.3196 -0.2478 0.9146
vn -0.1995 -0.4000 0.8945
vn 0.6374 -0.7481 -0.1844
vn -0.0718 -0.5369 0.8406
vn -0.6663 0.5323 0.5222
vn 0.0586 -0.6535 0.7547
vn -0.6412 0.3941 0.6584
vn 0.1868 -0.7453 0.6401
vn -0.5916 0.2410 0.7694
vn 0.3080 -0.8087 0.5011
vn -0.5195 0.0788 0.8508
vn 0.4175 -0.8415 0.3430
vn -0.4277 -0.0862 0.8998
vn 0.0540 -0.8320 0.5522
vn 0.1883 -0.8868 0.4219
vn -0.6720 0.1885 0.7162
vn -0.6215 0.0123 0.7834
vn 0.3155 -0.9080 0.2755
vn -0.5473 -0.1643 0.8206
vn 0.4308 -0.8946 0.1185
vn -0.4524 -0.3345 0.8267
vn 0.5298 -0.8470 -0.0432
vn -0.3403 -0.4920 0.8013
vn 0.6086 -0.7670 -0.2034
vn -0.2154 -0.6307 0.7455
vn -0.6951 0.5135 0.5031
vn -0.0823 -0.7455 0.6614
vn -0.6969 0.3578 0.6216
vn 0.4773 -0.8740 -0.0912
vn 0.5814 -0.7809 -0.2283
vn -0.4731 -0.5602 0.6800
vn -0.3507 -0.7002 0.6219
vn -0.7223 0.4995 0.4783
vn -0.2150 -0.8137 0.5401
vn -0.7494 0.3308 0.5736
vn -0.0711 -0.8962 0.4379
vn -0.7477 0.1496 0.6470
vn 0.0756 -0.9448 0.3189
vn -0.7175 -0.0371 0.6955
vn 0.2195 -0.9574 0.1877
vn -0.6601 -0.2222 0.7176
vn 0.3551 -0.9335 0.0493
vn -0.5775 -0.3988 0.7123
vn -0.8159 0.1258 0.5644
vn -0.8040 -0.0674 0.5907
vn -0.0259 -0.9803 0.1959
vn 0.1330 -0.9876 0.0829
vn -0.7616 -0.2577 0.5946
vn 0.2869 -0.9574 -0.0333
vn -0.6902 -0.4382 0.5759
vn 0.4300 -0.8905 -0.1484
vn -0.5926 -0.6020 0.5352
vn 0.5569 -0.7895 -0.2580
vn -0.4725 -0.7428 0.4743
vn -0.7468 0.4909 0.4486
vn -0.3345 -0.8555 0.3954
vn -0.7966 0.3143 0.5164
vn -0.1837 -0.9356 0.3014
vn -0.6943 -0.6158 0.3726
vn -0.5762 -0.7569 0.3085
vn -0.7676 0.4881 0.4153
vn 0.5361 -0.7923 -0.2913
vn -0.4362 -0.8692 0.2327
vn -0.8368 0.3088 0.4521
vn -0.2796 -0.9486 0.1481
vn -0.8739 0.1179 0.4715
vn -0.1123 -0.9920 0.0578
vn -0.8777 -0.0773 0.4730
vn 0.0593 -0.9976 -0.0348
vn -0.8480 -0.2695 0.4565
vn 0.2289 -0.9652 -0.1261
vn -0.7860 -0.4512 0.4225
vn 0.3898 -0.8960 -0.2127
vn -0.1803 -0.9795 -0.0903
vn 0.0015 -0.9870 -0.1610
vn -0.9355 -0.0667 0.3469
vn -0.9159 -0.2569 0.3084
vn 0.1832 -0.9568 -0.2256
vn -0.8614 -0.4373 0.2583
vn 0.3582 -0.8901 -0.2816
vn -0.7742 -0.6010 0.1983
vn 0.5197 -0.7893 -0.3270
vn -0.6577 -0.7418 0.1309
vn -0.7840 0.4911 0.3796
vn -0.5161 -0.8545 0.0585
vn -0.8684 0.3146 0.3832
vn -0.3550 -0.9347 -0.0162
vn -0.9196 0.1263 0.3721
vn -0.7953 0.4999 0.3429
vn 0.5084 -0.7806 -0.3637
vn -0.7139 -0.6983 -0.0518
vn -0.5713 -0.8118 -0.1208
vn -0.8903 0.3315 0.3123
vn -0.4070 -0.8945 -0.1851
vn -0.9510 0.1507 0.2698
vn -0.2271 -0.9432 -0.2425
vn -0.9755 -0.0357 0.2171
vn -0.0385 -0.9560 -0.2907
vn -0.9628 -0.2207 0.1562
vn 0.1518 -0.9325 -0.3278
vn -0.9134 -0.3971 0.0893
vn 0.3364 -0.8733 -0.3525
vn -0.8294 -0.5583 0.0191
vn -0.9959 0.0142 0.0888
vn -0.9868 -0.1620 0.0056
vn -0.0589 -0.9061 -0.4190
vn 0.1356 -0.8931 -0.4290
vn -0.9401 -0.3320 -0.0778
vn 0.3252 -0.8460 -0.4226
vn -0.8577 -0.4893 -0.1581
vn 0.5026 -0.7664 -0.4000
vn -0.7427 -0.6279 -0.2325
vn -0.8011 0.5140 0.3066
vn -0.5996 -0.7428 -0.2980
vn -0.9014 0.3588 0.2422
vn -0.4336 -0.8294 -0.3522
vn -0.9672 0.1901 0.1687
vn -0.2511 -0.8845 -0.3931
vn -0.7430 -0.5334 -0.4042
vn -0.5998 -0.6500 -0.4665
vn -0.8012 0.5330 0.2721
vn -0.9015 0.3955 0.1756
vn -0.4339 -0.7420 -0.5111
vn -0.9673 0.2430 0.0726
vn -0.2513 -0.8058 -0.5362
vn -0.9961 0.0813 -0.0332
vn -0.0591 -0.8390 -0.5410
vn -0.9870 -0.0833 -0.1375
vn 0.1355 -0.8402 -0.5251
vn -0.9403 -0.2446 -0.2366
vn 0.3251 -0.8093 -0.4892
vn -0.8579 -0.3966 -0.3266
vn 0.5025 -0.7474 -0.4345
vn -0.0390 -0.7573 -0.6519
vn 0.1513 -0.7758 -0.6126
vn -0.9634 0.0126 -0.2677
vn -0.9142 -0.1382 -0.3811
vn 0.3361 -0.7647 -0.5498
vn -0.8302 -0.2837 -0.4799
vn 0.5082 -0.7243 -0.4659
vn -0.7147 -0.4184 -0.5605
vn -0.7955 0.5561 0.2407
vn -0.5721 -0.5372 -0.6198
vn -0.8906 0.4401 0.1150
vn -0.4077 -0.6356 -0.6555
vn -0.9515 0.3073 -0.0149
vn -0.2278 -0.7100 -0.6664
vn -0.9760 0.1630 -0.1441
vn -0.5174 -0.4086 -0.7519
vn -0.3562 -0.5144 -0.7801
vn -0.8689 0.4909 0.0628
vn -0.9203 0.3807 -0.0903
vn -0.1813 -0.6007 -0.7786
vn -0.9365 0.2561 -0.2397
vn 0.0005 -0.6642 -0.7476
vn -0.9170 0.1218 -0.3799
vn 0.1825 -0.7024 -0.6880
vn -0.8626 -0.0170 -0.5056
vn 0.3577 -0.7138 -0.6020
vn -0.7755 -0.1551 -0.6120
vn 0.5194 -0.6980 -0.4930
vn -0.6590 -0.2873 -0.6951
vn -0.7843 0.5825 0.2136
vn 0.2279 -0.6229 -0.7484
vn 0.3892 -0.6587 -0.6439
vn -0.7876 0.1144 -0.6054
vn -0.6960 -0.0157 -0.7179
vn 0.5357 -0.6694 -0.5147
vn -0.5779 -0.1452 -0.8031
vn -0.7680 0.6110 0.1919
vn -0.4379 -0.2692 -0.8578
vn -0.8375 0.5461 0.0209
vn -0.2812 -0.3830 -0.8799
vn -0.8749 0.4603 -0.1507
vn -0.1138 -0.4823 -0.8686
vn -0.8789 0.3570 -0.3164
vn 0.0581 -0.5633 -0.8242
vn -0.8494 0.2403 -0.4699
vn -0.7974 0.6034 -0.0090
vn -0.8171 0.5430 -0.1939
vn -0.1857 -0.2464 -0.9512
vn -0.0277 -0.3592 -0.9329
vn -0.8055 0.4619 -0.3712
vn 0.1315 -0.4584 -0.8790
vn -0.7633 0.3633 -0.5342
vn 0.2857 -0.5402 -0.7916
vn -0.6921 0.2510 -0.6767
vn 0.4292 -0.6014 -0.6738
vn -0.5946 0.1292 -0.7936
vn 0.5565 -0.6397 -0.5302
vn -0.4746 0.0025 -0.8802
vn -0.7472 0.6407 0.1764
vn -0.3365 -0.1243 -0.9334
vn -0.5797 0.3875 -0.7168
vn -0.4754 0.2740 -0.8360
vn 0.4764 -0.5442 -0.6906
vn 0.5809 -0.6101 -0.5389
vn -0.3531 0.1501 -0.9235
vn -0.7228 0.6704 0.1677
vn -0.2173 0.0205 -0.9759
vn -0.7503 0.6606 -0.0258
vn -0.0733 -0.1099 -0.9912
vn -0.7490 0.6256 -0.2181
vn 0.0736 -0.2362 -0.9689
vn -0.7192 0.5667 -0.4019
vn 0.2178 -0.3536 -0.9097
vn -0.6621 0.4863 -0.5702
vn 0.3538 -0.4576 -0.8158
vn 0.0516 0.0213 -0.9984
vn 0.1862 -0.1180 -0.9754
vn -0.6734 0.7050 -0.2225
vn -0.6233 0.6675 -0.4074
vn 0.3137 -0.2528 -0.9152
vn -0.5495 0.6045 -0.5767
vn 0.4294 -0.3781 -0.8201
vn -0.4548 0.5187 -0.7240
vn 0.5288 -0.4892 -0.6936
vn -0.3429 0.4131 -0.8436
vn 0.6080 -0.5816 -0.5404
vn -0.2180 0.2919 -0.9313
vn -0.6957 0.6989 0.1661
vn -0.0848 0.1597 -0.9835
vn -0.6979 0.7156 -0.0288
vn -0.0278 0.5810 0.8134
vn -0.8784 0.3761 -0.2951
vn -0.8071 0.4746 -0.3513
vn -0.1037 0.4760 0.8733
vn -0.9967 0.0672 -0.0456
vn 0.0316 0.8586 0.5117
vn 0.0120 0.7837 0.6211
vn -0.9758 0.1470 -0.1620
vn -0.7099 0.5496 -0.4405
vn -0.2378 0.4055 0.8826
vn -0.3310 0.3096 0.8914
vn -0.6106 0.6517 -0.4499
vn 0.0319 0.6813 0.7313
vn -0.9344 0.2819 -0.2179
vn -0.9967 0.0025 0.0816
vn 0.0316 0.9193 0.3923
vn -0.7991 0.4440 -0.4052
vn -0.1539 0.5047 0.8495
vn 0.0729 0.7731 0.6301
vn -0.9729 0.1956 -0.1229
vn -0.9757 -0.0445 0.2147
vn 0.0119 0.9635 0.2673
vn -0.8751 0.3391 -0.3454
vn -0.0826 0.6032 0.7933
vn 0.0938 0.8528 0.5137
vn -0.9926 0.1207 -0.0135
vn -0.9345 -0.0722 0.3485
vn -0.0268 0.9896 0.1416
vn -0.9347 0.2388 -0.2633
vn -0.0266 0.6974 0.7161
vn 0.0938 0.9175 0.3865
vn -0.9926 0.0600 0.1059
vn -0.8748 -0.0795 0.4778
vn -0.0828 0.9964 0.0201
vn 0.0728 0.9646 0.2534
vn -0.9728 0.0158 0.2309
vn -0.7989 -0.0660 0.5979
vn -0.1542 0.9837 -0.0926
vn 0.0317 0.9923 0.1196
vn -0.9342 -0.0103 0.3566
vn -0.7095 -0.0323 0.7039
vn -0.2381 0.9520 -0.1922
vn -0.0280 0.9996 -0.0098
vn -0.8781 -0.0171 0.4781
vn -0.6103 0.0203 0.7919
vn -0.3313 0.9026 -0.2748
vn -0.1040 0.9861 -0.1298
vn -0.8068 -0.0044 0.5908
vn -0.5049 0.0898 0.8585
vn -0.4302 0.8373 -0.3373
vn -0.1933 0.9524 -0.2359
vn -0.7229 0.0273 0.6904
vn -0.3975 0.1736 0.9010
vn -0.5311 0.7587 -0.3773
vn -0.2925 0.8997 -0.3238
vn -0.6297 0.0767 0.7730
vn -0.2922 0.2683 0.9179
vn -0.6300 0.6697 -0.3932
vn -0.3979 0.8302 -0.3904
vn -0.5308 0.1420 0.8355
vn -0.1930 0.3705 0.9086
vn -0.7232 0.5738 -0.3844
vn -0.5053 0.7465 -0.4329
vn -0.4299 0.2206 0.8755
vn 0.8751 -0.3391 0.3454
vn 0.7991 -0.4440 0.4052
vn 0.1539 -0.5047 -0.8495
vn 0.0826 -0.6032 -0.7933
vn -0.0938 -0.8528 -0.5137
vn -0.0729 -0.7731 -0.6301
vn 0.9729 -0.1957 0.1229
vn 0.9926 -0.1207 0.0135
vn 0.1930 -0.3705 -0.9086
vn 0.2922 -0.2683 -0.9179
vn 0.6300 -0.6697 0.3932
vn 0.7232 -0.5738 0.3844
vn 0.9347 -0.2388 0.2633
vn 0.0266 -0.6974 -0.7161
vn -0.0938 -0.9175 -0.3865
vn 0.9926 -0.0600 -0.1059
vn 0.1037 -0.4760 -0.8733
vn 0.8071 -0.4746 0.3513
vn 0.9758 -0.1470 0.1620
vn -0.0120 -0.7837 -0.6211
vn -0.0728 -0.9646 -0.2534
vn 0.9728 -0.0158 -0.2309
vn 0.0278 -0.5810 -0.8134
vn 0.8784 -0.3761 0.2951
vn 0.9967 -0.0672 0.0456
vn -0.0316 -0.8586 -0.5117
vn -0.0317 -0.9923 -0.1196
vn 0.9342 0.0103 -0.3566
vn -0.0319 -0.6813 -0.7313
vn 0.9344 -0.2819 0.2179
vn 0.9967 -0.0025 -0.0816
vn -0.0316 -0.9193 -0.3923
vn 0.0280 -0.9996 0.0098
vn 0.8781 0.0171 -0.4781
vn 0.9757 0.0446 -0.2147
vn -0.0119 -0.9635 -0.2673
vn 0.1040 -0.9861 0.1298
vn 0.8068 0.0044 -0.5908
vn 0.9345 0.0723 -0.3484
vn 0.0268 -0.9896 -0.1416
vn 0.1933 -0.9524 0.2359
vn 0.7229 -0.0273 -0.6904
vn 0.8748 0.0795 -0.4778
vn 0.0828 -0.9964 -0.0201
vn 0.2925 -0.8997 0.3238
vn 0.6297 -0.0767 -0.7730
vn 0.7989 0.0660 -0.5979
vn 0.1542 -0.9837 0.0926
vn 0.3979 -0.8302 0.3904
vn 0.5308 -0.1420 -0.8355
vn 0.7095 0.0323 -0.7039
vn 0.2381 -0.9520 0.1922
vn 0.5053 -0.7465 0.4330
vn 0.4299 -0.2206 -0.8755
vn 0.6103 -0.0203 -0.7919
vn 0.3313 -0.9026 0.2748
vn 0.6106 -0.6517 0.4499
vn 0.3310 -0.3096 -0.8914
vn 0.5049 -0.0898 -0.8585
vn 0.4302 -0.8373 0.3374
vn 0.7099 -0.5496 0.4405
vn 0.2378 -0.4055 -0.8826
vn 0.3975 -0.1736 -0.9010
vn 0.5311 -0.7587 0.3773
usemtl Saturn.007
s 1
f 1/1/1 2/2/2 3/3/3 4/4/4
f 5/5/5 6/6/6 7/7/7 8/8/8
f 9/9/9 1/1/1 4/4/4 10/10/10
f 11/11/11 12/12/12 13/13/13
f 14/14/14 5/5/5 8/8/8
f 15/15/15 9/9/9 10/10/10 16/16/16
f 17/17/17 11/11/11 13/13/13 18/18/18
f 19/19/19 15/15/15 16/16/16 20/20/20
f 21/21/21 17/17/17 18/18/18 22/22/22
f 23/23/23 19/19/19 20/20/20 24/24/24
f 25/25/25 21/21/21 22/22/22 26/26/26
f 27/27/27 23/23/23 24/24/24 28/28/28
f 29/29/29 25/25/25 26/26/26 30/30/30
f 31/31/31 27/27/27 28/28/28 32/32/32
f 2/2/2 29/29/29 30/30/30 3/3/3
f 6/6/6 31/31/31 32/32/32 7/7/7
f 3/3/3 30/30/30 33/33/33 34/34/34
f 7/7/7 32/32/32 35/35/35 36/36/36
f 4/4/4 3/3/3 34/34/34 37/37/37
f 8/8/8 7/7/7 36/36/36 38/38/38
f 10/10/10 4/4/4 37/37/37 39/39/39
f 13/13/13 12/40/12 40/41/40
f 14/42/14 8/8/8 38/38/38
f 16/16/16 10/10/10 39/39/39 41/43/41
f 18/18/18 13/13/13 40/41/40 42/44/42
f 20/20/20 16/16/16 41/43/41 43/45/43
f 22/22/22 18/18/18 42/44/42 44/46/44
f 24/24/24 20/20/20 43/45/43 45/47/45
f 26/26/26 22/22/22 44/46/44 46/48/46
f 28/28/28 24/24/24 45/47/45 47/49/47
f 30/30/30 26/26/26 46/48/46 33/33/33
f 32/32/32 28/28/28 47/49/47 35/35/35
f 43/45/43 41/43/41 48/50/48 49/51/49
f 44/46/44 42/44/42 50/52/50 51/53/51
f 45/47/45 43/45/43 49/51/49 52/54/52
f 46/48/46 44/46/44 51/53/51 53/55/53
f 47/49/47 45/47/45 52/54/52 54/56/54
f 33/33/33 46/48/46 53/55/53 55/57/55
f 35/35/35 47/49/47 54/56/54 56/58/56
f 34/34/34 33/33/33 55/57/55 57/59/57
f 36/36/36 35/35/35 56/58/56 58/60/58
f 37/37/37 34/34/34 57/59/57 59/61/59
f 38/38/38 36/36/36 58/60/58 60/62/60
f 39/39/39 37/37/37 59/61/59 61/63/61
f 40/41/40 12/64/12 62/65/62
f 14/66/14 38/38/38 60/62/60
f 41/43/41 39/39/39 61/63/61 48/50/48
f 42/44/42 40/41/40 62/65/62 50/52/50
f 58/60/58 56/58/56 63/67/63 64/68/64
f 59/61/59 57/59/57 65/69/65 66/70/66
f 60/62/60 58/60/58 64/68/64 67/71/67
f 61/63/61 59/61/59 66/70/66 68/72/68
f 62/65/62 12/73/12 69/74/69
f 14/75/14 60/62/60 67/71/67
f 48/50/48 61/63/61 68/72/68 70/76/70
f 50/52/50 62/65/62 69/74/69 71/77/71
f 49/51/49 48/50/48 70/76/70 72/78/72
f 51/53/51 50/52/50 71/77/71 73/79/73
f 52/54/52 49/51/49 72/78/72 74/80/74
f 53/55/53 51/53/51 73/79/73 75/81/75
f 54/56/54 52/54/52 74/80/74 76/82/76
f 55/57/55 53/55/53 75/81/75 77/83/77
f 56/58/56 54/56/54 76/82/76 63/67/63
f 57/59/57 55/57/55 77/83/77 65/69/65
f 73/79/73 71/77/71 78/84/78 79/85/79
f 74/80/74 72/78/72 80/86/80 81/87/81
f 75/81/75 73/79/73 79/85/79 82/88/82
f 76/82/76 74/80/74 81/87/81 83/89/83
f 77/83/77 75/81/75 82/88/82 84/90/84
f 63/67/63 76/82/76 83/89/83 85/91/85
f 65/69/65 77/83/77 84/90/84 86/92/86
f 64/68/64 63/67/63 85/91/85 87/93/87
f 66/70/66 65/69/65 86/92/86 88/94/88
f 67/71/67 64/68/64 87/93/87 89/95/89
f 68/72/68 66/70/66 88/94/88 90/96/90
f 69/74/69 12/97/12 91/98/91
f 14/99/14 67/71/67 89/95/89
f 70/76/70 68/72/68 90/96/90 92/100/92
f 71/77/71 69/74/69 91/98/91 78/84/78
f 72/78/72 70/76/70 92/100/92 80/86/80
f 88/94/88 86/92/86 93/101/93 94/102/94
f 89/95/89 87/93/87 95/103/95 96/104/96
f 90/96/90 88/94/88 94/102/94 97/105/97
f 91/98/91 12/106/12 98/107/98
f 14/108/14 89/95/89 96/104/96
f 92/100/92 90/96/90 97/105/97 99/109/99
f 78/84/78 91/98/91 98/107/98 100/110/100
f 80/86/80 92/100/92 99/109/99 101/111/101
f 79/85/79 78/84/78 100/110/100 102/112/102
f 81/87/81 80/86/80 101/111/101 103/113/103
f 82/88/82 79/85/79 102/112/102 104/114/104
f 83/89/83 81/87/81 103/113/103 105/115/105
f 84/90/84 82/88/82 104/114/104 106/116/106
f 85/91/85 83/89/83 105/115/105 107/117/107
f 86/92/86 84/90/84 106/116/106 93/101/93
f 87/93/87 85/91/85 107/117/107 95/103/95
f 103/113/103 101/111/101 108/118/108 109/119/109
f 104/114/104 102/112/102 110/120/110 111/121/111
f 105/115/105 103/113/103 109/119/109 112/122/112
f 106/116/106 104/114/104 111/121/111 113/123/113
f 107/117/107 105/115/105 112/122/112 114/124/114
f 93/101/93 106/116/106 113/123/113 115/125/115
f 95/103/95 107/117/107 114/124/114 116/126/116
f 94/102/94 93/101/93 115/125/115 117/127/117
f 96/104/96 95/103/95 116/126/116 118/128/118
f 97/105/97 94/102/94 117/127/117 119/129/119
f 98/107/98 12/130/12 120/131/120
f 14/132/14 96/104/96 118/128/118
f 99/109/99 97/105/97 119/129/119 121/133/121
f 100/110/100 98/107/98 120/131/120 122/134/122
f 101/111/101 99/109/99 121/133/121 108/118/108
f 102/112/102 100/110/100 122/134/122 110/120/110
f 118/128/118 116/126/116 123/135/123 124/136/124
f 119/129/119 117/127/117 125/137/125 126/138/126
f 120/131/120 12/139/12 127/140/127
f 14/141/14 118/128/118 124/136/124
f 121/133/121 119/129/119 126/138/126 128/142/128
f 122/134/122 120/131/120 127/140/127 129/143/129
f 108/118/108 121/133/121 128/142/128 130/144/130
f 110/120/110 122/134/122 129/143/129 131/145/131
f 109/119/109 108/118/108 130/144/130 132/146/132
f 111/121/111 110/120/110 131/145/131 133/147/133
f 112/122/112 109/119/109 132/146/132 134/148/134
f 113/123/113 111/121/111 133/147/133 135/149/135
f 114/124/114 112/122/112 134/148/134 136/150/136
f 115/125/115 113/123/113 135/149/135 137/151/137
f 116/126/116 114/124/114 136/150/136 123/135/123
f 117/127/117 115/125/115 137/151/137 125/137/125
f 134/148/134 132/146/132 138/152/138 139/153/139
f 135/149/135 133/147/133 140/154/140 141/155/141
f 136/150/136 134/148/134 139/153/139 142/156/142
f 137/151/137 135/149/135 141/155/141 143/157/143
f 123/135/123 136/150/136 142/156/142 144/158/144
f 125/137/125 137/151/137 143/157/143 145/159/145
f 124/136/124 123/135/123 144/158/144 146/160/146
f 126/138/126 125/137/125 145/159/145 147/161/147
f 127/140/127 12/162/12 148/163/148
f 14/164/14 124/136/124 146/160/146
f 128/142/128 126/138/126 147/161/147 149/165/149
f 129/143/129 127/140/127 148/163/148 150/166/150
f 130/144/130 128/142/128 149/165/149 151/167/151
f 131/145/131 129/143/129 150/166/150 152/168/152
f 132/146/132 130/144/130 151/167/151 138/152/138
f 133/147/133 131/145/131 152/168/152 140/154/140
f 148/163/148 12/169/12 153/170/153
f 14/171/14 146/160/146 154/172/154
f 149/165/149 147/161/147 155/173/155 156/174/156
f 150/166/150 148/163/148 153/170/153 157/175/157
f 151/167/151 149/165/149 156/174/156 158/176/158
f 152/168/152 150/166/150 157/175/157 159/177/159
f 138/152/138 151/167/151 158/176/158 160/178/160
f 140/154/140 152/168/152 159/177/159 161/179/161
f 139/153/139 138/152/138 160/178/160 162/180/162
f 141/155/141 140/154/140 161/179/161 163/181/163
f 142/156/142 139/153/139 162/180/162 164/182/164
f 143/157/143 141/155/141 163/181/163 165/183/165
f 144/158/144 142/156/142 164/182/164 166/184/166
f 145/159/145 143/157/143 165/183/165 167/185/167
f 146/160/146 144/158/144 166/184/166 154/172/154
f 147/161/147 145/159/145 167/185/167 155/173/155
f 163/181/163 161/179/161 168/186/168 169/187/169
f 164/182/164 162/180/162 170/188/170 171/189/171
f 165/183/165 163/181/163 169/187/169 172/190/172
f 166/184/166 164/182/164 171/189/171 173/191/173
f 167/185/167 165/183/165 172/190/172 174/192/174
f 154/172/154 166/184/166 173/191/173 175/193/175
f 155/173/155 167/185/167 174/192/174 176/194/176
f 153/170/153 12/195/12 177/196/177
f 14/197/14 154/172/154 175/193/175
f 156/174/156 155/173/155 176/194/176 178/198/178
f 157/175/157 153/170/153 177/196/177 179/199/179
f 158/176/158 156/174/156 178/198/178 180/200/180
f 159/177/159 157/175/157 179/199/179 181/201/181
f 160/178/160 158/176/158 180/200/180 182/202/182
f 161/179/161 159/177/159 181/201/181 168/186/168
f 162/180/162 160/178/160 182/202/182 170/188/170
f 178/198/178 176/194/176 183/203/183 184/204/184
f 179/199/179 177/196/177 185/205/185 186/206/186
f 180/200/180 178/198/178 184/204/184 187/207/187
f 181/201/181 179/199/179 186/206/186 188/208/188
f 182/202/182 180/200/180 187/207/187 189/209/189
f 168/186/168 181/201/181 188/208/188 190/210/190
f 170/188/170 182/202/182 189/209/189 191/211/191
f 169/187/169 168/186/168 190/210/190 192/212/192
f 171/189/171 170/188/170 191/211/191 193/213/193
f 172/190/172 169/187/169 192/212/192 194/214/194
f 173/191/173 171/189/171 193/213/193 195/215/195
f 174/192/174 172/190/172 194/214/194 196/216/196
f 175/193/175 173/191/173 195/215/195 197/217/197
f 176/194/176 174/192/174 196/216/196 183/203/183
f 177/196/177 12/218/12 185/205/185
f 14/219/14 175/193/175 197/217/197
f 193/213/193 191/211/191 198/220/198 199/221/199
f 194/214/194 192/212/192 200/222/200 201/223/201
f 195/215/195 193/213/193 199/221/199 202/224/202
f 196/216/196 194/214/194 201/223/201 203/225/203
f 197/217/197 195/215/195 202/224/202 204/226/204
f 183/203/183 196/216/196 203/225/203 205/227/205
f 185/205/185 12/228/12 206/229/206
f 14/230/14 197/217/197 204/226/204
f 184/204/184 183/203/183 205/227/205 207/231/207
f 186/206/186 185/205/185 206/229/206 208/232/208
f 187/207/187 184/204/184 207/231/207 209/233/209
f 188/208/188 186/206/186 208/232/208 210/234/210
f 189/209/189 187/207/187 209/233/209 211/235/211
f 190/210/190 188/208/188 210/234/210 212/236/212
f 191/211/191 189/209/189 211/235/211 198/220/198
f 192/212/192 190/210/190 212/236/212 200/222/200
f 208/232/208 206/229/206 213/237/213 214/238/214
f 209/233/209 207/231/207 215/239/215 216/240/216
f 210/234/210 208/232/208 214/238/214 217/241/217
f 211/235/211 209/233/209 216/240/216 218/242/218
f 212/236/212 210/234/210 217/241/217 219/243/219
f 198/220/198 211/235/211 218/242/218 220/244/220
f 200/222/200 212/236/212 219/243/219 221/245/221
f 199/221/199 198/220/198 220/244/220 222/246/222
f 201/223/201 200/222/200 221/245/221 223/247/223
f 202/224/202 199/221/199 222/246/222 224/248/224
f 203/225/203 201/223/201 223/247/223 225/249/225
f 204/226/204 202/224/202 224/248/224 226/250/226
f 205/227/205 203/225/203 225/249/225 227/251/227
f 206/229/206 12/252/12 213/237/213
f 14/253/14 204/226/204 226/250/226
f 207/231/207 205/227/205 227/251/227 215/239/215
f 223/247/223 221/245/221 228/254/228 229/255/229
f 224/248/224 222/246/222 230/256/230 231/257/231
f 225/249/225 223/247/223 229/255/229 232/258/232
f 226/250/226 224/248/224 231/257/231 233/259/233
f 227/251/227 225/249/225 232/258/232 234/260/234
f 213/237/213 12/261/12 235/262/235
f 14/263/14 226/250/226 233/259/233
f 215/239/215 227/251/227 234/260/234 236/264/236
f 214/238/214 213/237/213 235/262/235 237/265/237
f 216/240/216 215/239/215 236/264/236 238/266/238
f 217/241/217 214/238/214 237/265/237 239/267/239
f 218/242/218 216/240/216 238/266/238 240/268/240
f 219/243/219 217/241/217 239/267/239 241/269/241
f 220/244/220 218/242/218 240/268/240 242/270/242
f 221/245/221 219/243/219 241/269/241 228/254/228
f 222/246/222 220/244/220 242/270/242 230/256/230
f 238/266/238 236/264/236 243/271/243 244/272/244
f 239/267/239 237/265/237 245/273/245 246/274/246
f 240/268/240 238/266/238 244/272/244 247/275/247
f 241/269/241 239/267/239 246/274/246 248/276/248
f 242/270/242 240/268/240 247/275/247 249/277/249
f 228/254/228 241/269/241 248/276/248 250/278/250
f 230/256/230 242/270/242 249/277/249 251/279/251
f 229/255/229 228/254/228 250/278/250 252/280/252
f 231/257/231 230/256/230 251/279/251 253/281/253
f 232/258/232 229/255/229 252/280/252 254/282/254
f 233/259/233 231/257/231 253/281/253 255/283/255
f 234/260/234 232/258/232 254/282/254 256/284/256
f 235/262/235 12/285/12 257/286/257
f 14/287/14 233/259/233 255/283/255
f 236/264/236 234/260/234 256/284/256 243/271/243
f 237/265/237 235/262/235 257/286/257 245/273/245
f 253/281/253 251/279/251 258/288/258 259/289/259
f 254/282/254 252/280/252 260/290/260 261/291/261
f 255/283/255 253/281/253 259/289/259 262/292/262
f 256/284/256 254/282/254 261/291/261 263/293/263
f 257/286/257 12/294/12 264/295/264
f 14/296/14 255/283/255 262/292/262
f 243/271/243 256/284/256 263/293/263 265/297/265
f 245/273/245 257/286/257 264/295/264 266/298/266
f 244/272/244 243/271/243 265/297/265 267/299/267
f 246/274/246 245/273/245 266/298/266 268/300/268
f 247/275/247 244/272/244 267/299/267 269/301/269
f 248/276/248 246/274/246 268/300/268 270/302/270
f 249/277/249 247/275/247 269/301/269 271/303/271
f 250/278/250 248/276/248 270/302/270 272/304/272
f 251/279/251 249/277/249 271/303/271 258/288/258
f 252/280/252 250/278/250 272/304/272 260/290/260
f 269/301/269 267/299/267 273/305/273 274/306/274
f 270/302/270 268/300/268 275/307/275 276/308/276
f 271/303/271 269/301/269 274/306/274 277/309/277
f 272/304/272 270/302/270 276/308/276 278/310/278
f 258/288/258 271/303/271 277/309/277 279/311/279
f 260/290/260 272/304/272 278/310/278 280/312/280
f 259/289/259 258/288/258 279/311/279 281/313/281
f 261/291/261 260/290/260 280/312/280 282/314/282
f 262/292/262 259/289/259 281/313/281 283/315/283
f 263/293/263 261/291/261 282/314/282 284/316/284
f 264/295/264 12/317/12 285/318/285
f 14/319/14 262/292/262 283/315/283
f 265/297/265 263/293/263 284/316/284 286/320/286
f 266/298/266 264/295/264 285/318/285 287/321/287
f 267/299/267 265/297/265 286/320/286 273/305/273
f 268/300/268 266/298/266 287/321/287 275/307/275
f 283/315/283 281/313/281 288/322/288 289/323/289
f 284/316/284 282/314/282 290/324/290 291/325/291
f 285/318/285 12/326/12 292/327/292
f 14/328/14 283/315/283 289/323/289
f 286/320/286 284/316/284 291/325/291 293/329/293
f 287/321/287 285/318/285 292/327/292 294/330/294
f 273/305/273 286/320/286 293/329/293 295/331/295
f 275/307/275 287/321/287 294/330/294 296/332/296
f 274/306/274 273/305/273 295/331/295 297/333/297
f 276/308/276 275/307/275 296/332/296 298/334/298
f 277/309/277 274/306/274 297/333/297 299/335/299
f 278/310/278 276/308/276 298/334/298 300/336/300
f 279/311/279 277/309/277 299/335/299 301/337/301
f 280/312/280 278/310/278 300/336/300 302/338/302
f 281/313/281 279/311/279 301/337/301 288/322/288
f 282/314/282 280/312/280 302/338/302 290/324/290
f 298/334/298 296/332/296 303/339/303 304/340/304
f 299/335/299 297/333/297 305/341/305 306/342/306
f 300/336/300 298/334/298 304/340/304 307/343/307
f 301/337/301 299/335/299 306/342/306 308/344/308
f 302/338/302 300/336/300 307/343/307 309/345/309
f 288/322/288 301/337/301 308/344/308 310/346/310
f 290/324/290 302/338/302 309/345/309 311/347/311
f 289/323/289 288/322/288 310/346/310 312/348/312
f 291/325/291 290/324/290 311/347/311 313/349/313
f 292/327/292 12/350/12 314/351/314
f 14/352/14 289/323/289 312/348/312
f 293/329/293 291/325/291 313/349/313 315/353/315
f 294/330/294 292/327/292 314/351/314 316/354/316
f 295/331/295 293/329/293 315/353/315 317/355/317
f 296/332/296 294/330/294 316/354/316 303/339/303
f 297/333/297 295/331/295 317/355/317 305/341/305
f 313/349/313 311/347/311 318/356/318 319/357/319
f 314/351/314 12/358/12 320/359/320
f 14/360/14 312/348/312 321/361/321
f 315/353/315 313/349/313 319/357/319 322/362/322
f 316/354/316 314/351/314 320/359/320 323/363/323
f 317/355/317 315/353/315 322/362/322 324/364/324
f 303/339/303 316/354/316 323/363/323 325/365/325
f 305/341/305 317/355/317 324/364/324 326/366/326
f 304/340/304 303/339/303 325/365/325 327/367/327
f 306/342/306 305/341/305 326/366/326 328/368/328
f 307/343/307 304/340/304 327/367/327 329/369/329
f 308/344/308 306/342/306 328/368/328 330/370/330
f 309/345/309 307/343/307 329/369/329 331/371/331
f 310/346/310 308/344/308 330/370/330 332/372/332
f 311/347/311 309/345/309 331/371/331 318/356/318
f 312/348/312 310/346/310 332/372/332 321/361/321
f 328/368/328 326/366/326 333/373/333 334/374/334
f 329/369/329 327/367/327 335/375/335 336/376/336
f 330/370/330 328/368/328 334/374/334 337/377/337
f 331/371/331 329/369/329 336/376/336 338/378/338
f 332/372/332 330/370/330 337/377/337 339/379/339
f 318/356/318 331/371/331 338/378/338 340/380/340
f 321/361/321 332/372/332 339/379/339 341/381/341
f 319/357/319 318/356/318 340/380/340 342/382/342
f 320/359/320 12/383/12 343/384/343
f 14/385/14 321/361/321 341/381/341
f 322/362/322 319/357/319 342/382/342 344/386/344
f 323/363/323 320/359/320 343/384/343 345/387/345
f 324/364/324 322/362/322 344/386/344 346/388/346
f 325/365/325 323/363/323 345/387/345 347/389/347
f 326/366/326 324/364/324 346/388/346 333/373/333
f 327/367/327 325/365/325 347/389/347 335/375/335
f 343/384/343 12/390/12 348/391/348
f 14/392/14 341/381/341 349/393/349
f 344/386/344 342/382/342 350/394/350 351/395/351
f 345/387/345 343/384/343 348/391/348 352/396/352
f 346/388/346 344/386/344 351/395/351 353/397/353
f 347/389/347 345/387/345 352/396/352 354/398/354
f 333/373/333 346/388/346 353/397/353 355/399/355
f 335/375/335 347/389/347 354/398/354 356/400/356
f 334/374/334 333/373/333 355/399/355 357/401/357
f 336/376/336 335/375/335 356/400/356 358/402/358
f 337/377/337 334/374/334 357/401/357 359/403/359
f 338/378/338 336/376/336 358/402/358 360/404/360
f 339/379/339 337/377/337 359/403/359 361/405/361
f 340/380/340 338/378/338 360/404/360 362/406/362
f 341/381/341 339/379/339 361/405/361 349/393/349
f 342/382/342 340/380/340 362/406/362 350/394/350
f 358/402/358 356/400/356 363/407/363 364/408/364
f 359/403/359 357/401/357 365/409/365 366/410/366
f 360/404/360 358/402/358 364/408/364 367/411/367
f 361/405/361 359/403/359 366/410/366 368/412/368
f 362/406/362 360/404/360 367/411/367 369/413/369
f 349/393/349 361/405/361 368/412/368 370/414/370
f 350/394/350 362/406/362 369/413/369 371/415/371
f 348/391/348 12/416/12 372/417/372
f 14/418/14 349/393/349 370/414/370
f 351/395/351 350/394/350 371/415/371 373/419/373
f 352/396/352 348/391/348 372/417/372 374/420/374
f 353/397/353 351/395/351 373/419/373 375/421/375
f 354/398/354 352/396/352 374/420/374 376/422/376
f 355/399/355 353/397/353 375/421/375 377/423/377
f 356/400/356 354/398/354 376/422/376 363/407/363
f 357/401/357 355/399/355 377/423/377 365/409/365
f 373/424/373 371/425/371 378/426/378 379/427/379
f 374/428/374 372/429/372 380/430/380 381/431/381
f 375/432/375 373/424/373 379/427/379 382/433/382
f 376/434/376 374/428/374 381/431/381 383/435/383
f 377/436/377 375/432/375 382/433/382 384/437/384
f 363/438/363 376/434/376 383/435/383 385/439/385
f 365/440/365 377/436/377 384/437/384 386/441/386
f 364/442/364 363/438/363 385/439/385 387/443/387
f 366/444/366 365/440/365 386/441/386 388/445/388
f 367/446/367 364/442/364 387/443/387 389/447/389
f 368/448/368 366/444/366 388/445/388 390/449/390
f 369/450/369 367/446/367 389/447/389 391/451/391
f 370/452/370 368/448/368 390/449/390 392/453/392
f 371/425/371 369/450/369 391/451/391 378/426/378
f 372/429/372 12/454/12 380/430/380
f 14/455/14 370/452/370 392/453/392
f 388/445/388 386/441/386 393/456/393 394/457/394
f 389/447/389 387/443/387 395/458/395 396/459/396
f 390/449/390 388/445/388 394/457/394 397/460/397
f 391/451/391 389/447/389 396/459/396 398/461/398
f 392/453/392 390/449/390 397/460/397 399/462/399
f 378/426/378 391/451/391 398/461/398 400/463/400
f 380/430/380 12/464/12 401/465/401
f 14/466/14 392/453/392 399/462/399
f 379/427/379 378/426/378 400/463/400 402/467/402
f 381/431/381 380/430/380 401/465/401 403/468/403
f 382/433/382 379/427/379 402/467/402 404/469/404
f 383/435/383 381/431/381 403/468/403 405/470/405
f 384/437/384 382/433/382 404/469/404 406/471/406
f 385/439/385 383/435/383 405/470/405 407/472/407
f 386/441/386 384/437/384 406/471/406 393/456/393
f 387/443/387 385/439/385 407/472/407 395/458/395
f 404/469/404 402/467/402 408/473/408 409/474/409
f 405/470/405 403/468/403 410/475/410 411/476/411
f 406/471/406 404/469/404 409/474/409 412/477/412
f 407/472/407 405/470/405 411/476/411 413/478/413
f 393/456/393 406/471/406 412/477/412 414/479/414
f 395/458/395 407/472/407 413/478/413 415/480/415
f 394/457/394 393/456/393 414/479/414 416/481/416
f 396/459/396 395/458/395 415/480/415 417/482/417
f 397/460/397 394/457/394 416/481/416 418/483/418
f 398/461/398 396/459/396 417/482/417 419/484/419
f 399/462/399 397/460/397 418/483/418 420/485/420
f 400/463/400 398/461/398 419/484/419 421/486/421
f 401/465/401 12/487/12 422/488/422
f 14/489/14 399/462/399 420/485/420
f 402/467/402 400/463/400 421/486/421 408/473/408
f 403/468/403 401/465/401 422/488/422 410/475/410
f 418/483/418 416/481/416 423/490/423 424/491/424
f 419/484/419 417/482/417 425/492/425 426/493/426
f 420/485/420 418/483/418 424/491/424 427/494/427
f 421/486/421 419/484/419 426/493/426 428/495/428
f 422/488/422 12/496/12 429/497/429
f 14/498/14 420/485/420 427/494/427
f 408/473/408 421/486/421 428/495/428 430/499/430
f 410/475/410 422/488/422 429/497/429 431/500/431
f 409/474/409 408/473/408 430/499/430 432/501/432
f 411/476/411 410/475/410 431/500/431 433/502/433
f 412/477/412 409/474/409 432/501/432 434/503/434
f 413/478/413 411/476/411 433/502/433 435/504/435
f 414/479/414 412/477/412 434/503/434 436/505/436
f 415/480/415 413/478/413 435/504/435 437/506/437
f 416/481/416 414/479/414 436/505/436 423/490/423
f 417/482/417 415/480/415 437/506/437 425/492/425
f 433/502/433 431/500/431 438/507/438 439/508/439
f 434/503/434 432/501/432 440/509/440 441/510/441
f 435/504/435 433/502/433 439/508/439 442/511/442
f 436/505/436 434/503/434 441/510/441 443/512/443
f 437/506/437 435/504/435 442/511/442 444/513/444
f 423/490/423 436/505/436 443/512/443 445/514/445
f 425/492/425 437/506/437 444/513/444 446/515/446
f 424/491/424 423/490/423 445/514/445 447/516/447
f 426/493/426 425/492/425 446/515/446 448/517/448
f 427/494/427 424/491/424 447/516/447 449/518/449
f 428/495/428 426/493/426 448/517/448 450/519/450
f 429/497/429 12/520/12 451/521/451
f 14/522/14 427/494/427 449/518/449
f 430/499/430 428/495/428 450/519/450 452/523/452
f 431/500/431 429/497/429 451/521/451 438/507/438
f 432/501/432 430/499/430 452/523/452 440/509/440
f 448/517/448 446/515/446 453/524/453 454/525/454
f 449/518/449 447/516/447 455/526/455 456/527/456
f 450/519/450 448/517/448 454/525/454 457/528/457
f 451/521/451 12/529/12 458/530/458
f 14/531/14 449/518/449 456/527/456
f 452/523/452 450/519/450 457/528/457 459/532/459
f 438/507/438 451/521/451 458/530/458 460/533/460
f 440/509/440 452/523/452 459/532/459 461/534/461
f 439/508/439 438/507/438 460/533/460 462/535/462
f 441/510/441 440/509/440 461/534/461 463/536/463
f 442/511/442 439/508/439 462/535/462 464/537/464
f 443/512/443 441/510/441 463/536/463 465/538/465
f 444/513/444 442/511/442 464/537/464 466/539/466
f 445/514/445 443/512/443 465/538/465 467/540/467
f 446/515/446 444/513/444 466/539/466 453/524/453
f 447/516/447 445/514/445 467/540/467 455/526/455
f 463/536/463 461/534/461 468/541/468 469/542/469
f 464/537/464 462/535/462 470/543/470 471/544/471
f 465/538/465 463/536/463 469/542/469 472/545/472
f 466/539/466 464/537/464 471/544/471 473/546/473
f 467/540/467 465/538/465 472/545/472 474/547/474
f 453/524/453 466/539/466 473/546/473 475/548/475
f 455/526/455 467/540/467 474/547/474 476/549/476
f 454/525/454 453/524/453 475/548/475 477/550/477
f 456/527/456 455/526/455 476/549/476 478/551/478
f 457/528/457 454/525/454 477/550/477 479/552/479
f 458/530/458 12/553/12 480/554/480
f 14/555/14 456/527/456 478/551/478
f 459/532/459 457/528/457 479/552/479 481/556/481
f 460/533/460 458/530/458 480/554/480 482/557/482
f 461/534/461 459/532/459 481/556/481 468/541/468
f 462/535/462 460/533/460 482/557/482 470/543/470
f 478/551/478 476/549/476 6/6/6 5/5/5
f 479/552/479 477/550/477 1/1/1 9/9/9
f 480/554/480 12/558/12 11/11/11
f 14/559/14 478/551/478 5/5/5
f 481/556/481 479/552/479 9/9/9 15/15/15
f 482/557/482 480/554/480 11/11/11 17/17/17
f 468/541/468 481/556/481 15/15/15 19/19/19
f 470/543/470 482/557/482 17/17/17 21/21/21
f 469/542/469 468/541/468 19/19/19 23/23/23
f 471/544/471 470/543/470 21/21/21 25/25/25
f 472/545/472 469/542/469 23/23/23 27/27/27
f 473/546/473 471/544/471 25/25/25 29/29/29
f 474/547/474 472/545/472 27/27/27 31/31/31
f 475/548/475 473/546/473 29/29/29 2/2/2
f 476/549/476 474/547/474 31/31/31 6/6/6
f 477/550/477 475/548/475 2/2/2 1/1/1
f 483/560/483 484/561/484 485/562/485 486/563/486
f 487/564/487 488/565/488 489/566/489 490/567/490
f 491/568/491 492/569/492 493/570/493 494/571/494
f 495/572/495 496/573/496 484/561/484 483/560/483
f 497/574/497 498/575/498 488/565/488 487/564/487
f 499/576/499 500/577/500 492/569/492 491/568/491
f 501/578/501 502/579/502 496/573/496 495/572/495
f 503/580/503 504/581/504 498/575/498 497/574/497
f 505/582/505 506/583/506 500/577/500 499/576/499
f 507/584/507 508/585/508 502/579/502 501/578/501
f 509/586/509 510/587/510 504/581/504 503/580/503
f 511/588/511 512/589/512 506/583/506 505/582/505
f 513/590/513 514/591/514 508/585/508 507/584/507
f 515/592/515 516/593/516 510/587/510 509/586/509
f 490/567/490 489/566/489 512/589/512 511/588/511
f 517/594/517 518/595/518 514/591/514 513/590/513
f 519/596/519 520/597/520 516/593/516 515/592/515
f 521/598/521 522/599/522 518/595/518 517/594/517
f 523/600/523 524/601/524 520/597/520 519/596/519
f 525/602/525 526/603/526 522/599/522 521/598/521
f 527/604/527 528/605/528 524/601/524 523/600/523
f 529/606/529 530/607/530 526/603/526 525/602/525
f 531/608/531 532/609/532 528/605/528 527/604/527
f 533/610/533 534/611/534 530/607/530 529/606/529
f 535/612/535 536/613/536 532/609/532 531/608/531
f 537/614/537 538/615/538 534/611/534 533/610/533
f 539/616/539 540/617/540 536/613/536 535/612/535
f 541/618/541 542/619/542 538/615/538 537/614/537
f 543/620/543 544/621/544 540/617/540 539/616/539
f 545/622/545 546/623/546 542/619/542 541/618/541
f 486/563/486 485/562/485 544/621/544 543/620/543
f 494/571/494 493/570/493 546/623/546 545/622/545
f 547/624/547 548/625/548 549/626/549 550/627/550
f 551/628/551 552/629/552 553/630/553 554/631/554
f 555/632/555 556/633/556 557/634/557 558/635/558
f 559/636/559 547/624/547 550/627/550 560/637/560
f 561/638/561 551/628/551 554/631/554 562/639/562
f 563/640/563 555/632/555 558/635/558 564/641/564
f 565/642/565 559/636/559 560/637/560 566/643/566
f 567/644/567 561/638/561 562/639/562 568/645/568
f 569/646/569 563/640/563 564/641/564 570/647/570
f 571/648/571 565/642/565 566/643/566 572/649/572
f 573/650/573 567/644/567 568/645/568 574/651/574
f 575/652/575 569/646/569 570/647/570 576/653/576
f 577/654/577 571/648/571 572/649/572 578/655/578
f 579/656/579 573/650/573 574/651/574 580/657/580
f 552/629/552 575/652/575 576/653/576 553/630/553
f 581/658/581 577/654/577 578/655/578 582/659/582
f 583/660/583 579/656/579 580/657/580 584/661/584
f 585/662/585 581/658/581 582/659/582 586/663/586
f 587/664/587 583/660/583 584/661/584 588/665/588
f 589/666/589 585/662/585 586/663/586 590/667/590
f 591/668/591 587/664/587 588/665/588 592/669/592
f 593/670/593 589/666/589 590/667/590 594/671/594
f 595/672/595 591/668/591 592/669/592 596/673/596
f 597/674/597 593/670/593 594/671/594 598/675/598
f 599/676/599 595/672/595 596/673/596 600/677/600
f 601/678/601 597/674/597 598/675/598 602/679/602
f 603/680/603 599/676/599 600/677/600 604/681/604
f 605/682/605 601/678/601 602/679/602 606/683/606
f 607/684/607 603/680/603 604/681/604 608/685/608
f 609/686/609 605/682/605 606/683/606 610/687/610
f 548/625/548 607/684/607 608/685/608 549/626/549
f 556/633/556 609/686/609 610/687/610 557/634/557
f 551/688/551 561/689/561 497/690/497 487/691/487
f 561/689/561 567/692/567 503/693/503 497/690/497
f 567/692/567 573/694/573 509/695/509 503/693/503
f 573/694/573 579/696/579 515/697/515 509/695/509
f 579/696/579 583/698/583 519/699/519 515/697/515
f 583/698/583 587/700/587 523/701/523 519/699/519
f 587/700/587 591/702/591 527/703/527 523/701/523
f 591/702/591 595/704/595 531/705/531 527/703/527
f 595/704/595 599/706/599 535/707/535 531/705/531
f 599/706/599 603/708/603 539/709/539 535/707/535
f 603/708/603 607/710/607 543/711/543 539/709/539
f 607/710/607 548/712/548 486/713/486 543/711/543
f 548/712/548 547/714/547 483/715/483 486/713/486
f 547/714/547 559/716/559 495/717/495 483/715/483
f 559/716/559 565/718/565 501/719/501 495/717/495
f 565/718/565 571/720/571 507/721/507 501/719/501
f 571/720/571 577/722/577 513/723/513 507/721/507
f 577/722/577 581/724/581 517/725/517 513/723/513
f 581/724/581 585/726/585 521/727/521 517/725/517
f 585/726/585 589/728/589 525/729/525 521/727/521
f 589/728/589 593/730/593 529/731/529 525/729/525
f 593/730/593 597/732/597 533/733/533 529/731/529
f 597/732/597 601/734/601 537/735/537 533/733/533
f 601/734/601 605/736/605 541/737/541 537/735/537
f 605/736/605 609/738/609 545/739/545 541/737/541
f 609/738/609 556/740/556 494/741/494 545/739/545
f 556/742/556 555/743/555 491/744/491 494/745/494
f 555/743/555 563/746/563 499/747/499 491/744/491
f 563/746/563 569/748/569 505/749/505 499/747/499
f 569/748/569 575/750/575 511/751/511 505/749/505
f 575/750/575 552/752/552 490/753/490 511/751/511
f 552/752/552 551/688/551 487/691/487 490/753/490
f 553/754/553 576/755/576 512/756/512 489/757/489
f 576/755/576 570/758/570 506/759/506 512/756/512
f 570/758/570 564/760/564 500/761/500 506/759/506
f 564/760/564 558/762/558 492/763/492 500/761/500
f 558/762/558 557/764/557 493/765/493 492/763/492
f 557/764/557 610/766/610 546/767/546 493/765/493
f 610/766/610 606/768/606 542/769/542 546/767/546
f 606/768/606 602/770/602 538/771/538 542/769/542
f 602/770/602 598/772/598 534/773/534 538/771/538
f 598/772/598 594/774/594 530/775/530 534/773/534
f 594/774/594 590/776/590 526/777/526 530/775/530
f 590/776/590 586/778/586 522/779/522 526/777/526
f 586/778/586 582/780/582 518/781/518 522/779/522
f 582/780/582 578/782/578 514/783/514 518/781/518
f 578/782/578 572/784/572 508/785/508 514/783/514
f 572/784/572 566/786/566 502/787/502 508/785/508
f 566/786/566 560/788/560 496/789/496 502/787/502
f 560/788/560 550/790/550 484/791/484 496/789/496
f 550/790/550 549/792/549 485/793/485 484/791/484
f 549/792/549 608/794/608 544/795/544 485/793/485
f 608/794/608 604/796/604 540/797/540 544/795/544
f 604/796/604 600/798/600 536/799/536 540/797/540
f 600/798/600 596/800/596 532/801/532 536/799/536
f 596/800/596 592/802/592 528/803/528 532/801/532
f 592/802/592 588/804/588 524/805/524 528/803/528
f 588/804/588 584/806/584 520/807/520 524/805/524
f 584/806/584 580/808/580 516/809/516 520/807/520
f 580/808/580 574/810/574 510/811/510 516/809/516
f 574/812/574 568/813/568 504/814/504 510/815/510
f 568/813/568 562/816/562 498/817/498 504/814/504
f 562/816/562 554/818/554 488/819/488 498/817/498
f 554/818/554 553/754/553 489/757/489 488/819/488
